<svg preserveAspectRatio="none" width="100%" height="100%" overflow="visible" style="display: block;" viewBox="0 0 1277 859.431" fill="none" xmlns="http://www.w3.org/2000/svg">
<g id="Group" opacity="0.13">
<path id="Vector" d="M1277 19.7792C1277 19.7792 1277 18.4167 1276.7 18.114C1276.55 17.8112 1276.09 17.357 1275.79 17.0542C1275.64 16.7515 1275.03 16.4487 1274.73 16.2973C1274.73 16.2973 1274.58 16.2973 1274.58 16.1459H1274.27C1274.27 16.1459 1274.12 15.9945 1273.97 15.9945C1134.39 -13.2235 989.816 0.250098 852.506 34.9181C781.808 52.9333 712.472 76.0958 644.801 103.194C581.521 128.325 519.906 156.483 461.167 190.848C402.731 224.911 347.02 263.666 294.337 306.206C245.135 346.173 200.173 389.773 155.059 434.13C125.993 462.742 95.5634 490.144 65.2857 517.545C50.9038 530.867 36.2191 544.038 21.6858 557.057C15.3275 562.659 5.33583 568.866 0.794176 575.981C-5.10998 585.064 23.6539 598.689 29.4066 602.625C58.3218 621.7 87.2371 640.775 116.304 659.547C173.226 696.789 229.997 734.636 288.13 770.213C332.335 797.16 383.807 815.326 433.16 829.405C500.982 848.632 571.378 857.866 641.773 859.229C773.784 861.651 923.205 843.333 1021.91 746.293C1059.76 708.9 1090.49 659.396 1096.39 605.502C1101.69 557.209 1093.67 506.494 1079.74 460.32C1067.78 420.808 1049.92 377.965 1016.01 352.38C1002.23 341.783 987.999 331.943 973.617 322.254C970.438 323.768 967.41 325.433 964.383 327.249C964.534 327.249 964.685 327.401 964.837 327.552C995.569 348.141 1025.69 366.762 1044.62 399.613C1069.45 442.759 1082.16 493.928 1087.01 542.978C1089.28 565.535 1090.04 588.849 1086.7 611.255C1082.77 637.445 1072.02 662.878 1058.55 685.435C987.848 803.367 845.543 840.911 717.165 848.632C577.131 856.807 435.279 835.158 309.324 771.272C290.703 761.886 273.142 749.926 255.43 738.724C224.849 719.043 194.42 699.514 163.991 679.682C112.822 646.377 61.1982 613.979 11.24 579.312C11.24 579.16 11.3914 579.16 11.3914 579.16C21.2316 570.228 31.0719 561.448 40.7608 552.516C71.7954 524.357 102.83 496.351 133.411 467.587C168.381 435.038 201.081 400.522 236.203 368.276C284.799 324.222 336.271 283.195 390.468 246.408C503.253 169.654 628.149 114.094 757.737 72.1597C890.202 28.7112 1030.54 1.15843 1170.57 10.9987C1203.27 13.2695 1235.67 17.5084 1267.61 24.1695C1265.8 67.4666 1263.38 110.915 1248.69 152.093C1241.42 171.925 1233.7 193.876 1220.08 210.226C1206.91 225.516 1189.19 236.87 1170.73 244.591C1164.97 247.013 1159.22 249.284 1153.32 251.101C1145.14 253.826 1136.81 256.097 1128.49 257.762C1100.63 263.515 1071.11 263.818 1044.16 257.459C1024.79 252.766 1007.53 243.38 991.784 231.875C987.545 228.695 983.458 225.516 979.521 222.186C964.685 210.226 951.06 196.904 937.284 184.641C907.006 157.391 872.338 131.353 829.647 130.596C782.868 129.839 738.814 156.786 711.715 193.725C700.815 208.561 691.883 224.911 685.222 242.32C684.465 243.986 683.708 245.802 683.254 247.619C682.497 249.587 681.74 251.555 681.286 253.372C677.653 264.272 674.625 275.323 672.354 286.677C672.051 288.343 671.446 289.856 671.294 291.522C668.872 304.541 667.207 317.561 666.298 330.429C665.996 334.516 665.693 338.604 665.542 342.388V344.811C665.542 344.811 665.39 346.173 665.39 346.779C665.39 351.774 665.541 356.619 666.147 361.766C668.418 388.41 677.804 417.023 697.636 433.221C699.15 434.584 700.361 435.644 702.026 436.703C703.54 437.763 705.205 438.671 706.871 439.731C707.628 440.185 708.536 440.337 709.293 440.64C710.504 439.58 711.715 438.52 713.078 437.612C714.44 436.703 716.257 436.098 717.771 435.492C718.225 435.341 718.679 435.492 719.133 435.19C718.376 434.433 717.316 433.827 716.559 432.919C716.408 432.919 716.257 432.919 715.954 432.767C712.926 431.405 710.05 429.74 707.325 427.923C699.604 422.776 693.094 415.66 688.098 407.94C674.473 385.988 673.414 358.587 675.533 333.456C675.685 331.034 675.836 328.612 676.139 326.493C676.29 324.676 676.441 322.556 676.896 320.74V320.134C677.198 316.652 677.653 313.473 678.258 310.143C679.923 297.426 682.497 284.558 685.828 271.993C687.644 264.575 689.915 257.308 692.489 250.193C693.094 248.376 693.851 246.559 694.457 244.591H694.608C695.214 242.623 695.971 240.958 696.576 238.99C701.572 227.182 707.628 215.827 714.894 205.079C720.95 195.996 727.914 187.669 735.786 179.948C770.757 145.735 822.683 128.93 869.159 148.157C905.19 162.993 932.288 192.514 960.901 218.098C963.171 220.066 965.594 222.034 967.713 224.002C967.865 224.154 968.016 224.305 968.319 224.608H968.47C971.044 226.879 973.617 228.998 976.191 230.966C978.008 232.632 979.824 233.994 981.792 235.357C983.306 236.416 984.82 237.325 986.183 238.384C986.183 238.384 986.183 238.536 986.334 238.536C987.848 239.898 989.362 240.807 991.027 241.715C1013.74 257.308 1038.41 267.754 1067.48 270.176C1077.32 270.933 1087.16 271.084 1096.85 270.479H1097C1107.6 270.176 1118.34 268.813 1128.64 266.845H1128.79C1146.96 263.363 1164.52 257.762 1180.72 250.193C1198.73 241.715 1215.69 230.058 1228.25 214.465C1241.58 197.964 1249.3 176.769 1256.71 157.089C1272.76 113.035 1275.18 66.7097 1277 20.2334C1277 20.082 1277 19.9306 1276.85 19.6278L1277 19.7792Z" fill="var(--fill-0, white)"/>
<path id="Vector_2" d="M1211.45 60.201L1210.54 59.2927C1210.54 59.2927 1209.94 58.6871 1209.64 58.5357H1209.03C1209.03 58.5357 1208.88 58.3843 1208.73 58.3843C1083.38 32.1941 953.638 44.1538 830.256 75.1884C766.824 91.2356 704.452 112.43 643.897 136.652C587.126 159.209 531.567 184.34 478.883 215.223C426.351 245.803 376.393 280.623 329.009 318.924C284.803 354.803 244.534 393.861 203.962 433.828C177.923 459.564 150.521 484.089 123.271 508.765C110.252 520.725 97.2326 532.382 84.0618 544.342C78.4604 549.338 69.3771 555.09 65.441 561.297C60.1424 569.472 86.0298 581.583 91.177 585.217C117.065 602.172 143.103 619.431 169.294 636.386C220.463 669.692 271.329 703.754 323.559 735.546C363.374 759.919 409.547 776.269 453.753 788.834C514.762 806.093 577.891 814.419 641.172 815.479C759.709 817.75 893.991 801.248 982.553 714.048C1016.62 680.44 1044.17 635.932 1049.32 587.488C1054.16 544.19 1046.89 498.774 1034.48 457.293C1023.58 421.566 1007.68 383.264 977.103 360.253C968.625 353.743 959.694 347.234 950.913 341.178C949.399 340.119 947.885 339.21 946.523 338.15C945.16 337.091 943.949 336.182 942.435 335.425C939.862 337.091 937.288 338.756 934.26 340.118C935.774 341.027 937.288 342.087 938.65 343.146C940.164 344.206 941.678 345.114 943.344 346.325C966.506 361.918 988.306 377.814 1002.69 402.945C1024.94 441.549 1036.3 487.722 1040.84 531.625C1042.65 551.76 1043.41 572.803 1040.53 592.786C1037.05 616.403 1027.36 639.262 1015.25 659.397C951.821 765.369 824.049 799.28 708.843 805.941C583.039 813.359 455.569 793.982 342.634 736.605C325.829 728.128 310.085 717.53 294.341 707.387C266.788 689.826 239.386 672.265 212.288 654.553C166.266 624.578 119.941 595.511 74.9785 564.325C74.9785 564.174 75.1299 564.174 75.1299 564.174C84.0618 556.15 92.6909 548.278 101.623 540.254C129.478 514.972 157.485 489.69 184.887 464.106C216.375 434.888 245.593 403.853 277.234 374.786C320.834 335.425 367.158 298.335 415.754 265.484C517.033 196.451 629.212 146.795 745.479 108.948C864.773 70.0412 990.879 45.3649 1116.53 53.994C1145.9 55.9621 1174.97 59.8982 1203.88 65.8024C1202.22 104.709 1199.95 143.616 1186.93 180.858C1180.42 198.57 1173.45 218.402 1161.19 233.087C1152.26 243.23 1141.21 251.556 1128.95 258.066C1125.01 260.337 1120.92 262.153 1116.68 263.97C1110.33 266.544 1103.97 268.966 1097.31 270.934C1067.03 280.169 1033.27 282.591 1003.14 275.324C997.541 273.962 992.393 272.145 987.246 270.177C985.732 269.571 984.218 268.814 982.856 268.36C982.856 268.36 982.705 268.209 982.553 268.209C981.191 267.452 979.828 266.846 978.314 266.241C956.969 255.341 938.802 238.688 920.938 222.641C917.305 219.159 913.52 215.828 909.887 212.498C909.13 211.741 908.221 210.984 907.464 210.227C880.214 185.854 849.18 162.388 810.727 161.631C774.242 161.026 739.726 179.344 715.352 205.837C711.416 209.924 707.934 214.012 704.755 218.402C699.457 225.669 694.612 233.39 690.525 241.565C689.465 243.381 688.556 245.198 687.497 247.166L687.345 247.469C686.437 249.285 685.529 251.102 684.923 253.07C679.927 263.97 675.84 275.627 672.963 287.284C668.573 303.634 665.697 320.438 664.334 337.091C664.032 342.087 663.577 347.082 663.426 352.078C663.426 352.987 663.426 354.046 663.275 355.106V357.528C663.275 363.13 663.577 368.882 664.334 374.484C667.362 397.798 676.143 421.717 693.704 434.736C695.369 436.402 697.186 437.764 699.305 438.672C701.122 439.732 702.938 440.641 705.058 441.7C707.329 442.76 709.751 443.517 712.173 444.122C712.173 443.82 712.173 443.366 712.325 443.063C712.779 441.549 713.687 440.186 714.898 439.127C715.958 437.916 717.169 437.159 718.683 436.704C718.683 436.704 718.683 436.704 718.531 436.704C717.018 436.402 715.504 436.099 714.141 435.796C710.811 434.736 707.48 433.222 704.301 431.406C695.975 426.561 688.708 419.598 683.561 411.271C671.298 391.591 670.39 367.217 672.055 344.66C672.207 342.389 672.358 340.27 672.661 337.999C672.963 334.669 673.418 331.489 674.023 328.159H673.872L674.023 327.856V327.553C674.023 327.553 673.872 327.25 674.023 326.948C674.326 323.012 674.932 319.378 675.688 315.594C677.959 301.212 681.441 286.981 686.286 273.053C688.708 265.333 691.887 257.763 695.369 250.496C696.277 248.528 697.186 246.56 698.397 244.744H698.548C699.456 242.776 700.365 240.656 701.727 238.84C708.388 227.183 716.715 216.283 726.555 206.594C758.044 175.862 804.672 160.723 846.455 178.133C865.53 185.854 881.728 198.419 897.321 212.195C900.955 215.374 904.739 218.705 908.373 222.187C917.002 230.362 925.782 238.688 934.866 246.258C948.339 257.612 962.267 267.301 977.255 274.567C978.617 275.173 979.98 275.93 981.493 276.384C981.493 276.384 981.594 276.434 981.796 276.535C983.31 277.292 984.521 277.898 986.035 278.201C997.843 283.196 1010.56 286.376 1024.34 287.435C1058.7 290.463 1095.03 284.105 1126.22 269.42C1127.28 268.814 1128.49 268.36 1129.4 267.755C1138.33 263.516 1146.66 258.369 1154.23 251.859C1159.53 247.62 1164.52 242.776 1168.91 237.477C1180.87 222.641 1187.99 203.566 1194.65 186.005C1209.03 146.492 1211.15 104.861 1212.82 63.0774V62.7746C1212.82 62.7746 1212.82 61.4121 1212.51 61.1093L1211.45 60.201Z" fill="var(--fill-0, white)"/>
<path id="Vector_3" d="M1139.82 122.118C1139.82 122.118 1139.67 120.453 1139.06 119.847C1138.91 119.545 1138.46 119.09 1138.3 118.788C1138.15 118.636 1138 118.485 1137.55 118.182V117.274H1135.28C1038.39 94.8683 928.48 97.5933 808.429 125.6C756.503 137.863 702.154 154.515 646.746 175.407C590.581 196.45 545.013 217.19 503.23 240.655C458.873 265.18 414.819 294.55 372.43 327.401C334.28 357.376 300.369 389.016 262.825 424.441C242.539 443.819 220.89 462.743 199.998 480.909L192.429 487.57C181.075 497.562 169.721 507.554 158.215 517.545C156.701 518.605 155.036 519.967 153.219 521.481C148.98 524.661 144.136 528.142 141.411 532.23C140.503 533.744 140.049 535.409 140.503 537.074C141.865 542.979 150.797 548.731 160.183 554.333C161.848 555.241 163.211 555.998 163.817 556.604C185.768 571.742 208.022 586.881 230.276 601.869C239.359 608.227 248.594 614.283 257.677 620.49C291.589 643.652 326.408 667.42 361.379 689.674C389.991 707.992 425.567 723.282 473.103 737.816C523.213 753.106 577.41 761.886 634.332 764.006C645.081 764.309 655.375 764.611 665.518 764.611C785.418 764.611 872.467 737.21 931.054 681.499C965.116 649.253 986.614 610.498 991.307 572.499C995.697 538.588 992.064 500.59 980.558 459.109C972.383 430.648 959.666 395.375 932.114 373.726C927.421 370.093 922.879 366.459 918.034 362.977C915.764 361.161 913.341 359.496 911.222 357.83C911.222 357.982 911.071 357.982 911.071 358.133L910.465 358.89C908.951 361.918 907.286 365.248 905.469 368.276C907.891 369.79 910.162 371.607 912.433 373.121C927.269 384.475 940.591 396.586 949.826 413.39C966.327 443.516 976.773 481.666 980.104 523.752C981.769 544.492 981.466 561.145 978.741 575.981C975.714 594.148 968.144 612.92 956.336 631.995C909.86 706.327 820.994 746.899 692.011 752.046C576.653 756.436 468.562 733.88 379.394 686.646C367.434 680.288 355.777 672.567 344.575 664.998L338.519 660.91C315.205 645.317 291.891 629.724 268.729 613.98C258.737 607.319 248.897 600.658 239.208 594.148C211.353 575.224 182.286 555.847 154.733 535.863L177.139 516.183C200.755 495.594 224.978 474.551 248.594 453.356C261.614 441.7 274.33 429.437 286.744 417.78C300.672 404.609 314.902 390.984 329.436 377.965C368.948 343.6 409.52 312.716 450.244 286.223C531.691 233.086 625.098 190.849 735.763 157.24C854.3 121.059 958.758 107.736 1055.04 116.214C1080.02 118.485 1104.39 122.118 1127.56 127.265C1125.29 162.236 1122.56 193.422 1111.51 223.094L1110.9 224.608C1105.3 238.99 1099.1 255.34 1088.95 266.997C1079.72 277.292 1066.7 286.072 1051.26 292.128C1020.37 304.844 984.343 307.721 954.671 300.151C926.966 293.187 905.621 272.75 885.183 253.372C881.701 249.89 877.917 246.408 874.283 243.078C850.667 221.126 824.174 200.386 790.565 199.175C756.351 198.115 720.321 216.433 696.553 247.014C683.382 264.272 674.602 283.498 668.849 302.573C667.789 305.601 666.881 308.629 666.275 311.808C661.431 330.126 659.311 347.839 658.252 362.523C657.646 371.152 658.252 381.447 660.068 391.439C660.977 397.343 662.642 403.095 664.761 408.697C667.789 416.872 672.028 424.441 677.781 430.648C683.534 437.158 690.497 441.7 698.37 444.273C700.338 444.879 702.609 445.181 704.728 445.636C704.577 444.425 704.274 443.365 704.577 442.154C704.577 440.488 705.182 438.975 706.09 437.612C706.393 437.158 706.847 436.855 707.15 436.401C706.545 435.947 705.788 435.493 705.031 434.887C704.274 434.282 703.668 433.525 703.063 432.616C693.071 428.983 684.442 421.413 678.84 412.482C674.147 404.761 671.574 395.98 670.514 386.897C669.606 380.236 669.606 373.423 669.757 366.762C669.909 361.464 670.514 356.014 671.12 350.866C672.785 335.728 675.51 321.648 679.446 308.629C680.203 305.298 681.263 302.119 682.474 299.243C690.649 274.869 702.76 255.037 718.656 240.05C747.874 212.497 787.386 203.868 819.632 217.796C841.432 227.182 858.993 244.289 876.1 260.487C882.004 266.24 888.06 271.993 894.266 277.292C903.955 285.769 913.341 292.885 922.728 298.335C922.879 298.335 923.03 298.486 923.03 298.486C926.664 300.757 930.448 302.725 934.384 304.39C946.344 310.143 958.758 313.473 971.777 314.987C1002.06 318.015 1033.7 313.019 1060.95 300.908C1076.84 293.641 1089.56 284.407 1098.79 273.355C1109.39 261.093 1115.45 245.651 1121.35 230.512L1122.11 228.999C1134.82 196.147 1137.7 162.993 1140.12 122.724V121.967L1139.82 122.118Z" fill="var(--fill-0, white)"/>
<g id="Group_2">
<path id="Vector_4" d="M930.625 454.717C924.569 433.826 915.637 408.544 898.076 389.923C896.259 387.955 893.989 385.835 891.718 384.019C888.539 386.29 885.057 387.955 881.423 389.62C883.845 391.437 886.116 393.556 888.236 395.676C894.14 401.58 899.59 408.241 903.829 415.962C917.908 441.546 926.688 474.095 929.716 509.974C931.079 527.686 930.625 541.766 928.657 554.331C926.083 569.924 919.573 585.82 909.582 602.018C870.069 665.299 794.223 699.664 684.467 704.054C586.064 707.99 494.02 688.764 418.174 648.343C407.88 643.045 398.039 636.383 388.351 629.874L383.203 626.392C363.371 613.07 343.691 599.747 323.859 586.425C315.381 580.672 307.055 575.071 298.728 569.47C274.809 553.574 250.436 537.072 226.97 520.268L244.531 504.675C265.12 486.963 286.163 468.494 306.752 449.873C317.652 440.032 328.552 429.738 339.149 419.746C350.958 408.392 363.22 396.887 375.634 385.835C409.242 356.466 443.91 330.124 478.427 307.567C546.4 263.362 623.911 227.937 715.501 199.779C717.621 195.388 720.043 190.695 722.919 186.305C697.486 193.875 671.75 202.504 645.711 212.193C598.024 230.208 558.965 247.92 523.389 267.904C485.542 288.947 447.998 313.926 411.664 342.084C379.116 367.366 348.989 395.676 318.258 424.742C300.999 441.092 282.681 456.988 265.12 472.278L258.156 478.334C248.922 486.66 239.536 494.987 229.998 503.161L228.938 503.918C227.879 504.978 226.365 506.189 224.851 507.249C221.217 509.974 217.13 513.153 214.708 516.635C213.799 517.998 213.345 519.36 213.799 520.874C214.859 526.021 222.731 531.017 230.604 535.71C231.966 536.467 233.177 537.224 233.783 537.678C252.706 550.395 271.479 563.414 290.402 576.131C298.123 581.429 305.995 586.728 313.716 592.027C342.631 611.858 372.303 632.145 402.278 651.22C426.652 666.813 457.081 679.832 497.502 692.246C540.193 705.265 586.518 712.532 635.114 714.5C644.197 714.803 653.129 715.106 661.758 715.106C764.097 715.106 838.429 691.792 888.539 644.256C917.605 616.703 935.923 583.549 940.162 551C943.795 522.085 940.768 489.537 930.927 454.263L930.625 454.717Z" fill="var(--fill-0, white)"/>
<path id="Vector_5" d="M1066.26 167.383C1066.26 167.383 1066.11 165.869 1065.65 165.415C1065.35 165.112 1065.05 164.658 1064.9 164.506C1064.75 164.355 1064.75 164.204 1064.59 164.204V163.144H1062.32C1009.64 150.881 952.415 147.854 891.406 153.001C892.163 153.758 892.92 154.666 893.828 155.272C897.31 157.845 901.095 160.116 904.728 162.387C935.308 160.267 964.981 160.419 993.593 162.841C1014.94 164.658 1035.53 167.837 1055.21 172.227C1053.39 201.748 1050.97 228.392 1041.58 253.674L1040.98 255.037C1036.28 267.299 1030.99 281.076 1022.36 290.916C1014.64 299.848 1003.43 307.266 990.414 312.413C971.793 319.982 950.901 323.464 931.221 322.556C928.193 322.405 925.468 322.253 922.743 321.799C917.747 321.194 912.903 320.437 908.361 319.225C892.465 315.138 878.84 305.752 866.427 295.003C862.49 291.824 858.857 288.342 855.375 285.012C853.407 283.195 851.288 281.076 849.32 279.259C846.292 276.231 843.264 273.355 840.085 270.63C819.95 251.706 797.242 233.994 768.478 233.085C738.957 232.177 708.225 247.77 688.091 273.96C681.278 282.892 675.677 292.43 671.287 302.27C669.924 305.449 668.713 308.78 667.653 311.959C659.478 333.607 656.602 355.559 655.391 372.817C654.785 381.446 655.542 392.043 657.964 402.186C659.327 408.091 661.295 413.843 664.02 419.142C666.291 423.381 668.864 427.468 672.044 430.95C679.31 438.671 688.091 443.515 698.688 444.424C699.596 444.575 700.656 444.575 701.716 444.575C705.198 444.727 708.68 444.424 712.313 443.515C713.827 443.061 715.341 442.153 716.855 441.547C716.098 440.79 715.492 440.034 714.887 439.125C714.887 438.974 714.584 438.671 714.584 438.368C714.13 437.309 713.524 436.097 713.221 434.886C713.221 434.886 713.221 434.584 713.221 434.432C713.221 433.675 713.07 433.07 712.918 432.313C712.162 432.615 711.405 432.918 710.799 433.07C695.963 436.703 681.43 427.166 674.012 414.903C670.984 409.907 669.016 404.609 667.956 398.856C666.291 391.286 666.139 383.263 666.442 375.542C666.594 371.152 667.048 366.913 667.502 362.523C669.773 341.934 674.163 324.07 680.824 308.477C682.187 304.995 683.852 301.816 685.517 298.637C691.421 286.828 698.991 276.685 707.923 268.359C732.75 244.894 766.359 237.476 793.76 249.435C811.17 257.005 825.552 270.176 839.328 283.498C840.085 284.255 840.993 285.012 841.75 285.769C844.172 288.039 846.595 290.462 849.017 292.732C851.742 295.155 854.315 297.728 857.192 300.15C878.992 319.377 898.975 329.368 921.532 331.942C922.289 332.093 922.894 332.245 923.5 332.245C925.771 332.396 927.739 332.548 930.01 332.85C953.929 334.213 978.303 329.671 999.8 320.285C1013.42 314.23 1024.32 306.206 1032.35 296.82C1041.28 286.223 1046.58 272.901 1051.57 260.033L1052.18 258.67C1063.08 230.815 1065.5 202.202 1067.47 167.988V167.231L1066.26 167.383Z" fill="var(--fill-0, white)"/>
</g>
<g id="Group_3">
<path id="Vector_6" d="M425.748 382.96C446.489 366.155 467.532 350.562 488.575 336.786C478.734 342.842 469.197 349.503 459.508 356.618C447.851 365.096 436.648 374.028 425.597 383.111L425.748 382.96Z" fill="var(--fill-0, white)"/>
<path id="Vector_7" d="M551.407 299.696C530.364 310.596 509.169 322.859 488.732 336.635C495.999 331.942 502.962 327.552 510.078 323.313C553.375 296.82 601.062 275.02 654.957 256.853C653.897 257.156 652.534 257.61 651.475 257.913C612.416 271.235 580.625 284.406 551.558 299.545L551.407 299.696Z" fill="var(--fill-0, white)"/>
<path id="Vector_8" d="M685.674 307.425C665.993 331.496 659.635 362.379 657.515 384.179C657.364 387.509 657.213 390.991 657.364 394.927C657.364 388.266 658.121 381.605 659.029 375.55C664.025 340.882 676.136 314.843 695.363 297.887C692.032 300.915 688.55 303.943 685.674 307.425Z" fill="var(--fill-0, white)"/>
<path id="Vector_9" d="M952.446 333.307C951.377 334.376 950.308 335.292 949.086 336.208C950.308 335.292 951.377 334.223 952.446 333.307Z" fill="var(--fill-0, white)"/>
<path id="Vector_10" d="M949.116 336.185C945.482 339.061 941.395 341.484 937.004 343.754C941.546 341.484 945.634 338.91 949.116 336.185Z" fill="var(--fill-0, white)"/>
<path id="Vector_11" d="M936.975 343.753C936.975 343.753 936.224 344.203 935.924 344.353C936.224 344.203 936.675 343.903 936.975 343.753Z" fill="var(--fill-0, white)"/>
<path id="Vector_12" d="M871.591 354.202C874.316 354.504 877.344 354.959 880.069 354.959C872.651 354.353 865.384 353.142 858.572 351.022C862.811 352.536 867.049 353.445 871.591 354.202Z" fill="var(--fill-0, white)"/>
<path id="Vector_13" d="M868.275 451.086C869.032 454.114 869.789 456.839 870.546 459.716C870.546 459.413 870.546 458.807 870.395 458.353C869.789 455.931 869.032 453.509 868.427 450.935L868.275 451.086Z" fill="var(--fill-0, white)"/>
<path id="Vector_14" d="M695.355 297.91L695.532 297.732L695.355 297.91Z" fill="var(--fill-0, white)"/>
<path id="Vector_15" d="M695.517 297.732C697.939 295.613 700.362 293.796 702.784 292.131C700.21 293.947 697.788 295.764 695.517 297.732Z" fill="var(--fill-0, white)"/>
<path id="Vector_16" d="M702.787 292.148C704.009 291.232 705.383 290.468 706.605 289.705C705.231 290.468 704.009 291.232 702.787 292.148Z" fill="var(--fill-0, white)"/>
<path id="Vector_17" d="M770.011 284.106C769.254 283.652 768.346 283.501 767.438 283.198C770.163 284.409 772.888 285.469 775.461 287.134C773.645 286.074 771.828 285.166 769.86 284.106H770.011Z" fill="var(--fill-0, white)"/>
<path id="Vector_18" d="M721.408 282.428C721.408 282.428 722.3 281.982 722.895 281.833C722.449 281.982 722.003 282.279 721.408 282.428Z" fill="var(--fill-0, white)"/>
<g id="Vector_19">
</g>
<path id="Vector_20" d="M685.335 438.214C685.335 438.214 684.905 438.214 684.762 438.07C684.905 438.07 685.192 438.07 685.335 438.214Z" fill="var(--fill-0, white)"/>
<path id="Vector_21" d="M360.055 439.733C362.326 438.068 364.294 436.252 366.565 434.435C375.648 426.865 384.732 418.69 393.512 410.97C396.691 407.942 400.022 405.217 403.201 402.341C396.237 408.245 389.122 414.603 382.158 420.81C374.891 427.32 367.473 433.527 360.207 439.885L360.055 439.733Z" fill="var(--fill-0, white)"/>
<path id="Vector_22" d="M843.892 397.95C842.832 399.01 837.382 403.703 836.625 404.309C843.135 410.364 849.039 417.177 853.278 425.654C864.026 446.546 870.233 473.039 871.747 502.257C872.353 516.488 871.747 527.842 869.779 537.985C867.357 550.399 861.604 563.115 853.126 575.832C819.518 625.941 757.449 651.678 668.735 652.434H665.102C586.834 652.434 514.167 634.419 454.823 600.508C446.648 595.815 438.927 590.365 431.358 584.764L427.27 582.039C411.526 570.685 395.781 559.482 380.037 547.976C373.527 543.132 366.866 538.59 360.205 533.746C341.584 520.272 322.358 506.344 303.737 492.114L317.968 480.457C334.772 466.832 352.333 452.602 369.591 437.765C378.826 430.196 387.909 422.021 396.538 414.3C406.53 405.368 416.673 396.285 427.119 387.656C454.974 364.948 483.738 344.51 512.351 327.1C561.855 296.974 617.414 272.601 681.452 253.374C682.511 253.071 683.42 252.769 684.631 252.466C687.204 251.709 689.778 250.952 692.352 250.195C693.109 250.044 694.017 249.892 694.774 249.438C697.196 248.833 699.77 248.076 702.192 247.319C702.192 247.016 702.192 246.562 702.495 246.259C702.949 245.502 703.252 244.745 703.706 243.988C702.949 241.717 703.1 239.144 704.16 236.873C703.1 237.176 702.192 237.327 701.132 237.63C699.618 237.933 698.104 238.538 696.742 238.992C694.471 239.598 692.503 240.052 690.232 240.809C688.718 241.112 687.053 241.566 685.539 242.171C673.731 245.653 661.923 249.589 649.811 253.677C610.45 266.999 578.659 280.321 549.138 295.46C517.952 311.507 486.766 330.734 456.791 352.685C429.844 372.517 405.622 393.56 378.977 417.177C364.747 429.893 349.608 442.307 334.923 454.115L329.019 459.111C321.298 465.47 313.426 471.828 305.554 478.186L304.645 478.943C303.737 479.7 302.375 480.608 301.315 481.517C298.136 483.485 294.654 485.907 292.686 488.935C291.929 489.995 291.626 491.357 291.929 492.568C292.686 496.958 298.59 501.046 305.251 505.285C306.311 506.042 307.219 506.647 307.673 506.95C322.661 517.85 337.648 528.75 352.636 539.65L370.802 552.972C393.662 569.625 417.43 587.035 441.198 603.233C460.576 616.555 484.798 627.758 517.346 638.961C551.56 650.618 588.953 657.884 628.163 660.609C641.485 661.518 654.202 662.123 666.464 662.123C740.796 662.123 796.356 644.865 835.565 610.197C859.787 588.7 875.532 562.358 879.771 536.017C883.707 512.703 882.042 486.058 874.775 457.295C869.93 437.765 862.058 413.695 843.892 397.95ZM459.667 356.47C469.356 349.506 478.894 342.845 488.734 336.638C509.323 322.71 530.366 310.599 551.409 299.699C569.878 289.859 589.862 281.078 611.964 272.449C613.327 272.146 614.386 271.541 615.598 271.087C616.355 270.784 617.111 270.481 617.868 270.33C612.267 272.298 606.968 274.569 601.367 276.991C593.646 280.17 586.077 283.5 578.507 286.982C578.205 287.134 577.75 287.285 577.448 287.588C573.512 289.405 569.727 291.221 565.791 293.189C561.855 295.006 558.221 296.823 554.285 298.791C549.138 301.364 544.142 303.938 539.146 306.814C529.306 312.113 519.466 317.714 510.08 323.467C503.116 327.706 496.001 332.096 488.734 336.789C467.691 350.717 446.497 366.159 425.908 382.963C436.808 373.879 448.162 364.948 459.819 356.47H459.667Z" fill="var(--fill-0, white)"/>
<path id="Vector_23" d="M965.009 325.741C961.224 327.709 956.985 327.558 953.352 325.893C953.049 326.195 952.747 326.801 952.444 327.104C949.416 330.283 946.085 333.008 942.301 335.43C939.727 337.095 937.154 338.761 934.126 340.123C931.552 341.486 928.979 342.545 926.102 343.605C904.605 351.629 879.929 352.688 859.643 346.784C854.647 345.27 849.954 343.302 845.563 340.729C842.99 339.215 840.416 337.55 837.994 335.733C837.237 335.127 836.48 334.673 835.723 333.916C833.452 332.402 831.333 330.586 829.062 328.769C823.461 323.773 818.162 318.475 813.015 313.176C810.593 310.754 808.17 308.18 805.748 305.909C789.701 290.014 771.686 275.026 748.372 273.512C724.453 271.696 699.019 283.807 681.761 304.547C680.247 306.364 678.733 308.18 677.673 310.3C676.614 311.814 675.403 313.327 674.646 314.69C671.164 319.686 668.136 324.984 666.017 330.434C665.108 332.402 664.2 334.522 663.443 336.49C656.782 353.294 653.603 370.098 652.543 383.875C651.18 398.559 653.905 418.845 664.805 431.713C670.861 438.98 678.885 443.067 688.725 443.673C693.872 444.279 699.019 443.37 704.318 440.948C705.075 440.645 705.983 440.04 706.74 439.586C706.891 439.586 707.043 439.283 707.194 439.283C705.68 437.769 704.166 436.255 702.501 434.892C701.593 434.136 698.262 432.016 701.744 434.136C700.987 433.681 700.23 433.076 699.473 432.47C698.868 432.773 698.111 433.076 697.505 433.076C695.991 433.681 694.478 433.984 693.115 433.984C682.367 434.892 672.375 427.323 667.228 418.24C660.264 405.523 661.324 389.779 663.292 375.851C663.443 375.094 663.443 374.337 663.594 373.58C664.351 369.341 665.108 365.405 666.017 361.62C666.925 357.381 667.985 353.143 669.347 349.207C669.953 347.39 670.71 345.27 671.315 343.454C672.375 339.972 673.737 336.641 675.251 333.311C681.155 320.14 688.876 309.391 698.414 300.914C719.003 282.747 746.101 277.6 767.75 287.894C782.586 294.858 794.243 306.969 805.445 318.626C809.533 322.714 813.469 326.801 817.405 330.586C819.373 332.554 821.493 334.522 823.461 336.187C825.731 338.004 827.851 339.669 830.122 341.183C830.879 341.94 831.636 342.243 832.393 342.848C834.966 344.665 837.388 346.33 839.962 347.844C849.954 353.597 859.945 356.927 870.694 358.441C891.586 361.469 913.537 358.593 932.915 350.872C936.548 349.358 939.879 347.693 943.058 345.876C945.783 344.362 948.205 342.697 950.627 340.88C954.109 338.307 957.137 335.582 959.862 332.554C961.376 330.888 962.89 329.072 964.101 327.255C964.706 326.498 965.009 325.741 965.615 324.833C965.312 324.984 965.16 325.287 964.858 325.439L965.009 325.741ZM684.789 438.072C678.43 436.558 672.98 433.833 668.742 428.837C666.773 426.415 665.26 423.992 663.746 421.267C668.439 429.291 676.008 435.649 684.789 438.072ZM723.09 281.839C730.054 279.416 737.321 277.751 744.587 277.751H748.523C755.336 278.357 761.694 280.325 767.598 283.05C753.671 277.146 738.229 276.994 723.241 281.687L723.09 281.839Z" fill="var(--fill-0, white)"/>
<path id="Vector_24" d="M694.319 438.676C694.319 438.676 695.984 438.525 696.892 438.373C697.498 438.373 698.255 438.222 698.709 438.07C697.952 438.373 697.195 438.676 696.438 438.827C694.016 439.433 691.594 439.584 689.172 439.433C687.658 439.281 686.598 438.676 685.084 438.373C688.112 439.13 690.988 439.281 694.167 438.979L694.319 438.676Z" fill="var(--fill-0, white)"/>
<path id="Vector_25" d="M671.463 331.491C670.706 332.853 670.1 334.064 669.646 335.427C669.344 336.184 669.041 336.941 668.889 337.698C668.284 338.606 667.981 339.514 667.83 340.423C667.073 342.088 666.467 343.905 666.013 345.721C665.862 346.024 665.862 346.478 665.71 346.781C665.71 346.781 665.559 347.538 665.407 347.841C664.802 349.506 664.499 351.171 663.894 352.837C663.591 353.896 663.288 355.107 662.985 356.319V356.621C662.985 356.621 662.682 357.681 662.682 358.135C662.38 359.044 662.077 359.952 661.926 361.163C661.017 365.856 660.109 370.398 659.352 375.393C658.444 381.449 657.687 388.11 657.687 394.771C657.535 390.835 657.687 387.353 657.838 384.023L658.444 379.632C658.595 378.118 658.595 376.605 659.049 374.939C659.806 368.581 661.017 361.92 662.985 355.107C662.985 354.956 662.985 354.805 663.137 354.805V354.502C663.288 353.594 663.439 352.988 663.742 352.231C663.894 351.625 664.045 350.869 664.348 350.414C664.348 350.263 664.499 349.809 664.499 349.657C665.105 347.841 665.559 346.327 666.164 344.662C666.921 342.391 667.678 340.574 668.435 338.606C669.192 336.638 670.101 334.519 671.009 332.55C671.312 331.642 671.917 330.734 672.371 329.826C672.674 329.22 672.977 328.463 673.431 328.009C673.431 328.312 673.28 328.614 673.128 328.917C672.826 329.826 672.371 330.582 672.069 331.491H671.463Z" fill="var(--fill-0, white)"/>
<path id="Vector_26" d="M687.779 305.453C685.357 308.178 682.935 311.055 680.967 314.082C679.604 315.899 678.393 317.716 677.031 319.684C677.939 318.17 678.999 316.505 680.059 314.991C681.724 312.417 683.541 309.844 685.66 307.421C688.688 303.939 692.018 300.912 695.5 297.732C692.775 300.155 690.353 302.577 687.931 305.302L687.779 305.453Z" fill="var(--fill-0, white)"/>
<path id="Vector_27" d="M826.611 332.551C824.794 330.886 822.978 329.22 821.01 327.555C816.922 323.619 812.986 319.532 809.05 315.595C805.114 311.508 801.026 307.421 796.787 303.333C798.755 305.15 800.875 306.966 802.692 308.934C805.114 311.357 807.536 313.779 809.958 316.352C814.803 321.197 819.647 326.193 824.794 330.583C825.551 331.34 826.157 331.945 826.762 332.4C826.914 332.551 826.914 332.702 827.065 333.005C826.914 332.854 826.762 332.702 826.46 332.702L826.611 332.551Z" fill="var(--fill-0, white)"/>
<path id="Vector_28" d="M694.319 438.676C694.319 438.676 695.984 438.525 696.892 438.373C697.498 438.373 698.255 438.222 698.709 438.07C697.952 438.373 697.195 438.676 696.438 438.827C694.016 439.433 691.594 439.584 689.172 439.433C687.658 439.281 686.598 438.676 685.084 438.373C688.112 439.13 690.988 439.281 694.167 438.979L694.319 438.676Z" fill="var(--fill-0, white)"/>
<path id="Vector_29" d="M671.463 331.491C670.706 332.853 670.1 334.064 669.646 335.427C669.344 336.184 669.041 336.941 668.889 337.698C668.284 338.606 667.981 339.514 667.83 340.423C667.073 342.088 666.467 343.905 666.013 345.721C665.862 346.024 665.862 346.478 665.71 346.781C665.71 346.781 665.559 347.538 665.407 347.841C664.802 349.506 664.499 351.171 663.894 352.837C663.591 353.896 663.288 355.107 662.985 356.319V356.621C662.985 356.621 662.682 357.681 662.682 358.135C662.38 359.044 662.077 359.952 661.926 361.163C661.017 365.856 660.109 370.398 659.352 375.393C658.444 381.449 657.687 388.11 657.687 394.771C657.535 390.835 657.687 387.353 657.838 384.023L658.444 379.632C658.595 378.118 658.595 376.605 659.049 374.939C659.806 368.581 661.017 361.92 662.985 355.107C662.985 354.956 662.985 354.805 663.137 354.805V354.502C663.288 353.594 663.439 352.988 663.742 352.231C663.894 351.625 664.045 350.869 664.348 350.414C664.348 350.263 664.499 349.809 664.499 349.657C665.105 347.841 665.559 346.327 666.164 344.662C666.921 342.391 667.678 340.574 668.435 338.606C669.192 336.638 670.101 334.519 671.009 332.55C671.312 331.642 671.917 330.734 672.371 329.826C672.674 329.22 672.977 328.463 673.431 328.009C673.431 328.312 673.28 328.614 673.128 328.917C672.826 329.826 672.371 330.582 672.069 331.491H671.463Z" fill="var(--fill-0, white)"/>
<path id="Vector_30" d="M687.779 305.453C685.357 308.178 682.935 311.055 680.967 314.082C679.604 315.899 678.393 317.716 677.031 319.684C677.939 318.17 678.999 316.505 680.059 314.991C681.724 312.417 683.541 309.844 685.66 307.421C688.688 303.939 692.018 300.912 695.5 297.732C692.775 300.155 690.353 302.577 687.931 305.302L687.779 305.453Z" fill="var(--fill-0, white)"/>
<path id="Vector_31" d="M826.611 332.551C824.794 330.886 822.978 329.22 821.01 327.555C816.922 323.619 812.986 319.532 809.05 315.595C805.114 311.508 801.026 307.421 796.787 303.333C798.755 305.15 800.875 306.966 802.692 308.934C805.114 311.357 807.536 313.779 809.958 316.352C814.803 321.197 819.647 326.193 824.794 330.583C825.551 331.34 826.157 331.945 826.762 332.4C826.914 332.551 826.914 332.702 827.065 333.005C826.914 332.854 826.762 332.702 826.46 332.702L826.611 332.551Z" fill="var(--fill-0, white)"/>
<path id="Vector_32" d="M694.319 438.676C694.319 438.676 695.984 438.525 696.892 438.373C697.498 438.373 698.255 438.222 698.709 438.07C697.952 438.373 697.195 438.676 696.438 438.827C694.016 439.433 691.594 439.584 689.172 439.433C687.658 439.281 686.598 438.676 685.084 438.373C688.112 439.13 690.988 439.281 694.167 438.979L694.319 438.676Z" fill="var(--fill-0, white)"/>
<path id="Vector_33" d="M671.463 331.491C670.706 332.853 670.1 334.064 669.646 335.427C669.344 336.184 669.041 336.941 668.889 337.698C668.284 338.606 667.981 339.514 667.83 340.423C667.073 342.088 666.467 343.905 666.013 345.721C665.862 346.024 665.862 346.478 665.71 346.781C665.71 346.781 665.559 347.538 665.407 347.841C664.802 349.506 664.499 351.171 663.894 352.837C663.591 353.896 663.288 355.107 662.985 356.319V356.621C662.985 356.621 662.682 357.681 662.682 358.135C662.38 359.044 662.077 359.952 661.926 361.163C661.017 365.856 660.109 370.398 659.352 375.393C658.444 381.449 657.687 388.11 657.687 394.771C657.535 390.835 657.687 387.353 657.838 384.023L658.444 379.632C658.595 378.118 658.595 376.605 659.049 374.939C659.806 368.581 661.017 361.92 662.985 355.107C662.985 354.956 662.985 354.805 663.137 354.805V354.502C663.288 353.594 663.439 352.988 663.742 352.231C663.894 351.625 664.045 350.869 664.348 350.414C664.348 350.263 664.499 349.809 664.499 349.657C665.105 347.841 665.559 346.327 666.164 344.662C666.921 342.391 667.678 340.574 668.435 338.606C669.192 336.638 670.101 334.519 671.009 332.55C671.312 331.642 671.917 330.734 672.371 329.826C672.674 329.22 672.977 328.463 673.431 328.009C673.431 328.312 673.28 328.614 673.128 328.917C672.826 329.826 672.371 330.582 672.069 331.491H671.463Z" fill="var(--fill-0, white)"/>
<path id="Vector_34" d="M687.779 305.453C685.357 308.178 682.935 311.055 680.967 314.082C679.604 315.899 678.393 317.716 677.031 319.684C677.939 318.17 678.999 316.505 680.059 314.991C681.724 312.417 683.541 309.844 685.66 307.421C688.688 303.939 692.018 300.912 695.5 297.732C692.775 300.155 690.353 302.577 687.931 305.302L687.779 305.453Z" fill="var(--fill-0, white)"/>
<path id="Vector_35" d="M826.611 332.551C824.794 330.886 822.978 329.22 821.01 327.555C816.922 323.619 812.986 319.532 809.05 315.595C805.114 311.508 801.026 307.421 796.787 303.333C798.755 305.15 800.875 306.966 802.692 308.934C805.114 311.357 807.536 313.779 809.958 316.352C814.803 321.197 819.647 326.193 824.794 330.583C825.551 331.34 826.157 331.945 826.762 332.4C826.914 332.551 826.914 332.702 827.065 333.005C826.914 332.854 826.762 332.702 826.46 332.702L826.611 332.551Z" fill="var(--fill-0, white)"/>
<path id="Vector_36" d="M694.469 244.589C694.469 244.589 696.134 243.984 696.891 243.832H697.497C696.437 243.984 695.529 244.438 694.318 244.741C693.712 244.892 693.258 244.892 692.652 245.043C693.258 244.892 694.015 244.741 694.469 244.438V244.589Z" fill="var(--fill-0, white)"/>
<path id="Vector_37" d="M683.41 247.627C684.772 247.324 685.832 246.87 687.043 246.567C687.649 246.416 688.406 246.265 688.86 246.265L687.043 246.87H686.892C685.832 247.173 684.469 247.627 683.41 247.93V247.627Z" fill="var(--fill-0, white)"/>
<path id="Vector_38" d="M651.153 258.068C652.213 257.766 653.576 257.312 654.635 257.009C647.974 259.28 641.313 261.702 634.652 263.973C639.951 262.005 645.552 259.885 651.153 258.068Z" fill="var(--fill-0, white)"/>
<path id="Vector_39" d="M382.158 420.661C389.122 414.303 396.237 408.096 403.201 402.192C400.022 405.22 396.691 407.945 393.512 410.821C384.58 418.542 375.497 426.717 366.565 434.286C364.294 436.103 362.326 437.92 360.055 439.585C367.473 433.227 374.891 427.02 382.007 420.51L382.158 420.661Z" fill="var(--fill-0, white)"/>
<path id="Vector_40" d="M870.23 458.517C870.23 458.517 870.383 459.434 870.383 459.892C869.619 456.838 869.619 456.227 870.23 458.517Z" fill="var(--fill-0, white)"/>
<path id="Vector_41" d="M694.319 438.676C694.319 438.676 695.984 438.525 696.892 438.373C697.498 438.373 698.255 438.222 698.709 438.07C697.952 438.373 697.195 438.676 696.438 438.827C694.016 439.433 691.594 439.584 689.172 439.433C687.658 439.281 686.598 438.676 685.084 438.373C688.112 439.13 690.988 439.281 694.167 438.979L694.319 438.676Z" fill="var(--fill-0, white)"/>
<path id="Vector_42" d="M671.463 331.491C670.706 332.853 670.1 334.064 669.646 335.427C669.344 336.184 669.041 336.941 668.889 337.698C668.284 338.606 667.981 339.514 667.83 340.423C667.073 342.088 666.467 343.905 666.013 345.721C665.862 346.024 665.862 346.478 665.71 346.781C665.71 346.781 665.559 347.538 665.407 347.841C664.802 349.506 664.499 351.171 663.894 352.837C663.591 353.896 663.288 355.107 662.985 356.319V356.621C662.985 356.621 662.682 357.681 662.682 358.135C662.38 359.044 662.077 359.952 661.926 361.163C661.017 365.856 660.109 370.398 659.352 375.393C658.444 381.449 657.687 388.11 657.687 394.771C657.535 390.835 657.687 387.353 657.838 384.023L658.444 379.632C658.595 378.118 658.595 376.605 659.049 374.939C659.806 368.581 661.017 361.92 662.985 355.107C662.985 354.956 662.985 354.805 663.137 354.805V354.502C663.288 353.594 663.439 352.988 663.742 352.231C663.894 351.625 664.045 350.869 664.348 350.414C664.348 350.263 664.499 349.809 664.499 349.657C665.105 347.841 665.559 346.327 666.164 344.662C666.921 342.391 667.678 340.574 668.435 338.606C669.192 336.638 670.101 334.519 671.009 332.55C671.312 331.642 671.917 330.734 672.371 329.826C672.674 329.22 672.977 328.463 673.431 328.009C673.431 328.312 673.28 328.614 673.128 328.917C672.826 329.826 672.371 330.582 672.069 331.491H671.463Z" fill="var(--fill-0, white)"/>
<path id="Vector_43" d="M687.779 305.453C685.357 308.178 682.935 311.055 680.967 314.082C679.604 315.899 678.393 317.716 677.031 319.684C677.939 318.17 678.999 316.505 680.059 314.991C681.724 312.417 683.541 309.844 685.66 307.421C688.688 303.939 692.018 300.912 695.5 297.732C692.775 300.155 690.353 302.577 687.931 305.302L687.779 305.453Z" fill="var(--fill-0, white)"/>
<path id="Vector_44" d="M826.611 332.551C824.794 330.886 822.978 329.22 821.01 327.555C816.922 323.619 812.986 319.532 809.05 315.595C805.114 311.508 801.026 307.421 796.787 303.333C798.755 305.15 800.875 306.966 802.692 308.934C805.114 311.357 807.536 313.779 809.958 316.352C814.803 321.197 819.647 326.193 824.794 330.583C825.551 331.34 826.157 331.945 826.762 332.4C826.914 332.551 826.914 332.702 827.065 333.005C826.914 332.854 826.762 332.702 826.46 332.702L826.611 332.551Z" fill="var(--fill-0, white)"/>
<path id="Vector_45" d="M871.591 354.202C867.201 353.445 862.962 352.536 858.572 351.022C865.384 352.991 872.651 354.353 880.069 354.959C877.344 354.959 874.316 354.656 871.591 354.202Z" fill="var(--fill-0, white)"/>
<path id="Vector_46" d="M931.229 346.783C923.811 349.811 915.939 351.93 907.764 353.293C914.576 351.93 921.237 350.113 927.747 347.691C930.472 346.783 933.348 345.42 935.922 344.361C934.257 345.118 932.894 346.026 931.229 346.783Z" fill="var(--fill-0, white)"/>
<path id="Vector_47" d="M694.319 438.676C694.319 438.676 695.984 438.525 696.892 438.373C697.498 438.373 698.255 438.222 698.709 438.07C697.952 438.373 697.195 438.676 696.438 438.827C694.016 439.433 691.594 439.584 689.172 439.433C687.658 439.281 686.598 438.676 685.084 438.373C688.112 439.13 690.988 439.281 694.167 438.979L694.319 438.676Z" fill="var(--fill-0, white)"/>
<path id="Vector_48" d="M671.463 331.491C670.706 332.853 670.1 334.064 669.646 335.427C669.344 336.184 669.041 336.941 668.889 337.698C668.284 338.606 667.981 339.514 667.83 340.423C667.073 342.088 666.467 343.905 666.013 345.721C665.862 346.024 665.862 346.478 665.71 346.781C665.71 346.781 665.559 347.538 665.407 347.841C664.802 349.506 664.499 351.171 663.894 352.837C663.591 353.896 663.288 355.107 662.985 356.319V356.621C662.985 356.621 662.682 357.681 662.682 358.135C662.38 359.044 662.077 359.952 661.926 361.163C661.017 365.856 660.109 370.398 659.352 375.393C658.444 381.449 657.687 388.11 657.687 394.771C657.535 390.835 657.687 387.353 657.838 384.023L658.444 379.632C658.595 378.118 658.595 376.605 659.049 374.939C659.806 368.581 661.017 361.92 662.985 355.107C662.985 354.956 662.985 354.805 663.137 354.805V354.502C663.288 353.594 663.439 352.988 663.742 352.231C663.894 351.625 664.045 350.869 664.348 350.414C664.348 350.263 664.499 349.809 664.499 349.657C665.105 347.841 665.559 346.327 666.164 344.662C666.921 342.391 667.678 340.574 668.435 338.606C669.192 336.638 670.101 334.519 671.009 332.55C671.312 331.642 671.917 330.734 672.371 329.826C672.674 329.22 672.977 328.463 673.431 328.009C673.431 328.312 673.28 328.614 673.128 328.917C672.826 329.826 672.371 330.582 672.069 331.491H671.463Z" fill="var(--fill-0, white)"/>
<path id="Vector_49" d="M687.779 305.453C685.357 308.178 682.935 311.055 680.967 314.082C679.604 315.899 678.393 317.716 677.031 319.684C677.939 318.17 678.999 316.505 680.059 314.991C681.724 312.417 683.541 309.844 685.66 307.421C688.688 303.939 692.018 300.912 695.5 297.732C692.775 300.155 690.353 302.577 687.931 305.302L687.779 305.453Z" fill="var(--fill-0, white)"/>
<path id="Vector_50" d="M826.611 332.551C824.794 330.886 822.978 329.22 821.01 327.555C816.922 323.619 812.986 319.532 809.05 315.595C805.114 311.508 801.026 307.421 796.787 303.333C798.755 305.15 800.875 306.966 802.692 308.934C805.114 311.357 807.536 313.779 809.958 316.352C814.803 321.197 819.647 326.193 824.794 330.583C825.551 331.34 826.157 331.945 826.762 332.4C826.914 332.551 826.914 332.702 827.065 333.005C826.914 332.854 826.762 332.702 826.46 332.702L826.611 332.551Z" fill="var(--fill-0, white)"/>
<path id="Vector_51" d="M659.029 375.549C658.121 381.605 657.364 388.266 657.364 394.927C657.213 390.991 657.364 387.509 657.515 384.178L658.121 379.788C658.272 378.274 658.272 376.76 658.727 375.095C659.484 368.737 660.695 362.075 662.663 355.263C662.663 355.112 662.663 354.96 662.814 354.96V354.657C662.965 353.749 663.117 353.143 663.42 352.387C663.571 351.781 663.722 351.024 664.025 350.57C664.025 350.418 664.177 349.964 664.177 349.813C664.782 347.996 665.236 346.482 665.842 344.817C666.599 342.546 667.356 340.73 668.113 338.762C668.87 336.794 669.778 334.674 670.686 332.706C670.989 331.798 671.595 330.889 672.049 329.981C672.352 329.375 672.654 328.619 673.109 328.164C673.109 328.467 672.957 328.77 672.806 329.073C672.503 329.981 672.049 330.738 671.746 331.646C670.989 333.009 670.383 334.22 669.929 335.582C669.627 336.339 669.324 337.096 669.172 337.853C668.567 338.762 668.264 339.67 668.113 340.578C667.356 342.244 666.75 344.06 666.296 345.877C666.145 346.18 666.145 346.634 665.993 346.937C665.993 346.937 665.842 347.693 665.69 347.996C665.085 349.662 664.782 351.327 664.177 352.992C663.874 354.052 663.571 355.263 663.268 356.474V356.777C663.268 356.777 662.965 357.837 662.965 358.291C662.663 359.199 662.36 360.107 662.209 361.318C661.3 366.012 660.392 370.553 659.635 375.549H659.029Z" fill="var(--fill-0, white)"/>
<path id="Vector_52" d="M696.574 438.679C694.152 439.285 691.73 439.436 689.307 439.285C687.793 439.134 686.734 438.528 685.22 438.225C688.248 438.982 691.124 439.134 694.303 438.831C695.06 438.831 695.968 438.679 696.877 438.528C697.482 438.528 698.239 438.377 698.693 438.225C697.936 438.528 697.18 438.831 696.423 438.982L696.574 438.679Z" fill="var(--fill-0, white)"/>
<path id="Vector_53" d="M694.319 438.676C694.319 438.676 695.984 438.525 696.892 438.373C697.498 438.373 698.255 438.222 698.709 438.07C697.952 438.373 697.195 438.676 696.438 438.827C694.016 439.433 691.594 439.584 689.172 439.433C687.658 439.281 686.598 438.676 685.084 438.373C688.112 439.13 690.988 439.281 694.167 438.979L694.319 438.676Z" fill="var(--fill-0, white)"/>
<path id="Vector_54" d="M671.463 331.491C670.706 332.853 670.1 334.064 669.646 335.427C669.344 336.184 669.041 336.941 668.889 337.698C668.284 338.606 667.981 339.514 667.83 340.423C667.073 342.088 666.467 343.905 666.013 345.721C665.862 346.024 665.862 346.478 665.71 346.781C665.71 346.781 665.559 347.538 665.407 347.841C664.802 349.506 664.499 351.171 663.894 352.837C663.591 353.896 663.288 355.107 662.985 356.319V356.621C662.985 356.621 662.682 357.681 662.682 358.135C662.38 359.044 662.077 359.952 661.926 361.163C661.017 365.856 660.109 370.398 659.352 375.393C658.444 381.449 657.687 388.11 657.687 394.771C657.535 390.835 657.687 387.353 657.838 384.023L658.444 379.632C658.595 378.118 658.595 376.605 659.049 374.939C659.806 368.581 661.017 361.92 662.985 355.107C662.985 354.956 662.985 354.805 663.137 354.805V354.502C663.288 353.594 663.439 352.988 663.742 352.231C663.894 351.625 664.045 350.869 664.348 350.414C664.348 350.263 664.499 349.809 664.499 349.657C665.105 347.841 665.559 346.327 666.164 344.662C666.921 342.391 667.678 340.574 668.435 338.606C669.192 336.638 670.101 334.519 671.009 332.55C671.312 331.642 671.917 330.734 672.371 329.826C672.674 329.22 672.977 328.463 673.431 328.009C673.431 328.312 673.28 328.614 673.128 328.917C672.826 329.826 672.371 330.582 672.069 331.491H671.463Z" fill="var(--fill-0, white)"/>
<path id="Vector_55" d="M687.779 305.453C685.357 308.178 682.935 311.055 680.967 314.082C679.604 315.899 678.393 317.716 677.031 319.684C677.939 318.17 678.999 316.505 680.059 314.991C681.724 312.417 683.541 309.844 685.66 307.421C688.688 303.939 692.018 300.912 695.5 297.732C692.775 300.155 690.353 302.577 687.931 305.302L687.779 305.453Z" fill="var(--fill-0, white)"/>
<path id="Vector_56" d="M826.611 332.551C824.794 330.886 822.978 329.22 821.01 327.555C816.922 323.619 812.986 319.532 809.05 315.595C805.114 311.508 801.026 307.421 796.787 303.333C798.755 305.15 800.875 306.966 802.692 308.934C805.114 311.357 807.536 313.779 809.958 316.352C814.803 321.197 819.647 326.193 824.794 330.583C825.551 331.34 826.157 331.945 826.762 332.4C826.914 332.551 826.914 332.702 827.065 333.005C826.914 332.854 826.762 332.702 826.46 332.702L826.611 332.551Z" fill="var(--fill-0, white)"/>
</g>
<g id="Group_4">
<path id="Vector_57" d="M807.078 429.737C807.078 429.737 806.775 429.131 806.473 428.98L804.959 427.617C798.449 427.012 792.242 425.347 786.489 422.319C789.214 424.741 791.939 427.012 794.513 429.434C801.779 436.095 808.138 443.513 812.074 453.051C819.341 470.006 822.823 491.352 822.066 514.212C821.763 525.566 820.552 534.346 818.432 542.37C815.859 551.756 810.711 561.596 803.142 570.982C773.924 608.375 723.36 625.028 653.57 620.335C590.744 616.096 533.519 597.475 488.102 566.744C482.047 562.656 476.294 557.66 470.693 553.119L467.362 550.394C455.705 540.553 443.897 530.713 432.24 521.024C427.244 516.785 422.248 512.546 417.252 508.308C403.627 496.802 389.397 484.994 375.772 472.731L387.277 464.708C400.751 455.322 415.89 444.573 430.575 433.976C438.295 428.374 445.865 422.47 453.283 417.02C461.609 410.511 470.238 404.001 479.019 397.945C502.333 381.444 526.252 367.213 549.717 355.254C584.991 337.087 623.747 322.857 666.589 311.957C666.892 311.957 667.195 311.805 667.498 311.805C669.466 311.2 671.434 310.897 673.402 310.443C674.31 307.264 675.219 304.084 676.278 301.057C674.613 301.511 672.948 301.814 671.131 302.268C670.374 302.419 669.769 302.57 669.163 302.873C666.892 303.479 664.47 303.933 662.351 304.539C630.559 312.865 604.52 321.343 580.449 331.788C554.713 342.688 528.977 356.011 503.998 371.301C481.593 385.38 461.155 400.519 438.75 417.777C426.79 426.861 414.225 435.792 401.962 444.27L396.815 447.904C390.154 452.748 383.341 457.29 376.529 462.134C375.772 462.74 374.712 463.194 373.804 463.799C371.23 465.313 368.203 467.13 366.386 469.098C365.629 470.158 365.326 471.369 365.326 472.58C365.932 476.062 370.322 479.847 375.469 483.631C376.226 484.237 376.832 484.691 377.286 485.145C388.186 494.531 399.54 504.22 410.591 513.606L424.67 525.414C441.626 539.796 459.036 554.784 476.9 569.014C491.584 580.671 510.054 590.966 535.033 601.714C561.526 613.068 590.592 620.941 621.476 625.331C641.459 628.359 660.08 629.721 677.338 629.721C723.814 629.721 760.45 619.124 788.457 597.778C809.046 582.034 822.974 562.05 827.97 541.613C832.209 523.295 832.663 502.252 828.727 478.938C826.002 463.042 821.157 443.362 807.684 429.737H807.078Z" fill="var(--fill-0, white)"/>
<path id="Vector_58" d="M748.336 391.885C747.427 392.794 746.67 393.853 745.762 394.762C740.918 400.515 736.073 405.813 731.532 410.809C730.623 411.869 729.564 413.08 728.504 414.14C725.93 416.713 723.357 419.287 720.783 421.86C717.604 425.04 714.273 427.916 711.397 431.246C710.791 431.852 710.489 432.155 710.034 432.912C709.429 433.214 708.975 433.971 708.521 434.426L708.218 434.728C706.704 436.394 705.19 438.059 703.525 439.573C703.525 439.573 703.373 439.573 703.373 439.724C701.859 441.389 700.043 442.903 698.377 444.114C697.923 444.417 697.621 444.72 697.166 444.871C700.648 445.023 704.13 445.174 707.612 445.174C708.218 445.174 708.823 445.477 709.429 445.477C710.186 444.72 711.094 443.812 711.851 443.055C714.879 440.027 717.604 437.151 720.48 434.123C723.054 431.398 725.627 428.521 728.201 425.948L732.137 422.012C733.802 420.195 735.619 418.378 737.284 416.41C742.129 411.263 746.67 406.116 750.607 401.423C751.818 400.212 752.726 399.001 753.786 397.79C752.877 397.033 751.969 396.276 751.212 395.367C750.152 394.156 749.244 392.794 748.336 391.28V391.885Z" fill="var(--fill-0, white)"/>
<path id="Vector_59" d="M918.183 353.885C916.518 354.49 914.701 354.49 912.884 354.188C912.279 355.399 911.976 356.61 911.371 357.821C911.371 357.972 911.219 357.972 911.219 358.124L910.614 358.881C909.1 361.908 907.434 365.239 905.618 368.267C903.044 372.657 900.016 376.896 896.534 380.226C895.021 381.589 893.355 382.8 891.69 383.86C888.511 386.131 885.029 387.796 881.396 389.461C879.428 390.218 877.157 390.975 874.886 391.429C867.922 393.397 860.504 394.608 853.086 394.76C850.361 394.911 847.485 394.76 844.76 394.457C837.039 394.305 829.469 392.792 822.808 390.218C812.665 386.585 804.49 379.318 797.224 371.143C794.196 368.115 791.622 365.239 789.2 362.211C788.897 361.908 788.443 361.303 788.14 360.849C786.324 358.881 784.507 356.61 782.842 354.49C782.085 353.733 781.479 352.976 781.025 352.219C779.057 349.949 776.938 347.829 774.969 345.71C771.942 342.682 769.065 339.957 765.735 337.383C758.165 331.328 749.385 326.786 739.242 325.424C723.195 323.001 705.179 328.603 691.1 340.108C688.678 341.925 686.407 344.044 684.439 346.164C683.682 346.921 683.077 347.678 682.471 348.435C677.475 354.188 673.388 360.243 669.906 366.601C668.392 369.629 666.878 372.354 665.667 375.231C663.396 380.529 661.731 385.979 660.368 391.126C659.309 394.76 658.4 398.393 657.795 401.724C657.189 403.692 656.886 405.66 656.735 407.476C656.432 409.444 656.129 411.564 655.978 413.835C655.978 413.835 655.978 413.986 655.978 414.137C658.249 415.5 660.52 417.165 662.336 419.285C663.093 420.193 663.547 421.101 664.304 422.01C664.304 420.95 664.002 419.89 664.002 418.982C664.153 416.56 664.304 414.289 664.759 412.018C664.759 410.958 664.91 409.747 665.061 408.687C665.364 406.417 665.97 404.449 666.424 402.329C666.727 401.269 667.029 399.907 667.332 398.847C668.241 394.76 669.3 390.672 670.814 387.039C671.117 385.676 671.722 384.465 672.177 383.406C677.929 367.812 686.104 355.853 696.399 347.526C697.004 346.769 697.761 346.164 698.367 345.71C702.303 342.985 706.39 340.563 710.327 338.746C723.043 333.144 736.82 332.69 748.476 337.383C750.142 338.14 751.807 338.897 753.472 339.806C756.197 341.471 759.074 343.288 761.496 345.407C766.794 349.646 771.639 354.642 776.181 360.092C777.997 362.06 779.662 364.179 781.328 366.147C782.085 366.904 782.69 367.661 783.296 368.418C783.447 368.721 783.901 369.175 784.053 369.326C786.021 371.749 788.14 374.171 790.108 376.29C790.865 377.047 791.471 377.804 792.076 378.258C804.49 391.278 816.299 398.393 830.529 401.572C833.708 402.329 836.887 402.632 839.915 403.086C842.943 403.389 845.819 403.692 848.847 403.692C859.596 403.843 870.344 402.329 880.336 399.301C883.364 398.393 885.937 397.333 888.511 395.971C892.144 394.305 895.323 392.489 898.351 390.218C900.016 389.158 901.682 387.796 903.196 386.282C907.132 382.649 910.159 377.956 913.036 373.262C914.853 370.083 916.518 366.904 918.183 363.876L918.486 363.119C920.454 359.486 921.816 355.55 923.33 351.765C921.816 352.674 920.151 353.279 918.486 354.036L918.183 353.885Z" fill="var(--fill-0, white)"/>
</g>
<g id="Group_5">
<path id="Vector_60" d="M843.745 401.429L844.032 401.716H844.175L843.601 401.429H843.745Z" fill="var(--fill-0, white)"/>
<path id="Vector_61" d="M741.245 420.963L737.309 416.875L735.038 414.605C733.676 413.242 732.464 411.88 731.405 410.669C731.102 410.366 730.799 410.063 730.496 409.76C729.739 409.155 728.983 408.7 727.923 408.7C726.863 408.7 725.955 409.003 725.198 409.76C718.537 416.421 712.178 422.174 706.123 427.473C704.155 429.289 702.035 430.955 700.067 432.62C697.494 434.588 695.071 436.556 692.649 438.675C691.892 439.432 690.984 440.189 690.076 440.946C689.773 441.249 689.47 441.4 689.167 441.703C690.227 442.157 691.135 442.763 692.044 443.217C693.406 443.823 696.434 445.337 696.737 445.034C697.796 444.277 698.705 443.368 699.916 442.46C701.127 441.552 702.187 440.643 703.246 439.735C703.246 439.584 703.398 439.584 703.398 439.584C704.306 438.827 705.063 438.07 705.971 437.313C707.031 436.405 708.242 435.496 709.302 434.588C715.963 428.835 722.321 422.931 727.62 417.784C729.134 419.298 730.648 420.812 732.01 422.477C736.098 426.716 740.337 430.955 744.273 435.193L746.695 437.616C753.962 445.185 760.623 452.3 763.499 462.141C767.587 474.857 768.495 490.299 766.527 506.649C765.619 514.824 764.105 521.031 761.834 526.481C759.26 533.142 755.021 539.803 749.117 546.161C725.501 570.989 688.108 579.315 638.149 571.14C593.187 563.571 553.22 546.313 522.791 521.031C518.552 517.7 514.768 513.764 511.134 509.979L505.987 504.681C499.175 497.868 492.514 491.056 485.701 484.092L476.315 474.252C467.232 465.017 457.846 455.631 448.914 445.942L457.089 441.249C468.443 434.891 479.494 428.684 490.546 422.174C496.45 418.692 502.354 414.907 508.107 411.425C514.616 407.338 521.277 403.25 527.939 399.466C545.954 389.323 564.12 380.542 581.984 373.578C607.266 363.587 634.667 356.32 664.642 351.476C664.642 351.021 664.34 350.567 664.34 349.962C664.34 347.691 665.248 345.571 666.459 343.603C666.459 343.603 666.459 343.603 666.308 343.603C642.842 347.237 623.465 351.778 605.298 357.531C586.072 363.587 566.391 371.459 547.468 380.845C530.209 389.323 514.313 399.012 496.904 409.912C487.669 415.664 477.829 421.266 468.443 426.413L464.507 428.684C459.359 431.863 454.212 434.588 448.914 437.616C448.157 437.918 447.4 438.373 446.643 438.675C444.675 439.584 442.404 440.643 440.739 442.157C439.982 442.914 439.679 443.823 439.679 444.882C439.679 447.91 442.858 450.938 446.34 454.117C446.946 454.42 447.248 455.025 447.4 455.177C454.818 462.746 462.236 470.467 469.654 478.036L479.04 487.725C490.091 499.382 501.748 511.191 513.405 522.696C523.245 532.385 535.962 541.014 553.372 550.552C571.69 560.543 592.279 568.264 614.23 573.714C635.879 579.013 655.408 581.738 673.12 581.738C698.402 581.738 719.596 576.439 737.158 565.388C753.205 555.396 764.862 541.922 769.857 527.086C774.248 514.067 775.913 498.928 774.853 481.821C773.945 469.861 771.674 454.874 762.439 443.974C755.778 435.95 748.36 428.381 741.396 421.114L741.245 420.963Z" fill="var(--fill-0, white)"/>
<path id="Vector_62" d="M844.957 394.62C844.201 396.436 843.141 398.253 841.93 400.221L843.746 401.584H844.352V401.886L843.746 401.584L841.476 400.675C841.476 400.675 840.567 402.341 839.81 403.098C837.085 407.791 833.906 412.181 829.819 415.057C825.731 418.236 819.978 420.356 813.771 421.567C808.927 422.475 804.083 422.93 799.39 422.475C794.091 422.324 788.641 421.567 783.796 419.902C781.223 419.145 778.801 418.236 776.53 417.177C767.598 412.938 761.391 404.763 755.638 396.437C755.033 395.68 754.276 394.771 753.822 393.863C752.762 392.198 751.551 390.684 750.642 389.17C750.491 389.17 750.491 389.018 750.491 389.018C742.922 378.27 733.99 367.975 720.667 364.645C707.042 361.314 691.147 365.705 679.036 376.15C676.462 378.421 673.888 380.995 671.769 383.568C663.443 393.409 658.447 404.914 655.722 414.3C655.268 415.36 655.116 416.42 654.813 417.328C656.024 417.934 657.084 418.539 657.993 419.599C659.052 420.81 660.112 421.718 661.172 422.93C661.777 420.507 662.383 418.085 663.14 415.814C663.443 414.755 663.897 413.392 664.502 412.332C670.406 395.982 678.884 384.174 689.784 377.513C702.955 369.338 718.245 369.187 729.145 376.907C735.806 381.6 740.802 388.262 745.647 395.074C746.252 395.982 746.706 396.739 747.312 397.648C748.372 399.313 749.583 400.827 750.642 402.341C751.551 403.4 752.308 404.611 753.065 405.671C761.391 417.025 770.323 423.686 780.769 427.017C785.159 428.379 789.852 429.439 794.394 429.742C798.633 430.348 802.871 430.499 806.959 430.045C810.441 430.045 813.771 429.439 817.102 428.682C824.066 427.017 830.121 424.443 834.663 420.659C839.81 416.571 843.746 410.667 847.228 405.52L847.531 404.914C847.531 404.914 848.137 404.006 848.439 403.552C849.953 400.827 851.467 397.95 852.83 395.074C850.105 395.225 847.228 395.074 844.503 394.771L844.957 394.62Z" fill="var(--fill-0, white)"/>
</g>
<path id="Vector_63" d="M704.758 393.255C692.041 391.287 678.113 389.925 663.731 389.622C649.047 389.319 636.935 389.622 625.43 391.136C613.016 392.65 600.299 395.223 587.886 398.705C576.531 401.884 565.934 405.669 554.277 410.362C547.919 412.784 541.258 415.055 535.051 417.174L532.629 417.931C529.298 419.294 525.816 420.354 522.334 421.565C522.032 421.565 521.426 421.716 520.972 421.868C519.458 422.17 517.944 422.624 516.733 423.381C515.976 423.987 515.673 424.744 515.37 425.652C515.068 427.62 516.43 430.043 518.55 432.616C518.701 432.767 518.852 433.222 519.155 433.373C522.637 438.672 526.119 444.122 529.904 449.42L533.991 455.93C539.593 464.256 545.345 472.885 551.25 481.212C556.094 488.176 562.755 494.837 572.141 502.709C582.133 510.884 593.638 517.848 606.355 523.601C625.581 532.23 642.537 536.771 657.827 536.771C666.305 536.771 674.48 535.258 681.898 532.533C692.798 528.294 700.216 523.903 705.06 515.426C705.514 514.669 707.18 510.884 707.483 509.976C709.148 507.856 717.928 489.538 719.896 467.284C720.653 454.567 712.781 447.301 712.176 446.847C704.758 441.094 701.73 438.52 693.101 433.373C683.715 427.62 675.54 423.533 667.365 420.202C666.759 420.051 666.305 419.899 665.699 419.597C663.731 418.537 661.46 417.78 659.19 417.023C653.134 414.601 646.624 412.784 639.963 411.27C631.485 408.999 622.554 407.788 613.773 406.426C608.929 405.82 604.084 404.912 599.391 404.004L596.969 403.701C596.969 403.701 595.606 403.549 595.001 403.398C599.997 401.884 605.144 400.825 610.14 399.916C632.999 395.526 657.676 394.618 685.38 397.191C706.12 399.159 724.287 403.095 740.485 408.848C740.485 408.243 740.485 407.788 740.485 407.183C740.788 405.669 741.545 404.155 742.605 402.944C731.099 398.856 718.534 395.526 705.06 393.255H704.758ZM607.263 411.573C610.442 412.179 613.622 412.633 616.649 413.087C619.98 413.693 623.462 413.995 626.944 414.752C636.179 416.418 645.11 418.688 653.437 421.413C653.74 421.565 654.345 421.716 654.799 422.019C656.767 422.624 659.038 423.381 661.158 424.29C670.241 427.772 679.476 432.313 688.71 437.915C692.949 440.186 697.188 442.911 701.427 445.938C702.184 446.241 702.79 446.695 703.395 447.301C704.606 448.209 715.203 459.26 712.933 474.248C708.694 492.415 707.18 498.622 701.427 508.765C692.344 521.633 694.917 516.031 687.651 522.844C683.412 525.871 677.508 526.78 675.842 527.234C673.42 527.991 670.998 528.294 668.576 528.596C667.213 528.748 662.823 528.596 661.763 528.596C646.473 530.262 631.485 522.541 616.649 505.283C603.176 489.69 594.244 471.977 591.065 454.416C590.459 451.994 590.308 449.572 590.156 446.998V445.938C589.551 440.942 589.248 435.795 588.794 430.799L588.188 424.29C587.886 418.991 587.431 413.541 587.129 408.243L590.156 408.848C595.909 409.908 601.511 410.816 607.112 411.876L607.263 411.573ZM581.376 408.848V409.605C581.981 414.449 582.133 419.294 582.436 423.987L583.041 429.891C583.647 437.461 584.101 445.03 584.858 452.599C585.615 460.774 588.491 468.949 590.762 474.248C594.244 483.331 599.088 492.263 605.447 500.438C613.924 512.095 622.402 520.573 631.334 526.174C628.155 525.266 624.824 524.358 621.494 522.995C595.606 513.609 573.655 498.773 558.213 480.152C556.245 477.73 554.277 475.005 552.461 472.431L551.552 470.917C547.616 465.165 543.983 459.563 540.198 453.962L535.202 446.695C531.115 440.64 526.876 434.281 522.788 427.772L528.39 425.955C535.354 423.533 542.469 421.111 549.433 418.688C553.52 417.174 557.456 415.661 561.241 413.995C565.631 412.33 569.87 410.665 574.412 409.151C576.683 408.394 578.802 407.637 581.073 407.183C581.073 407.486 581.224 408.091 581.224 408.697L581.376 408.848Z" fill="var(--fill-0, white)"/>
</g>
</svg>
