<svg preserveAspectRatio="none" width="100%" height="100%" overflow="visible" style="display: block;" viewBox="0 0 155.769 104.747" fill="none" xmlns="http://www.w3.org/2000/svg">
<g id="Group">
<path id="Vector" d="M155.701 2.42843C155.727 2.33588 155.701 2.26857 155.659 2.2265C155.634 2.18443 155.592 2.13395 155.55 2.09188C155.525 2.04981 155.457 2.02457 155.415 1.99933C155.415 1.99933 155.39 1.99933 155.39 1.97409H155.348C155.348 1.97409 155.323 1.94885 155.306 1.94885C138.285 -1.61017 120.675 0.030512 103.923 4.2458C95.3076 6.43338 86.8517 9.27723 78.6063 12.567C70.8993 15.6296 63.3858 19.0624 56.2173 23.2525C49.0908 27.4004 42.3093 32.1374 35.8812 37.3203C29.8822 42.1918 24.4049 47.5093 18.9023 52.9194C15.3601 56.4111 11.6412 59.7513 7.96439 63.0916C6.20592 64.7154 4.4222 66.3141 2.6469 67.9127C1.88125 68.5858 0.661254 69.3598 0.0975321 70.2096C-0.626051 71.3118 2.8909 72.9862 3.58924 73.4573C7.10619 75.7795 10.6484 78.1017 14.1822 80.3987C21.1235 84.9337 28.048 89.5528 35.124 93.8775C40.5088 97.1673 46.777 99.3801 52.8013 101.097C61.072 103.444 69.6456 104.571 78.2361 104.723C94.3316 105.017 112.556 102.788 124.571 90.9495C129.19 86.3977 132.934 80.3566 133.657 73.7939C134.314 67.9127 133.321 61.7286 131.63 56.0914C130.166 51.2703 128.003 46.0622 123.847 42.9238C122.173 41.6365 120.431 40.4249 118.673 39.2638C118.286 39.4489 117.915 39.6509 117.545 39.8696C117.562 39.8865 117.587 39.8949 117.604 39.9117C121.348 42.4106 125.025 44.6907 127.322 48.7041C130.342 53.9543 131.899 60.2057 132.488 66.1794C132.757 68.9307 132.85 71.7746 132.446 74.5006C131.975 77.7063 130.662 80.7941 129.021 83.5454C120.406 97.9329 103.048 102.51 87.3986 103.436C70.3271 104.428 53.0369 101.786 37.6818 94.0121C35.4016 92.8595 33.2645 91.4207 31.119 90.0408C27.4002 87.6513 23.6813 85.2618 19.9792 82.8471C13.7362 78.7917 7.44274 74.8456 1.3596 70.6051C1.3596 70.5798 1.38484 70.5798 1.38484 70.5798C2.57959 69.4945 3.77434 68.4175 4.9691 67.3321C8.75528 63.9077 12.5415 60.4749 16.2688 56.9832C20.5261 53.0119 24.5227 48.7966 28.8053 44.8758C34.737 39.5078 41.0052 34.5017 47.61 30.0171C61.3665 20.661 76.5785 13.8964 92.388 8.78082C108.576 3.50539 125.69 0.148305 142.761 1.34306C146.749 1.6123 150.695 2.13395 154.599 2.94167C154.372 8.21709 154.078 13.5178 152.302 18.5408C151.419 20.9555 150.477 23.6395 148.811 25.6167C147.212 27.4846 145.041 28.8644 142.795 29.8068C142.096 30.1013 141.398 30.3705 140.675 30.5977C139.682 30.9342 138.664 31.2035 137.654 31.4054C134.246 32.1037 130.662 32.1458 127.372 31.3633C125.008 30.7996 122.905 29.6469 120.995 28.2502C120.473 27.8632 119.977 27.4846 119.506 27.0807C117.705 25.6167 116.031 23.9929 114.365 22.5036C110.671 19.1886 106.447 16.0082 101.239 15.9241C95.5347 15.8315 90.1668 19.1297 86.8517 23.6143C85.5224 25.4148 84.437 27.4257 83.6293 29.546C83.5367 29.7479 83.4526 29.9751 83.3853 30.2022V30.2275C83.2927 30.4546 83.2086 30.6818 83.1413 30.9006C82.6869 32.2299 82.3336 33.5846 82.0559 34.956C82.0138 35.1579 81.9465 35.343 81.9213 35.545C81.6268 37.1267 81.4249 38.7254 81.3155 40.2819C81.2734 40.7783 81.2482 41.2747 81.2229 41.7459V42.0404C81.1977 42.1077 81.1977 42.2002 81.1977 42.2844V42.3096C81.1977 42.8986 81.2229 43.4791 81.2902 44.1102C81.5595 47.3579 82.7122 50.8496 85.1269 52.81C85.3036 52.9698 85.4635 53.1045 85.6654 53.2391C85.8421 53.3737 86.0524 53.4831 86.2544 53.6009C86.3469 53.6514 86.4647 53.6682 86.5573 53.7187C86.7003 53.584 86.8517 53.4578 87.0116 53.3569C87.1799 53.2475 87.3986 53.1634 87.5753 53.096C87.6258 53.0792 87.6847 53.0792 87.7352 53.0624C87.6342 52.9698 87.5164 52.8857 87.4239 52.7932C87.3986 52.7847 87.3818 52.7763 87.3566 52.7679C86.9948 52.6081 86.633 52.4061 86.2964 52.179C85.3457 51.5479 84.5632 50.6897 83.949 49.7474C82.2831 47.0634 82.1653 43.7315 82.4177 40.6605C82.4429 40.366 82.4598 40.0716 82.485 39.8023C82.5102 39.5751 82.5271 39.3312 82.5776 39.104V39.0367C82.6196 38.6076 82.6701 38.2289 82.7374 37.8167C82.9393 36.2601 83.2591 34.7036 83.6629 33.1723C83.8901 32.272 84.1593 31.3886 84.4707 30.5135C84.538 30.2864 84.6305 30.0592 84.7146 29.8404L84.7399 29.8152C84.8072 29.588 84.8997 29.3861 84.9839 29.1589C85.5897 27.7118 86.3385 26.3403 87.2135 25.0362C87.9539 23.934 88.7953 22.9159 89.7629 21.9736C94.0203 17.8004 100.356 15.7474 106.018 18.0948C110.419 19.8954 113.708 23.5049 117.2 26.618C117.469 26.862 117.764 27.0891 118.033 27.3416C118.058 27.3668 118.075 27.3836 118.1 27.4089H118.126C118.445 27.6781 118.757 27.9473 119.076 28.1745C119.304 28.3764 119.531 28.5363 119.75 28.713C119.926 28.8476 120.111 28.957 120.288 29.0748C120.288 29.0748 120.288 29.1 120.313 29.1C120.49 29.2599 120.675 29.3693 120.877 29.4871C123.653 31.3802 126.649 32.6675 130.191 32.9619C131.386 33.0545 132.58 33.0713 133.775 33.004H133.8C135.088 32.9619 136.392 32.8021 137.654 32.5497H137.679C139.892 32.1206 142.029 31.4475 144.015 30.522C146.202 29.4871 148.272 28.0651 149.812 26.172C151.436 24.1696 152.378 21.5697 153.287 19.1802C155.247 13.8122 155.542 8.1582 155.769 2.49574C155.769 2.4705 155.769 2.45367 155.744 2.42843H155.701Z" fill="var(--fill-0, white)"/>
<path id="Vector_2" d="M147.717 7.34201L147.608 7.23263C147.582 7.19056 147.54 7.16532 147.498 7.14008H147.431C147.431 7.14008 147.406 7.11483 147.389 7.11483C132.101 3.90919 116.3 5.3816 101.256 9.16779C93.524 11.1282 85.9263 13.7028 78.5306 16.656C71.6061 19.4073 64.8415 22.4699 58.4218 26.2393C52.0189 29.9582 45.9273 34.2239 40.1555 38.8852C34.7707 43.2603 29.8487 48.0141 24.9098 52.8856C21.7294 56.0156 18.3976 59.0193 15.0825 62.0146C13.5007 63.4786 11.9021 64.9005 10.3035 66.3476C9.63041 66.9534 8.5198 67.6518 8.02339 68.4258C7.36712 69.4187 10.5223 70.9079 11.1533 71.337C14.3085 73.4152 17.4889 75.5102 20.6693 77.58C26.9123 81.6354 33.1132 85.7834 39.474 89.6622C44.3203 92.6406 49.9575 94.6263 55.3508 96.1576C62.7885 98.2526 70.4787 99.2707 78.1941 99.4053C92.6489 99.6745 109.014 97.672 119.817 87.0455C123.965 82.9396 127.322 77.5295 127.953 71.6231C128.542 66.3477 127.659 60.803 126.152 55.7463C124.823 51.3964 122.88 46.7268 119.161 43.9082C118.126 43.1173 117.04 42.3264 115.955 41.586C115.778 41.4514 115.593 41.342 115.417 41.2242C115.257 41.0896 115.097 40.9802 114.92 40.8876C114.6 41.0896 114.289 41.2915 113.927 41.4514C114.104 41.5607 114.289 41.6954 114.466 41.8131C114.642 41.9478 114.828 42.0571 115.029 42.2002C117.848 44.0933 120.507 46.0369 122.265 49.0995C124.975 53.8112 126.371 59.4231 126.91 64.7911C127.137 67.2479 127.229 69.8225 126.868 72.2541C126.439 75.14 125.269 77.9166 123.78 80.3734C116.048 93.2885 100.465 97.4196 86.4227 98.2274C71.0929 99.1276 55.5527 96.7634 41.7794 89.7715C39.7264 88.7366 37.8081 87.4493 35.8981 86.2125C32.5411 84.067 29.2008 81.9299 25.8858 79.7676C20.2738 76.116 14.6366 72.5738 9.15924 68.7624C9.15924 68.7372 9.18448 68.7372 9.18448 68.7372C10.2699 67.7696 11.33 66.802 12.407 65.826C15.8145 62.7382 19.2137 59.6671 22.5539 56.5372C26.3906 52.9782 29.9496 49.1836 33.8031 45.6498C39.1206 40.8456 44.7578 36.3358 50.6895 32.3224C63.0409 23.9087 76.7049 17.8508 90.8904 13.2485C105.429 8.51152 120.81 5.49098 136.123 6.55111C139.707 6.79511 143.249 7.2747 146.766 7.98986C146.564 12.7268 146.295 17.4806 144.688 22.0156C143.897 24.1779 143.039 26.5927 141.558 28.3764C140.473 29.6132 139.126 30.6313 137.637 31.4222C137.166 31.6914 136.67 31.9186 136.148 32.1457C135.382 32.4655 134.591 32.7515 133.784 33.004C130.09 34.1314 125.984 34.4259 122.307 33.5424C121.634 33.3826 121.003 33.1554 120.372 32.9114C120.196 32.8441 120.01 32.7515 119.834 32.6842C119.834 32.6842 119.808 32.659 119.792 32.659C119.632 32.5664 119.455 32.4991 119.27 32.415C116.679 31.0856 114.449 29.0579 112.278 27.0975C111.824 26.6684 111.378 26.2645 110.924 25.8607C110.831 25.7681 110.722 25.684 110.629 25.5914C107.314 22.613 103.528 19.7523 98.8414 19.6597C94.399 19.5924 90.1837 21.8221 87.2052 25.0445C86.7341 25.541 86.3049 26.0374 85.9179 26.5758C85.2616 27.4593 84.6811 28.4016 84.1847 29.3945C84.0501 29.6216 83.9407 29.8488 83.8229 30.0676V30.0928L83.7977 30.118C83.6883 30.3452 83.5705 30.5724 83.5032 30.7911C82.8974 32.1205 82.401 33.5424 82.0392 34.9644C81.5007 36.95 81.1557 39.003 80.979 41.0307C80.937 41.6365 80.8865 42.2507 80.8697 42.8565C80.8697 42.9658 80.8697 43.1005 80.8444 43.2182V43.538C80.8444 44.1942 80.8865 44.8926 80.979 45.5909C81.3408 48.4348 82.4178 51.3375 84.5633 52.9445C84.7652 53.1465 84.9924 53.3063 85.2364 53.4157C85.4636 53.5503 85.6907 53.6597 85.9347 53.7775C86.2124 53.8953 86.4985 53.9879 86.8014 54.072C86.8182 54.0299 86.8014 53.9879 86.8266 53.9542C86.8855 53.7691 86.9949 53.6092 87.1379 53.4662C87.2641 53.3232 87.424 53.2306 87.6007 53.1717C87.6007 53.1717 87.5838 53.1633 87.5838 53.1549C87.3987 53.1212 87.2136 53.0876 87.0454 53.0371C86.6415 52.9025 86.2376 52.7174 85.8506 52.4986C84.8325 51.9097 83.9575 51.0515 83.3265 50.0418C81.8373 47.6523 81.7279 44.6738 81.9298 41.9225C81.955 41.6533 81.9719 41.384 81.9971 41.1148C82.0392 40.7109 82.0897 40.3239 82.157 39.9201L82.1317 39.8948L82.157 39.8696V39.8023C82.157 39.8023 82.1317 39.777 82.157 39.7602C82.199 39.289 82.2663 38.8347 82.3589 38.3888C82.6281 36.6303 83.0572 34.897 83.6462 33.2059C83.9407 32.2551 84.3193 31.338 84.7484 30.4546C84.8578 30.2106 84.9756 29.9834 85.1102 29.7562V29.731H85.1354C85.2448 29.5038 85.3626 29.2598 85.5225 29.0327C86.3302 27.6107 87.3483 26.2814 88.543 25.1119C92.3797 21.3677 98.059 19.5167 103.149 21.637C105.471 22.5877 107.457 24.119 109.35 25.785C109.805 26.172 110.25 26.5758 110.705 27.0049C111.765 27.9978 112.825 29.0074 113.927 29.9329C115.576 31.3044 117.268 32.4991 119.093 33.3826C119.253 33.4499 119.43 33.5424 119.615 33.6097C119.615 33.6097 119.629 33.6182 119.657 33.635C119.834 33.7275 119.994 33.7948 120.179 33.8369C121.617 34.4427 123.174 34.8297 124.848 34.9644C129.038 35.3261 133.464 34.5605 137.275 32.7768C137.41 32.7095 137.545 32.6422 137.662 32.5748C138.748 32.0532 139.758 31.4222 140.683 30.6397C141.339 30.118 141.945 29.5375 142.467 28.8812C143.931 27.0807 144.789 24.7585 145.597 22.613C147.355 17.7919 147.608 12.7184 147.809 7.61966V7.57759C147.809 7.48504 147.809 7.41773 147.767 7.37566L147.717 7.34201Z" fill="var(--fill-0, white)"/>
<path id="Vector_3" d="M138.992 14.8978C138.992 14.8052 138.967 14.6959 138.9 14.6285C138.874 14.5865 138.832 14.536 138.807 14.4939C138.782 14.4687 138.765 14.4519 138.714 14.4266V14.3172H138.513L138.445 14.292C126.632 11.5828 113.238 11.9277 98.6061 15.3269C92.2706 16.8161 85.6405 18.8438 78.9011 21.3932C72.0439 23.9594 66.4993 26.4919 61.4089 29.3526C55.9989 32.3479 50.6309 35.9153 45.4649 39.9287C40.8205 43.5803 36.6725 47.4338 32.0954 51.7668C29.6134 54.1311 26.9799 56.4365 24.4305 58.6409L23.505 59.4486C22.1335 60.6686 20.7284 61.8802 19.3317 63.1002C19.1551 63.2348 18.9447 63.3947 18.726 63.5713C18.2043 63.9584 17.6238 64.3791 17.2788 64.8755C17.1694 65.0522 17.1189 65.2625 17.1694 65.4644C17.3293 66.188 18.4315 66.8864 19.5589 67.5595C19.7609 67.6688 19.9207 67.7614 20.0133 67.8287C22.6973 69.6797 25.3981 71.5223 28.1073 73.3565C29.2095 74.1222 30.3369 74.871 31.4476 75.6367C35.5703 78.4553 39.8361 81.3664 44.0934 84.0672C47.5851 86.2969 51.9182 88.1732 57.7153 89.9316C63.8237 91.7995 70.4285 92.8596 77.3782 93.1373C78.6824 93.1793 79.9444 93.2046 81.1897 93.2046C95.7959 93.2046 106.423 89.8643 113.566 83.0828C117.714 79.162 120.33 74.4251 120.919 69.8059C121.458 65.6832 121.012 61.0388 119.615 55.9821C118.622 52.5073 117.066 48.1994 113.709 45.5659C113.145 45.1116 112.581 44.6825 111.992 44.2618C111.723 44.0346 111.429 43.8327 111.159 43.6307C111.159 43.656 111.134 43.656 111.134 43.6728L111.067 43.7654C110.89 44.1272 110.68 44.531 110.461 44.9181C110.756 45.0947 111.025 45.3219 111.319 45.507C113.12 46.8785 114.744 48.3677 115.871 50.4206C117.882 54.0975 119.161 58.7418 119.565 63.8826C119.767 66.4068 119.725 68.4345 119.405 70.2434C119.043 72.4563 118.118 74.7532 116.679 77.0754C111.016 86.137 100.171 91.0759 84.4626 91.7069C70.3948 92.2454 57.2273 89.4941 46.3567 83.7223C44.8927 82.9566 43.4708 82.0059 42.1162 81.0804L41.3758 80.5839C38.5319 78.6909 35.6965 76.7725 32.8779 74.8542C31.6579 74.0465 30.4632 73.2303 29.2684 72.4394C25.8608 70.1425 22.3271 67.7698 18.9616 65.3382L21.6876 62.9487C24.5735 60.4498 27.5267 57.8752 30.3874 55.2838C31.9692 53.8619 33.5173 52.3726 35.0318 50.9507C36.723 49.3521 38.4562 47.6778 40.2399 46.1044C45.061 41.9143 49.9999 38.145 54.964 34.9225C64.8838 28.4523 76.2676 23.2863 89.7801 19.2056C104.235 14.7884 116.973 13.1645 128.694 14.1994C131.739 14.4687 134.71 14.923 137.528 15.5541C137.259 19.8114 136.922 23.6228 135.568 27.2323L135.5 27.409C134.827 29.1675 134.053 31.1532 132.816 32.5751C131.689 33.8371 130.107 34.8973 128.214 35.6377C124.445 37.1942 120.053 37.5308 116.443 36.6053C113.061 35.7471 110.47 33.265 107.962 30.9007C107.533 30.4716 107.079 30.0425 106.633 29.6387C103.747 26.9547 100.524 24.4306 96.4186 24.2959C92.2453 24.1613 87.8534 26.391 84.9674 30.1351C83.3688 32.2301 82.2834 34.5775 81.5851 36.8997C81.4505 37.2615 81.3411 37.6402 81.2654 38.0272C80.6764 40.2568 80.4072 42.4276 80.2978 44.2029C80.2305 45.263 80.2978 46.4998 80.525 47.7198C80.6344 48.4434 80.8447 49.1418 81.0887 49.8149C81.4505 50.8077 81.9637 51.7332 82.6705 52.4988C83.3688 53.2897 84.227 53.8535 85.1694 54.1648C85.4218 54.2489 85.6826 54.2826 85.9434 54.333C85.9182 54.19 85.893 54.047 85.9266 53.9039C85.935 53.702 85.9939 53.5169 86.1033 53.3402C86.1369 53.2813 86.1958 53.2477 86.2295 53.1972C86.1454 53.1383 86.0612 53.0878 85.9771 53.0205C85.8845 52.9448 85.8088 52.8438 85.7415 52.7428C84.5299 52.2969 83.4614 51.3714 82.7967 50.2776C82.233 49.3269 81.9132 48.2667 81.7786 47.1645C81.6692 46.3568 81.6692 45.5154 81.6861 44.7077C81.7113 44.0514 81.7786 43.4036 81.8459 42.7725C82.0479 40.9215 82.3844 39.2135 82.864 37.6317C82.9566 37.2279 83.0912 36.8408 83.2258 36.4791C84.2186 33.5006 85.7078 31.0943 87.643 29.2601C91.202 25.903 96.0315 24.8428 99.9523 26.5508C102.611 27.7035 104.757 29.7733 106.826 31.7589C107.55 32.4573 108.29 33.1556 109.039 33.8119C110.209 34.8468 111.361 35.705 112.514 36.3781C112.539 36.3781 112.556 36.4033 112.556 36.4033C113.01 36.6726 113.456 36.925 113.928 37.1269C115.392 37.8253 116.906 38.2291 118.479 38.4142C122.173 38.776 126.035 38.1702 129.35 36.6978C131.285 35.8228 132.842 34.6953 133.969 33.3407C135.256 31.8515 135.997 29.9584 136.72 28.1074L136.813 27.9307C138.37 23.9173 138.706 19.8787 139.001 14.9651L138.975 14.8725L138.992 14.8978Z" fill="var(--fill-0, white)"/>
<g id="Group_2">
<path id="Vector_4" d="M113.49 55.435C112.749 52.8856 111.664 49.7978 109.519 47.5429C109.291 47.2989 109.022 47.0465 108.753 46.8193C108.366 47.0886 107.945 47.2905 107.491 47.4924C107.785 47.7196 108.055 47.9636 108.324 48.2328C109.047 48.9564 109.695 49.7641 110.217 50.7149C111.933 53.828 113.01 57.7909 113.372 62.166C113.532 64.3283 113.481 66.0448 113.237 67.5761C112.918 69.4692 112.135 71.4127 110.915 73.39C106.094 81.097 96.8475 85.2954 83.478 85.8339C71.48 86.3051 60.2561 83.9661 51.0094 79.044C49.7473 78.3877 48.5526 77.58 47.383 76.7891L46.752 76.36C44.3373 74.7362 41.9309 73.1123 39.5162 71.4885C38.4813 70.7901 37.4632 70.117 36.4536 69.4103C33.5424 67.4751 30.5724 65.4642 27.7033 63.4113L29.8488 61.5182C32.3477 59.3558 34.9223 57.1009 37.4211 54.8461C38.7505 53.6513 40.0799 52.3892 41.3672 51.1692C42.806 49.7978 44.2952 48.3759 45.8097 47.0465C49.9156 43.4622 54.1309 40.2566 58.3462 37.5053C66.6253 32.1121 76.0739 27.7958 87.239 24.363C87.5082 23.8245 87.8027 23.2524 88.1392 22.7223C85.043 23.6479 81.9047 24.6912 78.7243 25.8859C72.9104 28.0735 68.1482 30.2358 63.8235 32.6758C59.2044 35.242 54.6273 38.2878 50.2016 41.7206C46.2303 44.8084 42.562 48.2581 38.8178 51.8003C36.7228 53.7859 34.4847 55.7211 32.3477 57.5973L31.4895 58.3378C30.362 59.3558 29.2093 60.3655 28.0651 61.3583L27.9304 61.4508C27.7958 61.5855 27.6107 61.7201 27.434 61.8547C26.9797 62.1913 26.4833 62.5783 26.1972 63.0074C26.0878 63.1673 26.0373 63.3439 26.0878 63.529C26.2224 64.1601 27.1732 64.7659 28.1408 65.3296C28.3006 65.4221 28.4605 65.5063 28.5278 65.5736C30.8248 67.1301 33.1301 68.7035 35.4271 70.26C36.3778 70.9163 37.3202 71.5474 38.2709 72.1952C41.7879 74.61 45.4142 77.092 49.0742 79.4142C52.0527 81.3073 55.7463 82.9059 60.6852 84.4204C65.8933 86.0022 71.5305 86.9025 77.4622 87.1296C78.5644 87.1717 79.6498 87.1969 80.7099 87.1969C93.1791 87.1969 102.241 84.3531 108.349 78.5644C111.891 75.2073 114.121 71.1687 114.643 67.1974C115.097 63.6805 114.71 59.7092 113.515 55.4098L113.49 55.435Z" fill="var(--fill-0, white)"/>
<path id="Vector_5" d="M130.023 20.4169C130.023 20.3244 129.998 20.2402 129.956 20.1729C129.913 20.1308 129.888 20.0804 129.863 20.0635C129.838 20.0383 129.838 20.0215 129.821 20.0215V19.8868H129.577L129.552 19.8616C123.14 18.3976 116.157 18.0106 108.719 18.65C108.82 18.751 108.913 18.8435 109.014 18.9361C109.443 19.2474 109.897 19.5166 110.343 19.8027C114.079 19.5503 117.688 19.5503 121.18 19.8616C123.771 20.0888 126.296 20.4674 128.685 21.0143C128.458 24.6238 128.163 27.8715 127.019 30.9341L126.952 31.094C126.388 32.5832 125.732 34.2744 124.672 35.4691C123.721 36.5545 122.375 37.4548 120.768 38.0858C118.488 39.0113 115.947 39.4404 113.549 39.3226C113.187 39.2974 112.85 39.2805 112.514 39.2301C111.908 39.1628 111.319 39.0702 110.755 38.9103C108.82 38.4139 107.146 37.2612 105.64 35.9571C105.169 35.5701 104.714 35.1494 104.285 34.7371C104.041 34.51 103.789 34.266 103.545 34.0388C103.183 33.677 102.804 33.3152 102.417 32.9786C99.9605 30.6817 97.184 28.5109 93.6923 28.4016C90.0828 28.2922 86.3387 30.1853 83.8818 33.3825C83.0489 34.4679 82.3674 35.6374 81.8289 36.8321C81.669 37.2192 81.5092 37.623 81.3745 38.0017C80.3817 40.6436 80.0199 43.3192 79.8853 45.4226C79.818 46.4827 79.9105 47.77 80.205 49.0069C80.3649 49.7304 80.6089 50.4288 80.9454 51.085C81.2147 51.6067 81.5344 52.1031 81.913 52.5238C82.7965 53.4746 83.8734 54.0551 85.1607 54.1729C85.2701 54.1981 85.4047 54.1981 85.5225 54.1981C85.9516 54.2234 86.3807 54.1729 86.8098 54.0635C86.9949 54.013 87.1716 53.8952 87.3567 53.8195C87.2726 53.727 87.1885 53.6344 87.1127 53.5166C87.0959 53.4914 87.0791 53.4577 87.0707 53.4325C87.0033 53.2979 86.936 53.1548 86.894 53.0034C86.894 52.9866 86.894 52.9697 86.8856 52.9529C86.8687 52.8688 86.8603 52.7762 86.8519 52.6921C86.7678 52.7257 86.6752 52.7678 86.5911 52.793C84.7905 53.2474 83.0068 52.0695 82.1065 50.5802C81.7447 49.9744 81.5008 49.3182 81.3661 48.6198C81.1642 47.6943 81.139 46.7267 81.1894 45.776C81.2147 45.2375 81.2568 44.7158 81.3241 44.1942C81.5933 41.6953 82.1318 39.5077 82.9479 37.6146C83.1078 37.1855 83.3097 36.8069 83.5116 36.4199C84.2352 34.9727 85.1607 33.7359 86.2377 32.7262C89.2582 29.8656 93.3641 28.9569 96.696 30.4293C98.8163 31.3548 100.575 32.9534 102.241 34.5773C102.333 34.6698 102.443 34.754 102.535 34.8465C102.83 35.1157 103.124 35.4102 103.41 35.7047C103.747 35.9992 104.066 36.3105 104.403 36.605C107.062 38.9524 109.502 40.164 112.253 40.4837C112.346 40.509 112.413 40.5258 112.497 40.5258C112.766 40.551 113.019 40.5679 113.288 40.5931C116.199 40.753 119.169 40.2061 121.786 39.0618C123.452 38.3214 124.781 37.3454 125.757 36.2011C126.842 34.9138 127.49 33.29 128.105 31.7166L128.172 31.5567C129.501 28.1492 129.796 24.6827 130.04 20.5095L130.014 20.4169H130.023Z" fill="var(--fill-0, white)"/>
</g>
<g id="Group_3">
<path id="Vector_6" d="M51.9431 46.6845C54.4672 44.6315 57.0418 42.7384 59.608 41.0473C58.4133 41.7877 57.2438 42.6038 56.0658 43.462C54.6439 44.4969 53.2725 45.5823 51.9431 46.6845Z" fill="var(--fill-0, white)"/>
<path id="Vector_7" d="M67.2476 36.5377C64.6814 37.867 62.1068 39.3563 59.6079 41.0474C60.4914 40.4837 61.3411 39.9452 62.1993 39.4236C67.4748 36.2011 73.2887 33.5424 79.8514 31.3296C79.7168 31.3716 79.5569 31.4221 79.4223 31.4642C74.6685 33.088 70.7898 34.6866 67.2476 36.5377Z" fill="var(--fill-0, white)"/>
<path id="Vector_8" d="M83.6209 37.4884C81.2314 40.4164 80.4405 44.1857 80.1965 46.8445C80.1713 47.2483 80.1545 47.6774 80.1713 48.1486C80.1713 47.3409 80.2638 46.5247 80.3732 45.7843C80.979 41.5522 82.4682 38.3802 84.8073 36.3273C84.395 36.6891 83.9827 37.0593 83.6209 37.4884Z" fill="var(--fill-0, white)"/>
<g id="Vector_9">
</g>
<path id="Vector_10" d="M115.736 40.9967C115.29 41.3417 114.794 41.653 114.255 41.9223C114.802 41.6446 115.307 41.3417 115.736 40.9967Z" fill="var(--fill-0, white)"/>
<path id="Vector_11" d="M114.255 41.9223C114.213 41.9474 114.171 41.9725 114.129 41.9893C114.171 41.9642 114.213 41.9391 114.255 41.9223Z" fill="var(--fill-0, white)"/>
<path id="Vector_12" d="M106.279 43.1929C106.616 43.2349 106.978 43.2854 107.314 43.2854C106.414 43.2181 105.53 43.0582 104.697 42.8142C105.219 42.9909 105.732 43.1087 106.279 43.2013V43.1929Z" fill="var(--fill-0, white)"/>
<path id="Vector_13" d="M105.875 55.0056C105.968 55.3674 106.052 55.7039 106.145 56.0657C106.145 56.0236 106.145 55.9563 106.119 55.9058C106.052 55.6114 105.959 55.3169 105.875 55.0056Z" fill="var(--fill-0, white)"/>
<path id="Vector_14" d="M84.8155 36.3187C84.8155 36.3187 84.8155 36.3186 84.8073 36.3269C84.8073 36.3269 84.8155 36.3187 84.8237 36.3104L84.8155 36.3187Z" fill="var(--fill-0, white)"/>
<path id="Vector_15" d="M84.8155 36.3106C85.1016 36.0582 85.4044 35.831 85.7073 35.6207C85.396 35.8394 85.1016 36.0582 84.8155 36.3106Z" fill="var(--fill-0, white)"/>
<path id="Vector_16" d="M85.7074 35.6204C85.8588 35.511 86.0187 35.4184 86.1786 35.3175C86.0187 35.4184 85.8673 35.511 85.7074 35.6204Z" fill="var(--fill-0, white)"/>
<path id="Vector_17" d="M93.9023 34.6444C93.8013 34.5939 93.7004 34.5687 93.5994 34.5266C93.9275 34.6781 94.2641 34.8043 94.5838 35.0062C94.3566 34.8716 94.1295 34.7622 93.9107 34.6444H93.9023Z" fill="var(--fill-0, white)"/>
<g id="Vector_18">
</g>
<path id="Vector_19" d="M86.1786 35.3261C86.7592 34.9643 87.3649 34.6698 87.9876 34.451C87.3649 34.6782 86.7676 34.9643 86.1786 35.3261Z" fill="var(--fill-0, white)"/>
<path id="Vector_20" d="M83.5864 53.4323C83.5864 53.4323 83.5365 53.4157 83.5115 53.4157C83.5365 53.4157 83.5614 53.4323 83.5864 53.4323Z" fill="var(--fill-0, white)"/>
<path id="Vector_21" d="M43.9332 53.6092C44.2024 53.4073 44.4548 53.1801 44.7241 52.9529C45.8263 52.0274 46.9369 51.0346 48.0139 50.0923C48.4009 49.7305 48.8048 49.3939 49.1834 49.0321C48.3252 49.7557 47.467 50.5214 46.6172 51.287C45.7421 52.0779 44.8335 52.8436 43.9332 53.6092Z" fill="var(--fill-0, white)"/>
<path id="Vector_22" d="M102.905 48.5357C102.771 48.662 102.106 49.2425 102.022 49.3182C102.821 50.0586 103.528 50.8916 104.05 51.9181C105.354 54.4674 106.128 57.6899 106.304 61.2489C106.372 62.9822 106.304 64.362 106.06 65.5988C105.766 67.1133 105.068 68.6614 104.033 70.218C99.9268 76.3264 92.3797 79.4647 81.5512 79.5488H81.0969C71.5557 79.5488 62.696 77.3613 55.4601 73.2133C54.4673 72.6496 53.525 71.9765 52.5995 71.2949L52.1031 70.9584C50.1847 69.587 48.2664 68.2071 46.3565 66.8104C45.5656 66.2215 44.7579 65.6577 43.9417 65.0772C41.6616 63.4281 39.3226 61.7369 37.0677 60.0037L38.8009 58.5818C40.8539 56.9158 42.991 55.1742 45.0944 53.3737C46.2219 52.4481 47.324 51.4553 48.3842 50.513C49.6042 49.4276 50.841 48.3254 52.1031 47.2653C55.5106 44.4887 59.0023 42.0151 62.494 39.8948C68.5351 36.218 75.2998 33.2395 83.0993 30.9005C83.234 30.8585 83.3433 30.8332 83.4864 30.7911C83.8061 30.6986 84.1174 30.6145 84.4371 30.5219C84.5297 30.4967 84.6391 30.4798 84.7316 30.4293C85.0345 30.3536 85.3374 30.2611 85.6403 30.1769C85.6571 30.1349 85.6487 30.0928 85.6739 30.0507C85.7244 29.9666 85.7665 29.8656 85.817 29.7815C85.7328 29.4954 85.7497 29.2009 85.8759 28.9149C85.7497 28.9485 85.6319 28.9738 85.5057 29.0158C85.329 29.0579 85.1439 29.1252 84.9672 29.1757C84.6979 29.243 84.4455 29.3103 84.1763 29.4029C83.9996 29.4449 83.7893 29.4954 83.6126 29.5627C82.1654 29.9918 80.7267 30.463 79.2627 30.9594C74.4584 32.5833 70.5797 34.2071 66.9954 36.0581C63.184 38.0186 59.3978 40.366 55.7462 43.0247C52.4564 45.4395 49.5032 48.0057 46.2555 50.8916C44.5223 52.4481 42.6712 53.9542 40.8875 55.4014L40.164 56.0072C39.2132 56.7728 38.2708 57.5637 37.3033 58.3294L37.1939 58.4219C37.0845 58.5145 36.9246 58.6238 36.79 58.7416C36.403 58.9856 35.9823 59.2801 35.7299 59.6419C35.6373 59.7765 35.5953 59.9364 35.6373 60.0962C35.7299 60.6347 36.4451 61.1311 37.2612 61.6528C37.3958 61.7453 37.5052 61.8126 37.5557 61.8547C39.3815 63.1841 41.2073 64.5135 43.033 65.8428L45.2459 67.4667C48.0392 69.4944 50.9251 71.6147 53.8363 73.6003C56.2006 75.2242 59.1538 76.5956 63.1251 77.9502C67.2983 79.3721 71.8501 80.2472 76.6292 80.5921C78.253 80.7015 79.8096 80.7688 81.2988 80.7688C90.3604 80.7688 97.125 78.6738 101.904 74.4333C104.857 71.8166 106.776 68.5941 107.289 65.3885C107.76 62.5446 107.558 59.2969 106.683 55.78C106.086 53.3905 105.127 50.4625 102.922 48.5357H102.905ZM56.0659 43.4623C57.2354 42.6041 58.4134 41.7963 59.6081 41.0475C62.107 39.3563 64.6816 37.8671 67.2478 36.5377C69.5027 35.343 71.9343 34.2576 74.6183 33.2227C74.7781 33.1806 74.9127 33.1133 75.0726 33.0629C75.1652 33.0208 75.2493 32.9955 75.3419 32.9703C74.6688 33.2143 74.0125 33.492 73.3394 33.778C72.3886 34.1651 71.4715 34.5689 70.546 34.998C70.5039 35.0233 70.4535 35.0401 70.4114 35.0653C69.9402 35.2925 69.4606 35.5197 68.9895 35.7384C68.5183 35.9656 68.0639 36.1928 67.5928 36.4115C66.9617 36.7313 66.356 37.0426 65.7418 37.3791C64.547 38.0354 63.3523 38.7085 62.1996 39.4068C61.3414 39.9285 60.4832 40.467 59.6081 41.0307C57.0419 42.7218 54.4673 44.6149 51.9432 46.6679C53.2726 45.5657 54.6524 44.4803 56.0659 43.4454V43.4623Z" fill="var(--fill-0, white)"/>
<path id="Vector_23" d="M117.68 39.7095C117.226 39.9451 116.704 39.9367 116.266 39.7263C116.224 39.7684 116.199 39.8273 116.157 39.8694C115.795 40.2564 115.391 40.593 114.92 40.8874C114.6 41.0894 114.289 41.2913 113.927 41.4512C113.608 41.611 113.296 41.7456 112.96 41.8803C110.343 42.8478 107.323 42.9825 104.866 42.2673C104.26 42.0906 103.696 41.8382 103.149 41.5269C102.83 41.3502 102.518 41.1399 102.224 40.9211C102.131 40.8538 102.047 40.7865 101.955 40.6939C101.685 40.5172 101.416 40.2901 101.147 40.0629C100.474 39.4571 99.8175 38.8008 99.1864 38.1698C98.892 37.8753 98.5975 37.564 98.3114 37.2864C96.351 35.3512 94.1634 33.517 91.3196 33.3403C88.4084 33.1131 85.3038 34.6024 83.2003 37.1265C83.0236 37.3537 82.8385 37.5808 82.7039 37.8248C82.5693 38.0015 82.4347 38.1866 82.3421 38.3633C81.913 38.9691 81.5512 39.6254 81.282 40.2816C81.1726 40.5256 81.0548 40.7781 80.9623 41.0221C80.1545 43.075 79.7675 45.128 79.6329 46.7939C79.473 48.5776 79.7927 51.0513 81.1221 52.633C81.8625 53.5081 82.8385 54.0045 84.0333 54.097C84.6643 54.1643 85.2953 54.055 85.9264 53.7605C86.0189 53.7184 86.1283 53.6511 86.2208 53.6006C86.2377 53.5922 86.2629 53.567 86.2798 53.5586C86.0946 53.3819 85.918 53.1883 85.716 53.0201C85.6151 52.9359 85.2028 52.6667 85.6151 52.9359C85.5225 52.877 85.43 52.8013 85.3374 52.734C85.2533 52.7677 85.1691 52.8097 85.0934 52.8097C84.9167 52.877 84.7316 52.9191 84.5549 52.9191C83.2508 53.0285 82.0308 52.1114 81.3998 51.0008C80.5416 49.4442 80.6762 47.5259 80.9286 45.8347C80.9538 45.7422 80.9538 45.658 80.9707 45.5655C81.0632 45.0438 81.1474 44.5727 81.2651 44.1015C81.3745 43.5798 81.5092 43.0666 81.669 42.587C81.7363 42.3598 81.8289 42.1158 81.913 41.8887C82.0476 41.4596 82.2075 41.0557 82.3842 40.6519C83.1078 39.0532 84.0501 37.7407 85.2028 36.7058C87.7017 34.493 91.0167 33.862 93.6586 35.124C95.4592 35.9822 96.8811 37.4462 98.2609 38.8681C98.7574 39.3645 99.2285 39.861 99.7249 40.3321C99.9689 40.5761 100.221 40.8033 100.465 41.0052C100.735 41.2324 101.004 41.4343 101.273 41.611C101.366 41.7036 101.45 41.7456 101.542 41.813C101.862 42.0401 102.148 42.2421 102.468 42.4187C103.688 43.1171 104.899 43.5209 106.212 43.706C108.761 44.0678 111.445 43.7313 113.784 42.7805C114.239 42.6038 114.643 42.3935 115.021 42.1747C115.358 41.9981 115.652 41.7877 115.947 41.569C116.376 41.2492 116.738 40.9127 117.074 40.5509C117.251 40.349 117.436 40.1218 117.596 39.8946C117.663 39.8021 117.714 39.7011 117.772 39.6085C117.739 39.6338 117.714 39.6674 117.671 39.6843L117.68 39.7095ZM83.5032 53.4071C82.7376 53.2304 82.056 52.8855 81.5428 52.2797C81.2988 51.9852 81.1137 51.6907 80.937 51.3541C81.5007 52.3217 82.4263 53.1126 83.5032 53.4071ZM88.1728 34.3752C89.031 34.0807 89.9061 33.8788 90.7895 33.8788H91.2607C92.0937 33.9461 92.8593 34.1985 93.5829 34.5351C91.8917 33.8115 89.9986 33.7946 88.1728 34.3752Z" fill="var(--fill-0, white)"/>
<path id="Vector_24" d="M84.6809 53.4998C84.7734 53.4998 84.8828 53.4746 85.0006 53.4577C85.0679 53.4577 85.1605 53.4325 85.2278 53.4157C85.1352 53.4577 85.0511 53.483 84.9585 53.5082C84.6641 53.5755 84.3696 53.6008 84.0835 53.5755C83.9068 53.5503 83.7638 53.483 83.5871 53.4409C83.9489 53.5334 84.3107 53.5503 84.6893 53.5082L84.6809 53.4998Z" fill="var(--fill-0, white)"/>
<path id="Vector_25" d="M81.8793 40.4164C81.7867 40.5763 81.7194 40.7362 81.6521 40.8876C81.61 40.9802 81.5848 41.0643 81.5595 41.1569C81.4922 41.2662 81.4501 41.384 81.4249 41.4934C81.3323 41.6953 81.265 41.9225 81.1977 42.1497C81.1725 42.1917 81.1725 42.2422 81.1557 42.2843V42.3095C81.1304 42.3516 81.1304 42.3768 81.1136 42.4189C81.0463 42.6208 81.0042 42.8228 80.9369 43.0247C80.8948 43.1593 80.8696 43.2939 80.8275 43.4538V43.5211C80.8023 43.5632 80.7855 43.6305 80.7855 43.681C80.7434 43.7904 80.7182 43.9082 80.6929 44.0428C80.5835 44.6065 80.4657 45.1702 80.3732 45.776C80.2638 46.5164 80.1713 47.3325 80.1713 48.1403C80.146 47.6691 80.1713 47.24 80.1965 46.8361L80.2638 46.2977C80.2891 46.121 80.289 45.9359 80.3311 45.7339C80.4237 44.9683 80.5751 44.1521 80.8023 43.3192C80.8023 43.2939 80.8023 43.2771 80.8275 43.2771V43.2098C80.8528 43.1173 80.8696 43.0499 80.8948 42.9658C80.9201 42.8985 80.9369 42.806 80.9621 42.7386C80.9621 42.7134 80.9874 42.6713 80.9874 42.6461C81.0547 42.4189 81.122 42.2422 81.1893 42.0403V42.0151C81.2819 41.7711 81.366 41.5439 81.4586 41.2915C81.5511 41.0391 81.6605 40.7951 81.7783 40.5511C81.8203 40.4417 81.8877 40.3239 81.9381 40.2145C81.9802 40.1472 82.0055 40.0547 82.0728 39.9873C82.0728 40.0294 82.0475 40.0547 82.0307 40.0967C81.9886 40.2061 81.9381 40.2987 81.8961 40.4164H81.8793Z" fill="var(--fill-0, white)"/>
<path id="Vector_26" d="M83.8901 37.2442C83.5956 37.5807 83.3011 37.9173 83.0571 38.3043C82.8972 38.5315 82.7374 38.7586 82.5859 38.9774C82.6953 38.8007 82.8299 38.5904 82.9477 38.4137C83.1496 38.094 83.3768 37.7826 83.6208 37.4882C83.9826 37.0591 84.3865 36.6973 84.8156 36.3186C84.479 36.6131 84.1845 36.9076 83.8901 37.2442Z" fill="var(--fill-0, white)"/>
<path id="Vector_27" d="M100.802 40.551C100.574 40.3491 100.347 40.1472 100.128 39.9452C99.632 39.4741 99.1609 38.9776 98.6645 38.4812C98.1933 37.9848 97.6969 37.4884 97.1752 36.992C97.4192 37.2192 97.6716 37.4463 97.8988 37.6651C98.1933 37.9596 98.4878 38.2541 98.7823 38.5654C99.3712 39.1543 99.9518 39.7601 100.583 40.2986C100.675 40.3912 100.743 40.4585 100.827 40.5258C100.852 40.551 100.852 40.5678 100.869 40.5931C100.844 40.5678 100.827 40.551 100.802 40.551Z" fill="var(--fill-0, white)"/>
<path id="Vector_28" d="M84.6809 53.4998C84.7734 53.4998 84.8828 53.4746 85.0006 53.4577C85.0679 53.4577 85.1605 53.4325 85.2278 53.4157C85.1352 53.4577 85.0511 53.483 84.9585 53.5082C84.6641 53.5755 84.3696 53.6008 84.0835 53.5755C83.9068 53.5503 83.7638 53.483 83.5871 53.4409C83.9489 53.5334 84.3107 53.5503 84.6893 53.5082L84.6809 53.4998Z" fill="var(--fill-0, white)"/>
<path id="Vector_29" d="M81.8793 40.4164C81.7867 40.5763 81.7194 40.7362 81.6521 40.8876C81.61 40.9802 81.5848 41.0643 81.5595 41.1569C81.4922 41.2662 81.4501 41.384 81.4249 41.4934C81.3323 41.6953 81.265 41.9225 81.1977 42.1497C81.1725 42.1917 81.1725 42.2422 81.1557 42.2843V42.3095C81.1304 42.3516 81.1304 42.3768 81.1136 42.4189C81.0463 42.6208 81.0042 42.8228 80.9369 43.0247C80.8948 43.1593 80.8696 43.2939 80.8275 43.4538V43.5211C80.8023 43.5632 80.7855 43.6305 80.7855 43.681C80.7434 43.7904 80.7182 43.9082 80.6929 44.0428C80.5835 44.6065 80.4657 45.1702 80.3732 45.776C80.2638 46.5164 80.1713 47.3325 80.1713 48.1403C80.146 47.6691 80.1713 47.24 80.1965 46.8361L80.2638 46.2977C80.2891 46.121 80.289 45.9359 80.3311 45.7339C80.4237 44.9683 80.5751 44.1521 80.8023 43.3192C80.8023 43.2939 80.8023 43.2771 80.8275 43.2771V43.2098C80.8528 43.1173 80.8696 43.0499 80.8948 42.9658C80.9201 42.8985 80.9369 42.806 80.9621 42.7386C80.9621 42.7134 80.9874 42.6713 80.9874 42.6461C81.0547 42.4189 81.122 42.2422 81.1893 42.0403V42.0151C81.2819 41.7711 81.366 41.5439 81.4586 41.2915C81.5511 41.0391 81.6605 40.7951 81.7783 40.5511C81.8203 40.4417 81.8877 40.3239 81.9381 40.2145C81.9802 40.1472 82.0055 40.0547 82.0728 39.9873C82.0728 40.0294 82.0475 40.0547 82.0307 40.0967C81.9886 40.2061 81.9381 40.2987 81.8961 40.4164H81.8793Z" fill="var(--fill-0, white)"/>
<path id="Vector_30" d="M83.8901 37.2442C83.5956 37.5807 83.3011 37.9173 83.0571 38.3043C82.8972 38.5315 82.7374 38.7586 82.5859 38.9774C82.6953 38.8007 82.8299 38.5904 82.9477 38.4137C83.1496 38.094 83.3768 37.7826 83.6208 37.4882C83.9826 37.0591 84.3865 36.6973 84.8156 36.3186C84.479 36.6131 84.1845 36.9076 83.8901 37.2442Z" fill="var(--fill-0, white)"/>
<path id="Vector_31" d="M100.802 40.551C100.574 40.3491 100.347 40.1472 100.128 39.9452C99.632 39.4741 99.1609 38.9776 98.6645 38.4812C98.1933 37.9848 97.6969 37.4884 97.1752 36.992C97.4192 37.2192 97.6716 37.4463 97.8988 37.6651C98.1933 37.9596 98.4878 38.2541 98.7823 38.5654C99.3712 39.1543 99.9518 39.7601 100.583 40.2986C100.675 40.3912 100.743 40.4585 100.827 40.5258C100.852 40.551 100.852 40.5678 100.869 40.5931C100.844 40.5678 100.827 40.551 100.802 40.551Z" fill="var(--fill-0, white)"/>
<path id="Vector_32" d="M84.6809 53.4998C84.7734 53.4998 84.8828 53.4746 85.0006 53.4577C85.0679 53.4577 85.1605 53.4325 85.2278 53.4157C85.1352 53.4577 85.0511 53.483 84.9585 53.5082C84.6641 53.5755 84.3696 53.6008 84.0835 53.5755C83.9068 53.5503 83.7638 53.483 83.5871 53.4409C83.9489 53.5334 84.3107 53.5503 84.6893 53.5082L84.6809 53.4998Z" fill="var(--fill-0, white)"/>
<path id="Vector_33" d="M81.8793 40.4164C81.7867 40.5763 81.7194 40.7362 81.6521 40.8876C81.61 40.9802 81.5848 41.0643 81.5595 41.1569C81.4922 41.2662 81.4501 41.384 81.4249 41.4934C81.3323 41.6953 81.265 41.9225 81.1977 42.1497C81.1725 42.1917 81.1725 42.2422 81.1557 42.2843V42.3095C81.1304 42.3516 81.1304 42.3768 81.1136 42.4189C81.0463 42.6208 81.0042 42.8228 80.9369 43.0247C80.8948 43.1593 80.8696 43.2939 80.8275 43.4538V43.5211C80.8023 43.5632 80.7855 43.6305 80.7855 43.681C80.7434 43.7904 80.7182 43.9082 80.6929 44.0428C80.5835 44.6065 80.4657 45.1702 80.3732 45.776C80.2638 46.5164 80.1713 47.3325 80.1713 48.1403C80.146 47.6691 80.1713 47.24 80.1965 46.8361L80.2638 46.2977C80.2891 46.121 80.289 45.9359 80.3311 45.7339C80.4237 44.9683 80.5751 44.1521 80.8023 43.3192C80.8023 43.2939 80.8023 43.2771 80.8275 43.2771V43.2098C80.8528 43.1173 80.8696 43.0499 80.8948 42.9658C80.9201 42.8985 80.9369 42.806 80.9621 42.7386C80.9621 42.7134 80.9874 42.6713 80.9874 42.6461C81.0547 42.4189 81.122 42.2422 81.1893 42.0403V42.0151C81.2819 41.7711 81.366 41.5439 81.4586 41.2915C81.5511 41.0391 81.6605 40.7951 81.7783 40.5511C81.8203 40.4417 81.8877 40.3239 81.9381 40.2145C81.9802 40.1472 82.0055 40.0547 82.0728 39.9873C82.0728 40.0294 82.0475 40.0547 82.0307 40.0967C81.9886 40.2061 81.9381 40.2987 81.8961 40.4164H81.8793Z" fill="var(--fill-0, white)"/>
<path id="Vector_34" d="M83.8901 37.2442C83.5956 37.5807 83.3011 37.9173 83.0571 38.3043C82.8972 38.5315 82.7374 38.7586 82.5859 38.9774C82.6953 38.8007 82.8299 38.5904 82.9477 38.4137C83.1496 38.094 83.3768 37.7826 83.6208 37.4882C83.9826 37.0591 84.3865 36.6973 84.8156 36.3186C84.479 36.6131 84.1845 36.9076 83.8901 37.2442Z" fill="var(--fill-0, white)"/>
<path id="Vector_35" d="M100.802 40.551C100.574 40.3491 100.347 40.1472 100.128 39.9452C99.632 39.4741 99.1609 38.9776 98.6645 38.4812C98.1933 37.9848 97.6969 37.4884 97.1752 36.992C97.4192 37.2192 97.6716 37.4463 97.8988 37.6651C98.1933 37.9596 98.4878 38.2541 98.7823 38.5654C99.3712 39.1543 99.9518 39.7601 100.583 40.2986C100.675 40.3912 100.743 40.4585 100.827 40.5258C100.852 40.551 100.852 40.5678 100.869 40.5931C100.844 40.5678 100.827 40.551 100.802 40.551Z" fill="var(--fill-0, white)"/>
<path id="Vector_36" d="M84.698 29.8236C84.7905 29.7983 84.8999 29.7563 84.9924 29.731H85.0598C84.9251 29.7563 84.8158 29.7983 84.6727 29.8404C84.6054 29.8656 84.5381 29.8656 84.4708 29.8825C84.5381 29.8572 84.6306 29.8404 84.698 29.8152V29.8236Z" fill="var(--fill-0, white)"/>
<path id="Vector_37" d="M83.3517 30.2019C83.5116 30.1598 83.6462 30.1093 83.806 30.0672C83.8733 30.042 83.9659 30.0252 84.0332 30.0252L83.806 30.0925L83.7808 30.1177C83.6462 30.143 83.4863 30.185 83.3517 30.2271V30.2019Z" fill="var(--fill-0, white)"/>
<path id="Vector_38" d="M79.4222 31.4724C79.5569 31.4303 79.7167 31.3798 79.8513 31.3378C79.0436 31.607 78.2275 31.9015 77.4198 32.196C78.076 31.952 78.7491 31.6996 79.4306 31.4724H79.4222Z" fill="var(--fill-0, white)"/>
<path id="Vector_39" d="M46.6172 51.287C47.4754 50.5214 48.3336 49.7557 49.1834 49.0321C48.7963 49.3939 48.3925 49.7305 48.0139 50.0923C46.9285 51.043 45.8263 52.0274 44.7241 52.9529C44.4548 53.1801 44.2024 53.4073 43.9332 53.6092C44.8335 52.8436 45.7337 52.0779 46.6172 51.287Z" fill="var(--fill-0, white)"/>
<path id="Vector_40" d="M106.119 55.9058C106.145 55.9479 106.145 56.0152 106.145 56.0657C106.052 55.7039 106.052 55.6114 106.119 55.9058Z" fill="var(--fill-0, white)"/>
<path id="Vector_41" d="M84.6809 53.4998C84.7734 53.4998 84.8828 53.4746 85.0006 53.4577C85.0679 53.4577 85.1605 53.4325 85.2278 53.4157C85.1352 53.4577 85.0511 53.483 84.9585 53.5082C84.6641 53.5755 84.3696 53.6008 84.0835 53.5755C83.9068 53.5503 83.7638 53.483 83.5871 53.4409C83.9489 53.5334 84.3107 53.5503 84.6893 53.5082L84.6809 53.4998Z" fill="var(--fill-0, white)"/>
<path id="Vector_42" d="M81.8793 40.4164C81.7867 40.5763 81.7194 40.7362 81.6521 40.8876C81.61 40.9802 81.5848 41.0643 81.5595 41.1569C81.4922 41.2662 81.4501 41.384 81.4249 41.4934C81.3323 41.6953 81.265 41.9225 81.1977 42.1497C81.1725 42.1917 81.1725 42.2422 81.1557 42.2843V42.3095C81.1304 42.3516 81.1304 42.3768 81.1136 42.4189C81.0463 42.6208 81.0042 42.8228 80.9369 43.0247C80.8948 43.1593 80.8696 43.2939 80.8275 43.4538V43.5211C80.8023 43.5632 80.7855 43.6305 80.7855 43.681C80.7434 43.7904 80.7182 43.9082 80.6929 44.0428C80.5835 44.6065 80.4657 45.1702 80.3732 45.776C80.2638 46.5164 80.1713 47.3325 80.1713 48.1403C80.146 47.6691 80.1713 47.24 80.1965 46.8361L80.2638 46.2977C80.2891 46.121 80.289 45.9359 80.3311 45.7339C80.4237 44.9683 80.5751 44.1521 80.8023 43.3192C80.8023 43.2939 80.8023 43.2771 80.8275 43.2771V43.2098C80.8528 43.1173 80.8696 43.0499 80.8948 42.9658C80.9201 42.8985 80.9369 42.806 80.9621 42.7386C80.9621 42.7134 80.9874 42.6713 80.9874 42.6461C81.0547 42.4189 81.122 42.2422 81.1893 42.0403V42.0151C81.2819 41.7711 81.366 41.5439 81.4586 41.2915C81.5511 41.0391 81.6605 40.7951 81.7783 40.5511C81.8203 40.4417 81.8877 40.3239 81.9381 40.2145C81.9802 40.1472 82.0055 40.0547 82.0728 39.9873C82.0728 40.0294 82.0475 40.0547 82.0307 40.0967C81.9886 40.2061 81.9381 40.2987 81.8961 40.4164H81.8793Z" fill="var(--fill-0, white)"/>
<path id="Vector_43" d="M83.8901 37.2442C83.5956 37.5807 83.3011 37.9173 83.0571 38.3043C82.8972 38.5315 82.7374 38.7586 82.5859 38.9774C82.6953 38.8007 82.8299 38.5904 82.9477 38.4137C83.1496 38.094 83.3768 37.7826 83.6208 37.4882C83.9826 37.0591 84.3865 36.6973 84.8156 36.3186C84.479 36.6131 84.1845 36.9076 83.8901 37.2442Z" fill="var(--fill-0, white)"/>
<path id="Vector_44" d="M100.802 40.551C100.574 40.3491 100.347 40.1472 100.128 39.9452C99.632 39.4741 99.1609 38.9776 98.6645 38.4812C98.1933 37.9848 97.6969 37.4884 97.1752 36.992C97.4192 37.2192 97.6716 37.4463 97.8988 37.6651C98.1933 37.9596 98.4878 38.2541 98.7823 38.5654C99.3712 39.1543 99.9518 39.7601 100.583 40.2986C100.675 40.3912 100.743 40.4585 100.827 40.5258C100.852 40.551 100.852 40.5678 100.869 40.5931C100.844 40.5678 100.827 40.551 100.802 40.551Z" fill="var(--fill-0, white)"/>
<path id="Vector_45" d="M106.279 43.1927C105.741 43.1001 105.219 42.9907 104.697 42.8056C105.53 43.0496 106.414 43.2095 107.314 43.2768C106.978 43.2768 106.616 43.2347 106.279 43.1842V43.1927Z" fill="var(--fill-0, white)"/>
<path id="Vector_46" d="M113.565 42.2926C112.665 42.6544 111.697 42.9237 110.705 43.0835C111.538 42.9237 112.354 42.6965 113.136 42.4104C113.473 42.301 113.809 42.1412 114.129 42.0066C113.927 42.0991 113.767 42.2085 113.565 42.301V42.2926Z" fill="var(--fill-0, white)"/>
<path id="Vector_47" d="M84.6809 53.4998C84.7734 53.4998 84.8828 53.4746 85.0006 53.4577C85.0679 53.4577 85.1605 53.4325 85.2278 53.4157C85.1352 53.4577 85.0511 53.483 84.9585 53.5082C84.6641 53.5755 84.3696 53.6008 84.0835 53.5755C83.9068 53.5503 83.7638 53.483 83.5871 53.4409C83.9489 53.5334 84.3107 53.5503 84.6893 53.5082L84.6809 53.4998Z" fill="var(--fill-0, white)"/>
<path id="Vector_48" d="M81.8793 40.4164C81.7867 40.5763 81.7194 40.7362 81.6521 40.8876C81.61 40.9802 81.5848 41.0643 81.5595 41.1569C81.4922 41.2662 81.4501 41.384 81.4249 41.4934C81.3323 41.6953 81.265 41.9225 81.1977 42.1497C81.1725 42.1917 81.1725 42.2422 81.1557 42.2843V42.3095C81.1304 42.3516 81.1304 42.3768 81.1136 42.4189C81.0463 42.6208 81.0042 42.8228 80.9369 43.0247C80.8948 43.1593 80.8696 43.2939 80.8275 43.4538V43.5211C80.8023 43.5632 80.7855 43.6305 80.7855 43.681C80.7434 43.7904 80.7182 43.9082 80.6929 44.0428C80.5835 44.6065 80.4657 45.1702 80.3732 45.776C80.2638 46.5164 80.1713 47.3325 80.1713 48.1403C80.146 47.6691 80.1713 47.24 80.1965 46.8361L80.2638 46.2977C80.2891 46.121 80.289 45.9359 80.3311 45.7339C80.4237 44.9683 80.5751 44.1521 80.8023 43.3192C80.8023 43.2939 80.8023 43.2771 80.8275 43.2771V43.2098C80.8528 43.1173 80.8696 43.0499 80.8948 42.9658C80.9201 42.8985 80.9369 42.806 80.9621 42.7386C80.9621 42.7134 80.9874 42.6713 80.9874 42.6461C81.0547 42.4189 81.122 42.2422 81.1893 42.0403V42.0151C81.2819 41.7711 81.366 41.5439 81.4586 41.2915C81.5511 41.0391 81.6605 40.7951 81.7783 40.5511C81.8203 40.4417 81.8877 40.3239 81.9381 40.2145C81.9802 40.1472 82.0055 40.0547 82.0728 39.9873C82.0728 40.0294 82.0475 40.0547 82.0307 40.0967C81.9886 40.2061 81.9381 40.2987 81.8961 40.4164H81.8793Z" fill="var(--fill-0, white)"/>
<path id="Vector_49" d="M83.8901 37.2442C83.5956 37.5807 83.3011 37.9173 83.0571 38.3043C82.8972 38.5315 82.7374 38.7586 82.5859 38.9774C82.6953 38.8007 82.8299 38.5904 82.9477 38.4137C83.1496 38.094 83.3768 37.7826 83.6208 37.4882C83.9826 37.0591 84.3865 36.6973 84.8156 36.3186C84.479 36.6131 84.1845 36.9076 83.8901 37.2442Z" fill="var(--fill-0, white)"/>
<path id="Vector_50" d="M100.802 40.551C100.574 40.3491 100.347 40.1472 100.128 39.9452C99.632 39.4741 99.1609 38.9776 98.6645 38.4812C98.1933 37.9848 97.6969 37.4884 97.1752 36.992C97.4192 37.2192 97.6716 37.4463 97.8988 37.6651C98.1933 37.9596 98.4878 38.2541 98.7823 38.5654C99.3712 39.1543 99.9518 39.7601 100.583 40.2986C100.675 40.3912 100.743 40.4585 100.827 40.5258C100.852 40.551 100.852 40.5678 100.869 40.5931C100.844 40.5678 100.827 40.551 100.802 40.551Z" fill="var(--fill-0, white)"/>
<path id="Vector_51" d="M80.3732 45.7842C80.2638 46.5246 80.1713 47.3408 80.1713 48.1485C80.146 47.6773 80.1713 47.2482 80.1965 46.8444L80.2638 46.3059C80.2891 46.1292 80.289 45.9441 80.3311 45.7422C80.4237 44.9765 80.5751 44.1604 80.8023 43.3274C80.8023 43.3022 80.8023 43.2853 80.8275 43.2853V43.218C80.8528 43.1255 80.8696 43.0582 80.8948 42.974C80.9201 42.9067 80.9369 42.8142 80.9621 42.7469C80.9621 42.7216 80.9874 42.6795 80.9874 42.6543C81.0547 42.4271 81.122 42.2504 81.1893 42.0485V42.0233C81.2819 41.7793 81.366 41.5521 81.4586 41.2997C81.5511 41.0473 81.6605 40.8033 81.7783 40.5593C81.8203 40.4499 81.8877 40.3321 81.9381 40.2227C81.9802 40.1554 82.0055 40.0629 82.0728 39.9956C82.0728 40.0376 82.0475 40.0629 82.0307 40.1049C81.9886 40.2143 81.9381 40.3069 81.8961 40.4247C81.8035 40.5845 81.7362 40.7444 81.6689 40.8958C81.6268 40.9884 81.6016 41.0725 81.5764 41.1651C81.509 41.2744 81.467 41.3922 81.4417 41.5016C81.3492 41.7036 81.2819 41.9307 81.2146 42.1579C81.1893 42.2 81.1893 42.2504 81.1725 42.2925V42.3178C81.1472 42.3598 81.1473 42.3851 81.1304 42.4271C81.0631 42.6291 81.021 42.831 80.9537 43.0329C80.9117 43.1675 80.8864 43.3022 80.8444 43.462V43.5293C80.8191 43.5714 80.8023 43.6387 80.8023 43.6892C80.7602 43.7986 80.735 43.9164 80.7097 44.051C80.6004 44.6147 80.4826 45.1784 80.39 45.7842H80.3732Z" fill="var(--fill-0, white)"/>
<path id="Vector_52" d="M84.9503 53.4998C84.6559 53.5671 84.3614 53.5923 84.0753 53.5671C83.8986 53.5419 83.7556 53.4746 83.5789 53.4325C83.9407 53.525 84.3025 53.5419 84.6811 53.4998C84.7737 53.4998 84.883 53.4746 85.0008 53.4577C85.0681 53.4577 85.1607 53.4325 85.228 53.4157C85.1354 53.4577 85.0513 53.483 84.9587 53.5082L84.9503 53.4998Z" fill="var(--fill-0, white)"/>
<path id="Vector_53" d="M84.6809 53.4998C84.7734 53.4998 84.8828 53.4746 85.0006 53.4577C85.0679 53.4577 85.1605 53.4325 85.2278 53.4157C85.1352 53.4577 85.0511 53.483 84.9585 53.5082C84.6641 53.5755 84.3696 53.6008 84.0835 53.5755C83.9068 53.5503 83.7638 53.483 83.5871 53.4409C83.9489 53.5334 84.3107 53.5503 84.6893 53.5082L84.6809 53.4998Z" fill="var(--fill-0, white)"/>
<path id="Vector_54" d="M81.8793 40.4164C81.7867 40.5763 81.7194 40.7362 81.6521 40.8876C81.61 40.9802 81.5848 41.0643 81.5595 41.1569C81.4922 41.2662 81.4501 41.384 81.4249 41.4934C81.3323 41.6953 81.265 41.9225 81.1977 42.1497C81.1725 42.1917 81.1725 42.2422 81.1557 42.2843V42.3095C81.1304 42.3516 81.1304 42.3768 81.1136 42.4189C81.0463 42.6208 81.0042 42.8228 80.9369 43.0247C80.8948 43.1593 80.8696 43.2939 80.8275 43.4538V43.5211C80.8023 43.5632 80.7855 43.6305 80.7855 43.681C80.7434 43.7904 80.7182 43.9082 80.6929 44.0428C80.5835 44.6065 80.4657 45.1702 80.3732 45.776C80.2638 46.5164 80.1713 47.3325 80.1713 48.1403C80.146 47.6691 80.1713 47.24 80.1965 46.8361L80.2638 46.2977C80.2891 46.121 80.289 45.9359 80.3311 45.7339C80.4237 44.9683 80.5751 44.1521 80.8023 43.3192C80.8023 43.2939 80.8023 43.2771 80.8275 43.2771V43.2098C80.8528 43.1173 80.8696 43.0499 80.8948 42.9658C80.9201 42.8985 80.9369 42.806 80.9621 42.7386C80.9621 42.7134 80.9874 42.6713 80.9874 42.6461C81.0547 42.4189 81.122 42.2422 81.1893 42.0403V42.0151C81.2819 41.7711 81.366 41.5439 81.4586 41.2915C81.5511 41.0391 81.6605 40.7951 81.7783 40.5511C81.8203 40.4417 81.8877 40.3239 81.9381 40.2145C81.9802 40.1472 82.0055 40.0547 82.0728 39.9873C82.0728 40.0294 82.0475 40.0547 82.0307 40.0967C81.9886 40.2061 81.9381 40.2987 81.8961 40.4164H81.8793Z" fill="var(--fill-0, white)"/>
<path id="Vector_55" d="M83.8901 37.2442C83.5956 37.5807 83.3011 37.9173 83.0571 38.3043C82.8972 38.5315 82.7374 38.7586 82.5859 38.9774C82.6953 38.8007 82.8299 38.5904 82.9477 38.4137C83.1496 38.094 83.3768 37.7826 83.6208 37.4882C83.9826 37.0591 84.3865 36.6973 84.8156 36.3186C84.479 36.6131 84.1845 36.9076 83.8901 37.2442Z" fill="var(--fill-0, white)"/>
<path id="Vector_56" d="M100.802 40.551C100.574 40.3491 100.347 40.1472 100.128 39.9452C99.632 39.4741 99.1609 38.9776 98.6645 38.4812C98.1933 37.9848 97.6969 37.4884 97.1752 36.992C97.4192 37.2192 97.6716 37.4463 97.8988 37.6651C98.1933 37.9596 98.4878 38.2541 98.7823 38.5654C99.3712 39.1543 99.9518 39.7601 100.583 40.2986C100.675 40.3912 100.743 40.4585 100.827 40.5258C100.852 40.551 100.852 40.5678 100.869 40.5931C100.844 40.5678 100.827 40.551 100.802 40.551Z" fill="var(--fill-0, white)"/>
</g>
<g id="Group_4">
<path id="Vector_57" d="M98.4291 52.3892C98.4291 52.3892 98.3871 52.3219 98.3618 52.2967L98.1767 52.12C97.3858 52.0358 96.6286 51.8423 95.9303 51.4637C96.2668 51.7582 96.5865 52.0358 96.9063 52.3387C97.7813 53.1465 98.5722 54.0551 99.0518 55.2246C99.9352 57.3028 100.356 59.8943 100.272 62.6876C100.23 64.0591 100.095 65.1445 99.8174 66.112C99.4977 67.2647 98.8667 68.4595 97.9496 69.6038C94.3905 74.1556 88.2317 76.1833 79.7085 75.6196C72.0436 75.0979 65.077 72.8262 59.5324 69.0821C58.7919 68.5857 58.0852 67.9799 57.4121 67.4162L57.0082 67.0796C55.5863 65.8849 54.1476 64.6901 52.7256 63.4954C52.1198 62.9737 51.5056 62.4605 50.8999 61.9388C49.2339 60.5421 47.4923 59.095 45.8516 57.6057L47.2483 56.6382C48.8974 55.4855 50.74 54.1813 52.5237 52.894C53.4745 52.2209 54.3916 51.4974 55.3002 50.8158C56.3183 50.0249 57.3784 49.2341 58.4302 48.4936C61.274 46.4828 64.1768 44.7495 67.0458 43.2855C71.3537 41.0727 76.0654 39.3395 81.2987 38.0101C81.3408 38.0101 81.366 37.9849 81.4081 37.9849C81.6437 37.9176 81.8877 37.8671 82.1233 37.8082C82.2327 37.4211 82.342 37.0341 82.4767 36.6639C82.2663 36.7144 82.0644 36.7565 81.8541 36.8154C81.7615 36.8406 81.6942 36.8574 81.6101 36.8827C81.3408 36.95 81.0463 37.0173 80.7771 37.0846C76.8983 38.1027 73.7179 39.1376 70.79 40.3996C67.66 41.729 64.5217 43.3528 61.4759 45.2207C58.7499 46.9371 56.2426 48.7797 53.5165 50.8832C52.0525 51.9854 50.5212 53.0707 49.032 54.1056L48.401 54.56C47.5932 55.1489 46.7519 55.7126 45.9189 56.2932C45.8264 56.3605 45.6917 56.4278 45.5824 56.4951C45.2626 56.6718 44.9093 56.899 44.6821 57.1514C44.5895 57.286 44.5475 57.4206 44.5475 57.5805C44.6148 58.0096 45.1533 58.4639 45.7843 58.9351C45.8768 59.0024 45.9442 59.0697 46.0115 59.1118C47.3408 60.2645 48.7207 61.434 50.0669 62.5867L51.7833 64.0338C53.8615 65.7923 55.9733 67.6181 58.1441 69.3513C59.9278 70.7733 62.1827 72.0353 65.2201 73.3395C68.4425 74.7109 71.9847 75.6869 75.7457 76.2254C78.1772 76.5872 80.4574 76.7639 82.5524 76.7639C88.2148 76.7639 92.6741 75.4765 96.1069 72.8599C98.6058 70.9415 100.322 68.51 100.928 66.0027C101.45 63.773 101.492 61.1984 101.021 58.363C100.684 56.4278 100.095 54.0299 98.4544 52.364L98.4291 52.3892Z" fill="var(--fill-0, white)"/>
<path id="Vector_58" d="M91.2524 47.7783C91.1514 47.8961 91.0505 48.0223 90.9411 48.1317C90.3521 48.83 89.7716 49.4863 89.2079 50.0921C89.0985 50.2267 88.9639 50.3613 88.8461 50.4959C88.5263 50.8156 88.215 51.1269 87.8953 51.4467C87.5083 51.8337 87.1044 52.1871 86.7426 52.5994C86.6753 52.6667 86.6332 52.7087 86.5828 52.8013C86.5155 52.8434 86.4481 52.9359 86.4061 52.978L86.364 53.02C86.1873 53.222 86.0022 53.4239 85.8003 53.609C85.8003 53.609 85.775 53.609 85.775 53.6342C85.5984 53.8362 85.3712 54.0213 85.1692 54.1727C85.1104 54.2148 85.0683 54.24 85.0178 54.2653C85.4469 54.2905 85.8676 54.3073 86.2967 54.3073C86.3808 54.3073 86.4397 54.341 86.5155 54.3494C86.6164 54.2569 86.709 54.1559 86.8183 54.0465C87.1801 53.6847 87.5167 53.3229 87.8785 52.9611C88.1982 52.6246 88.5095 52.288 88.8292 51.9683L89.3004 51.4972C89.5023 51.27 89.7295 51.0428 89.9314 50.8241C90.5204 50.193 91.0841 49.562 91.5553 48.9983C91.6983 48.8468 91.8077 48.7038 91.9339 48.5608C91.8245 48.4598 91.7067 48.3672 91.6142 48.2579C91.488 48.1064 91.3618 47.9381 91.2608 47.7614L91.2524 47.7783Z" fill="var(--fill-0, white)"/>
<path id="Vector_59" d="M111.975 43.1506C111.773 43.2348 111.546 43.2264 111.327 43.1759C111.26 43.3189 111.218 43.4788 111.142 43.6218C111.142 43.647 111.117 43.647 111.117 43.6639L111.05 43.7564C110.873 44.1182 110.663 44.5221 110.444 44.9091C110.124 45.4476 109.771 45.9692 109.342 46.3731C109.165 46.533 108.955 46.6928 108.753 46.8274C108.366 47.0967 107.945 47.2986 107.491 47.5005C107.247 47.5931 106.969 47.6772 106.7 47.7445C105.842 47.9885 104.941 48.1316 104.041 48.1484C103.705 48.1736 103.368 48.1484 103.023 48.1063C102.072 48.0811 101.155 47.9044 100.339 47.5847C99.1022 47.1303 98.1094 46.2553 97.226 45.2625C96.8642 44.9007 96.5529 44.5389 96.2584 44.1771C96.2163 44.135 96.1658 44.0677 96.1238 44.0173C95.8966 43.7733 95.6694 43.4956 95.4675 43.2516C95.3749 43.159 95.3076 43.0749 95.2403 42.9824C94.9963 42.7131 94.7439 42.4439 94.4999 42.1915C94.1381 41.8297 93.7763 41.4931 93.3725 41.1734C92.4469 40.433 91.3868 39.8861 90.15 39.7094C88.1896 39.4149 86.002 40.0964 84.2856 41.4931C83.9911 41.7203 83.7219 41.9643 83.4779 42.2335C83.3853 42.3261 83.318 42.4102 83.2339 42.5028C82.6281 43.2011 82.1317 43.9499 81.7026 44.7156C81.5259 45.0774 81.3408 45.4139 81.1809 45.7757C80.9117 46.432 80.7098 47.0799 80.5247 47.7109C80.39 48.1652 80.2807 48.5943 80.2049 48.9982C80.1376 49.2422 80.0956 49.4694 80.0703 49.6965C80.0283 49.9405 80.003 50.1929 79.9778 50.4622C79.9778 50.4706 79.9778 50.4874 79.9778 50.4958C80.2554 50.6725 80.5247 50.8745 80.7434 51.1185C80.836 51.2194 80.8949 51.3372 80.979 51.4466C80.979 51.3204 80.9538 51.1942 80.9538 51.068C80.979 50.7735 80.9958 50.5043 81.0463 50.2098C81.0463 50.0752 81.0716 49.9405 81.0884 49.8059C81.1305 49.5367 81.1978 49.2843 81.2483 49.0403C81.2903 48.9056 81.3156 48.7458 81.3576 48.6112C81.467 48.1147 81.6016 47.6183 81.7867 47.164C81.8288 47.0041 81.8961 46.8443 81.9466 46.7097C82.6449 44.8166 83.6378 43.3526 84.8998 42.3345C84.9671 42.242 85.0597 42.1746 85.1438 42.1073C85.615 41.7708 86.1114 41.4763 86.6078 41.2491C88.1644 40.576 89.8303 40.5087 91.2522 41.0893C91.4541 41.1818 91.6561 41.266 91.858 41.3837C92.1945 41.5857 92.5311 41.8128 92.8256 42.0568C93.4818 42.5785 94.0624 43.1843 94.6093 43.8406C94.8365 44.0846 95.0384 44.337 95.2403 44.581C95.3329 44.6735 95.4002 44.7577 95.4843 44.8502C95.5096 44.8923 95.5516 44.9428 95.5769 44.9596C95.8209 45.2541 96.0733 45.5486 96.3173 45.8178C96.4098 45.9103 96.4771 45.9945 96.5613 46.0618C98.0758 47.6436 99.5145 48.5186 101.248 48.9056C101.635 48.9982 102.013 49.0403 102.4 49.0823C102.762 49.1244 103.124 49.1496 103.486 49.1496C104.79 49.1749 106.102 48.9898 107.322 48.6112C107.684 48.5018 107.996 48.3672 108.315 48.2073C108.77 48.0054 109.148 47.7782 109.51 47.509C109.712 47.3743 109.914 47.2145 110.099 47.0378C110.57 46.5834 110.957 46.0197 111.294 45.456C111.521 45.069 111.723 44.6904 111.925 44.3033L111.967 44.2108C112.202 43.7648 112.379 43.2937 112.556 42.8309C112.371 42.9403 112.177 43.0244 111.958 43.117L111.975 43.1506Z" fill="var(--fill-0, white)"/>
</g>
<g id="Group_5">
<path id="Vector_60" d="M102.897 48.9398L102.939 48.9813L102.964 48.9564L102.897 48.9314V48.9398Z" fill="var(--fill-0, white)"/>
<path id="Vector_61" d="M90.4025 51.3293L89.9313 50.8329L89.6621 50.5636C89.5022 50.4038 89.3423 50.2271 89.2077 50.0925C89.1657 50.0504 89.1404 50.0251 89.0983 49.9831C89.0058 49.9158 88.9217 49.8485 88.7786 49.8485C88.6356 49.8485 88.5346 49.8905 88.4421 49.9831C87.6343 50.7908 86.8603 51.4976 86.1199 52.1454C85.8759 52.3726 85.6235 52.5745 85.3795 52.7764C85.0597 53.0204 84.7737 53.2476 84.4792 53.5169C84.3866 53.6094 84.2773 53.6935 84.1595 53.7861C84.1258 53.8197 84.0922 53.845 84.0585 53.8786C84.1763 53.9375 84.2941 54.0048 84.4203 54.0637C84.5886 54.1479 84.9504 54.333 85.0008 54.2825C85.1355 54.19 85.2448 54.0806 85.3879 53.9628C85.5309 53.845 85.6571 53.7356 85.7917 53.6262C85.7917 53.601 85.817 53.601 85.817 53.601C85.9264 53.5084 86.0189 53.4243 86.1367 53.3318C86.2713 53.2224 86.4059 53.1046 86.5406 52.9952C87.3483 52.2969 88.1223 51.5733 88.7702 50.9422C88.9469 51.1189 89.132 51.304 89.3087 51.506C89.8051 52.0276 90.3267 52.5409 90.7979 53.0625L91.0924 53.357C91.9758 54.2825 92.7836 55.1407 93.1454 56.3523C93.6418 57.9088 93.7511 59.7767 93.5071 61.7876C93.3978 62.7804 93.2127 63.546 92.9434 64.2023C92.6237 65.01 92.1105 65.8262 91.3869 66.5918C88.501 69.6124 83.9491 70.6304 77.8576 69.6376C72.3802 68.7121 67.5087 66.6171 63.7898 63.5292C63.2681 63.1254 62.8222 62.6458 62.3679 62.1746L61.7368 61.5183C60.9039 60.6854 60.0877 59.8524 59.2548 59.0194L58.1021 57.8247C56.9999 56.6973 55.8472 55.5446 54.7618 54.3751L55.7546 53.8113C57.1261 53.0457 58.4807 52.28 59.8353 51.4891C60.5589 51.06 61.2741 50.6057 61.9808 50.185C62.7717 49.6886 63.5794 49.1922 64.3956 48.721C66.5831 47.4842 68.8128 46.4241 70.9751 45.5659C74.063 44.3459 77.4032 43.4624 81.0548 42.865C81.0548 42.8061 81.0211 42.7557 81.0211 42.6884C81.0211 42.4107 81.1305 42.1499 81.282 41.9143H81.2651C78.4045 42.3686 76.0318 42.9071 73.8274 43.6055C71.4799 44.3459 69.0904 45.2966 66.7682 46.4493C64.6732 47.4842 62.7296 48.6621 60.6094 49.9915C59.4819 50.6898 58.2872 51.3629 57.1345 52.0024L56.6633 52.2716C56.0323 52.6586 55.4013 52.9952 54.7702 53.357C54.6777 53.3991 54.5935 53.4495 54.501 53.4916C54.257 53.601 53.9793 53.7356 53.7774 53.9207C53.6849 54.0133 53.6428 54.1226 53.6428 54.2573C53.6428 54.6191 54.0298 54.9977 54.4505 55.3847C54.5178 55.4268 54.5599 55.4941 54.5851 55.5193C55.4854 56.4448 56.3857 57.3872 57.2944 58.3127L58.447 59.4822C59.8017 60.9041 61.2236 62.3429 62.6371 63.7396C63.8318 64.9091 65.3884 65.9692 67.5087 67.1471C69.7383 68.3671 72.2456 69.3095 74.9296 69.9657C77.5715 70.622 79.961 70.9333 82.0981 70.9333C85.1859 70.9333 87.7606 70.277 89.8977 68.9477C91.8581 67.7277 93.28 66.087 93.8858 64.278C94.4242 62.6963 94.6262 60.8536 94.4916 58.7502C94.3822 57.2862 94.1045 55.4604 92.9771 54.1311C92.1694 53.1635 91.2607 52.238 90.4109 51.3377L90.4025 51.3293Z" fill="var(--fill-0, white)"/>
<path id="Vector_62" d="M103.032 48.107C102.939 48.3342 102.804 48.5613 102.67 48.7801L102.897 48.94L102.964 48.9652L102.939 48.9904L102.897 48.9484L102.628 48.839C102.56 48.9315 102.518 49.0409 102.426 49.1335C102.089 49.6972 101.702 50.2357 101.206 50.5975C100.709 50.9845 100.011 51.2537 99.2455 51.3884C98.6565 51.4977 98.0759 51.5482 97.487 51.4977C96.8307 51.4725 96.1828 51.3884 95.5939 51.178C95.2742 51.0855 94.9881 50.9761 94.7104 50.8415C93.6251 50.3198 92.8594 49.327 92.1611 48.3173C92.0938 48.2248 92.0012 48.1154 91.9339 47.9976C91.7993 47.7957 91.6647 47.6106 91.5469 47.4339C91.5216 47.4339 91.5216 47.4087 91.5216 47.4087C90.5961 46.1045 89.5107 44.8425 87.8953 44.4302C86.2294 44.0263 84.2858 44.5648 82.8218 45.8269C82.5021 46.0961 82.1908 46.4158 81.9468 46.7271C80.9287 47.9219 80.3229 49.3186 79.9864 50.4713C79.9359 50.6059 79.9022 50.7237 79.8686 50.8499C80.0116 50.9172 80.1462 51.0013 80.2556 51.1275C80.3734 51.2706 80.5164 51.3884 80.6427 51.523C80.71 51.2285 80.7941 50.934 80.8782 50.6479C80.9203 50.5133 80.9708 50.3535 81.0381 50.2188C81.7617 48.2332 82.7966 46.7944 84.1259 45.9783C85.7246 44.9855 87.6008 44.9603 88.9302 45.911C89.7379 46.4747 90.3521 47.2824 90.9411 48.1238C91.0084 48.2332 91.0757 48.3258 91.143 48.4435C91.2776 48.6455 91.4123 48.8306 91.5469 49.0073C91.6562 49.1419 91.7488 49.2765 91.8414 49.4111C92.8594 50.7826 93.9364 51.5987 95.2237 52.0026C95.7622 52.1624 96.3259 52.297 96.8896 52.3391C97.4113 52.4064 97.9245 52.4317 98.4209 52.3812C98.85 52.3812 99.2539 52.3139 99.6577 52.2213C100.516 52.0194 101.24 51.6997 101.803 51.2537C102.434 50.7573 102.905 50.0337 103.335 49.4027L103.377 49.3354C103.402 49.2933 103.444 49.226 103.486 49.1755C103.663 48.839 103.848 48.5024 104.024 48.1406C103.688 48.1659 103.351 48.1406 103.006 48.0986L103.032 48.107Z" fill="var(--fill-0, white)"/>
</g>
<path id="Vector_63" d="M85.9434 47.9467C84.3868 47.7027 82.6957 47.5429 80.9372 47.4924C79.1535 47.4503 77.6642 47.4924 76.2676 47.6691C74.7531 47.8458 73.2049 48.1655 71.6905 48.5946C70.319 48.9816 69.0065 49.4528 67.5846 50.0165C66.8189 50.311 66.0028 50.5802 65.2371 50.8495L64.9426 50.942C64.5388 51.1019 64.1097 51.2365 63.6806 51.3964C63.6385 51.3964 63.5712 51.4216 63.5207 51.4384C63.344 51.4805 63.1589 51.531 62.9991 51.6151C62.9065 51.6824 62.8644 51.775 62.8392 51.8844C62.7971 52.1283 62.9738 52.4228 63.2262 52.7426C63.2515 52.7678 63.2683 52.8099 63.2935 52.8351C63.7226 53.4914 64.1517 54.1392 64.5977 54.7955L65.0941 55.5864C65.7672 56.6045 66.4655 57.6646 67.1891 58.6743C67.7781 59.5325 68.5858 60.3402 69.7385 61.2909C70.9585 62.2837 72.3552 63.142 73.9117 63.8403C76.2591 64.9004 78.3289 65.4389 80.1799 65.4389C81.2148 65.4389 82.2077 65.2622 83.1079 64.9173C84.4373 64.3956 85.346 63.8655 85.9265 62.8222C85.9854 62.7213 86.179 62.2669 86.2294 62.166C86.4398 61.9135 87.4999 59.6755 87.7523 56.9663C87.8533 55.4181 86.8857 54.5263 86.8184 54.4758C85.9181 53.7774 85.5479 53.4661 84.4878 52.8351C83.3351 52.1368 82.3423 51.6404 81.3579 51.2365C81.2906 51.2113 81.2233 51.1944 81.1559 51.1692C80.9119 51.0346 80.6343 50.942 80.365 50.8495C79.6246 50.555 78.8337 50.3278 78.0176 50.1511C76.9827 49.8819 75.8973 49.722 74.812 49.5622C74.223 49.4948 73.6425 49.3855 73.0535 49.2677L72.759 49.2256C72.6665 49.2004 72.5992 49.2004 72.515 49.1835C73.1208 49.0068 73.7518 48.8638 74.366 48.7544C77.1594 48.216 80.1631 48.0982 83.5454 48.4179C86.078 48.6535 88.2824 49.1415 90.2512 49.8398C90.2512 49.7725 90.2512 49.7052 90.2596 49.6379C90.3017 49.4528 90.3942 49.2761 90.512 49.1246C89.0985 48.6198 87.5841 48.216 85.9265 47.9467H85.9434ZM74.0631 50.1848C74.4502 50.2521 74.8288 50.3194 75.2158 50.3615C75.6197 50.4288 76.0488 50.4708 76.4779 50.5634C77.6053 50.7653 78.6907 51.0346 79.7004 51.3711C79.7424 51.3964 79.8097 51.4132 79.8602 51.4384C80.1042 51.5057 80.3819 51.5983 80.6259 51.7077C81.7281 52.1368 82.8555 52.6752 83.983 53.3736C84.5046 53.6428 85.0179 53.9794 85.5395 54.3412C85.6321 54.3832 85.6994 54.4337 85.7835 54.501C85.935 54.6104 87.2307 55.965 86.9446 57.7824C86.4229 59.9952 86.2547 60.7609 85.5395 61.9977C84.4289 63.5711 84.757 62.8895 83.8652 63.7141C83.3519 64.0843 82.6283 64.1937 82.4264 64.2526C82.1319 64.3451 81.8459 64.3788 81.5346 64.4124C81.3663 64.4377 80.8362 64.404 80.71 64.4124C78.8422 64.6144 77.0164 63.672 75.2074 61.5686C73.5583 59.6755 72.4814 57.5132 72.0943 55.3676C72.027 55.0732 72.0018 54.7787 71.9849 54.4674V54.3328C71.9176 53.727 71.8756 53.0959 71.8251 52.4817L71.7578 51.6908C71.7157 51.0346 71.6652 50.3867 71.6232 49.7304L71.9849 49.7977C72.6833 49.9324 73.3564 50.0417 74.0631 50.1595V50.1848ZM70.8996 49.8398L70.9248 49.9324C70.9669 50.5213 70.9921 51.1019 71.0342 51.6908L71.1015 52.4144C71.1688 53.3399 71.2361 54.2654 71.3287 55.191C71.4212 56.1838 71.783 57.1766 72.0523 57.8329C72.4814 58.9351 73.0703 60.0205 73.836 61.0385C74.8709 62.4604 75.9142 63.4953 76.9911 64.1684C76.6041 64.0591 76.2002 63.9413 75.7964 63.7814C72.6412 62.6287 69.9572 60.8282 68.0894 58.548C67.8454 58.2536 67.6182 57.917 67.391 57.5973L67.2817 57.4206C66.8105 56.7223 66.3561 56.0492 65.9102 55.3424L65.3044 54.4674C64.808 53.727 64.2864 52.9529 63.79 52.1704L64.463 51.9432C65.3213 51.6488 66.1795 51.3543 67.0292 51.0682C67.5257 50.8915 67.9968 50.7064 68.468 50.5045C69.0065 50.3026 69.5281 50.1006 70.0666 49.9155C70.3359 49.823 70.6051 49.7388 70.8743 49.6715C70.8743 49.7136 70.8996 49.7809 70.8996 49.8482V49.8398Z" fill="var(--fill-0, white)"/>
</g>
</svg>
