<svg preserveAspectRatio="none" width="100%" height="100%" overflow="visible" style="display: block;" viewBox="0 0 346.985 26.7726" fill="none" xmlns="http://www.w3.org/2000/svg">
<g id="Group">
<path id="Vector" d="M20.2614 26.0911C20.2614 26.0911 20.1688 26.0911 20.0426 26.0742C19.9248 26.0658 19.807 26.0406 19.6808 26.0238C19.563 25.9985 19.4453 25.9733 19.3359 25.9312C19.2265 25.8976 19.1592 25.8639 19.1424 25.8387L9.83675 4.74537L4.83898 16.634H14.2876L14.6494 17.3912H4.52768L0.968658 25.8387C0.892934 26.0069 0.766728 26.0911 0.573211 26.0911H0.320799C0.0347313 26.0911 -0.05782 25.9312 0.0347313 25.6199L10.6697 0.832982C10.7875 0.664707 10.9053 0.580567 11.0315 0.580567H11.4943C11.6878 0.580567 11.814 0.664707 11.8897 0.832982L22.7014 25.6199C22.7939 25.9312 22.7014 26.0911 22.4153 26.0911H20.2614Z" fill="var(--fill-0, white)"/>
<path id="Vector_2" d="M42.8608 26.0911C42.6253 26.0911 42.4991 25.9733 42.4991 25.7293V0.942352C42.4991 0.706767 42.6168 0.580567 42.8608 0.580567H49.8274C52.1749 0.580567 54.2699 0.866634 56.1125 1.42194C57.9551 1.98566 59.5201 2.80179 60.799 3.86193C62.0779 4.93047 63.0623 6.23461 63.7438 7.77433C64.4253 9.32246 64.7703 11.0641 64.7703 12.9993C64.7703 15.0606 64.4253 16.8948 63.7438 18.5103C63.0623 20.1257 62.0779 21.4972 60.799 22.6246C59.5201 23.752 57.9551 24.6102 56.1125 25.1908C54.2699 25.7798 52.1749 26.0742 49.8274 26.0742H42.8608V26.0911ZM49.8695 25.1235C53.7735 25.1235 56.651 24.0886 58.4936 22.0188C60.3362 19.949 61.3122 17.0463 61.4048 13.3022C61.4048 11.4343 61.1776 9.76838 60.7232 8.30439C60.2689 6.84039 59.5621 5.60357 58.603 4.58551C57.6438 3.56744 56.4322 2.78497 54.9598 2.24649C53.4874 1.70801 51.7289 1.43877 49.6928 1.43877L45.9235 1.40511V25.1151H49.8779L49.8695 25.1235Z" fill="var(--fill-0, white)"/>
<path id="Vector_3" d="M101.21 26.0911C101.21 26.0911 101.118 26.0911 100.992 26.0742C100.874 26.0658 100.756 26.0406 100.63 26.0238C100.512 25.9985 100.394 25.9733 100.285 25.9312C100.175 25.8976 100.108 25.8639 100.091 25.8387L90.7856 4.74537L85.7879 16.634H95.2365L95.5983 17.3912H85.4681L81.9091 25.8387C81.8334 26.0069 81.7072 26.0911 81.5137 26.0911H81.2613C80.9752 26.0911 80.8826 25.9312 80.9752 25.6199L91.6102 0.832982C91.728 0.664707 91.8458 0.580567 91.972 0.580567H92.4347C92.6282 0.580567 92.7545 0.664707 92.8302 0.832982L103.642 25.6199C103.734 25.9312 103.642 26.0911 103.356 26.0911H101.202H101.21Z" fill="var(--fill-0, white)"/>
<path id="Vector_4" d="M123.81 26.0911C123.574 26.0911 123.448 25.9733 123.448 25.7293V0.942352C123.448 0.706767 123.566 0.580567 123.81 0.580567H127.082C127.251 0.580567 127.369 0.639469 127.444 0.757261L142.892 20.9503V0.942352C142.892 0.706767 143.01 0.580567 143.254 0.580567H143.397C143.632 0.580567 143.759 0.698353 143.759 0.942352V25.7293C143.759 25.9649 143.641 26.0911 143.397 26.0911H142.53L124.314 1.94359V25.7293C124.314 25.9649 124.197 26.0911 123.953 26.0911H123.81Z" fill="var(--fill-0, white)"/>
<path id="Vector_5" d="M174.258 26.4866C172.34 26.4866 170.506 26.1333 168.764 25.4265C167.014 24.7198 165.542 23.7185 164.347 22.4228C164.254 22.305 164.221 22.1956 164.254 22.1031C164.288 22.0105 164.355 21.9348 164.448 21.8843L165.996 21.1691C166.063 21.1187 166.156 21.1102 166.265 21.1355C166.375 21.1607 166.45 21.2112 166.501 21.2785C167.527 22.5743 168.688 23.6007 169.967 24.3664C171.246 25.132 172.677 25.5191 174.258 25.5191C176.581 25.5191 178.423 25.0647 179.769 24.156C181.124 23.2473 181.839 22.0863 181.907 20.6727C181.957 20.0249 181.89 19.4612 181.713 18.9816C181.536 18.502 181.158 18.0561 180.602 17.6522C180.039 17.2483 179.248 16.8529 178.23 16.4827C177.212 16.1125 175.891 15.7086 174.258 15.2795C172.365 14.7747 170.775 14.2278 169.479 13.6473C168.184 13.0583 167.157 12.4104 166.392 11.6868C165.626 10.9717 165.096 10.1976 164.793 9.37306C164.49 8.54852 164.389 7.65666 164.49 6.6975C164.557 5.73833 164.86 4.8633 165.39 4.05558C165.92 3.25627 166.602 2.54952 167.46 1.95214C168.31 1.35476 169.303 0.892009 170.439 0.572286C171.574 0.252563 172.794 0.0842868 174.082 0.0842868C176.118 0.134769 177.885 0.47132 179.382 1.11077C180.88 1.75021 182.218 2.76827 183.387 4.18178C183.48 4.27433 183.514 4.3753 183.48 4.48468C183.446 4.59405 183.362 4.66978 183.244 4.72026L181.806 5.2924C181.587 5.36813 181.41 5.32605 181.267 5.18302C180.283 3.93778 179.239 2.93654 178.12 2.1793C177.01 1.42207 175.655 1.04345 174.082 1.04345C172.954 1.04345 171.919 1.21172 170.977 1.54827C170.026 1.88482 169.227 2.30551 168.571 2.82717C167.914 3.3404 167.426 3.92936 167.115 4.58564C166.804 5.24191 166.711 5.89818 166.829 6.54604C166.905 6.9499 167.048 7.34535 167.275 7.73239C167.502 8.11942 167.906 8.50645 168.478 8.9019C169.05 9.29734 169.858 9.7012 170.901 10.1219C171.945 10.5426 173.324 10.9633 175.049 11.4008C176.825 11.8551 178.314 12.3684 179.525 12.9237C180.737 13.4874 181.705 14.1268 182.437 14.842C183.169 15.5572 183.673 16.3481 183.943 17.1979C184.22 18.0476 184.304 18.99 184.212 20.0165C184.119 20.9504 183.791 21.8086 183.244 22.5995C182.697 23.3904 181.974 24.0719 181.09 24.644C180.207 25.2162 179.172 25.6705 178.003 25.9902C176.833 26.3099 175.579 26.4782 174.267 26.4782L174.258 26.4866Z" fill="var(--fill-0, white)"/>
<path id="Vector_6" d="M216.184 26.7726C214.291 26.7726 212.541 26.4361 210.917 25.763C209.293 25.0899 207.896 24.156 206.71 22.9612C205.524 21.7665 204.598 20.3529 203.925 18.7207C203.252 17.0884 202.915 15.3215 202.915 13.4032C202.915 11.4848 203.252 9.71795 203.925 8.08568C204.598 6.45342 205.524 5.04832 206.71 3.84516C207.896 2.65041 209.293 1.70806 210.917 1.02655C212.532 0.345032 214.291 6.71191e-05 216.184 6.71191e-05C218.077 6.71191e-05 219.827 0.345032 221.426 1.02655C223.033 1.70806 224.421 2.65041 225.59 3.84516C226.76 5.03991 227.685 6.45342 228.359 8.08568C229.032 9.71795 229.368 11.4848 229.368 13.4032C229.368 15.3215 229.032 17.0884 228.359 18.7207C227.685 20.3529 226.768 21.7665 225.59 22.9612C224.413 24.156 223.024 25.0899 221.426 25.763C219.819 26.4361 218.069 26.7726 216.184 26.7726ZM206.483 13.4116C206.483 15.1617 206.702 16.7855 207.131 18.3C207.56 19.806 208.191 21.1186 209.015 22.2376C209.84 23.3482 210.858 24.2317 212.07 24.8795C213.281 25.5274 214.653 25.8639 216.184 25.8892C217.766 25.9144 219.162 25.6115 220.391 24.9889C221.611 24.3663 222.629 23.4997 223.445 22.3807C224.261 21.27 224.867 19.9407 225.279 18.4094C225.683 16.8781 225.868 15.2121 225.818 13.4116C225.767 11.611 225.515 9.95354 225.06 8.43906C224.606 6.91617 223.967 5.60363 223.142 4.4846C222.317 3.37398 221.325 2.49896 220.155 1.85951C218.994 1.22848 217.673 0.908754 216.184 0.908754C214.653 0.883513 213.281 1.18641 212.07 1.80903C210.858 2.43165 209.84 3.29826 209.015 4.41729C208.191 5.5279 207.56 6.85728 207.131 8.38858C206.702 9.91988 206.483 11.5942 206.483 13.42V13.4116Z" fill="var(--fill-0, white)"/>
<path id="Vector_7" d="M249.132 26.0911C248.897 26.0911 248.77 25.9733 248.77 25.7293V0.942352C248.77 0.706767 248.888 0.580567 249.132 0.580567H252.405C252.573 0.580567 252.691 0.639469 252.767 0.757261L268.215 20.9503V0.942352C268.215 0.706767 268.332 0.580567 268.576 0.580567H268.719C268.955 0.580567 269.081 0.698353 269.081 0.942352V25.7293C269.081 25.9649 268.963 26.0911 268.719 26.0911H267.853L249.637 1.94359V25.7293C249.637 25.9649 249.519 26.0911 249.275 26.0911H249.132Z" fill="var(--fill-0, white)"/>
<path id="Vector_8" d="M290.629 26.0911C290.393 26.0911 290.267 25.9733 290.267 25.7293V0.942352C290.267 0.706767 290.385 0.580567 290.629 0.580567H306.295C306.531 0.580567 306.657 0.698353 306.657 0.942352V0.976014C306.657 1.22001 306.539 1.3378 306.295 1.3378H293.683V11.0052H303.418C303.654 11.0052 303.78 11.123 303.78 11.367V11.4007C303.78 11.6362 303.662 11.7624 303.418 11.7624H293.683V25.3422H307.011C307.246 25.3422 307.372 25.46 307.372 25.704V25.7377C307.372 25.9733 307.255 26.0995 307.011 26.0995H290.629V26.0911Z" fill="var(--fill-0, white)"/>
<path id="Vector_9" d="M344.519 26.0911C344.519 26.0911 344.426 26.0911 344.3 26.0742C344.182 26.0658 344.065 26.0406 343.938 26.0238C343.821 25.9985 343.703 25.9733 343.593 25.9312C343.484 25.8976 343.417 25.8639 343.4 25.8387L334.094 4.74537L329.097 16.634H338.545L338.907 17.3912H328.777L325.218 25.8387C325.142 26.0069 325.016 26.0911 324.822 26.0911H324.57C324.284 26.0911 324.191 25.9312 324.284 25.6199L334.919 0.832982C335.037 0.664707 335.154 0.580567 335.281 0.580567H335.743C335.937 0.580567 336.063 0.664707 336.139 0.832982L346.95 25.6199C347.043 25.9312 346.95 26.0911 346.664 26.0911H344.51H344.519Z" fill="var(--fill-0, white)"/>
</g>
</svg>
