<svg preserveAspectRatio="none" width="100%" height="100%" overflow="visible" style="display: block;" viewBox="0 0 1085.2 762.027" fill="none" xmlns="http://www.w3.org/2000/svg">
<g id="Group" style="mix-blend-mode:overlay" opacity="0.4">
<path id="Vector" d="M1082.07 20.8174C1082.07 20.8174 1082.06 19.6147 1081.8 19.3466C1081.67 19.0789 1081.29 18.6768 1081.03 18.4087C1080.9 18.141 1080.39 17.8722 1080.13 17.7377C1080.13 17.7377 1080 17.7373 1080 17.6037L1079.74 17.6029C1079.74 17.6029 1079.61 17.4689 1079.49 17.4685C961.112 -8.69091 838.664 2.82292 722.452 33.0654C662.617 48.7826 603.956 69.0472 546.72 92.7908C493.197 114.809 441.096 139.504 391.455 169.685C342.07 199.601 295.011 233.666 250.531 271.08C208.993 306.231 171.059 344.601 133 383.639C108.479 408.821 82.7987 432.929 57.2468 457.039C45.1108 468.761 32.7177 480.349 20.4524 491.804C15.0859 496.732 6.64322 502.185 2.82165 508.454C-2.14701 516.457 22.2752 528.56 27.1641 532.05C51.7349 548.964 76.3057 565.879 101.004 582.527C149.372 615.552 197.615 649.111 247.003 680.669C284.559 704.573 328.238 720.745 370.107 733.303C427.644 750.454 487.324 758.791 546.975 760.179C658.836 762.664 785.37 746.886 868.64 661.483C900.568 628.573 926.423 584.954 931.224 537.394C935.533 494.777 928.546 449.987 916.573 409.19C906.292 374.278 890.996 336.412 862.168 313.737C850.456 304.346 838.362 295.622 826.14 287.032C823.452 288.36 820.893 289.822 818.334 291.417C818.463 291.418 818.591 291.552 818.72 291.686C844.836 309.942 870.431 326.459 886.588 355.508C907.785 393.661 918.751 438.864 923.038 482.176C925.046 502.094 925.775 522.677 923.036 542.447C919.799 565.556 910.787 587.979 899.455 607.856C839.992 711.775 719.558 744.544 610.814 751.022C492.194 757.87 371.924 738.387 264.965 681.66C249.153 673.325 234.229 662.722 219.179 652.786C193.195 635.332 167.34 618.013 141.484 600.426C98.0043 570.891 54.1433 542.156 11.6847 511.422C11.6842 511.288 11.8124 511.288 11.8124 511.288C20.1167 503.429 28.4215 495.704 36.5975 487.845C62.7878 463.07 88.9788 438.428 114.782 413.117C144.291 384.476 171.869 354.092 201.507 325.719C242.518 286.958 285.976 250.877 331.76 218.545C427.035 151.086 532.651 102.369 642.294 65.6916C754.368 27.6853 873.172 3.73182 991.859 12.7865C1019.57 14.8771 1047.04 18.7042 1074.13 24.6683C1072.75 62.8844 1070.86 101.233 1058.57 137.544C1052.49 155.032 1046.03 174.389 1034.55 188.786C1023.44 202.249 1008.48 212.226 992.858 218.993C987.993 221.116 983.127 223.105 978.132 224.693C971.215 227.077 964.169 229.06 957.12 230.508C933.54 235.513 908.528 235.703 885.672 230.019C869.236 225.826 854.579 217.495 841.196 207.297C837.592 204.479 834.117 201.662 830.769 198.711C818.154 188.115 806.56 176.319 794.842 165.458C769.086 141.323 739.615 118.246 703.44 117.465C663.802 116.674 626.576 140.346 603.753 172.883C594.573 185.951 587.066 200.361 581.487 215.712C580.852 217.18 580.217 218.781 579.839 220.384C579.205 222.119 578.571 223.855 578.193 225.457C575.155 235.07 572.631 244.817 570.75 254.834C570.499 256.304 569.992 257.638 569.87 259.108C567.866 270.595 566.504 282.083 565.782 293.44C565.541 297.048 565.299 300.655 565.185 303.996L565.194 306.134C565.194 306.134 565.071 307.336 565.073 307.871C565.092 312.281 565.238 316.558 565.771 321.103C567.794 344.63 575.854 369.912 592.717 384.264C594.005 385.471 595.035 386.409 596.45 387.349C597.737 388.289 599.151 389.095 600.566 390.035C601.209 390.438 601.979 390.574 602.622 390.843C603.644 389.911 604.666 388.978 605.817 388.18C606.968 387.382 608.505 386.852 609.786 386.321C610.17 386.189 610.555 386.324 610.939 386.058C610.295 385.387 609.395 384.85 608.75 384.046C608.622 384.046 608.494 384.046 608.236 383.911C605.666 382.7 603.223 381.223 600.907 379.612C594.346 375.048 588.804 368.75 584.542 361.921C572.916 342.507 571.916 318.316 573.618 296.137C573.737 293.999 573.856 291.862 574.105 289.991C574.226 288.388 574.347 286.518 574.725 284.915L574.722 284.381C574.966 281.308 575.339 278.502 575.84 275.564C577.203 264.343 579.336 252.99 582.111 241.907C583.622 235.363 585.519 228.954 587.673 222.68C588.18 221.078 588.814 219.476 589.32 217.741L589.448 217.741C589.954 216.005 590.589 214.537 591.095 212.802C595.284 202.391 600.372 192.384 606.489 182.914C611.586 174.912 617.455 167.58 624.097 160.785C653.599 130.675 697.533 115.977 736.984 133.072C767.568 146.263 790.638 172.394 814.977 195.054C816.908 196.797 818.968 198.541 820.771 200.284C820.9 200.418 821.029 200.552 821.287 200.82L821.415 200.821C823.604 202.832 825.792 204.71 827.98 206.454C829.526 207.929 831.07 209.136 832.743 210.344C834.029 211.283 835.315 212.089 836.474 213.028C836.474 213.028 836.474 213.162 836.603 213.162C837.89 214.369 839.176 215.175 840.591 215.981C859.89 229.806 880.837 239.092 905.474 241.306C913.814 242 922.152 242.16 930.359 241.651L930.487 241.651C939.465 241.412 948.567 240.237 957.282 238.527L957.411 238.527C972.79 235.502 987.648 230.603 1001.35 223.964C1016.58 216.527 1030.9 206.282 1041.49 192.55C1052.72 178.018 1059.18 159.329 1065.39 141.975C1078.82 103.128 1080.7 62.2409 1082.07 21.2183C1082.07 21.0847 1082.07 20.9511 1081.94 20.6834L1082.07 20.8174Z" fill="var(--fill-0, #003F44)"/>
<path id="Vector_2" d="M1026.69 56.3198L1025.92 55.5156C1025.92 55.5156 1025.4 54.9794 1025.15 54.845L1024.63 54.8434C1024.63 54.8434 1024.5 54.7093 1024.38 54.7089C918.069 31.259 808.184 41.4757 703.757 68.5481C650.071 82.5474 597.302 101.093 546.083 122.317C498.065 142.081 451.083 164.119 406.559 191.244C362.163 218.102 319.963 248.708 279.956 282.395C242.635 313.953 208.66 348.327 174.432 383.502C152.465 406.153 129.339 427.731 106.342 449.443C95.3554 459.967 84.3675 470.223 73.2524 480.746C68.525 485.142 60.8501 490.196 57.5381 495.665C53.0791 502.868 75.0589 513.627 79.4337 516.848C101.432 531.885 123.559 547.188 145.813 562.225C189.294 591.761 232.52 621.965 276.893 650.167C310.72 671.788 349.904 686.343 387.406 697.552C439.165 712.948 492.685 720.464 546.307 721.566C646.753 723.882 760.469 709.668 835.183 632.923C863.919 603.344 887.099 564.125 891.279 521.373C895.222 483.163 888.896 443.051 878.223 406.4C868.854 374.832 855.242 340.979 829.245 320.584C822.038 314.815 814.445 309.045 806.983 303.676C805.696 302.737 804.41 301.931 803.252 300.992C802.093 300.053 801.064 299.248 799.778 298.576C797.604 300.039 795.43 301.502 792.869 302.697C794.155 303.503 795.442 304.442 796.6 305.382C797.887 306.321 799.173 307.127 800.589 308.2C820.273 322.027 838.803 336.116 851.083 358.339C870.083 392.477 879.876 433.268 883.888 472.036C885.502 489.815 886.222 508.394 883.859 526.027C880.997 546.866 872.873 567.021 862.686 584.764C809.336 678.147 701.2 707.747 603.61 713.324C497.043 719.542 388.965 702.101 293.059 651.153C278.79 643.625 265.41 634.228 252.031 625.233C228.62 609.658 205.337 594.083 182.311 578.376C143.204 551.793 103.844 526.012 65.6306 498.363C65.63 498.229 65.7583 498.23 65.7583 498.23C73.2965 491.17 80.5786 484.243 88.1168 477.184C111.625 454.939 135.261 432.694 158.383 410.18C184.954 384.47 209.595 357.15 236.296 331.574C273.091 296.941 312.204 264.32 353.257 235.448C438.814 174.773 533.679 131.233 632.051 98.1276C732.984 64.095 839.743 42.6427 946.242 50.5908C971.134 52.4054 995.777 55.9566 1020.3 61.2447C1019.03 95.5866 1017.25 129.927 1006.36 162.769C1000.91 178.388 995.086 195.877 984.75 208.808C977.22 217.739 967.887 225.06 957.521 230.774C954.195 232.769 950.738 234.362 947.153 235.954C941.776 238.21 936.397 240.331 930.761 242.051C905.14 250.124 876.545 252.173 850.991 245.679C846.24 244.461 841.872 242.844 837.504 241.093C836.219 240.555 834.933 239.883 833.777 239.478C833.777 239.478 833.648 239.344 833.52 239.344C832.362 238.672 831.206 238.134 829.921 237.595C811.794 227.917 796.339 213.168 781.143 198.955C778.051 195.872 774.832 192.922 771.741 189.972C771.097 189.302 770.324 188.631 769.68 187.961C746.5 166.373 720.117 145.576 687.533 144.807C656.617 144.176 627.439 160.257 606.886 183.58C603.566 187.178 600.631 190.777 597.954 194.645C593.491 201.045 589.415 207.849 585.983 215.054C585.091 216.655 584.329 218.257 583.438 219.991L583.311 220.258C582.548 221.86 581.785 223.461 581.279 225.197C577.087 234.806 573.667 245.086 571.274 255.369C567.615 269.79 565.24 284.617 564.148 299.314C563.91 303.724 563.544 308.133 563.434 312.543C563.438 313.345 563.441 314.28 563.317 315.215L563.326 317.354C563.347 322.298 563.625 327.378 564.287 332.324C566.94 352.913 574.469 374.052 589.397 385.592C590.814 387.066 592.359 388.274 594.158 389.081C595.701 390.021 597.244 390.828 599.044 391.769C600.972 392.71 603.027 393.385 605.081 393.926C605.08 393.659 605.079 393.258 605.206 392.991C605.585 391.656 606.349 390.455 607.372 389.523C608.265 388.457 609.288 387.792 610.569 387.395C610.569 387.395 610.569 387.395 610.441 387.394C609.157 387.123 607.873 386.852 606.718 386.581C603.892 385.637 601.064 384.291 598.364 382.679C591.291 378.381 585.108 372.214 580.715 364.85C570.252 347.444 569.391 325.925 570.718 306.017C570.838 304.013 570.958 302.142 571.206 300.138C571.45 297.199 571.823 294.394 572.324 291.455L572.196 291.455L572.323 291.188L572.322 290.92C572.322 290.92 572.192 290.653 572.319 290.386C572.561 286.912 573.061 283.706 573.688 280.367C575.558 267.677 578.456 255.124 582.508 242.841C584.532 236.032 587.197 229.358 590.121 222.952C590.883 221.217 591.645 219.482 592.665 217.882L592.793 217.882C593.555 216.147 594.317 214.278 595.465 212.678C601.065 202.405 608.079 192.805 616.381 184.278C642.947 157.231 682.398 143.989 717.867 159.468C734.058 166.334 747.83 177.469 761.093 189.672C764.184 192.488 767.403 195.438 770.494 198.521C777.836 205.76 785.307 213.134 793.032 219.84C804.491 229.899 816.328 238.488 829.054 244.943C830.211 245.481 831.368 246.153 832.652 246.558C832.652 246.558 832.738 246.602 832.909 246.692C834.195 247.364 835.224 247.902 836.507 248.173C846.531 252.614 857.318 255.454 868.995 256.426C898.124 259.189 928.886 253.672 955.255 240.791C956.151 240.259 957.175 239.861 957.942 239.329C965.495 235.61 972.53 231.088 978.92 225.362C983.393 221.634 987.608 217.37 991.309 212.704C1001.39 199.639 1007.34 182.818 1012.92 167.333C1024.96 132.49 1026.6 95.7438 1027.86 58.8626L1027.86 58.5953C1027.86 58.5953 1027.85 57.3925 1027.59 57.1245L1026.69 56.3198Z" fill="var(--fill-0, #003F44)"/>
<path id="Vector_3" d="M966.384 110.65C966.384 110.65 966.249 109.179 965.734 108.643C965.604 108.375 965.218 107.973 965.088 107.705C964.96 107.571 964.831 107.437 964.445 107.168L964.441 106.366L962.517 106.36C880.323 86.3195 787.189 88.4359 685.554 112.851C641.593 123.542 595.597 138.104 548.718 156.407C501.199 174.841 462.659 193.035 427.336 213.646C389.837 235.186 352.612 261.004 316.812 289.902C284.593 316.271 255.973 344.122 224.288 375.305C207.168 392.363 188.893 409.016 171.255 425.003L164.866 430.865C155.281 439.658 145.696 448.452 135.982 457.245C134.703 458.176 133.297 459.375 131.763 460.707C128.183 463.503 124.09 466.565 121.796 470.168C121.032 471.502 120.654 472.971 121.045 474.443C122.222 479.66 129.813 484.764 137.788 489.735C139.203 490.541 140.36 491.214 140.876 491.75C159.535 505.176 178.452 518.603 197.368 531.897C205.089 537.535 212.938 542.907 220.659 548.412C249.485 568.955 279.082 590.036 308.802 609.78C333.119 626.031 363.326 639.627 403.666 652.586C446.19 666.22 492.153 674.117 540.401 676.138C549.511 676.434 558.236 676.729 566.832 676.755C668.444 677.072 742.113 653.104 791.555 604.063C820.301 575.678 838.375 541.512 842.21 507.969C845.803 478.036 842.582 444.471 832.676 407.811C825.642 382.657 814.733 351.475 791.301 332.286C787.311 329.065 783.448 325.844 779.329 322.757C777.398 321.147 775.339 319.67 773.537 318.194C773.537 318.327 773.409 318.327 773.41 318.461L772.899 319.128C771.628 321.797 770.229 324.734 768.701 327.403C770.759 328.746 772.69 330.356 774.62 331.699C787.236 341.765 798.572 352.494 806.461 367.358C820.558 394.004 829.553 427.72 832.533 464.893C834.022 483.213 833.828 497.917 831.574 511.011C829.076 527.045 822.731 543.602 812.796 560.415C773.686 625.931 698.528 661.524 589.237 665.73C491.491 669.302 399.802 649.098 324.058 607.153C313.899 601.507 303.991 594.658 294.469 587.945L289.321 584.319C269.505 570.488 249.689 556.657 230.001 542.693C221.508 536.785 213.144 530.876 204.908 525.102C181.231 508.318 156.525 491.13 133.1 473.411L152.015 456.091C171.952 437.972 192.401 419.454 212.336 400.801C223.326 390.541 234.057 379.747 244.534 369.486C256.288 357.892 268.297 345.898 280.565 334.439C313.922 304.197 348.19 277.032 382.603 253.745C451.428 207.037 530.429 169.985 624.089 140.599C724.411 108.961 812.886 97.4726 894.515 105.213C915.693 107.284 936.362 110.557 956.011 115.163C954.218 146.038 952.025 173.57 942.77 199.743L942.263 201.078C937.57 213.763 932.37 228.185 923.818 238.452C916.031 247.518 905.03 255.237 891.966 260.544C865.841 271.692 835.317 274.137 810.142 267.375C786.638 261.152 768.471 243.048 751.079 225.883C748.115 222.799 744.894 219.714 741.803 216.764C721.706 197.317 699.176 178.932 670.69 177.774C641.691 176.748 611.224 192.829 591.196 219.771C580.099 234.976 572.729 251.931 567.926 268.76C567.039 271.431 566.28 274.102 565.779 276.908C561.742 293.071 560.012 308.706 559.169 321.671C558.688 329.289 559.24 338.381 560.817 347.209C561.609 352.425 563.042 357.51 564.859 362.462C567.455 369.689 571.076 376.384 575.974 381.88C580.874 387.644 586.793 391.673 593.474 393.966C595.144 394.506 597.07 394.779 598.868 395.186C598.735 394.116 598.474 393.18 598.726 392.111C598.72 390.64 599.227 389.305 599.992 388.104C600.247 387.704 600.631 387.438 600.886 387.038C600.371 386.635 599.728 386.232 599.084 385.695C598.44 385.158 597.924 384.488 597.408 383.685C588.926 380.45 581.585 373.743 576.805 365.841C572.798 359.011 570.585 351.25 569.652 343.226C568.858 337.342 568.832 331.326 568.936 325.444C569.044 320.766 569.537 315.955 570.031 311.411C571.385 298.047 573.642 285.621 576.929 274.135C577.558 271.196 578.444 268.391 579.46 265.855C586.297 244.353 596.486 226.872 609.901 213.679C634.56 189.426 668.013 181.91 695.393 194.294C713.903 202.64 728.849 217.793 743.407 232.142C748.433 237.238 753.586 242.334 758.866 247.029C767.109 254.541 775.09 260.849 783.065 265.686C783.193 265.687 783.322 265.821 783.322 265.821C786.41 267.835 789.624 269.583 792.966 271.064C803.123 276.176 813.656 279.15 824.695 280.521C850.366 283.274 877.162 278.946 900.21 268.323C913.654 261.948 924.397 253.827 932.181 244.093C941.116 233.292 946.19 219.672 951.137 206.319L951.773 204.985C962.427 176.009 964.741 146.739 966.643 111.186L966.64 110.517L966.384 110.65Z" fill="var(--fill-0, #003F44)"/>
<g id="Group_2">
<path id="Vector_4" d="M784.596 399.447C779.798 380.762 772.655 358.162 758.246 341.587C756.756 339.835 754.889 337.95 753.019 336.337C750.344 338.392 747.424 339.908 744.378 341.424C746.374 343.036 748.241 344.921 749.981 346.807C754.83 352.06 759.291 357.994 762.731 364.887C774.158 387.725 781.089 416.84 783.19 448.976C784.116 464.842 783.572 477.463 781.785 488.738C779.458 502.729 773.849 517.018 765.335 531.6C731.677 588.571 668.095 619.862 576.617 624.508C494.603 628.674 418.157 612.04 355.454 576.305C346.941 571.623 338.822 565.716 330.828 559.945L326.582 556.858C310.219 545.046 293.982 533.234 277.619 521.423C270.624 516.322 263.754 511.356 256.885 506.39C237.147 492.298 217.038 477.667 197.69 462.759L212.501 448.67C229.86 432.662 247.606 415.972 264.975 399.15C274.17 390.26 283.371 380.963 292.316 371.94C302.285 361.687 312.635 351.296 323.106 341.311C351.446 314.771 380.634 290.938 409.651 270.498C466.792 230.438 531.775 198.186 608.4 172.356C610.217 168.408 612.289 164.186 614.737 160.233C593.462 167.181 571.923 175.082 550.119 183.934C510.184 200.39 477.441 216.517 447.571 234.658C415.797 253.763 384.23 276.393 353.633 301.866C326.223 324.735 300.795 350.303 274.854 376.553C260.286 391.318 244.84 405.683 230.032 419.501L224.16 424.973C216.37 432.495 208.454 440.019 200.413 447.407L199.521 448.092C198.626 449.049 197.351 450.144 196.077 451.104C193.019 453.57 189.576 456.445 187.518 459.582C186.745 460.809 186.351 462.033 186.711 463.387C187.533 467.993 194.032 472.419 200.534 476.574C201.66 477.244 202.66 477.915 203.159 478.318C218.773 489.592 234.257 501.139 249.87 512.413C256.239 517.112 262.735 521.81 269.104 526.509C292.956 544.095 317.434 562.084 342.179 578.986C362.298 592.803 387.492 604.274 421.016 615.138C456.425 626.529 494.927 632.742 535.384 634.19C542.947 634.403 550.383 634.616 557.571 634.56C642.818 633.897 705.01 612.52 747.31 569.592C771.846 544.709 787.495 514.877 791.408 485.678C794.775 459.739 792.636 430.588 784.854 399.038L784.596 399.447Z" fill="var(--fill-0, #003F44)"/>
<path id="Vector_5" d="M904.188 152.612C904.188 152.612 904.079 151.256 903.706 150.851C903.457 150.582 903.21 150.176 903.086 150.042C902.962 149.907 902.963 149.771 902.837 149.772L902.85 148.822L900.957 148.836C857.194 138.181 809.538 135.836 758.631 140.847C759.253 141.521 759.873 142.331 760.623 142.868C763.495 145.154 766.623 147.166 769.624 149.179C795.135 147.08 819.862 147.023 843.68 149.01C861.448 150.501 878.57 153.219 894.92 157.028C893.059 183.515 890.727 207.425 882.607 230.159L882.087 231.385C878.031 242.412 873.453 254.801 866.146 263.682C859.606 271.742 850.183 278.467 839.272 283.167C823.664 290.076 806.212 293.334 789.82 292.647C787.299 292.531 785.029 292.413 782.764 292.023C778.607 291.513 774.579 290.865 770.808 289.808C757.608 286.246 746.363 277.917 736.144 268.358C732.901 265.532 729.914 262.433 727.051 259.469C725.432 257.852 723.691 255.965 722.072 254.349C719.584 251.653 717.095 249.093 714.477 246.67C697.919 229.83 679.202 214.092 655.24 213.464C630.648 212.841 604.853 227.024 587.764 250.642C581.981 258.696 577.201 267.286 573.426 276.139C572.254 278.999 571.205 281.993 570.285 284.851C563.217 304.319 560.562 324.023 559.349 339.509C558.743 347.251 559.249 356.75 561.149 365.83C562.215 371.116 563.788 376.263 565.996 380.997C567.839 384.784 569.936 388.433 572.544 391.535C578.51 398.412 585.771 402.699 594.592 403.445C595.347 403.575 596.23 403.568 597.113 403.561C600.013 403.675 602.919 403.38 605.958 402.542C607.225 402.125 608.497 401.301 609.766 400.748C609.144 400.074 608.648 399.399 608.154 398.588C608.156 398.453 607.907 398.183 607.911 397.912C607.545 396.964 607.054 395.882 606.816 394.798C606.816 394.798 606.82 394.526 606.821 394.391C606.83 393.712 606.711 393.17 606.594 392.492C605.96 392.768 605.325 393.045 604.819 393.184C592.411 396.539 580.411 388.08 574.373 377.131C571.909 372.67 570.331 367.931 569.515 362.779C568.216 356.001 568.184 348.807 568.528 341.881C568.705 337.943 569.134 334.138 569.564 330.198C571.698 311.719 575.567 295.67 581.302 281.643C582.479 278.512 583.904 275.65 585.329 272.788C590.389 262.16 596.816 253.015 604.358 245.49C625.326 224.285 653.422 217.415 676.118 227.963C690.539 234.638 702.37 246.357 713.695 258.215C714.317 258.889 715.065 259.562 715.687 260.236C717.679 262.257 719.669 264.413 721.661 266.434C723.904 268.589 726.018 270.88 728.387 273.033C746.329 290.135 762.866 298.966 781.635 301.127C782.264 301.258 782.767 301.39 783.272 301.386C785.163 301.507 786.801 301.63 788.69 301.887C808.609 302.954 828.975 298.723 847.002 290.166C858.428 284.647 867.607 277.381 874.404 268.912C881.972 259.35 886.545 247.369 890.86 235.796L891.381 234.57C900.792 209.519 903.147 183.843 905.19 153.148L905.199 152.469L904.188 152.612Z" fill="var(--fill-0, #003F44)"/>
</g>
<g id="Group_3">
<path id="Vector_6" d="M358.677 338.937C376.145 323.749 393.851 309.644 411.535 297.167C403.27 302.655 395.25 308.684 387.098 315.121C377.292 322.791 367.858 330.865 358.549 339.073L358.677 338.937Z" fill="var(--fill-0, #003F44)"/>
<path id="Vector_7" d="M465.388 268.297C447.565 278.358 429.599 289.662 412.253 302.34C418.418 298.019 424.325 293.976 430.358 290.07C467.075 265.664 507.433 245.508 552.971 228.625C552.076 228.907 550.925 229.329 550.03 229.612C517.026 241.99 490.136 254.186 465.517 268.159L465.388 268.297Z" fill="var(--fill-0, #003F44)"/>
<path id="Vector_8" d="M581.192 275.804C565.55 296.898 560.307 323.881 558.466 342.918C558.32 345.826 558.173 348.866 558.26 352.3C558.314 346.486 558.962 340.669 559.725 335.38C563.929 305.099 573.646 282.319 588.874 267.437C586.235 270.094 583.478 272.752 581.192 275.804Z" fill="var(--fill-0, #003F44)"/>
<path id="Vector_9" d="M811.004 302.801C810.105 303.76 809.208 304.584 808.185 305.408C809.208 304.584 810.107 303.624 811.004 302.801Z" fill="var(--fill-0, #003F44)"/>
<path id="Vector_10" d="M808.17 305.024C805.098 307.639 801.651 309.848 797.953 311.922C801.778 309.847 805.226 307.502 808.17 305.024Z" fill="var(--fill-0, #003F44)"/>
<path id="Vector_11" d="M797.894 311.611C797.894 311.611 797.259 312.023 797.005 312.161C797.259 312.023 797.64 311.749 797.894 311.611Z" fill="var(--fill-0, #003F44)"/>
<path id="Vector_12" d="M741.754 319.704C744.074 319.988 746.65 320.419 748.972 320.41C742.656 319.847 736.474 318.698 730.685 316.667C734.285 318.119 737.89 318.985 741.754 319.704Z" fill="var(--fill-0, #003F44)"/>
<path id="Vector_13" d="M741.066 402.973C741.625 405.603 742.185 407.97 742.744 410.469C742.746 410.206 742.749 409.679 742.636 409.285C742.19 407.181 741.628 405.077 741.182 402.841L741.066 402.973Z" fill="var(--fill-0, #003F44)"/>
<path id="Vector_14" d="M588.973 268.41L589.122 268.252L588.973 268.41Z" fill="var(--fill-0, #003F44)"/>
<path id="Vector_15" d="M589.128 268.429C591.168 266.518 593.203 264.877 595.237 263.372C593.076 265.014 591.04 266.654 589.128 268.429Z" fill="var(--fill-0, #003F44)"/>
<path id="Vector_16" d="M595.27 263.65C596.302 262.818 597.46 262.122 598.49 261.427C597.332 262.123 596.302 262.818 595.27 263.65Z" fill="var(--fill-0, #003F44)"/>
<path id="Vector_17" d="M653.041 257.66C652.41 257.252 651.648 257.12 650.887 256.85C653.165 257.935 655.445 258.882 657.59 260.382C656.075 259.429 654.557 258.613 652.914 257.661L653.041 257.66Z" fill="var(--fill-0, #003F44)"/>
<path id="Vector_18" d="M611.105 255.513C611.105 255.513 611.864 255.098 612.368 254.958C611.989 255.097 611.609 255.373 611.105 255.513Z" fill="var(--fill-0, #003F44)"/>
<g id="Vector_19">
</g>
<path id="Vector_20" d="M583.084 389.059C583.084 389.059 582.717 389.061 582.596 388.926C582.719 388.925 582.963 388.924 583.084 389.059Z" fill="var(--fill-0, #003F44)"/>
<path id="Vector_21" d="M303.182 386.345C305.083 384.846 306.735 383.214 308.637 381.581C316.251 374.777 323.872 367.434 331.237 360.497C333.906 357.779 336.697 355.329 339.365 352.745C333.526 358.051 327.557 363.763 321.715 369.339C315.619 375.187 309.4 380.766 303.306 386.478L303.182 386.345Z" fill="var(--fill-0, #003F44)"/>
<path id="Vector_22" d="M713.287 349.372C712.391 350.329 707.795 354.571 707.157 355.119C712.51 360.505 717.35 366.574 720.782 374.147C729.493 392.806 734.354 416.515 735.273 442.698C735.61 455.451 734.972 465.633 733.214 474.738C731.05 485.882 726.108 497.32 718.895 508.774C690.305 553.912 638.287 577.384 564.362 578.637L561.335 578.66C496.123 579.166 435.788 563.486 386.741 533.47C379.984 529.316 373.615 524.48 367.374 519.508L364 517.091C351.015 507.015 338.028 497.074 325.045 486.862C319.678 482.561 314.181 478.533 308.688 474.233C293.331 462.275 277.475 449.914 262.127 437.277L274.121 426.735C288.282 414.413 303.081 401.542 317.634 388.131C325.417 381.285 333.081 373.898 340.362 366.921C348.791 358.85 357.349 350.641 366.154 342.838C389.629 322.301 413.835 303.794 437.879 288.002C479.478 260.676 526.056 238.467 579.638 220.817C580.524 220.539 581.284 220.262 582.297 219.982C584.45 219.287 586.603 218.592 588.757 217.897C589.389 217.756 590.148 217.615 590.784 217.203C592.809 216.644 594.962 215.949 596.989 215.255C596.993 214.983 596.998 214.576 597.254 214.303C597.641 213.621 597.902 212.941 598.29 212.259C597.686 210.228 597.842 207.92 598.751 205.878C597.865 206.156 597.106 206.298 596.22 206.576C594.955 206.857 593.686 207.41 592.546 207.826C590.647 208.383 589.002 208.803 587.101 209.496C585.836 209.778 584.443 210.195 583.175 210.748C573.295 213.946 563.41 217.551 553.271 221.293C520.32 233.49 493.675 245.639 468.901 259.401C442.728 273.988 416.519 291.425 391.286 311.297C368.602 329.249 348.173 348.27 325.696 369.613C313.69 381.105 300.931 392.331 288.557 403.012L283.579 407.528C277.072 413.278 270.438 419.029 263.804 424.78L263.039 425.464C262.273 426.149 261.127 426.972 260.234 427.793C257.562 429.578 254.632 431.772 252.957 434.499C252.314 435.453 252.045 436.677 252.283 437.761C252.863 441.691 257.734 445.317 263.234 449.074C264.108 449.746 264.858 450.283 265.233 450.551C277.593 460.226 289.952 469.9 302.312 479.575L317.292 491.4C336.144 506.18 355.743 521.634 375.356 536.001C391.346 547.819 411.396 557.705 438.384 567.537C466.754 577.766 497.825 584.038 530.462 586.227C541.551 586.955 552.14 587.416 562.357 587.337C624.29 586.856 670.784 571.026 703.86 539.694C724.294 520.267 737.721 496.551 741.562 472.91C745.115 451.984 744.04 428.11 738.323 402.372C734.515 384.896 728.238 363.369 713.287 349.372ZM393.639 314.671C401.793 308.366 409.818 302.333 418.089 296.705C435.407 284.086 453.082 273.093 470.743 263.186C486.247 254.245 503 246.245 521.517 238.366C522.656 238.086 523.546 237.536 524.56 237.121C525.195 236.845 525.829 236.569 526.461 236.428C521.771 238.229 517.33 240.298 512.634 242.506C506.164 245.406 499.818 248.441 493.471 251.611C493.217 251.748 492.836 251.887 492.581 252.161C489.28 253.815 486.105 255.468 482.802 257.257C479.502 258.911 476.453 260.563 473.15 262.353C468.831 264.693 464.639 267.033 460.443 269.644C452.182 274.457 443.917 279.542 436.029 284.76C430.177 288.605 424.197 292.586 418.088 296.841C400.391 309.462 382.551 323.442 365.2 338.639C374.388 330.426 383.953 322.345 393.765 314.67L393.639 314.671Z" fill="var(--fill-0, #003F44)"/>
<path id="Vector_23" d="M819.268 291.675C816.07 293.482 812.515 293.371 809.486 291.885C809.229 292.161 808.968 292.712 808.71 292.988C806.133 295.888 803.308 298.378 800.105 300.597C797.926 302.122 795.748 303.647 793.192 304.901C791.017 306.151 788.846 307.128 786.421 308.106C768.293 315.512 747.577 316.627 730.625 311.404C726.451 310.064 722.537 308.31 718.883 306.006C716.741 304.65 714.601 303.157 712.589 301.526C711.961 300.982 711.331 300.576 710.705 299.894C708.817 298.537 707.06 296.904 705.175 295.272C700.533 290.781 696.149 286.013 691.891 281.244C689.887 279.064 687.884 276.747 685.878 274.705C672.597 260.402 657.654 246.934 638.112 245.709C618.064 244.213 596.587 255.347 581.87 274.249C580.579 275.905 579.288 277.56 578.374 279.487C577.468 280.866 576.435 282.245 575.784 283.485C572.805 288.033 570.204 292.854 568.363 297.805C567.579 299.594 566.792 301.521 566.135 303.309C560.353 318.577 557.493 333.824 556.446 346.314C555.135 359.629 557.188 377.994 566.185 389.586C571.183 396.132 577.867 399.786 586.116 400.273C590.428 400.789 594.757 399.934 599.23 397.706C599.868 397.426 600.637 396.872 601.278 396.456C601.405 396.455 601.535 396.179 601.662 396.178C600.409 394.816 599.157 393.454 597.775 392.23C597.022 391.55 594.252 389.65 597.149 391.549C596.519 391.142 595.891 390.598 595.263 390.054C594.751 390.332 594.113 390.611 593.605 390.615C592.327 391.173 591.054 391.457 589.911 391.466C580.882 392.356 572.586 385.56 568.372 377.362C562.675 365.882 563.745 351.609 565.556 338.976C565.692 338.289 565.701 337.604 565.836 336.917C566.52 333.071 567.2 329.5 568.006 326.064C568.816 322.218 569.754 318.37 570.942 314.795C571.471 313.145 572.131 311.22 572.66 309.57C573.589 306.408 574.77 303.381 576.078 300.354C581.183 288.382 587.784 278.594 595.883 270.852C613.365 254.261 636.159 249.427 654.204 258.619C666.572 264.836 676.213 275.737 685.478 286.23C688.86 289.908 692.116 293.587 695.375 296.992C697.003 298.763 698.759 300.533 700.391 302.029C702.275 303.661 704.034 305.157 705.922 306.514C706.549 307.195 707.18 307.465 707.808 308.009C709.947 309.639 711.96 311.133 714.102 312.488C722.418 317.638 730.763 320.594 739.764 321.898C757.257 324.51 775.707 321.766 792.053 314.648C795.118 313.253 797.932 311.723 800.62 310.057C802.924 308.668 804.975 307.144 807.028 305.483C809.979 303.129 812.55 300.641 814.871 297.88C816.16 296.362 817.451 294.706 818.488 293.052C819.005 292.362 819.268 291.675 819.786 290.848C819.531 290.987 819.4 291.262 819.144 291.401L819.268 291.675ZM582.878 395.222C577.561 393.89 573.02 391.455 569.521 386.955C567.897 384.772 566.655 382.587 565.416 380.127C569.261 387.368 575.539 393.082 582.878 395.222ZM616.805 253.412C622.675 251.174 628.791 249.619 634.888 249.574L638.19 249.549C643.899 250.055 649.211 251.798 654.133 254.23C642.515 248.968 629.562 248.928 616.934 253.274L616.805 253.412Z" fill="var(--fill-0, #003F44)"/>
<path id="Vector_24" d="M590.821 389.542C590.821 389.542 592.245 389.388 593.022 389.233C593.54 389.233 594.188 389.079 594.576 388.925C593.928 389.233 593.28 389.541 592.633 389.696C590.56 390.313 588.488 390.467 586.417 390.314C585.123 390.16 584.218 389.544 582.924 389.236C585.511 390.006 587.971 390.159 590.69 389.85L590.821 389.542Z" fill="var(--fill-0, #003F44)"/>
<path id="Vector_25" d="M569.144 296.616C568.567 297.801 568.105 298.855 567.757 300.039C567.525 300.697 567.294 301.356 567.176 302.014C566.716 302.804 566.484 303.594 566.366 304.383C565.788 305.831 565.323 307.411 564.973 308.99C564.857 309.253 564.855 309.648 564.74 309.911C564.74 309.911 564.622 310.569 564.507 310.832C564.043 312.28 563.807 313.727 563.343 315.175C563.11 316.096 562.876 317.149 562.643 318.202L562.641 318.465C562.641 318.465 562.408 319.386 562.406 319.781C562.174 320.57 561.942 321.36 561.822 322.413C561.116 326.491 560.41 330.439 559.817 334.78C559.105 340.042 558.503 345.83 558.472 351.617C558.376 348.198 558.507 345.173 558.636 342.279L559.113 338.464C559.234 337.149 559.241 335.834 559.591 334.386C560.191 328.861 561.134 323.072 562.648 317.15C562.649 317.018 562.65 316.887 562.764 316.887L562.765 316.623C562.883 315.834 563 315.308 563.232 314.65C563.349 314.123 563.466 313.465 563.696 313.07C563.697 312.939 563.813 312.544 563.814 312.412C564.278 310.833 564.628 309.517 565.091 308.069C565.672 306.095 566.251 304.515 566.83 302.804C567.409 301.092 568.103 299.249 568.797 297.538C569.029 296.748 569.489 295.958 569.836 295.168C570.066 294.641 570.298 293.983 570.642 293.587C570.641 293.85 570.525 294.114 570.41 294.377C570.178 295.167 569.832 295.825 569.6 296.615L569.144 296.616Z" fill="var(--fill-0, #003F44)"/>
<path id="Vector_26" d="M582.634 274.676C580.62 277.1 578.603 279.658 576.958 282.346C575.821 283.96 574.809 285.574 573.671 287.322C574.432 285.978 575.319 284.499 576.203 283.155C577.596 280.869 579.113 278.583 580.876 276.429C583.395 273.333 586.157 270.636 589.044 267.804C586.785 269.962 584.774 272.118 582.76 274.542L582.634 274.676Z" fill="var(--fill-0, #003F44)"/>
<path id="Vector_27" d="M701.683 300.343C700.203 298.876 698.723 297.408 697.119 295.942C693.792 292.472 690.591 288.867 687.389 285.396C684.188 281.791 680.863 278.187 677.412 274.584C679.015 276.185 680.743 277.785 682.219 279.521C684.19 281.657 686.161 283.793 688.13 286.063C692.071 290.335 696.01 294.741 700.207 298.607C700.823 299.274 701.315 299.808 701.81 300.208C701.933 300.341 701.931 300.476 702.052 300.744C701.929 300.61 701.806 300.477 701.556 300.479L701.683 300.343Z" fill="var(--fill-0, #003F44)"/>
<path id="Vector_28" d="M590.821 389.542C590.821 389.542 592.245 389.388 593.022 389.233C593.54 389.233 594.188 389.079 594.576 388.925C593.928 389.233 593.28 389.541 592.633 389.696C590.56 390.313 588.488 390.467 586.417 390.314C585.123 390.16 584.218 389.544 582.924 389.236C585.511 390.006 587.971 390.159 590.69 389.85L590.821 389.542Z" fill="var(--fill-0, #003F44)"/>
<path id="Vector_29" d="M569.144 296.616C568.567 297.801 568.105 298.855 567.757 300.039C567.525 300.697 567.294 301.356 567.176 302.014C566.716 302.804 566.484 303.594 566.366 304.383C565.788 305.831 565.323 307.411 564.973 308.99C564.857 309.253 564.855 309.648 564.74 309.911C564.74 309.911 564.622 310.569 564.507 310.832C564.043 312.28 563.807 313.727 563.343 315.175C563.11 316.096 562.876 317.149 562.643 318.202L562.641 318.465C562.641 318.465 562.408 319.386 562.406 319.781C562.174 320.57 561.942 321.36 561.822 322.413C561.116 326.491 560.41 330.439 559.817 334.78C559.105 340.042 558.503 345.83 558.472 351.617C558.376 348.198 558.507 345.173 558.636 342.279L559.113 338.464C559.234 337.149 559.241 335.834 559.591 334.386C560.191 328.861 561.134 323.072 562.648 317.15C562.649 317.018 562.65 316.887 562.764 316.887L562.765 316.623C562.883 315.834 563 315.308 563.232 314.65C563.349 314.123 563.466 313.465 563.696 313.07C563.697 312.939 563.813 312.544 563.814 312.412C564.278 310.833 564.628 309.517 565.091 308.069C565.672 306.095 566.251 304.515 566.83 302.804C567.409 301.092 568.103 299.249 568.797 297.538C569.029 296.748 569.489 295.958 569.836 295.168C570.066 294.641 570.298 293.983 570.642 293.587C570.641 293.85 570.525 294.114 570.41 294.377C570.178 295.167 569.832 295.825 569.6 296.615L569.144 296.616Z" fill="var(--fill-0, #003F44)"/>
<path id="Vector_30" d="M582.634 274.676C580.62 277.1 578.603 279.658 576.958 282.346C575.821 283.96 574.809 285.574 573.671 287.322C574.432 285.978 575.319 284.499 576.203 283.155C577.596 280.869 579.113 278.583 580.876 276.429C583.395 273.333 586.157 270.636 589.044 267.804C586.785 269.962 584.774 272.118 582.76 274.542L582.634 274.676Z" fill="var(--fill-0, #003F44)"/>
<path id="Vector_31" d="M701.683 300.343C700.203 298.876 698.723 297.408 697.119 295.942C693.792 292.472 690.591 288.867 687.389 285.396C684.188 281.791 680.863 278.187 677.412 274.584C679.015 276.185 680.743 277.785 682.219 279.521C684.19 281.657 686.161 283.793 688.13 286.063C692.071 290.335 696.01 294.741 700.207 298.607C700.823 299.274 701.315 299.808 701.81 300.208C701.933 300.341 701.931 300.476 702.052 300.744C701.929 300.61 701.806 300.477 701.556 300.479L701.683 300.343Z" fill="var(--fill-0, #003F44)"/>
<path id="Vector_32" d="M590.821 389.542C590.821 389.542 592.245 389.388 593.022 389.233C593.54 389.233 594.188 389.079 594.576 388.925C593.928 389.233 593.28 389.541 592.633 389.696C590.56 390.313 588.488 390.467 586.417 390.314C585.123 390.16 584.218 389.544 582.924 389.236C585.511 390.006 587.971 390.159 590.69 389.85L590.821 389.542Z" fill="var(--fill-0, #003F44)"/>
<path id="Vector_33" d="M569.144 296.616C568.567 297.801 568.105 298.855 567.757 300.039C567.525 300.697 567.294 301.356 567.176 302.014C566.716 302.804 566.484 303.594 566.366 304.383C565.788 305.831 565.323 307.411 564.973 308.99C564.857 309.253 564.855 309.648 564.74 309.911C564.74 309.911 564.622 310.569 564.507 310.832C564.043 312.28 563.807 313.727 563.343 315.175C563.11 316.096 562.876 317.149 562.643 318.202L562.641 318.465C562.641 318.465 562.408 319.386 562.406 319.781C562.174 320.57 561.942 321.36 561.822 322.413C561.116 326.491 560.41 330.439 559.817 334.78C559.105 340.042 558.503 345.83 558.472 351.617C558.376 348.198 558.507 345.173 558.636 342.279L559.113 338.464C559.234 337.149 559.241 335.834 559.591 334.386C560.191 328.861 561.134 323.072 562.648 317.15C562.649 317.018 562.65 316.887 562.764 316.887L562.765 316.623C562.883 315.834 563 315.308 563.232 314.65C563.349 314.123 563.466 313.465 563.696 313.07C563.697 312.939 563.813 312.544 563.814 312.412C564.278 310.833 564.628 309.517 565.091 308.069C565.672 306.095 566.251 304.515 566.83 302.804C567.409 301.092 568.103 299.249 568.797 297.538C569.029 296.748 569.489 295.958 569.836 295.168C570.066 294.641 570.298 293.983 570.642 293.587C570.641 293.85 570.525 294.114 570.41 294.377C570.178 295.167 569.832 295.825 569.6 296.615L569.144 296.616Z" fill="var(--fill-0, #003F44)"/>
<path id="Vector_34" d="M582.634 274.676C580.62 277.1 578.603 279.658 576.958 282.346C575.821 283.96 574.809 285.574 573.671 287.322C574.432 285.978 575.319 284.499 576.203 283.155C577.596 280.869 579.113 278.583 580.876 276.429C583.395 273.333 586.157 270.636 589.044 267.804C586.785 269.962 584.774 272.118 582.76 274.542L582.634 274.676Z" fill="var(--fill-0, #003F44)"/>
<path id="Vector_35" d="M701.683 300.343C700.203 298.876 698.723 297.408 697.119 295.942C693.792 292.472 690.591 288.867 687.389 285.396C684.188 281.791 680.863 278.187 677.412 274.584C679.015 276.185 680.743 277.785 682.219 279.521C684.19 281.657 686.161 283.793 688.13 286.063C692.071 290.335 696.01 294.741 700.207 298.607C700.823 299.274 701.315 299.808 701.81 300.208C701.933 300.341 701.931 300.476 702.052 300.744C701.929 300.61 701.806 300.477 701.556 300.479L701.683 300.343Z" fill="var(--fill-0, #003F44)"/>
<path id="Vector_36" d="M587.17 222.506C587.17 222.506 588.59 221.926 589.234 221.779L589.749 221.776C588.847 221.924 588.072 222.358 587.04 222.65C586.525 222.795 586.139 222.798 585.623 222.943C586.139 222.798 586.783 222.651 587.172 222.363L587.17 222.506Z" fill="var(--fill-0, #003F44)"/>
<path id="Vector_37" d="M577.727 225.02C578.885 224.73 579.787 224.301 580.816 224.012C581.331 223.868 581.974 223.722 582.359 223.72L580.813 224.295L580.685 224.295C579.784 224.583 578.625 225.014 577.724 225.302L577.727 225.02Z" fill="var(--fill-0, #003F44)"/>
<path id="Vector_38" d="M550.111 233.118C551.01 232.832 552.167 232.404 553.067 232.118C547.409 234.258 541.751 236.538 536.094 238.678C540.595 236.826 545.355 234.832 550.111 233.118Z" fill="var(--fill-0, #003F44)"/>
<path id="Vector_39" d="M321.709 369.214C327.554 363.502 333.522 357.925 339.361 352.618C336.692 355.337 333.9 357.787 331.232 360.371C323.741 367.309 316.119 374.653 308.629 381.457C306.727 383.091 305.075 384.722 303.174 386.221C309.394 380.507 315.614 374.927 321.585 369.08L321.709 369.214Z" fill="var(--fill-0, #003F44)"/>
<path id="Vector_40" d="M742.657 409.414C742.657 409.414 742.767 410.209 742.765 410.607C742.207 407.957 742.209 407.427 742.657 409.414Z" fill="var(--fill-0, #003F44)"/>
<path id="Vector_41" d="M590.821 389.542C590.821 389.542 592.245 389.388 593.022 389.233C593.54 389.233 594.188 389.079 594.576 388.925C593.928 389.233 593.28 389.541 592.633 389.696C590.56 390.313 588.488 390.467 586.417 390.314C585.123 390.16 584.218 389.544 582.924 389.236C585.511 390.006 587.971 390.159 590.69 389.85L590.821 389.542Z" fill="var(--fill-0, #003F44)"/>
<path id="Vector_42" d="M569.144 296.616C568.567 297.801 568.105 298.855 567.757 300.039C567.525 300.697 567.294 301.356 567.176 302.014C566.716 302.804 566.484 303.594 566.366 304.383C565.788 305.831 565.323 307.411 564.973 308.99C564.857 309.253 564.855 309.648 564.74 309.911C564.74 309.911 564.622 310.569 564.507 310.832C564.043 312.28 563.807 313.727 563.343 315.175C563.11 316.096 562.876 317.149 562.643 318.202L562.641 318.465C562.641 318.465 562.408 319.386 562.406 319.781C562.174 320.57 561.942 321.36 561.822 322.413C561.116 326.491 560.41 330.439 559.817 334.78C559.105 340.042 558.503 345.83 558.472 351.617C558.376 348.198 558.507 345.173 558.636 342.279L559.113 338.464C559.234 337.149 559.241 335.834 559.591 334.386C560.191 328.861 561.134 323.072 562.648 317.15C562.649 317.018 562.65 316.887 562.764 316.887L562.765 316.623C562.883 315.834 563 315.308 563.232 314.65C563.349 314.123 563.466 313.465 563.696 313.07C563.697 312.939 563.813 312.544 563.814 312.412C564.278 310.833 564.628 309.517 565.091 308.069C565.672 306.095 566.251 304.515 566.83 302.804C567.409 301.092 568.103 299.249 568.797 297.538C569.029 296.748 569.489 295.958 569.836 295.168C570.066 294.641 570.298 293.983 570.642 293.587C570.641 293.85 570.525 294.114 570.41 294.377C570.178 295.167 569.832 295.825 569.6 296.615L569.144 296.616Z" fill="var(--fill-0, #003F44)"/>
<path id="Vector_43" d="M582.634 274.676C580.62 277.1 578.603 279.658 576.958 282.346C575.821 283.96 574.809 285.574 573.671 287.322C574.432 285.978 575.319 284.499 576.203 283.155C577.596 280.869 579.113 278.583 580.876 276.429C583.395 273.333 586.157 270.636 589.044 267.804C586.785 269.962 584.774 272.118 582.76 274.542L582.634 274.676Z" fill="var(--fill-0, #003F44)"/>
<path id="Vector_44" d="M701.683 300.343C700.203 298.876 698.723 297.408 697.119 295.942C693.792 292.472 690.591 288.867 687.389 285.396C684.188 281.791 680.863 278.187 677.412 274.584C679.015 276.185 680.743 277.785 682.219 279.521C684.19 281.657 686.161 283.793 688.13 286.063C692.071 290.335 696.01 294.741 700.207 298.607C700.823 299.274 701.315 299.808 701.81 300.208C701.933 300.341 701.931 300.476 702.052 300.744C701.929 300.61 701.806 300.477 701.556 300.479L701.683 300.343Z" fill="var(--fill-0, #003F44)"/>
<path id="Vector_45" d="M741.754 319.704C738.019 318.985 734.414 318.119 730.685 316.667C736.475 318.551 742.656 319.847 748.972 320.41C746.65 320.419 744.073 320.135 741.754 319.704Z" fill="var(--fill-0, #003F44)"/>
<path id="Vector_46" d="M792.934 313.816C786.622 316.676 779.934 318.692 772.998 320.004C778.78 318.699 784.44 316.971 789.976 314.681C792.293 313.82 794.742 312.536 796.932 311.535C795.515 312.249 794.352 313.102 792.934 313.816Z" fill="var(--fill-0, #003F44)"/>
<path id="Vector_47" d="M590.821 389.542C590.821 389.542 592.245 389.388 593.022 389.233C593.54 389.233 594.188 389.079 594.576 388.925C593.928 389.233 593.28 389.541 592.633 389.696C590.56 390.313 588.488 390.467 586.417 390.314C585.123 390.16 584.218 389.544 582.924 389.236C585.511 390.006 587.971 390.159 590.69 389.85L590.821 389.542Z" fill="var(--fill-0, #003F44)"/>
<path id="Vector_48" d="M569.144 296.616C568.567 297.801 568.105 298.855 567.757 300.039C567.525 300.697 567.294 301.356 567.176 302.014C566.716 302.804 566.484 303.594 566.366 304.383C565.788 305.831 565.323 307.411 564.973 308.99C564.857 309.253 564.855 309.648 564.74 309.911C564.74 309.911 564.622 310.569 564.507 310.832C564.043 312.28 563.807 313.727 563.343 315.175C563.11 316.096 562.876 317.149 562.643 318.202L562.641 318.465C562.641 318.465 562.408 319.386 562.406 319.781C562.174 320.57 561.942 321.36 561.822 322.413C561.116 326.491 560.41 330.439 559.817 334.78C559.105 340.042 558.503 345.83 558.472 351.617C558.376 348.198 558.507 345.173 558.636 342.279L559.113 338.464C559.234 337.149 559.241 335.834 559.591 334.386C560.191 328.861 561.134 323.072 562.648 317.15C562.649 317.018 562.65 316.887 562.764 316.887L562.765 316.623C562.883 315.834 563 315.308 563.232 314.65C563.349 314.123 563.466 313.465 563.696 313.07C563.697 312.939 563.813 312.544 563.814 312.412C564.278 310.833 564.628 309.517 565.091 308.069C565.672 306.095 566.251 304.515 566.83 302.804C567.409 301.092 568.103 299.249 568.797 297.538C569.029 296.748 569.489 295.958 569.836 295.168C570.066 294.641 570.298 293.983 570.642 293.587C570.641 293.85 570.525 294.114 570.41 294.377C570.178 295.167 569.832 295.825 569.6 296.615L569.144 296.616Z" fill="var(--fill-0, #003F44)"/>
<path id="Vector_49" d="M582.634 274.676C580.62 277.1 578.603 279.658 576.958 282.346C575.821 283.96 574.809 285.574 573.671 287.322C574.432 285.978 575.319 284.499 576.203 283.155C577.596 280.869 579.113 278.583 580.876 276.429C583.395 273.333 586.157 270.636 589.044 267.804C586.785 269.962 584.774 272.118 582.76 274.542L582.634 274.676Z" fill="var(--fill-0, #003F44)"/>
<path id="Vector_50" d="M701.683 300.343C700.203 298.876 698.723 297.408 697.119 295.942C693.792 292.472 690.591 288.867 687.389 285.396C684.188 281.791 680.863 278.187 677.412 274.584C679.015 276.185 680.743 277.785 682.219 279.521C684.19 281.657 686.161 283.793 688.13 286.063C692.071 290.335 696.01 294.741 700.207 298.607C700.823 299.274 701.315 299.808 701.81 300.208C701.933 300.341 701.931 300.476 702.052 300.744C701.929 300.61 701.806 300.477 701.556 300.479L701.683 300.343Z" fill="var(--fill-0, #003F44)"/>
<path id="Vector_51" d="M559.542 334.909C558.829 340.171 558.228 345.959 558.197 351.746C558.101 348.327 558.231 345.302 558.361 342.408L558.838 338.593C558.959 337.278 558.966 335.963 559.316 334.515C559.916 328.99 560.859 323.201 562.373 317.279C562.374 317.147 562.374 317.016 562.488 317.015L562.49 316.752C562.608 315.963 562.725 315.437 562.956 314.778C563.073 314.252 563.191 313.594 563.421 313.199C563.422 313.067 563.538 312.673 563.539 312.541C564.003 310.962 564.352 309.646 564.816 308.198C565.397 306.223 565.975 304.644 566.555 302.932C567.134 301.221 567.828 299.378 568.521 297.666C568.754 296.877 569.214 296.086 569.56 295.296C569.791 294.77 570.023 294.111 570.367 293.716C570.365 293.979 570.25 294.242 570.135 294.506C569.902 295.295 569.557 295.954 569.324 296.744C568.748 297.929 568.286 298.982 567.938 300.167C567.706 300.825 567.475 301.483 567.357 302.141C566.897 302.931 566.665 303.721 566.546 304.51C565.968 305.959 565.504 307.538 565.153 309.117C565.038 309.381 565.036 309.775 564.92 310.038C564.92 310.038 564.803 310.696 564.687 310.96C564.223 312.408 563.988 313.855 563.524 315.303C563.291 316.224 563.057 317.277 562.823 318.329L562.822 318.592C562.822 318.592 562.589 319.514 562.587 319.908C562.355 320.698 562.122 321.488 562.003 322.54C561.296 326.619 560.591 330.566 559.998 334.908L559.542 334.909Z" fill="var(--fill-0, #003F44)"/>
<path id="Vector_52" d="M592.753 389.55C590.68 390.176 588.606 390.331 586.532 390.171C585.236 390.012 584.329 389.381 583.033 389.065C585.625 389.855 588.087 390.016 590.809 389.704C591.457 389.705 592.235 389.549 593.013 389.393C593.531 389.393 594.179 389.237 594.568 389.08C593.92 389.394 593.272 389.708 592.624 389.864L592.753 389.55Z" fill="var(--fill-0, #003F44)"/>
<path id="Vector_53" d="M590.821 389.542C590.821 389.542 592.245 389.388 593.022 389.233C593.54 389.233 594.188 389.079 594.576 388.925C593.928 389.233 593.28 389.541 592.633 389.696C590.56 390.313 588.488 390.467 586.417 390.314C585.123 390.16 584.218 389.544 582.924 389.236C585.511 390.006 587.971 390.159 590.69 389.85L590.821 389.542Z" fill="var(--fill-0, #003F44)"/>
<path id="Vector_54" d="M569.144 296.616C568.567 297.801 568.105 298.855 567.757 300.039C567.525 300.697 567.294 301.356 567.176 302.014C566.716 302.804 566.484 303.594 566.366 304.383C565.788 305.831 565.323 307.411 564.973 308.99C564.857 309.253 564.855 309.648 564.74 309.911C564.74 309.911 564.622 310.569 564.507 310.832C564.043 312.28 563.807 313.727 563.343 315.175C563.11 316.096 562.876 317.149 562.643 318.202L562.641 318.465C562.641 318.465 562.408 319.386 562.406 319.781C562.174 320.57 561.942 321.36 561.822 322.413C561.116 326.491 560.41 330.439 559.817 334.78C559.105 340.042 558.503 345.83 558.472 351.617C558.376 348.198 558.507 345.173 558.636 342.279L559.113 338.464C559.234 337.149 559.241 335.834 559.591 334.386C560.191 328.861 561.134 323.072 562.648 317.15C562.649 317.018 562.65 316.887 562.764 316.887L562.765 316.623C562.883 315.834 563 315.308 563.232 314.65C563.349 314.123 563.466 313.465 563.696 313.07C563.697 312.939 563.813 312.544 563.814 312.412C564.278 310.833 564.628 309.517 565.091 308.069C565.672 306.095 566.251 304.515 566.83 302.804C567.409 301.092 568.103 299.249 568.797 297.538C569.029 296.748 569.489 295.958 569.836 295.168C570.066 294.641 570.298 293.983 570.642 293.587C570.641 293.85 570.525 294.114 570.41 294.377C570.178 295.167 569.832 295.825 569.6 296.615L569.144 296.616Z" fill="var(--fill-0, #003F44)"/>
<path id="Vector_55" d="M582.634 274.676C580.62 277.1 578.603 279.658 576.958 282.346C575.821 283.96 574.809 285.574 573.671 287.322C574.432 285.978 575.319 284.499 576.203 283.155C577.596 280.869 579.113 278.583 580.876 276.429C583.395 273.333 586.157 270.636 589.044 267.804C586.785 269.962 584.774 272.118 582.76 274.542L582.634 274.676Z" fill="var(--fill-0, #003F44)"/>
<path id="Vector_56" d="M701.683 300.343C700.203 298.876 698.723 297.408 697.119 295.942C693.792 292.472 690.591 288.867 687.389 285.396C684.188 281.791 680.863 278.187 677.412 274.584C679.015 276.185 680.743 277.785 682.219 279.521C684.19 281.657 686.161 283.793 688.13 286.063C692.071 290.335 696.01 294.741 700.207 298.607C700.823 299.274 701.315 299.808 701.81 300.208C701.933 300.341 701.931 300.476 702.052 300.744C701.929 300.61 701.806 300.477 701.556 300.479L701.683 300.343Z" fill="var(--fill-0, #003F44)"/>
</g>
<g id="Group_4">
<path id="Vector_57" d="M683.172 377.782C683.172 377.782 682.927 377.241 682.676 377.107L681.43 375.894C676.009 375.393 670.853 373.939 666.092 371.26C668.336 373.415 670.582 375.435 672.699 377.591C678.68 383.52 683.895 390.134 687.065 398.664C692.926 413.828 695.581 432.954 694.683 453.466C694.298 463.653 693.186 471.538 691.326 478.749C689.07 487.185 684.664 496.046 678.244 504.515C653.448 538.247 611.096 553.51 552.963 549.749C500.631 546.35 453.137 530.014 415.629 502.737C410.628 499.109 405.889 494.665 401.272 490.626L398.527 488.203C388.923 479.451 379.192 470.699 369.586 462.083C365.47 458.312 361.355 454.542 357.239 450.771C346.013 440.538 334.286 430.036 323.069 419.123L332.755 411.852C344.098 403.345 356.846 393.606 369.212 384.005C375.715 378.93 382.095 373.585 388.343 368.648C395.361 362.755 402.632 356.86 410.023 351.371C429.653 336.419 449.762 323.499 469.465 312.62C499.086 296.096 531.565 283.081 567.412 273.028C567.665 273.026 567.919 272.888 568.171 272.886C569.819 272.33 571.464 272.046 573.11 271.626C573.904 268.768 574.698 265.91 575.617 263.187C574.224 263.606 572.832 263.888 571.312 264.307C570.679 264.448 570.172 264.587 569.664 264.863C567.763 265.421 565.739 265.844 563.964 266.401C537.361 274.074 515.552 281.847 495.362 291.372C473.777 301.316 452.164 313.432 431.16 327.309C412.315 340.083 395.099 353.795 376.217 369.421C366.14 377.646 355.559 385.739 345.237 393.423L340.903 396.716C335.293 401.104 329.56 405.222 323.824 409.612C323.185 410.16 322.297 410.574 321.532 411.123C319.369 412.498 316.823 414.147 315.286 415.924C314.642 416.88 314.376 417.968 314.361 419.055C314.826 422.174 318.442 425.541 322.689 428.903C323.313 429.442 323.813 429.845 324.186 430.25C333.165 438.6 342.518 447.218 351.623 455.567L363.224 466.07C377.193 478.862 391.534 492.195 406.262 504.846C418.369 515.209 433.648 524.325 454.349 533.807C476.306 543.822 500.448 550.697 526.146 554.437C542.772 557.024 558.281 558.127 572.67 558.016C611.42 557.717 642.089 547.975 665.688 528.647C683.038 514.391 694.883 496.375 699.286 478.009C703.034 461.549 703.658 442.669 700.648 421.78C698.561 407.538 694.752 389.914 683.677 377.778L683.172 377.782Z" fill="var(--fill-0, #003F44)"/>
<path id="Vector_58" d="M636.446 348.915C635.686 349.728 635.048 350.674 634.288 351.487C630.22 356.63 626.158 361.37 622.35 365.838C621.587 366.786 620.698 367.869 619.811 368.817C617.655 371.121 615.5 373.424 613.345 375.728C610.683 378.573 607.899 381.15 605.485 384.129C604.978 384.67 604.724 384.941 604.34 385.617C603.837 385.89 603.453 386.566 603.073 386.972L602.819 387.243C601.549 388.733 600.28 390.222 598.887 391.578C598.887 391.578 598.762 391.579 598.76 391.713C597.491 393.203 595.973 394.56 594.584 395.647C594.205 395.919 593.952 396.19 593.575 396.327C596.449 396.439 599.323 396.552 602.198 396.53C602.698 396.526 603.195 396.791 603.695 396.787C604.329 396.11 605.09 395.297 605.724 394.619C608.259 391.909 610.543 389.336 612.953 386.627C615.11 384.189 617.269 381.616 619.424 379.313L622.721 375.79C624.117 374.165 625.638 372.539 627.036 370.779C631.097 366.174 634.907 361.571 638.212 357.376C639.226 356.292 639.99 355.21 640.879 354.127C640.138 353.46 639.396 352.793 638.782 351.991C637.92 350.921 637.186 349.716 636.453 348.377L636.446 348.915Z" fill="var(--fill-0, #003F44)"/>
<path id="Vector_59" d="M780.479 316.12C779.065 316.689 777.53 316.699 775.997 316.429C775.473 317.552 775.204 318.673 774.68 319.795C774.678 319.935 774.55 319.936 774.549 320.076L774.029 320.779C772.718 323.586 771.276 326.673 769.709 329.481C767.488 333.553 764.885 337.488 761.907 340.585C760.614 341.853 759.194 342.981 757.775 343.97C755.064 346.086 752.104 347.645 749.016 349.204C747.344 349.915 745.417 350.627 743.493 351.059C737.586 352.917 731.304 354.077 725.032 354.258C722.727 354.413 720.297 354.289 717.997 354.025C711.473 353.928 705.09 352.571 699.487 350.229C690.951 346.927 684.116 340.257 678.059 332.742C675.531 329.96 673.386 327.316 671.37 324.531C671.117 324.253 670.739 323.696 670.488 323.278C668.973 321.469 667.461 319.38 666.075 317.431C665.443 316.736 664.939 316.039 664.563 315.342C662.923 313.254 661.154 311.307 659.512 309.36C656.985 306.578 654.581 304.076 651.793 301.715C645.458 296.161 638.083 292.012 629.524 290.809C615.985 288.66 600.7 293.937 588.68 304.648C586.614 306.341 584.672 308.312 582.987 310.282C582.339 310.986 581.819 311.689 581.3 312.392C577.017 317.736 573.5 323.355 570.491 329.251C569.18 332.058 567.872 334.585 566.818 337.25C564.844 342.16 563.38 347.206 562.175 351.97C561.241 355.334 560.436 358.697 559.89 361.779C559.357 363.601 559.081 365.422 558.934 367.101C558.658 368.922 558.38 370.882 558.229 372.982C558.229 372.982 558.227 373.122 558.225 373.262C560.131 374.508 562.033 376.035 563.546 377.984C564.177 378.819 564.551 379.656 565.182 380.491C565.193 379.512 564.948 378.534 564.957 377.695C565.11 375.455 565.262 373.356 565.669 371.254C565.68 370.275 565.821 369.155 565.96 368.174C566.239 366.074 566.771 364.252 567.177 362.29C567.444 361.309 567.714 360.048 567.981 359.067C568.791 355.285 569.729 351.501 571.047 348.135C571.317 346.874 571.841 345.751 572.236 344.769C577.26 330.326 584.294 319.227 593.082 311.475C593.601 310.772 594.247 310.208 594.764 309.785C598.119 307.245 601.599 304.983 604.945 303.282C615.752 298.035 627.401 297.539 637.205 301.811C638.605 302.502 640.005 303.192 641.403 304.022C643.689 305.546 646.102 307.209 648.127 309.154C652.562 313.043 656.605 317.633 660.387 322.645C661.902 324.454 663.288 326.403 664.675 328.213C665.307 328.908 665.811 329.604 666.315 330.301C666.44 330.58 666.819 330.997 666.945 331.136C668.584 333.364 670.35 335.59 671.991 337.538C672.623 338.234 673.127 338.93 673.635 339.346C683.992 351.31 693.9 357.821 705.895 360.68C708.574 361.362 711.258 361.624 713.813 362.027C716.369 362.29 718.797 362.554 721.356 362.537C730.44 362.617 739.541 361.158 748.018 358.304C750.586 357.448 752.773 356.454 754.962 355.181C758.051 353.622 760.757 351.925 763.339 349.809C764.758 348.821 766.18 347.552 767.475 346.145C770.84 342.765 773.447 338.411 775.927 334.057C777.496 331.109 778.936 328.162 780.375 325.354L780.639 324.653C782.34 321.284 783.533 317.639 784.852 314.132C783.563 314.98 782.149 315.549 780.733 316.258L780.479 316.12Z" fill="var(--fill-0, #003F44)"/>
</g>
<g id="Group_5">
<path id="Vector_60" d="M718.762 359.844L719 360.103L719.121 360.102L718.641 359.845L718.762 359.844Z" fill="var(--fill-0, #003F44)"/>
<path id="Vector_61" d="M628.528 370.642L625.294 367.001L623.428 364.979C622.308 363.766 621.314 362.552 620.445 361.473C620.196 361.203 619.947 360.933 619.698 360.664C619.074 360.126 618.449 359.723 617.565 359.73C616.682 359.737 615.921 360.014 615.281 360.698C609.651 366.714 604.284 371.915 599.174 376.706C597.512 378.347 595.726 379.855 594.066 381.361C591.898 383.142 589.856 384.923 587.812 386.839C587.172 387.523 586.406 388.208 585.64 388.892C585.384 389.166 585.13 389.303 584.874 389.577C585.752 389.977 586.502 390.515 587.254 390.916C588.383 391.451 590.889 392.789 591.145 392.515C592.037 391.83 592.805 391.009 593.825 390.187C594.845 389.364 595.739 388.543 596.633 387.722C596.635 387.586 596.761 387.585 596.761 387.585C597.527 386.9 598.167 386.216 598.933 385.532C599.827 384.71 600.847 383.888 601.741 383.066C607.361 377.864 612.73 372.528 617.207 367.878C618.451 369.226 619.696 370.574 620.812 372.059C624.17 375.834 627.655 379.609 630.887 383.385L632.878 385.542C638.847 392.284 644.317 398.622 646.601 407.429C649.86 418.808 650.438 432.651 648.607 447.327C647.754 454.664 646.42 460.241 644.464 465.143C642.241 471.133 638.63 477.135 633.634 482.875C613.658 505.293 582.389 513.001 540.838 505.99C503.445 499.489 470.329 484.268 445.257 461.789C441.762 458.83 438.653 455.324 435.668 451.953L431.439 447.234C425.839 441.168 420.365 435.101 414.767 428.899L407.057 420.134C399.593 411.91 391.878 403.553 384.544 394.921L391.414 390.659C400.953 384.884 410.238 379.246 419.526 373.337C424.488 370.176 429.454 366.744 434.29 363.585C439.765 359.877 445.365 356.168 450.962 352.731C466.098 343.519 481.344 335.528 496.317 329.167C517.508 320.044 540.435 313.351 565.479 308.814C565.484 308.407 565.237 308.001 565.244 307.458C565.271 305.422 566.053 303.515 567.085 301.742C567.085 301.742 567.085 301.742 566.959 301.743C547.356 305.152 531.149 309.35 515.938 314.626C499.84 320.18 483.343 327.367 467.458 335.906C452.973 343.62 439.609 352.411 424.969 362.299C417.204 367.517 408.936 372.604 401.051 377.281L397.744 379.342C393.416 382.227 389.094 384.704 384.641 387.453C384.007 387.729 383.37 388.142 382.736 388.418C381.085 389.245 379.179 390.21 377.774 391.579C377.134 392.262 376.871 393.079 376.858 394.029C376.823 396.745 379.438 399.44 382.304 402.269C382.805 402.536 383.051 403.078 383.175 403.212C389.271 409.953 395.365 416.83 401.46 423.571L409.172 432.2C418.249 442.584 427.829 453.099 437.413 463.343C445.503 471.969 456.004 479.627 470.406 488.069C485.56 496.912 502.633 503.704 520.869 508.451C538.854 513.064 555.102 515.383 569.867 515.269C590.943 515.107 608.673 510.219 623.44 500.195C636.934 491.131 646.808 478.972 651.145 465.635C654.957 453.93 656.521 440.342 655.837 425.007C655.219 414.286 653.5 400.86 645.928 391.143C640.469 383.99 634.373 377.249 628.653 370.777L628.528 370.642Z" fill="var(--fill-0, #003F44)"/>
<path id="Vector_62" d="M718.388 351.944C717.73 353.634 716.815 355.326 715.77 357.159L717.294 358.414L717.806 358.411L717.803 358.692L717.294 358.414L715.381 357.583C715.381 357.583 714.596 359.134 713.948 359.841C711.594 364.211 708.86 368.303 705.372 370.995C701.882 373.967 696.992 375.965 691.728 377.123C687.619 377.992 683.515 378.439 679.549 378.043C675.067 377.93 670.463 377.257 666.38 375.737C664.21 375.049 662.169 374.219 660.258 373.247C652.743 369.361 647.573 361.806 642.789 354.109C642.284 353.409 641.653 352.57 641.277 351.73C640.397 350.19 639.388 348.791 638.634 347.391C638.506 347.392 638.508 347.251 638.508 347.251C632.211 337.315 624.756 327.808 613.517 324.788C602.021 321.77 588.526 325.93 578.172 335.69C575.972 337.812 573.768 340.214 571.949 342.614C564.804 351.792 560.461 362.498 558.06 371.224C557.665 372.21 557.526 373.195 557.261 374.039C558.28 374.595 559.171 375.151 559.928 376.13C560.813 377.248 561.701 378.086 562.585 379.204C563.122 376.953 563.659 374.701 564.322 372.59C564.589 371.604 564.987 370.337 565.51 369.351C570.671 354.144 577.963 343.138 587.254 336.897C598.481 329.239 611.421 329.017 620.567 336.124C626.156 340.445 630.317 346.601 634.348 352.898C634.851 353.737 635.228 354.438 635.731 355.277C636.611 356.817 637.62 358.216 638.502 359.615C639.26 360.594 639.888 361.714 640.518 362.694C647.45 373.188 654.941 379.322 663.746 382.358C667.448 383.599 671.408 384.557 675.248 384.814C678.829 385.353 682.414 385.471 685.878 385.028C688.824 385.009 691.649 384.429 694.475 383.709C700.384 382.126 705.534 379.705 709.415 376.168C713.812 372.346 717.202 366.845 720.2 362.049L720.463 361.485C720.463 361.485 720.984 360.639 721.245 360.216C722.553 357.679 723.863 355.001 725.045 352.324C722.738 352.479 720.305 352.354 718.003 352.087L718.388 351.944Z" fill="var(--fill-0, #003F44)"/>
</g>
<path id="Vector_63" d="M599.03 348.105C588.243 346.332 576.431 345.092 564.238 344.786C551.788 344.48 541.523 344.715 531.775 346.022C521.257 347.327 510.487 349.567 499.976 352.61C490.363 355.389 481.394 358.704 471.53 362.82C466.149 364.943 460.511 366.931 455.257 368.787L453.206 369.45C450.388 370.644 447.44 371.571 444.493 372.632C444.236 372.631 443.724 372.764 443.339 372.896C442.057 373.16 440.775 373.557 439.752 374.222C439.112 374.755 438.858 375.423 438.605 376.225C438.356 377.963 439.52 380.106 441.326 382.386C441.455 382.52 441.585 382.922 441.842 383.056C444.814 387.747 447.786 392.571 451.015 397.262L454.504 403.024C459.284 410.395 464.193 418.034 469.229 425.406C473.362 431.571 479.034 437.473 487.021 444.453C495.521 451.702 505.301 457.885 516.103 463.001C532.434 470.676 546.824 474.733 559.786 474.774C566.973 474.796 573.897 473.48 580.176 471.092C589.4 467.376 595.672 463.517 599.747 456.04C600.129 455.373 601.526 452.033 601.779 451.232C603.183 449.364 610.558 433.204 612.142 413.548C612.736 402.315 606.035 395.874 605.52 395.471C599.21 390.369 596.634 388.087 589.3 383.517C581.321 378.41 574.376 374.777 567.433 371.813C566.919 371.678 566.534 371.543 566.019 371.273C564.347 370.332 562.419 369.657 560.491 368.982C555.348 366.826 549.823 365.204 544.171 363.849C536.975 361.82 529.399 360.727 521.951 359.5C517.842 358.952 513.731 358.137 509.75 357.322L507.695 357.048C507.695 357.048 506.54 356.91 506.026 356.775C510.255 355.451 514.614 354.528 518.846 353.739C538.208 349.921 559.123 349.184 582.618 351.531C600.208 353.325 615.623 356.85 629.376 361.976C629.374 361.441 629.372 361.039 629.37 360.504C629.621 359.168 630.257 357.832 631.151 356.765C621.382 353.123 610.717 350.148 599.287 348.106L599.03 348.105ZM516.452 364.03C519.149 364.573 521.846 364.983 524.414 365.392C527.24 365.936 530.192 366.213 533.147 366.891C540.982 368.387 548.562 370.416 555.631 372.846C555.888 372.981 556.402 373.116 556.788 373.385C558.459 373.925 560.387 374.6 562.187 375.408C569.9 378.508 577.745 382.545 585.595 387.518C589.197 389.535 592.8 391.954 596.405 394.64C597.048 394.91 597.563 395.313 598.079 395.849C599.109 396.655 608.134 406.447 606.265 419.682C602.74 435.72 601.48 441.2 596.641 450.146C588.99 461.49 591.15 456.548 585.016 462.548C581.434 465.212 576.432 465.998 575.022 466.395C572.972 467.058 570.92 467.319 568.867 467.58C567.713 467.71 563.991 467.564 563.092 467.562C550.137 468.992 537.402 462.131 524.761 446.845C513.28 433.033 505.642 417.361 502.881 401.838C502.358 399.696 502.221 397.556 502.083 395.282L502.079 394.345C501.547 389.93 501.271 385.382 500.867 380.967L500.329 375.214C500.053 370.532 499.647 365.716 499.37 361.034L501.939 361.577C506.82 362.529 511.572 363.346 516.324 364.297L516.452 364.03ZM494.496 361.554L494.499 362.223C495.03 366.504 495.177 370.784 495.451 374.931L495.987 380.149C496.529 386.838 496.942 393.527 497.612 400.216C498.285 407.441 500.754 414.671 502.699 419.358C505.685 427.392 509.825 435.296 515.246 442.535C522.476 452.856 529.695 460.369 537.288 465.341C534.589 464.53 531.763 463.719 528.934 462.506C506.953 454.145 488.289 440.98 475.129 424.488C473.451 422.343 471.773 419.93 470.223 417.651L469.447 416.312C466.089 411.219 462.988 406.26 459.758 401.302L455.496 394.868C452.008 389.508 448.391 383.879 444.901 378.117L449.643 376.527C455.537 374.405 461.56 372.284 467.454 370.163C470.914 368.836 474.245 367.509 477.447 366.048C481.162 364.588 484.749 363.128 488.594 361.803C490.516 361.14 492.31 360.477 494.233 360.082C494.234 360.349 494.365 360.885 494.367 361.42L494.496 361.554Z" fill="var(--fill-0, #003F44)"/>
</g>
</svg>
