<svg preserveAspectRatio="none" width="100%" height="100%" overflow="visible" style="display: block;" viewBox="0 0 225.587 17.4058" fill="none" xmlns="http://www.w3.org/2000/svg">
<g id="Group">
<path id="Vector" d="M13.178 16.9626C13.178 16.9626 13.1178 16.9626 13.0358 16.9517C12.9592 16.9462 12.8826 16.9298 12.8005 16.9189C12.724 16.9025 12.6474 16.8861 12.5763 16.8587C12.5052 16.8368 12.4614 16.815 12.4505 16.7985L6.40057 3.08511L3.15135 10.8143H9.29423L9.52944 11.3066H2.94349L0.629656 16.7985C0.580425 16.9079 0.498374 16.9626 0.372562 16.9626H0.208463C0.0224811 16.9626 -0.0376917 16.8587 0.0224789 16.6563L6.93663 0.541528C7.01321 0.432127 7.0898 0.377426 7.17185 0.377426H7.4727C7.59851 0.377426 7.68056 0.432127 7.7298 0.541528L14.7588 16.6563C14.819 16.8587 14.7588 16.9626 14.5728 16.9626H13.1725H13.178Z" fill="var(--fill-0, white)"/>
<path id="Vector_2" d="M27.8705 16.9626C27.7173 16.9626 27.6352 16.8861 27.6352 16.7274V0.612639C27.6352 0.459477 27.7118 0.377426 27.8705 0.377426H32.3997C33.9258 0.377426 35.2879 0.563408 36.4858 0.924432C37.6837 1.29093 38.7012 1.82152 39.5326 2.51075C40.3641 3.20545 41.0041 4.05331 41.4471 5.05433C41.8902 6.06082 42.1145 7.19312 42.1145 8.45123C42.1145 9.7914 41.8902 10.9839 41.4471 12.0341C41.0041 13.0844 40.3641 13.976 39.5326 14.709C38.7012 15.442 37.6837 15.9999 36.4858 16.3774C35.2879 16.7603 33.9258 16.9517 32.3997 16.9517H27.8705V16.9626ZM32.4215 16.3336C34.9596 16.3336 36.8304 15.6608 38.0284 14.3151C39.2263 12.9695 39.8608 11.0823 39.921 8.64816C39.921 7.4338 39.7733 6.35073 39.4779 5.39894C39.1825 4.44715 38.7231 3.64305 38.0995 2.98117C37.4759 2.3193 36.6882 1.81058 35.7309 1.4605C34.7737 1.11041 33.6304 0.935372 32.3067 0.935372L29.8561 0.913492V16.3281H32.427L32.4215 16.3336Z" fill="var(--fill-0, white)"/>
<path id="Vector_3" d="M65.8003 16.9626C65.8003 16.9626 65.7401 16.9626 65.6581 16.9517C65.5815 16.9462 65.5049 16.9298 65.4229 16.9189C65.3463 16.9025 65.2697 16.8861 65.1986 16.8587C65.1275 16.8368 65.0837 16.815 65.0728 16.7985L59.0229 3.08511L55.7737 10.8143H61.9166L62.1518 11.3066H55.5658L53.252 16.7985C53.2028 16.9079 53.1207 16.9626 52.9949 16.9626H52.8308C52.6448 16.9626 52.5846 16.8587 52.6448 16.6563L59.559 0.541528C59.6355 0.432127 59.7121 0.377426 59.7942 0.377426H60.095C60.2208 0.377426 60.3029 0.432127 60.3521 0.541528L67.3811 16.6563C67.4413 16.8587 67.3811 16.9626 67.1952 16.9626H65.7948H65.8003Z" fill="var(--fill-0, white)"/>
<path id="Vector_4" d="M80.4928 16.9626C80.3396 16.9626 80.2576 16.8861 80.2576 16.7274V0.612639C80.2576 0.459477 80.3341 0.377426 80.4928 0.377426H82.6206C82.73 0.377426 82.8066 0.415717 82.8558 0.492298L92.8989 13.6204V0.612639C92.8989 0.459477 92.9754 0.377426 93.1341 0.377426H93.2271C93.3802 0.377426 93.4623 0.454007 93.4623 0.612639V16.7274C93.4623 16.8806 93.3857 16.9626 93.2271 16.9626H92.6637L80.821 1.26358V16.7274C80.821 16.8806 80.7444 16.9626 80.5858 16.9626H80.4928Z" fill="var(--fill-0, white)"/>
<path id="Vector_5" d="M113.291 17.2198C112.044 17.2198 110.852 16.9901 109.719 16.5306C108.582 16.0711 107.624 15.4202 106.848 14.5778C106.787 14.5012 106.766 14.4301 106.787 14.3699C106.809 14.3097 106.853 14.2605 106.913 14.2277L107.92 13.7627C107.964 13.7299 108.024 13.7244 108.095 13.7409C108.166 13.7573 108.215 13.7901 108.248 13.8339C108.915 14.6762 109.67 15.3436 110.502 15.8414C111.333 16.3391 112.263 16.5908 113.291 16.5908C114.801 16.5908 115.999 16.2954 116.874 15.7046C117.755 15.1138 118.22 14.359 118.264 13.44C118.296 13.0188 118.253 12.6523 118.138 12.3405C118.023 12.0287 117.777 11.7388 117.416 11.4763C117.049 11.2137 116.535 10.9566 115.873 10.7159C115.211 10.4752 114.353 10.2127 113.291 9.9337C112.061 9.60549 111.027 9.24994 110.184 8.87251C109.342 8.4896 108.675 8.06841 108.177 7.59798C107.679 7.13303 107.334 6.62978 107.138 6.09372C106.941 5.55765 106.875 4.97782 106.941 4.35424C106.984 3.73065 107.181 3.16176 107.526 2.63664C107.871 2.11698 108.314 1.6575 108.872 1.26912C109.424 0.88075 110.069 0.579897 110.808 0.372034C111.546 0.164172 112.34 0.054771 113.177 0.054771C114.5 0.0875914 115.649 0.306394 116.623 0.722118C117.596 1.13784 118.466 1.79972 119.226 2.71869C119.287 2.77886 119.308 2.8445 119.287 2.91561C119.265 2.98672 119.21 3.03595 119.133 3.06877L118.198 3.44074C118.056 3.48997 117.941 3.46262 117.848 3.36963C117.208 2.56006 116.53 1.90912 115.802 1.41682C115.08 0.92451 114.199 0.678357 113.177 0.678357C112.444 0.678357 111.771 0.787759 111.158 1.00656C110.54 1.22536 110.02 1.49887 109.594 1.83801C109.167 2.17168 108.85 2.55459 108.647 2.98125C108.445 3.40792 108.385 3.83458 108.461 4.25578C108.511 4.51834 108.604 4.77543 108.751 5.02706C108.899 5.27868 109.161 5.5303 109.533 5.78739C109.905 6.04449 110.431 6.30705 111.109 6.58055C111.787 6.85406 112.684 7.12756 113.806 7.412C114.96 7.70738 115.928 8.04106 116.716 8.40208C117.503 8.76858 118.132 9.1843 118.608 9.64925C119.084 10.1142 119.412 10.6284 119.587 11.1809C119.768 11.7333 119.823 12.346 119.762 13.0133C119.702 13.6205 119.489 14.1785 119.133 14.6926C118.778 15.2068 118.307 15.6499 117.733 16.0219C117.159 16.3938 116.486 16.6892 115.726 16.8971C114.965 17.1049 114.15 17.2143 113.297 17.2143L113.291 17.2198Z" fill="var(--fill-0, white)"/>
<path id="Vector_6" d="M140.549 17.4058C139.318 17.4058 138.18 17.187 137.125 16.7494C136.069 16.3117 135.161 15.7046 134.39 14.9278C133.618 14.1511 133.017 13.2321 132.579 12.1709C132.141 11.1097 131.923 9.96101 131.923 8.71384C131.923 7.46666 132.141 6.31795 132.579 5.25676C133.017 4.19557 133.618 3.28207 134.39 2.49985C135.161 1.7231 136.069 1.11045 137.125 0.667379C138.175 0.224305 139.318 3.21238e-05 140.549 3.21238e-05C141.78 3.21238e-05 142.917 0.224305 143.957 0.667379C145.001 1.11045 145.904 1.7231 146.664 2.49985C147.425 3.2766 148.026 4.19557 148.464 5.25676C148.902 6.31795 149.12 7.46666 149.12 8.71384C149.12 9.96101 148.902 11.1097 148.464 12.1709C148.026 13.2321 147.43 14.1511 146.664 14.9278C145.899 15.7046 144.996 16.3117 143.957 16.7494C142.912 17.187 141.774 17.4058 140.549 17.4058ZM134.242 8.71384C134.242 9.85161 134.384 10.9073 134.663 11.8919C134.942 12.8711 135.352 13.7244 135.888 14.4519C136.424 15.174 137.086 15.7483 137.874 16.1695C138.662 16.5907 139.553 16.8095 140.549 16.8259C141.577 16.8423 142.485 16.6454 143.284 16.2406C144.077 15.8359 144.739 15.2724 145.27 14.5449C145.8 13.8229 146.194 12.9586 146.462 11.9631C146.725 10.9675 146.845 9.88443 146.812 8.71384C146.779 7.54324 146.615 6.46564 146.32 5.48103C146.024 4.49095 145.609 3.63762 145.073 2.9101C144.537 2.18806 143.891 1.61917 143.131 1.20344C142.376 0.793191 141.517 0.585329 140.549 0.585329C139.553 0.568919 138.662 0.765841 137.874 1.17062C137.086 1.57541 136.424 2.13883 135.888 2.86634C135.352 3.58839 134.942 4.45266 134.663 5.44821C134.384 6.44376 134.242 7.5323 134.242 8.71931V8.71384Z" fill="var(--fill-0, white)"/>
<path id="Vector_7" d="M161.969 16.9626C161.816 16.9626 161.734 16.8861 161.734 16.7274V0.612639C161.734 0.459477 161.811 0.377426 161.969 0.377426H164.097C164.206 0.377426 164.283 0.415717 164.332 0.492298L174.375 13.6204V0.612639C174.375 0.459477 174.452 0.377426 174.611 0.377426H174.703C174.857 0.377426 174.939 0.454007 174.939 0.612639V16.7274C174.939 16.8806 174.862 16.9626 174.703 16.9626H174.14L162.297 1.26358V16.7274C162.297 16.8806 162.221 16.9626 162.062 16.9626H161.969Z" fill="var(--fill-0, white)"/>
<path id="Vector_8" d="M188.948 16.9626C188.795 16.9626 188.713 16.8861 188.713 16.7274V0.612639C188.713 0.459477 188.79 0.377426 188.948 0.377426H199.133C199.287 0.377426 199.369 0.454007 199.369 0.612639V0.634519C199.369 0.793151 199.292 0.869732 199.133 0.869732H190.934V7.15483H197.263C197.416 7.15483 197.498 7.23141 197.498 7.39004V7.41192C197.498 7.56508 197.421 7.64713 197.263 7.64713H190.934V16.4758H199.598C199.752 16.4758 199.834 16.5524 199.834 16.711V16.7329C199.834 16.8861 199.757 16.9681 199.598 16.9681H188.948V16.9626Z" fill="var(--fill-0, white)"/>
<path id="Vector_9" d="M223.984 16.9626C223.984 16.9626 223.923 16.9626 223.841 16.9517C223.765 16.9462 223.688 16.9298 223.606 16.9189C223.53 16.9025 223.453 16.8861 223.382 16.8587C223.311 16.8368 223.267 16.815 223.256 16.7985L217.206 3.08511L213.957 10.8143H220.1L220.335 11.3066H213.749L211.435 16.7985C211.386 16.9079 211.304 16.9626 211.178 16.9626H211.014C210.828 16.9626 210.768 16.8587 210.828 16.6563L217.742 0.541528C217.819 0.432127 217.895 0.377426 217.977 0.377426H218.278C218.404 0.377426 218.486 0.432127 218.535 0.541528L225.564 16.6563C225.625 16.8587 225.564 16.9626 225.378 16.9626H223.978H223.984Z" fill="var(--fill-0, white)"/>
</g>
</svg>
