<svg preserveAspectRatio="none" width="100%" height="100%" overflow="visible" style="display: block;" viewBox="0 0 880.631 592.672" fill="none" xmlns="http://www.w3.org/2000/svg">
<g id="Group" opacity="0.2">
<path id="Vector" d="M880.631 13.6399C880.631 13.6399 880.631 12.7003 880.422 12.4915C880.318 12.2827 880.005 11.9695 879.796 11.7607C879.692 11.5519 879.274 11.3431 879.065 11.2387C879.065 11.2387 878.961 11.2387 878.961 11.1343H878.752C878.752 11.1343 878.648 11.0299 878.543 11.0299C782.287 -9.11908 682.586 0.172428 587.896 24.0798C539.142 36.5033 491.327 52.4763 444.661 71.1638C401.022 88.494 358.532 107.912 318.025 131.611C277.727 155.101 239.308 181.827 202.977 211.163C169.048 238.724 138.041 268.791 106.93 299.38C86.8856 319.111 65.9014 338.008 45.0216 356.904C35.1037 366.091 24.977 375.174 14.9547 384.152C10.57 388.015 3.67964 392.295 0.547671 397.202C-3.52389 403.466 16.3119 412.862 20.2791 415.576C40.2193 428.73 60.1595 441.885 80.2041 454.83C119.458 480.512 158.608 506.612 198.697 531.146C229.181 549.729 264.677 562.257 298.711 571.966C345.482 585.224 394.027 591.593 442.573 592.532C533.609 594.203 636.651 581.57 704.719 514.651C730.819 488.864 752.012 454.726 756.083 417.56C759.737 384.256 754.204 349.283 744.599 317.441C736.352 290.193 724.033 260.648 700.647 243.005C691.147 235.697 681.333 228.911 671.416 222.229C669.223 223.273 667.135 224.421 665.047 225.674C665.152 225.674 665.256 225.779 665.36 225.883C686.553 240.081 707.329 252.922 720.379 275.577C737.5 305.331 746.27 340.618 749.61 374.443C751.176 389.998 751.698 406.076 749.402 421.527C746.687 439.588 739.275 457.127 729.983 472.682C681.229 554.009 583.094 579.9 494.564 585.224C397.995 590.862 300.173 575.933 213.313 531.877C200.472 525.404 188.361 517.156 176.147 509.431C155.058 495.859 134.074 482.391 113.09 468.715C77.8029 445.747 42.2029 423.406 7.7512 399.499C7.7512 399.394 7.8556 399.394 7.8556 399.394C14.6415 393.235 21.4275 387.18 28.109 381.02C49.5108 361.602 70.9126 342.288 92.0012 322.452C116.117 300.006 138.668 276.203 162.888 253.966C196.4 223.586 231.896 195.294 269.271 169.925C347.048 116.995 433.177 78.6805 522.543 49.762C613.892 19.7994 710.67 0.798821 807.239 7.58476C829.789 9.15074 852.13 12.0739 874.158 16.6675C872.906 46.5256 871.235 76.4881 861.109 104.885C856.097 118.561 850.773 133.699 841.377 144.974C832.294 155.518 820.08 163.348 807.343 168.672C803.376 170.343 799.409 171.909 795.337 173.162C789.7 175.041 783.958 176.607 778.216 177.755C759.006 181.722 738.649 181.931 720.066 177.546C706.702 174.31 694.801 167.837 683.943 159.903C681.02 157.711 678.202 155.518 675.487 153.221C665.256 144.974 655.86 135.787 646.36 127.33C625.48 108.539 601.573 90.582 572.132 90.06C539.873 89.538 509.493 108.121 490.805 133.594C483.289 143.825 477.129 155.101 472.536 167.106C472.014 168.255 471.492 169.508 471.178 170.76C470.656 172.118 470.134 173.475 469.821 174.728C467.316 182.244 465.228 189.865 463.662 197.695C463.453 198.844 463.035 199.888 462.931 201.036C461.26 210.014 460.112 218.993 459.486 227.867C459.277 230.685 459.068 233.504 458.964 236.114V237.785C458.964 237.785 458.859 238.724 458.859 239.142C458.859 242.587 458.964 245.928 459.381 249.477C460.947 267.851 467.42 287.583 481.096 298.754C482.14 299.693 482.975 300.424 484.124 301.155C485.168 301.886 486.316 302.512 487.465 303.243C487.987 303.556 488.613 303.66 489.135 303.869C489.97 303.138 490.805 302.408 491.745 301.781C492.685 301.155 493.937 300.737 494.981 300.32C495.294 300.215 495.608 300.32 495.921 300.111C495.399 299.589 494.668 299.171 494.146 298.545C494.042 298.545 493.937 298.545 493.729 298.44C491.641 297.501 489.657 296.352 487.778 295.1C482.453 291.55 477.964 286.643 474.519 281.319C465.123 266.181 464.392 247.285 465.854 229.955C465.958 228.284 466.063 226.614 466.272 225.152C466.376 223.899 466.48 222.438 466.794 221.185V220.768C467.002 218.366 467.316 216.174 467.733 213.877C468.882 205.108 470.656 196.234 472.953 187.569C474.206 182.453 475.772 177.442 477.547 172.535C477.964 171.282 478.486 170.03 478.904 168.672H479.008C479.426 167.315 479.948 166.167 480.365 164.81C483.811 156.667 487.987 148.837 492.998 141.424C497.174 135.16 501.976 129.418 507.405 124.094C531.521 100.5 567.33 88.9116 599.38 102.17C624.227 112.401 642.915 132.759 662.646 150.403C664.212 151.76 665.882 153.117 667.344 154.474C667.448 154.579 667.553 154.683 667.762 154.892H667.866C669.641 156.458 671.416 157.919 673.19 159.277C674.443 160.425 675.696 161.364 677.053 162.304C678.097 163.035 679.141 163.661 680.081 164.392C680.081 164.392 680.081 164.496 680.185 164.496C681.229 165.436 682.273 166.062 683.421 166.689C699.081 177.442 716.098 184.645 736.143 186.316C742.929 186.838 749.715 186.942 756.396 186.525H756.501C763.809 186.316 771.221 185.376 778.32 184.019H778.425C790.952 181.618 803.063 177.755 814.233 172.535C826.657 166.689 838.35 158.65 847.015 147.897C856.202 136.518 861.526 121.902 866.642 108.33C877.708 77.9497 879.378 46.0036 880.631 13.9531C880.631 13.8487 880.631 13.7443 880.527 13.5355L880.631 13.6399Z" fill="var(--fill-0, white)"/>
<path id="Vector_2" d="M835.429 41.5151L834.803 40.8887C834.803 40.8887 834.385 40.4711 834.176 40.3667H833.759C833.759 40.3667 833.654 40.2623 833.55 40.2623C747.108 22.2012 657.638 30.4488 572.552 51.8506C528.809 62.9168 485.797 77.5327 444.037 94.2365C404.888 109.792 366.573 127.122 330.242 148.42C294.016 169.508 259.564 193.52 226.887 219.933C196.403 244.676 168.633 271.61 140.654 299.172C122.697 316.92 103.801 333.832 85.0091 350.849C76.0308 359.097 67.0525 367.136 57.9698 375.383C54.107 378.828 47.8431 382.795 45.1287 387.076C41.4747 392.713 59.327 401.065 62.8765 403.571C80.7288 415.263 98.6854 427.165 116.746 438.858C152.033 461.825 187.111 485.315 223.129 507.239C250.586 524.047 282.428 535.322 312.912 543.987C354.985 555.889 398.519 561.631 442.158 562.362C523.903 563.928 616.504 552.548 677.578 492.414C701.068 469.238 720.068 438.544 723.618 405.137C726.958 375.279 721.947 343.959 713.387 315.354C705.87 290.715 694.908 264.303 673.819 248.434C667.973 243.945 661.814 239.456 655.758 235.28C654.714 234.549 653.67 233.922 652.731 233.192C651.791 232.461 650.956 231.834 649.912 231.312C648.137 232.461 646.363 233.609 644.275 234.549C645.319 235.175 646.363 235.906 647.302 236.637C648.346 237.368 649.39 237.994 650.538 238.829C666.512 249.582 681.545 260.544 691.463 277.874C706.81 304.496 714.639 336.338 717.771 366.614C719.024 380.499 719.546 395.01 717.563 408.791C715.161 425.077 708.48 440.841 700.128 454.726C656.385 527.806 568.272 551.191 488.824 555.785C402.069 560.9 314.165 547.537 236.283 507.97C224.695 502.123 213.837 494.816 202.98 487.821C183.979 475.711 165.083 463.6 146.396 451.386C114.658 430.715 82.7123 410.67 51.7058 389.164C51.7058 389.059 51.8102 389.059 51.8102 389.059C57.9698 383.526 63.9205 378.097 70.0801 372.564C89.2895 355.13 108.603 337.695 127.5 320.052C149.214 299.903 169.364 278.501 191.183 258.456C221.25 231.312 253.196 205.735 286.708 183.08C356.551 135.474 433.911 101.231 514.089 75.1315C596.355 48.301 683.32 31.284 769.971 37.2347C790.224 38.5919 810.269 41.3063 830.209 45.3778C829.061 72.2084 827.495 99.0389 818.516 124.721C814.027 136.936 809.225 150.612 800.769 160.739C794.609 167.733 786.988 173.475 778.532 177.965C775.817 179.531 772.998 180.783 770.075 182.036C765.691 183.811 761.306 185.481 756.712 186.838C735.832 193.207 712.551 194.877 691.776 189.866C687.913 188.926 684.364 187.674 680.814 186.316C679.77 185.899 678.726 185.377 677.787 185.064C677.787 185.064 677.682 184.959 677.578 184.959C676.638 184.437 675.699 184.02 674.655 183.602C659.934 176.085 647.407 164.601 635.087 153.535C632.582 151.134 629.972 148.837 627.466 146.54C626.944 146.018 626.318 145.496 625.796 144.974C607.004 128.166 585.602 111.984 559.085 111.462C533.925 111.045 510.122 123.677 493.314 141.947C490.599 144.766 488.198 147.584 486.006 150.612C482.352 155.623 479.011 160.948 476.192 166.585C475.461 167.838 474.835 169.091 474.104 170.448L474 170.657C473.373 171.909 472.747 173.162 472.329 174.519C468.884 182.036 466.065 190.075 464.082 198.114C461.054 209.389 459.071 220.977 458.131 232.461C457.922 235.906 457.609 239.351 457.505 242.796C457.505 243.423 457.505 244.154 457.4 244.884V246.555C457.4 250.417 457.609 254.385 458.131 258.247C460.219 274.325 466.274 290.82 478.385 299.798C479.533 300.947 480.786 301.886 482.247 302.513C483.5 303.243 484.753 303.87 486.214 304.601C487.78 305.331 489.451 305.853 491.121 306.271C491.121 306.062 491.121 305.749 491.226 305.54C491.539 304.496 492.165 303.557 493 302.826C493.731 301.991 494.566 301.469 495.61 301.155C495.61 301.155 495.61 301.155 495.506 301.155C494.462 300.947 493.418 300.738 492.478 300.529C490.182 299.798 487.885 298.754 485.692 297.501C479.951 294.161 474.939 289.358 471.39 283.616C462.933 270.044 462.307 253.236 463.455 237.681C463.56 236.115 463.664 234.653 463.873 233.087C464.082 230.79 464.395 228.598 464.813 226.301H464.708L464.813 226.092V225.884C464.813 225.884 464.708 225.675 464.813 225.466C465.021 222.752 465.439 220.246 465.961 217.636C467.527 207.718 469.928 197.905 473.269 188.3C474.939 182.976 477.132 177.756 479.533 172.745C480.159 171.387 480.786 170.03 481.621 168.777H481.725C482.352 167.42 482.978 165.959 483.918 164.706C488.511 156.667 494.253 149.15 501.039 142.469C522.754 121.276 554.909 110.836 583.723 122.842C596.877 128.166 608.048 136.831 618.801 146.332C621.307 148.524 623.917 150.821 626.422 153.222C632.373 158.86 638.428 164.601 644.692 169.821C653.984 177.651 663.588 184.333 673.924 189.344C674.863 189.762 675.803 190.284 676.847 190.597C676.847 190.597 676.917 190.632 677.056 190.701C678.1 191.223 678.935 191.641 679.979 191.85C688.122 195.295 696.892 197.487 706.392 198.218C730.091 200.306 755.146 195.921 776.652 185.794C777.383 185.377 778.218 185.064 778.845 184.646C785.004 181.723 790.746 178.173 795.966 173.684C799.62 170.761 803.065 167.42 806.093 163.766C814.34 153.535 819.247 140.381 823.841 128.271C833.759 101.022 835.22 72.3128 836.369 43.4986V43.2898C836.369 43.2898 836.369 42.3502 836.16 42.1414L835.429 41.5151Z" fill="var(--fill-0, white)"/>
<path id="Vector_3" d="M786.03 84.2135C786.03 84.2135 785.925 83.0652 785.508 82.6476C785.403 82.4388 785.09 82.1256 784.986 81.9168C784.882 81.8124 784.777 81.708 784.464 81.4992V80.8728H782.898C716.083 65.4217 640.289 67.3009 557.5 86.6147C521.692 95.071 484.212 106.555 446.002 120.962C407.27 135.473 375.846 149.776 347.032 165.958C316.443 182.871 286.063 203.124 256.831 225.779C230.523 246.45 207.137 268.269 181.246 292.698C167.257 306.061 152.328 319.111 137.921 331.639L132.701 336.233C124.871 343.123 117.041 350.013 109.107 356.904C108.063 357.635 106.914 358.574 105.662 359.618C102.738 361.811 99.3977 364.212 97.5185 367.03C96.8921 368.074 96.5789 369.223 96.8921 370.371C97.8317 374.443 103.991 378.41 110.464 382.273C111.612 382.899 112.552 383.421 112.97 383.839C128.107 394.279 143.454 404.718 158.801 415.054C165.065 419.439 171.433 423.615 177.697 427.895C201.082 443.868 225.094 460.259 249.21 475.605C268.942 488.238 293.475 498.782 326.257 508.804C360.813 519.349 398.188 525.404 437.442 526.865C444.854 527.074 451.953 527.283 458.948 527.283C541.632 527.283 601.661 508.387 642.064 469.968C665.553 447.731 680.378 421.005 683.614 394.801C686.642 371.415 684.137 345.211 676.202 316.606C670.565 296.979 661.795 272.654 642.794 257.725C639.558 255.219 636.426 252.714 633.085 250.312C631.519 249.06 629.849 247.911 628.387 246.763C628.387 246.867 628.283 246.867 628.283 246.972L627.865 247.494C626.821 249.582 625.673 251.878 624.42 253.966C626.091 255.01 627.657 256.263 629.223 257.307C639.454 265.137 648.641 273.489 655.009 285.077C666.389 305.853 673.592 332.161 675.889 361.184C677.037 375.487 676.829 386.971 674.949 397.202C672.861 409.73 667.641 422.675 659.498 435.829C627.448 487.089 566.166 515.068 477.218 518.618C397.666 521.645 323.125 506.09 261.634 473.517C253.386 469.133 245.347 463.808 237.622 458.588L233.446 455.77C217.369 445.017 201.291 434.263 185.318 423.406C178.428 418.812 171.642 414.219 164.96 409.73C145.751 396.68 125.706 383.317 106.706 369.536L122.157 355.964C138.443 341.766 155.147 327.254 171.433 312.639C180.411 304.6 189.181 296.144 197.742 288.105C207.346 279.022 217.16 269.626 227.182 260.648C254.43 236.949 282.409 215.652 310.492 197.382C366.659 160.738 431.073 131.611 507.389 108.434C589.133 83.4828 661.169 74.2956 727.566 80.142C744.792 81.708 761.601 84.2135 777.574 87.7631C776.008 111.879 774.128 133.385 766.507 153.848L766.09 154.892C762.227 164.81 757.947 176.085 750.952 184.123C744.583 191.223 735.605 197.278 724.956 201.454C703.659 210.223 678.812 212.207 658.35 206.987C639.245 202.184 624.525 188.091 610.431 174.727C608.03 172.326 605.42 169.925 602.914 167.628C586.628 152.49 568.358 138.188 545.181 137.353C521.587 136.622 496.74 149.254 480.35 170.343C471.267 182.244 465.212 195.503 461.245 208.657C460.514 210.745 459.887 212.833 459.47 215.026C456.129 227.658 454.667 239.872 453.937 249.999C453.519 255.95 453.937 263.049 455.189 269.939C455.816 274.011 456.964 277.978 458.426 281.841C460.514 287.478 463.437 292.698 467.404 296.979C471.371 301.468 476.174 304.6 481.602 306.375C482.96 306.792 484.526 307.001 485.987 307.314C485.883 306.479 485.674 305.748 485.883 304.913C485.883 303.765 486.3 302.721 486.927 301.781C487.136 301.468 487.449 301.259 487.658 300.946C487.24 300.633 486.718 300.319 486.196 299.902C485.674 299.484 485.256 298.962 484.839 298.336C477.948 295.83 471.998 290.61 468.135 284.451C464.899 279.126 463.124 273.071 462.393 266.807C461.767 262.214 461.767 257.516 461.871 252.922C461.975 249.268 462.393 245.51 462.811 241.96C463.959 231.521 465.838 221.811 468.553 212.833C469.075 210.536 469.805 208.344 470.641 206.36C476.278 189.552 484.63 175.876 495.592 165.54C515.741 146.54 542.989 140.589 565.226 150.194C580.259 156.666 592.37 168.464 604.167 179.634C608.238 183.601 612.414 187.569 616.695 191.223C623.376 197.069 629.849 201.976 636.322 205.734C636.426 205.734 636.531 205.838 636.531 205.838C639.036 207.404 641.646 208.762 644.36 209.91C652.608 213.877 661.169 216.174 670.147 217.218C691.027 219.306 712.846 215.861 731.638 207.509C742.6 202.498 751.369 196.129 757.738 188.508C765.046 180.052 769.222 169.403 773.293 158.963L773.815 157.919C782.585 135.265 784.568 112.401 786.239 84.6311V84.1092L786.03 84.2135Z" fill="var(--fill-0, white)"/>
<g id="Group_2">
<path id="Vector_4" d="M641.768 313.577C637.592 299.17 631.432 281.736 619.322 268.894C618.069 267.537 616.503 266.076 614.937 264.823C612.745 266.389 610.344 267.537 607.838 268.686C609.508 269.938 611.074 271.4 612.536 272.862C616.608 276.933 620.366 281.527 623.289 286.851C632.998 304.495 639.053 326.94 641.141 351.683C642.081 363.898 641.768 373.607 640.411 382.272C638.636 393.025 634.147 403.987 627.256 415.157C600.008 458.796 547.704 482.495 472.015 485.522C404.156 488.237 340.681 474.978 288.377 447.104C281.278 443.45 274.492 438.856 267.811 434.367L264.261 431.966C250.585 422.779 237.013 413.591 223.337 404.404C217.49 400.437 211.748 396.574 206.006 392.712C189.511 381.75 172.703 370.37 156.521 358.782L168.631 348.029C182.83 335.814 197.341 323.078 211.539 310.236C219.056 303.451 226.573 296.351 233.881 289.461C242.024 281.631 250.48 273.697 259.041 266.076C282.218 245.822 306.125 227.657 329.928 212.101C376.803 181.617 430.255 157.188 493.417 137.769C494.878 134.742 496.549 131.505 498.532 128.478C480.993 133.698 463.245 139.649 445.289 146.33C412.403 158.754 385.468 170.968 360.934 184.749C334.835 199.26 308.944 216.486 283.888 235.904C261.442 253.339 240.667 272.862 219.474 292.906C207.572 304.181 194.94 315.143 182.83 325.688L178.027 329.863C171.659 335.605 165.186 341.347 158.609 346.985L157.878 347.507C157.148 348.238 156.104 349.073 155.06 349.804C152.554 351.683 149.735 353.875 148.065 356.276C147.438 357.216 147.125 358.156 147.438 359.2C148.169 362.749 153.598 366.194 159.027 369.431C159.966 369.953 160.802 370.475 161.219 370.788C174.269 379.557 187.214 388.536 200.264 397.305C205.589 400.959 211.017 404.613 216.342 408.267C236.282 421.943 256.744 435.933 277.415 449.087C294.223 459.84 315.208 468.819 343.082 477.379C372.523 486.358 404.469 491.369 437.981 492.726C444.245 492.935 450.404 493.144 456.355 493.144C526.929 493.144 578.189 477.066 612.745 444.285C632.789 425.284 645.422 402.421 648.345 379.975C650.85 360.035 648.763 337.589 641.977 313.264L641.768 313.577Z" fill="var(--fill-0, white)"/>
<path id="Vector_5" d="M735.303 115.429C735.303 115.429 735.198 114.385 734.885 114.072C734.676 113.863 734.468 113.55 734.363 113.445C734.259 113.341 734.259 113.236 734.154 113.236V112.506H732.588C696.258 104.049 656.795 101.961 614.722 105.511C615.244 106.033 615.766 106.659 616.392 107.077C618.793 108.852 621.403 110.418 623.909 111.984C644.998 110.522 665.46 110.626 685.191 112.297C699.912 113.55 714.11 115.742 727.682 118.77C726.429 139.127 724.758 157.502 718.286 174.936L717.868 175.876C714.632 184.332 710.978 193.832 705.027 200.618C699.703 206.778 691.977 211.893 682.999 215.443C670.158 220.663 655.751 223.064 642.179 222.438C640.091 222.333 638.212 222.229 636.333 221.916C632.887 221.498 629.547 220.976 626.415 220.141C615.453 217.322 606.057 210.849 597.496 203.437C594.782 201.245 592.276 198.844 589.875 196.547C588.518 195.294 587.056 193.832 585.699 192.58C583.611 190.492 581.523 188.508 579.331 186.629C565.446 173.579 549.786 161.364 529.95 160.738C509.592 160.112 488.399 170.865 474.514 188.926C469.816 195.085 465.953 201.662 462.926 208.448C461.986 210.641 461.151 212.937 460.42 215.13C454.783 230.059 452.799 245.197 451.964 257.098C451.546 263.049 452.068 270.357 453.739 277.352C454.678 281.423 456.035 285.39 457.915 289.044C459.481 291.967 461.255 294.786 463.448 297.187C468.459 302.512 474.514 305.853 481.822 306.479C482.448 306.583 483.179 306.583 483.91 306.583C486.311 306.688 488.712 306.479 491.218 305.853C492.262 305.539 493.306 304.913 494.35 304.495C493.828 303.973 493.41 303.451 492.993 302.825C492.993 302.721 492.784 302.512 492.784 302.303C492.471 301.572 492.053 300.737 491.844 299.902C491.844 299.902 491.844 299.693 491.844 299.589C491.844 299.067 491.74 298.649 491.636 298.127C491.114 298.336 490.592 298.545 490.174 298.649C479.943 301.155 469.921 294.577 464.805 286.121C462.717 282.676 461.36 279.022 460.629 275.055C459.481 269.835 459.376 264.302 459.585 258.977C459.689 255.95 460.003 253.027 460.316 249.999C461.882 235.801 464.909 223.482 469.503 212.729C470.443 210.327 471.591 208.135 472.739 205.943C476.811 197.8 482.031 190.805 488.19 185.063C505.312 168.881 528.488 163.766 547.385 172.013C559.39 177.233 569.308 186.316 578.809 195.503C579.331 196.025 579.957 196.547 580.479 197.069C582.149 198.635 583.82 200.305 585.49 201.871C587.369 203.542 589.144 205.316 591.128 206.987C606.161 220.245 619.942 227.136 635.497 228.91C636.019 229.015 636.437 229.119 636.855 229.119C638.42 229.224 639.778 229.328 641.344 229.537C657.839 230.476 674.647 227.344 689.472 220.872C698.868 216.696 706.384 211.163 711.917 204.69C718.077 197.382 721.731 188.195 725.176 179.321L725.594 178.381C733.11 159.172 734.781 139.441 736.138 115.846V115.324L735.303 115.429Z" fill="var(--fill-0, white)"/>
</g>
<g id="Group_3">
<path id="Vector_6" d="M293.6 264.093C307.902 252.504 322.414 241.751 336.925 232.251C330.139 236.427 323.562 241.021 316.881 245.927C308.842 251.774 301.116 257.933 293.495 264.197L293.6 264.093Z" fill="var(--fill-0, white)"/>
<path id="Vector_7" d="M380.256 206.673C365.744 214.19 351.128 222.647 337.035 232.147C342.046 228.91 346.848 225.883 351.755 222.96C381.613 204.69 414.499 189.656 451.665 177.129C450.934 177.337 449.994 177.651 449.263 177.859C422.329 187.046 400.405 196.129 380.36 206.569L380.256 206.673Z" fill="var(--fill-0, white)"/>
<path id="Vector_8" d="M472.847 212.003C459.275 228.603 454.891 249.9 453.429 264.933C453.325 267.23 453.22 269.631 453.325 272.346C453.325 267.752 453.847 263.159 454.473 258.983C457.918 235.075 466.27 217.119 479.529 205.426C477.232 207.514 474.831 209.602 472.847 212.003Z" fill="var(--fill-0, white)"/>
<path id="Vector_9" d="M656.816 229.851C656.079 230.589 655.342 231.221 654.499 231.852C655.342 231.221 656.079 230.483 656.816 229.851Z" fill="var(--fill-0, white)"/>
<path id="Vector_10" d="M654.52 231.836C652.014 233.82 649.195 235.49 646.168 237.056C649.3 235.49 652.119 233.716 654.52 231.836Z" fill="var(--fill-0, white)"/>
<path id="Vector_11" d="M646.148 237.055C646.148 237.055 645.63 237.366 645.423 237.469C645.63 237.366 645.94 237.159 646.148 237.055Z" fill="var(--fill-0, white)"/>
<path id="Vector_12" d="M601.058 244.261C602.937 244.47 605.025 244.783 606.904 244.783C601.789 244.366 596.778 243.53 592.08 242.069C595.003 243.113 597.926 243.739 601.058 244.261Z" fill="var(--fill-0, white)"/>
<path id="Vector_13" d="M598.771 311.074C599.293 313.162 599.815 315.041 600.337 317.025C600.337 316.816 600.337 316.398 600.232 316.085C599.815 314.415 599.293 312.744 598.875 310.97L598.771 311.074Z" fill="var(--fill-0, white)"/>
<path id="Vector_14" d="M479.523 205.442L479.646 205.319L479.523 205.442Z" fill="var(--fill-0, white)"/>
<path id="Vector_15" d="M479.635 205.319C481.306 203.857 482.976 202.605 484.647 201.456C482.872 202.709 481.201 203.962 479.635 205.319Z" fill="var(--fill-0, white)"/>
<path id="Vector_16" d="M484.649 201.468C485.492 200.836 486.44 200.31 487.282 199.783C486.334 200.31 485.492 200.836 484.649 201.468Z" fill="var(--fill-0, white)"/>
<path id="Vector_17" d="M531.007 195.923C530.485 195.609 529.858 195.505 529.232 195.296C531.111 196.131 532.99 196.862 534.765 198.011C533.512 197.28 532.259 196.653 530.902 195.923H531.007Z" fill="var(--fill-0, white)"/>
<path id="Vector_18" d="M497.491 194.765C497.491 194.765 498.106 194.457 498.516 194.355C498.209 194.457 497.901 194.663 497.491 194.765Z" fill="var(--fill-0, white)"/>
<g id="Vector_19">
</g>
<path id="Vector_20" d="M472.614 302.197C472.614 302.197 472.317 302.197 472.218 302.098C472.317 302.098 472.515 302.098 472.614 302.197Z" fill="var(--fill-0, white)"/>
<path id="Vector_21" d="M248.298 303.245C249.864 302.096 251.221 300.843 252.787 299.591C259.051 294.371 265.315 288.733 271.37 283.409C273.562 281.321 275.859 279.442 278.052 277.458C273.249 281.53 268.342 285.914 263.54 290.195C258.529 294.684 253.413 298.964 248.402 303.349L248.298 303.245Z" fill="var(--fill-0, white)"/>
<path id="Vector_22" d="M581.956 274.431C581.225 275.162 577.467 278.398 576.945 278.815C581.434 282.991 585.505 287.689 588.429 293.536C595.841 307.943 600.121 326.213 601.165 346.362C601.583 356.175 601.165 364.005 599.808 371C598.138 379.561 594.17 388.33 588.324 397.1C565.148 431.656 522.344 449.403 461.166 449.925H458.661C404.686 449.925 354.575 437.502 313.65 414.117C308.013 410.88 302.688 407.122 297.468 403.259L294.65 401.38C283.792 393.55 272.935 385.824 262.077 377.89C257.588 374.549 252.994 371.417 248.401 368.077C235.56 358.785 222.301 349.18 209.46 339.367L219.274 331.328C230.862 321.932 242.972 312.119 254.874 301.888C261.242 296.668 267.506 291.03 273.457 285.706C280.347 279.546 287.342 273.282 294.545 267.332C313.755 251.672 333.591 237.578 353.322 225.572C387.46 204.797 425.775 187.988 469.936 174.73C470.666 174.521 471.293 174.312 472.128 174.103C473.903 173.581 475.678 173.059 477.452 172.537C477.974 172.433 478.601 172.329 479.123 172.015C480.793 171.598 482.568 171.076 484.238 170.554C484.238 170.345 484.238 170.032 484.447 169.823C484.76 169.301 484.969 168.779 485.282 168.257C484.76 166.691 484.865 164.916 485.595 163.35C484.865 163.559 484.238 163.663 483.508 163.872C482.464 164.081 481.42 164.499 480.48 164.812C478.914 165.229 477.557 165.543 475.991 166.065C474.947 166.273 473.798 166.587 472.754 167.004C464.611 169.405 456.468 172.12 448.116 174.938C420.973 184.126 399.049 193.313 378.691 203.753C357.185 214.819 335.679 228.078 315.008 243.215C296.424 256.892 279.721 271.403 261.346 287.689C251.533 296.459 241.093 305.02 230.966 313.163L226.895 316.608C221.57 320.993 216.142 325.377 210.713 329.762L210.087 330.284C209.46 330.806 208.521 331.433 207.79 332.059C205.597 333.416 203.196 335.087 201.839 337.175C201.317 337.905 201.108 338.845 201.317 339.68C201.839 342.708 205.911 345.526 210.504 348.45C211.235 348.972 211.861 349.389 212.174 349.598C222.51 357.115 232.845 364.631 243.181 372.148L255.709 381.335C271.473 392.819 287.864 404.825 304.254 415.996C317.617 425.183 334.321 432.908 356.767 440.634C380.361 448.673 406.148 453.684 433.187 455.563C442.374 456.189 451.144 456.607 459.6 456.607C510.86 456.607 549.175 444.706 576.214 420.798C592.918 405.973 603.775 387.808 606.698 369.643C609.413 353.565 608.264 335.191 603.253 315.355C599.912 301.888 594.484 285.288 581.956 274.431ZM316.991 245.825C323.673 241.023 330.25 236.43 337.036 232.149C351.234 222.544 365.745 214.193 380.257 206.676C392.994 199.89 406.774 193.835 422.016 187.884C422.956 187.675 423.687 187.258 424.522 186.944C425.044 186.736 425.566 186.527 426.088 186.422C422.225 187.78 418.571 189.346 414.709 191.016C409.384 193.208 404.164 195.505 398.944 197.906C398.736 198.011 398.422 198.115 398.213 198.324C395.499 199.577 392.889 200.829 390.175 202.187C387.46 203.439 384.955 204.692 382.24 206.049C378.691 207.824 375.246 209.599 371.801 211.583C365.015 215.237 358.229 219.099 351.756 223.066C346.954 225.99 342.047 229.017 337.036 232.254C322.524 241.858 307.908 252.507 293.71 264.095C301.227 257.831 309.057 251.672 317.095 245.825H316.991Z" fill="var(--fill-0, white)"/>
<path id="Vector_23" d="M665.48 224.634C662.87 225.992 659.946 225.887 657.441 224.739C657.232 224.948 657.023 225.365 656.814 225.574C654.726 227.766 652.43 229.646 649.82 231.316C648.045 232.464 646.27 233.613 644.182 234.552C642.407 235.492 640.633 236.223 638.649 236.954C623.824 242.487 606.807 243.217 592.818 239.146C589.373 238.102 586.136 236.745 583.109 234.97C581.334 233.926 579.559 232.778 577.889 231.525C577.367 231.107 576.845 230.794 576.323 230.272C574.757 229.228 573.295 227.975 571.729 226.722C567.867 223.277 564.213 219.623 560.663 215.969C558.993 214.299 557.322 212.524 555.652 210.958C544.586 199.996 532.162 189.661 516.085 188.617C499.59 187.364 482.051 195.716 470.149 210.019C469.105 211.271 468.061 212.524 467.33 213.986C466.599 215.03 465.764 216.074 465.242 217.013C462.841 220.458 460.753 224.112 459.292 227.871C458.665 229.228 458.039 230.69 457.517 232.047C452.923 243.635 450.731 255.223 450 264.724C449.06 274.85 450.94 288.84 458.456 297.714C462.632 302.725 468.165 305.544 474.951 305.961C478.501 306.379 482.051 305.752 485.704 304.082C486.226 303.873 486.853 303.456 487.375 303.142C487.479 303.142 487.584 302.934 487.688 302.934C486.644 301.89 485.6 300.846 484.452 299.906C483.825 299.384 481.529 297.923 483.93 299.384C483.408 299.071 482.886 298.653 482.364 298.236C481.946 298.445 481.424 298.653 481.007 298.653C479.963 299.071 478.919 299.28 477.979 299.28C470.567 299.906 463.676 294.686 460.127 288.422C455.324 279.653 456.055 268.795 457.412 259.19C457.517 258.668 457.517 258.147 457.621 257.625C458.143 254.701 458.665 251.987 459.292 249.377C459.918 246.454 460.649 243.531 461.588 240.816C462.006 239.563 462.528 238.102 462.946 236.849C463.676 234.448 464.616 232.151 465.66 229.854C469.731 220.772 475.056 213.359 481.633 207.513C495.831 194.985 514.519 191.436 529.448 198.535C539.679 203.337 547.717 211.689 555.443 219.728C558.262 222.546 560.976 225.365 563.691 227.975C565.048 229.332 566.509 230.69 567.866 231.838C569.432 233.091 570.894 234.239 572.46 235.283C572.982 235.805 573.504 236.014 574.026 236.432C575.801 237.684 577.471 238.833 579.246 239.877C586.136 243.844 593.027 246.141 600.439 247.185C614.846 249.273 629.984 247.289 643.347 241.965C645.853 240.921 648.149 239.772 650.342 238.519C652.221 237.476 653.891 236.327 655.562 235.074C657.963 233.3 660.051 231.42 661.93 229.332C662.974 228.184 664.018 226.931 664.853 225.678C665.271 225.156 665.48 224.634 665.897 224.008C665.688 224.112 665.584 224.321 665.375 224.426L665.48 224.634ZM472.237 302.098C467.852 301.054 464.094 299.175 461.171 295.73C459.814 294.06 458.77 292.389 457.726 290.51C460.962 296.043 466.182 300.428 472.237 302.098ZM498.65 194.359C503.452 192.688 508.463 191.54 513.475 191.54H516.189C520.887 191.958 525.272 193.315 529.343 195.194C519.739 191.122 509.09 191.018 498.754 194.254L498.65 194.359Z" fill="var(--fill-0, white)"/>
<path id="Vector_24" d="M478.809 302.515C478.809 302.515 479.958 302.411 480.584 302.307C481.002 302.307 481.524 302.202 481.837 302.098C481.315 302.307 480.793 302.515 480.271 302.62C478.601 303.037 476.93 303.142 475.26 303.037C474.216 302.933 473.485 302.515 472.441 302.307C474.529 302.829 476.513 302.933 478.705 302.724L478.809 302.515Z" fill="var(--fill-0, white)"/>
<path id="Vector_25" d="M463.048 228.599C462.526 229.539 462.108 230.374 461.795 231.314C461.586 231.836 461.378 232.358 461.273 232.88C460.856 233.506 460.647 234.133 460.542 234.759C460.02 235.907 459.603 237.16 459.29 238.413C459.185 238.622 459.185 238.935 459.081 239.144C459.081 239.144 458.976 239.666 458.872 239.875C458.454 241.023 458.246 242.171 457.828 243.32C457.619 244.05 457.41 244.886 457.202 245.721V245.93C457.202 245.93 456.993 246.66 456.993 246.974C456.784 247.6 456.575 248.226 456.471 249.062C455.845 252.298 455.218 255.43 454.696 258.875C454.07 263.051 453.548 267.645 453.548 272.238C453.443 269.524 453.548 267.123 453.652 264.826L454.07 261.798C454.174 260.754 454.174 259.71 454.487 258.562C455.009 254.177 455.845 249.584 457.202 244.886C457.202 244.781 457.202 244.677 457.306 244.677V244.468C457.411 243.842 457.515 243.424 457.724 242.902C457.828 242.485 457.932 241.963 458.141 241.649C458.141 241.545 458.246 241.232 458.246 241.127C458.663 239.875 458.976 238.831 459.394 237.682C459.916 236.116 460.438 234.863 460.96 233.506C461.482 232.149 462.108 230.687 462.735 229.33C462.944 228.704 463.361 228.077 463.674 227.451C463.883 227.033 464.092 226.511 464.405 226.198C464.405 226.407 464.301 226.616 464.196 226.825C463.988 227.451 463.674 227.973 463.466 228.599H463.048Z" fill="var(--fill-0, white)"/>
<path id="Vector_26" d="M474.299 210.643C472.629 212.522 470.959 214.506 469.601 216.594C468.662 217.847 467.827 219.1 466.887 220.457C467.513 219.413 468.244 218.264 468.975 217.22C470.123 215.446 471.376 213.671 472.838 212C474.926 209.599 477.223 207.511 479.624 205.319C477.745 206.989 476.074 208.66 474.404 210.539L474.299 210.643Z" fill="var(--fill-0, white)"/>
<path id="Vector_27" d="M570.039 229.331C568.786 228.182 567.534 227.034 566.176 225.885C563.358 223.171 560.643 220.352 557.929 217.638C555.215 214.819 552.396 212 549.473 209.182C550.83 210.434 552.291 211.687 553.544 213.044C555.214 214.715 556.885 216.385 558.555 218.16C561.896 221.501 565.237 224.946 568.786 227.973C569.308 228.495 569.726 228.913 570.144 229.226C570.248 229.331 570.248 229.435 570.352 229.644C570.248 229.539 570.144 229.435 569.935 229.435L570.039 229.331Z" fill="var(--fill-0, white)"/>
<path id="Vector_28" d="M478.809 302.515C478.809 302.515 479.958 302.411 480.584 302.307C481.002 302.307 481.524 302.202 481.837 302.098C481.315 302.307 480.793 302.515 480.271 302.62C478.601 303.037 476.93 303.142 475.26 303.037C474.216 302.933 473.485 302.515 472.441 302.307C474.529 302.829 476.513 302.933 478.705 302.724L478.809 302.515Z" fill="var(--fill-0, white)"/>
<path id="Vector_29" d="M463.048 228.599C462.526 229.539 462.108 230.374 461.795 231.314C461.586 231.836 461.378 232.358 461.273 232.88C460.856 233.506 460.647 234.133 460.542 234.759C460.02 235.907 459.603 237.16 459.29 238.413C459.185 238.622 459.185 238.935 459.081 239.144C459.081 239.144 458.976 239.666 458.872 239.875C458.454 241.023 458.246 242.171 457.828 243.32C457.619 244.05 457.41 244.886 457.202 245.721V245.93C457.202 245.93 456.993 246.66 456.993 246.974C456.784 247.6 456.575 248.226 456.471 249.062C455.845 252.298 455.218 255.43 454.696 258.875C454.07 263.051 453.548 267.645 453.548 272.238C453.443 269.524 453.548 267.123 453.652 264.826L454.07 261.798C454.174 260.754 454.174 259.71 454.487 258.562C455.009 254.177 455.845 249.584 457.202 244.886C457.202 244.781 457.202 244.677 457.306 244.677V244.468C457.411 243.842 457.515 243.424 457.724 242.902C457.828 242.485 457.932 241.963 458.141 241.649C458.141 241.545 458.246 241.232 458.246 241.127C458.663 239.875 458.976 238.831 459.394 237.682C459.916 236.116 460.438 234.863 460.96 233.506C461.482 232.149 462.108 230.687 462.735 229.33C462.944 228.704 463.361 228.077 463.674 227.451C463.883 227.033 464.092 226.511 464.405 226.198C464.405 226.407 464.301 226.616 464.196 226.825C463.988 227.451 463.674 227.973 463.466 228.599H463.048Z" fill="var(--fill-0, white)"/>
<path id="Vector_30" d="M474.299 210.643C472.629 212.522 470.959 214.506 469.601 216.594C468.662 217.847 467.827 219.1 466.887 220.457C467.513 219.413 468.244 218.264 468.975 217.22C470.123 215.446 471.376 213.671 472.838 212C474.926 209.599 477.223 207.511 479.624 205.319C477.745 206.989 476.074 208.66 474.404 210.539L474.299 210.643Z" fill="var(--fill-0, white)"/>
<path id="Vector_31" d="M570.039 229.331C568.786 228.182 567.534 227.034 566.176 225.885C563.358 223.171 560.643 220.352 557.929 217.638C555.215 214.819 552.396 212 549.473 209.182C550.83 210.434 552.291 211.687 553.544 213.044C555.214 214.715 556.885 216.385 558.555 218.16C561.896 221.501 565.237 224.946 568.786 227.973C569.308 228.495 569.726 228.913 570.144 229.226C570.248 229.331 570.248 229.435 570.352 229.644C570.248 229.539 570.144 229.435 569.935 229.435L570.039 229.331Z" fill="var(--fill-0, white)"/>
<path id="Vector_32" d="M478.809 302.515C478.809 302.515 479.958 302.411 480.584 302.307C481.002 302.307 481.524 302.202 481.837 302.098C481.315 302.307 480.793 302.515 480.271 302.62C478.601 303.037 476.93 303.142 475.26 303.037C474.216 302.933 473.485 302.515 472.441 302.307C474.529 302.829 476.513 302.933 478.705 302.724L478.809 302.515Z" fill="var(--fill-0, white)"/>
<path id="Vector_33" d="M463.048 228.599C462.526 229.539 462.108 230.374 461.795 231.314C461.586 231.836 461.378 232.358 461.273 232.88C460.856 233.506 460.647 234.133 460.542 234.759C460.02 235.907 459.603 237.16 459.29 238.413C459.185 238.622 459.185 238.935 459.081 239.144C459.081 239.144 458.976 239.666 458.872 239.875C458.454 241.023 458.246 242.171 457.828 243.32C457.619 244.05 457.41 244.886 457.202 245.721V245.93C457.202 245.93 456.993 246.66 456.993 246.974C456.784 247.6 456.575 248.226 456.471 249.062C455.845 252.298 455.218 255.43 454.696 258.875C454.07 263.051 453.548 267.645 453.548 272.238C453.443 269.524 453.548 267.123 453.652 264.826L454.07 261.798C454.174 260.754 454.174 259.71 454.487 258.562C455.009 254.177 455.845 249.584 457.202 244.886C457.202 244.781 457.202 244.677 457.306 244.677V244.468C457.411 243.842 457.515 243.424 457.724 242.902C457.828 242.485 457.932 241.963 458.141 241.649C458.141 241.545 458.246 241.232 458.246 241.127C458.663 239.875 458.976 238.831 459.394 237.682C459.916 236.116 460.438 234.863 460.96 233.506C461.482 232.149 462.108 230.687 462.735 229.33C462.944 228.704 463.361 228.077 463.674 227.451C463.883 227.033 464.092 226.511 464.405 226.198C464.405 226.407 464.301 226.616 464.196 226.825C463.988 227.451 463.674 227.973 463.466 228.599H463.048Z" fill="var(--fill-0, white)"/>
<path id="Vector_34" d="M474.299 210.643C472.629 212.522 470.959 214.506 469.601 216.594C468.662 217.847 467.827 219.1 466.887 220.457C467.513 219.413 468.244 218.264 468.975 217.22C470.123 215.446 471.376 213.671 472.838 212C474.926 209.599 477.223 207.511 479.624 205.319C477.745 206.989 476.074 208.66 474.404 210.539L474.299 210.643Z" fill="var(--fill-0, white)"/>
<path id="Vector_35" d="M570.039 229.331C568.786 228.182 567.534 227.034 566.176 225.885C563.358 223.171 560.643 220.352 557.929 217.638C555.215 214.819 552.396 212 549.473 209.182C550.83 210.434 552.291 211.687 553.544 213.044C555.214 214.715 556.885 216.385 558.555 218.16C561.896 221.501 565.237 224.946 568.786 227.973C569.308 228.495 569.726 228.913 570.144 229.226C570.248 229.331 570.248 229.435 570.352 229.644C570.248 229.539 570.144 229.435 569.935 229.435L570.039 229.331Z" fill="var(--fill-0, white)"/>
<path id="Vector_36" d="M478.913 168.672C478.913 168.672 480.061 168.254 480.583 168.15H481.001C480.27 168.254 479.644 168.567 478.808 168.776C478.391 168.88 478.078 168.88 477.66 168.985C478.078 168.88 478.6 168.776 478.913 168.567V168.672Z" fill="var(--fill-0, white)"/>
<path id="Vector_37" d="M471.286 170.767C472.225 170.558 472.956 170.245 473.791 170.036C474.209 169.931 474.731 169.827 475.044 169.827L473.791 170.245H473.687C472.956 170.453 472.017 170.767 471.286 170.975V170.767Z" fill="var(--fill-0, white)"/>
<path id="Vector_38" d="M449.042 177.966C449.773 177.758 450.712 177.444 451.443 177.236C446.85 178.802 442.256 180.472 437.663 182.038C441.316 180.681 445.179 179.219 449.042 177.966Z" fill="var(--fill-0, white)"/>
<path id="Vector_39" d="M263.54 290.092C268.342 285.707 273.249 281.427 278.052 277.356C275.859 279.444 273.562 281.323 271.37 283.306C265.21 288.631 258.947 294.268 252.787 299.488C251.221 300.741 249.864 301.994 248.298 303.142C253.413 298.757 258.529 294.477 263.436 289.988L263.54 290.092Z" fill="var(--fill-0, white)"/>
<path id="Vector_40" d="M600.119 316.198C600.119 316.198 600.224 316.83 600.224 317.146C599.698 315.04 599.698 314.618 600.119 316.198Z" fill="var(--fill-0, white)"/>
<path id="Vector_41" d="M478.809 302.515C478.809 302.515 479.958 302.411 480.584 302.307C481.002 302.307 481.524 302.202 481.837 302.098C481.315 302.307 480.793 302.515 480.271 302.62C478.601 303.037 476.93 303.142 475.26 303.037C474.216 302.933 473.485 302.515 472.441 302.307C474.529 302.829 476.513 302.933 478.705 302.724L478.809 302.515Z" fill="var(--fill-0, white)"/>
<path id="Vector_42" d="M463.048 228.599C462.526 229.539 462.108 230.374 461.795 231.314C461.586 231.836 461.378 232.358 461.273 232.88C460.856 233.506 460.647 234.133 460.542 234.759C460.02 235.907 459.603 237.16 459.29 238.413C459.185 238.622 459.185 238.935 459.081 239.144C459.081 239.144 458.976 239.666 458.872 239.875C458.454 241.023 458.246 242.171 457.828 243.32C457.619 244.05 457.41 244.886 457.202 245.721V245.93C457.202 245.93 456.993 246.66 456.993 246.974C456.784 247.6 456.575 248.226 456.471 249.062C455.845 252.298 455.218 255.43 454.696 258.875C454.07 263.051 453.548 267.645 453.548 272.238C453.443 269.524 453.548 267.123 453.652 264.826L454.07 261.798C454.174 260.754 454.174 259.71 454.487 258.562C455.009 254.177 455.845 249.584 457.202 244.886C457.202 244.781 457.202 244.677 457.306 244.677V244.468C457.411 243.842 457.515 243.424 457.724 242.902C457.828 242.485 457.932 241.963 458.141 241.649C458.141 241.545 458.246 241.232 458.246 241.127C458.663 239.875 458.976 238.831 459.394 237.682C459.916 236.116 460.438 234.863 460.96 233.506C461.482 232.149 462.108 230.687 462.735 229.33C462.944 228.704 463.361 228.077 463.674 227.451C463.883 227.033 464.092 226.511 464.405 226.198C464.405 226.407 464.301 226.616 464.196 226.825C463.988 227.451 463.674 227.973 463.466 228.599H463.048Z" fill="var(--fill-0, white)"/>
<path id="Vector_43" d="M474.299 210.643C472.629 212.522 470.959 214.506 469.601 216.594C468.662 217.847 467.827 219.1 466.887 220.457C467.513 219.413 468.244 218.264 468.975 217.22C470.123 215.446 471.376 213.671 472.838 212C474.926 209.599 477.223 207.511 479.624 205.319C477.745 206.989 476.074 208.66 474.404 210.539L474.299 210.643Z" fill="var(--fill-0, white)"/>
<path id="Vector_44" d="M570.039 229.331C568.786 228.182 567.534 227.034 566.176 225.885C563.358 223.171 560.643 220.352 557.929 217.638C555.215 214.819 552.396 212 549.473 209.182C550.83 210.434 552.291 211.687 553.544 213.044C555.214 214.715 556.885 216.385 558.555 218.16C561.896 221.501 565.237 224.946 568.786 227.973C569.308 228.495 569.726 228.913 570.144 229.226C570.248 229.331 570.248 229.435 570.352 229.644C570.248 229.539 570.144 229.435 569.935 229.435L570.039 229.331Z" fill="var(--fill-0, white)"/>
<path id="Vector_45" d="M601.058 244.261C598.03 243.739 595.107 243.113 592.08 242.069C596.778 243.426 601.789 244.366 606.904 244.783C605.025 244.783 602.937 244.574 601.058 244.261Z" fill="var(--fill-0, white)"/>
<path id="Vector_46" d="M642.184 239.145C637.068 241.233 631.64 242.694 626.002 243.634C630.7 242.694 635.293 241.442 639.783 239.771C641.662 239.145 643.645 238.205 645.42 237.474C644.272 237.996 643.332 238.623 642.184 239.145Z" fill="var(--fill-0, white)"/>
<path id="Vector_47" d="M478.809 302.515C478.809 302.515 479.958 302.411 480.584 302.307C481.002 302.307 481.524 302.202 481.837 302.098C481.315 302.307 480.793 302.515 480.271 302.62C478.601 303.037 476.93 303.142 475.26 303.037C474.216 302.933 473.485 302.515 472.441 302.307C474.529 302.829 476.513 302.933 478.705 302.724L478.809 302.515Z" fill="var(--fill-0, white)"/>
<path id="Vector_48" d="M463.048 228.599C462.526 229.539 462.108 230.374 461.795 231.314C461.586 231.836 461.378 232.358 461.273 232.88C460.856 233.506 460.647 234.133 460.542 234.759C460.02 235.907 459.603 237.16 459.29 238.413C459.185 238.622 459.185 238.935 459.081 239.144C459.081 239.144 458.976 239.666 458.872 239.875C458.454 241.023 458.246 242.171 457.828 243.32C457.619 244.05 457.41 244.886 457.202 245.721V245.93C457.202 245.93 456.993 246.66 456.993 246.974C456.784 247.6 456.575 248.226 456.471 249.062C455.845 252.298 455.218 255.43 454.696 258.875C454.07 263.051 453.548 267.645 453.548 272.238C453.443 269.524 453.548 267.123 453.652 264.826L454.07 261.798C454.174 260.754 454.174 259.71 454.487 258.562C455.009 254.177 455.845 249.584 457.202 244.886C457.202 244.781 457.202 244.677 457.306 244.677V244.468C457.411 243.842 457.515 243.424 457.724 242.902C457.828 242.485 457.932 241.963 458.141 241.649C458.141 241.545 458.246 241.232 458.246 241.127C458.663 239.875 458.976 238.831 459.394 237.682C459.916 236.116 460.438 234.863 460.96 233.506C461.482 232.149 462.108 230.687 462.735 229.33C462.944 228.704 463.361 228.077 463.674 227.451C463.883 227.033 464.092 226.511 464.405 226.198C464.405 226.407 464.301 226.616 464.196 226.825C463.988 227.451 463.674 227.973 463.466 228.599H463.048Z" fill="var(--fill-0, white)"/>
<path id="Vector_49" d="M474.299 210.643C472.629 212.522 470.959 214.506 469.601 216.594C468.662 217.847 467.827 219.1 466.887 220.457C467.513 219.413 468.244 218.264 468.975 217.22C470.123 215.446 471.376 213.671 472.838 212C474.926 209.599 477.223 207.511 479.624 205.319C477.745 206.989 476.074 208.66 474.404 210.539L474.299 210.643Z" fill="var(--fill-0, white)"/>
<path id="Vector_50" d="M570.039 229.331C568.786 228.182 567.534 227.034 566.176 225.885C563.358 223.171 560.643 220.352 557.929 217.638C555.215 214.819 552.396 212 549.473 209.182C550.83 210.434 552.291 211.687 553.544 213.044C555.214 214.715 556.885 216.385 558.555 218.16C561.896 221.501 565.237 224.946 568.786 227.973C569.308 228.495 569.726 228.913 570.144 229.226C570.248 229.331 570.248 229.435 570.352 229.644C570.248 229.539 570.144 229.435 569.935 229.435L570.039 229.331Z" fill="var(--fill-0, white)"/>
<path id="Vector_51" d="M454.473 258.982C453.847 263.158 453.325 267.752 453.325 272.345C453.22 269.631 453.325 267.23 453.429 264.933L453.847 261.905C453.951 260.861 453.951 259.818 454.264 258.669C454.786 254.284 455.621 249.691 456.979 244.993C456.979 244.888 456.979 244.784 457.083 244.784V244.575C457.187 243.949 457.292 243.531 457.501 243.009C457.605 242.592 457.709 242.07 457.918 241.756C457.918 241.652 458.023 241.339 458.023 241.234C458.44 239.982 458.753 238.938 459.171 237.789C459.693 236.223 460.215 234.971 460.737 233.613C461.259 232.256 461.885 230.795 462.512 229.437C462.721 228.811 463.138 228.185 463.451 227.558C463.66 227.141 463.869 226.619 464.182 226.305C464.182 226.514 464.078 226.723 463.973 226.932C463.765 227.558 463.451 228.08 463.243 228.707C462.721 229.646 462.303 230.481 461.99 231.421C461.781 231.943 461.572 232.465 461.468 232.987C461.05 233.613 460.841 234.24 460.737 234.866C460.215 236.015 459.797 237.267 459.484 238.52C459.38 238.729 459.38 239.042 459.275 239.251C459.275 239.251 459.171 239.773 459.067 239.982C458.649 241.13 458.44 242.278 458.023 243.427C457.814 244.158 457.605 244.993 457.396 245.828V246.037C457.396 246.037 457.187 246.768 457.187 247.081C456.979 247.707 456.77 248.334 456.665 249.169C456.039 252.405 455.413 255.537 454.891 258.982H454.473Z" fill="var(--fill-0, white)"/>
<path id="Vector_52" d="M480.364 302.518C478.694 302.936 477.023 303.04 475.353 302.936C474.309 302.831 473.578 302.414 472.534 302.205C474.622 302.727 476.606 302.831 478.798 302.623C479.32 302.623 479.946 302.518 480.573 302.414C480.99 302.414 481.512 302.309 481.826 302.205C481.304 302.414 480.782 302.623 480.26 302.727L480.364 302.518Z" fill="var(--fill-0, white)"/>
<path id="Vector_53" d="M478.809 302.515C478.809 302.515 479.958 302.411 480.584 302.307C481.002 302.307 481.524 302.202 481.837 302.098C481.315 302.307 480.793 302.515 480.271 302.62C478.601 303.037 476.93 303.142 475.26 303.037C474.216 302.933 473.485 302.515 472.441 302.307C474.529 302.829 476.513 302.933 478.705 302.724L478.809 302.515Z" fill="var(--fill-0, white)"/>
<path id="Vector_54" d="M463.048 228.599C462.526 229.539 462.108 230.374 461.795 231.314C461.586 231.836 461.378 232.358 461.273 232.88C460.856 233.506 460.647 234.133 460.542 234.759C460.02 235.907 459.603 237.16 459.29 238.413C459.185 238.622 459.185 238.935 459.081 239.144C459.081 239.144 458.976 239.666 458.872 239.875C458.454 241.023 458.246 242.171 457.828 243.32C457.619 244.05 457.41 244.886 457.202 245.721V245.93C457.202 245.93 456.993 246.66 456.993 246.974C456.784 247.6 456.575 248.226 456.471 249.062C455.845 252.298 455.218 255.43 454.696 258.875C454.07 263.051 453.548 267.645 453.548 272.238C453.443 269.524 453.548 267.123 453.652 264.826L454.07 261.798C454.174 260.754 454.174 259.71 454.487 258.562C455.009 254.177 455.845 249.584 457.202 244.886C457.202 244.781 457.202 244.677 457.306 244.677V244.468C457.411 243.842 457.515 243.424 457.724 242.902C457.828 242.485 457.932 241.963 458.141 241.649C458.141 241.545 458.246 241.232 458.246 241.127C458.663 239.875 458.976 238.831 459.394 237.682C459.916 236.116 460.438 234.863 460.96 233.506C461.482 232.149 462.108 230.687 462.735 229.33C462.944 228.704 463.361 228.077 463.674 227.451C463.883 227.033 464.092 226.511 464.405 226.198C464.405 226.407 464.301 226.616 464.196 226.825C463.988 227.451 463.674 227.973 463.466 228.599H463.048Z" fill="var(--fill-0, white)"/>
<path id="Vector_55" d="M474.299 210.643C472.629 212.522 470.959 214.506 469.601 216.594C468.662 217.847 467.827 219.1 466.887 220.457C467.513 219.413 468.244 218.264 468.975 217.22C470.123 215.446 471.376 213.671 472.838 212C474.926 209.599 477.223 207.511 479.624 205.319C477.745 206.989 476.074 208.66 474.404 210.539L474.299 210.643Z" fill="var(--fill-0, white)"/>
<path id="Vector_56" d="M570.039 229.331C568.786 228.182 567.534 227.034 566.176 225.885C563.358 223.171 560.643 220.352 557.929 217.638C555.215 214.819 552.396 212 549.473 209.182C550.83 210.434 552.291 211.687 553.544 213.044C555.214 214.715 556.885 216.385 558.555 218.16C561.896 221.501 565.237 224.946 568.786 227.973C569.308 228.495 569.726 228.913 570.144 229.226C570.248 229.331 570.248 229.435 570.352 229.644C570.248 229.539 570.144 229.435 569.935 229.435L570.039 229.331Z" fill="var(--fill-0, white)"/>
</g>
<g id="Group_4">
<path id="Vector_57" d="M556.569 296.35C556.569 296.35 556.36 295.933 556.152 295.828L555.108 294.889C550.618 294.471 546.338 293.323 542.371 291.235C544.25 292.905 546.129 294.471 547.904 296.142C552.915 300.735 557.3 305.851 560.014 312.428C565.025 324.121 567.427 338.841 566.905 354.605C566.696 362.435 565.861 368.49 564.399 374.023C562.624 380.496 559.075 387.282 553.855 393.755C533.706 419.541 498.837 431.025 450.709 427.789C407.383 424.866 367.92 412.025 336.6 390.832C332.425 388.013 328.457 384.568 324.595 381.436L322.298 379.556C314.259 372.771 306.116 365.985 298.077 359.303C294.632 356.38 291.187 353.457 287.742 350.534C278.346 342.599 268.532 334.456 259.136 326L267.071 320.467C276.362 313.994 286.802 306.582 296.929 299.274C302.253 295.411 307.473 291.339 312.589 287.581C318.331 283.092 324.281 278.603 330.337 274.427C346.414 263.047 362.909 253.234 379.091 244.986C403.416 232.458 430.142 222.645 459.687 215.128C459.896 215.128 460.104 215.024 460.313 215.024C461.67 214.606 463.028 214.397 464.385 214.084C465.011 211.892 465.638 209.699 466.368 207.611C465.22 207.924 464.072 208.133 462.819 208.446C462.297 208.551 461.879 208.655 461.462 208.864C459.896 209.282 458.225 209.595 456.764 210.012C434.84 215.754 416.883 221.601 400.284 228.804C382.536 236.321 364.788 245.508 347.562 256.052C332.111 265.762 318.017 276.201 302.566 288.103C294.319 294.367 285.654 300.526 277.197 306.373L273.648 308.878C269.054 312.219 264.356 315.351 259.658 318.692C259.136 319.109 258.406 319.423 257.779 319.84C256.004 320.884 253.916 322.137 252.664 323.494C252.142 324.225 251.933 325.06 251.933 325.895C252.35 328.297 255.378 330.907 258.928 333.516C259.45 333.934 259.867 334.247 260.18 334.56C267.697 341.033 275.527 347.715 283.148 354.187L292.857 362.331C304.55 372.248 316.556 382.584 328.875 392.398C339.002 400.436 351.738 407.535 368.964 414.948C387.234 422.778 407.279 428.206 428.576 431.234C442.357 433.322 455.198 434.261 467.099 434.261C499.15 434.261 524.414 426.954 543.728 412.233C557.926 401.376 567.531 387.595 570.976 373.501C573.899 360.869 574.213 346.358 571.498 330.28C569.619 319.318 566.278 305.746 556.987 296.35H556.569Z" fill="var(--fill-0, white)"/>
<path id="Vector_58" d="M516.06 270.248C515.433 270.874 514.911 271.605 514.285 272.231C510.944 276.198 507.603 279.852 504.471 283.297C503.845 284.028 503.114 284.863 502.383 285.594C500.609 287.369 498.834 289.144 497.059 290.919C494.867 293.111 492.57 295.095 490.586 297.391C490.169 297.809 489.96 298.018 489.647 298.54C489.229 298.749 488.916 299.271 488.603 299.584L488.394 299.792C487.35 300.941 486.306 302.089 485.158 303.133C485.158 303.133 485.053 303.133 485.053 303.238C484.009 304.386 482.756 305.43 481.608 306.265C481.295 306.474 481.086 306.683 480.773 306.787C483.174 306.892 485.575 306.996 487.976 306.996C488.394 306.996 488.812 307.205 489.229 307.205C489.751 306.683 490.378 306.056 490.9 305.534C492.988 303.446 494.867 301.463 496.85 299.375C498.625 297.496 500.4 295.512 502.175 293.737L504.889 291.023C506.037 289.77 507.29 288.517 508.439 287.16C511.779 283.611 514.911 280.061 517.626 276.825C518.461 275.99 519.087 275.154 519.818 274.319C519.192 273.797 518.565 273.275 518.043 272.649C517.313 271.814 516.686 270.874 516.06 269.83V270.248Z" fill="var(--fill-0, white)"/>
<path id="Vector_59" d="M633.188 244.042C632.039 244.459 630.786 244.459 629.534 244.25C629.116 245.086 628.907 245.921 628.49 246.756C628.49 246.86 628.385 246.86 628.385 246.965L627.968 247.487C626.924 249.575 625.775 251.872 624.522 253.96C622.748 256.987 620.66 259.91 618.259 262.207C617.215 263.147 616.066 263.982 614.918 264.713C612.725 266.279 610.324 267.427 607.819 268.575C606.461 269.097 604.895 269.619 603.329 269.933C598.527 271.29 593.412 272.125 588.296 272.229C586.417 272.334 584.433 272.229 582.554 272.021C577.23 271.916 572.01 270.872 567.416 269.097C560.422 266.592 554.784 261.581 549.773 255.943C547.685 253.855 545.91 251.872 544.24 249.784C544.031 249.575 543.718 249.157 543.509 248.844C542.256 247.487 541.003 245.921 539.855 244.459C539.333 243.937 538.915 243.415 538.602 242.893C537.245 241.327 535.783 239.866 534.426 238.404C532.338 236.316 530.355 234.437 528.058 232.662C522.838 228.486 516.783 225.354 509.788 224.415C498.722 222.744 486.298 226.607 476.589 234.541C474.919 235.794 473.353 237.256 471.996 238.717C471.474 239.239 471.056 239.761 470.638 240.283C467.193 244.25 464.374 248.426 461.973 252.811C460.929 254.899 459.885 256.778 459.05 258.762C457.484 262.416 456.336 266.174 455.396 269.724C454.665 272.229 454.039 274.735 453.621 277.032C453.204 278.389 452.995 279.746 452.891 280.999C452.682 282.356 452.473 283.818 452.369 285.384C452.369 285.384 452.369 285.488 452.369 285.592C453.935 286.532 455.5 287.68 456.753 289.142C457.275 289.768 457.588 290.395 458.11 291.021C458.11 290.29 457.902 289.56 457.902 288.933C458.006 287.263 458.11 285.697 458.424 284.131C458.424 283.4 458.528 282.565 458.632 281.834C458.841 280.268 459.259 278.911 459.572 277.449C459.781 276.719 459.99 275.779 460.198 275.048C460.825 272.229 461.556 269.411 462.6 266.905C462.808 265.965 463.226 265.13 463.539 264.399C467.506 253.646 473.144 245.399 480.243 239.657C480.661 239.135 481.183 238.717 481.6 238.404C484.315 236.525 487.133 234.854 489.848 233.602C498.617 229.739 508.118 229.426 516.156 232.662C517.305 233.184 518.453 233.706 519.601 234.333C521.481 235.481 523.464 236.734 525.135 238.195C528.789 241.118 532.129 244.564 535.261 248.322C536.514 249.679 537.663 251.141 538.811 252.498C539.333 253.02 539.751 253.542 540.168 254.064C540.272 254.273 540.586 254.586 540.69 254.69C542.047 256.361 543.509 258.031 544.866 259.493C545.388 260.015 545.806 260.537 546.223 260.85C554.784 269.828 562.927 274.735 572.741 276.927C574.933 277.449 577.125 277.658 579.213 277.971C581.301 278.18 583.285 278.389 585.373 278.389C592.785 278.493 600.198 277.449 607.088 275.361C609.176 274.735 610.951 274.004 612.725 273.065C615.231 271.916 617.423 270.663 619.511 269.097C620.66 268.367 621.808 267.427 622.852 266.383C625.566 263.877 627.654 260.641 629.638 257.405C630.891 255.212 632.039 253.02 633.188 250.932L633.396 250.41C634.754 247.904 635.693 245.19 636.737 242.58C635.693 243.206 634.545 243.624 633.396 244.146L633.188 244.042Z" fill="var(--fill-0, white)"/>
</g>
<g id="Group_5">
<path id="Vector_60" d="M581.853 276.829L582.051 277.027H582.151L581.754 276.829H581.853Z" fill="var(--fill-0, white)"/>
<path id="Vector_61" d="M511.169 290.3L508.454 287.481L506.888 285.915C505.949 284.976 505.113 284.036 504.383 283.201C504.174 282.992 503.965 282.784 503.756 282.575C503.234 282.157 502.712 281.844 501.981 281.844C501.251 281.844 500.624 282.053 500.102 282.575C495.509 287.168 491.124 291.135 486.948 294.789C485.591 296.042 484.129 297.191 482.772 298.339C480.997 299.696 479.327 301.053 477.656 302.515C477.134 303.037 476.508 303.559 475.882 304.081C475.673 304.29 475.464 304.394 475.255 304.603C475.986 304.916 476.612 305.334 477.239 305.647C478.178 306.065 480.266 307.108 480.475 306.9C481.206 306.378 481.832 305.751 482.668 305.125C483.503 304.499 484.234 303.872 484.964 303.246C484.964 303.141 485.069 303.141 485.069 303.141C485.695 302.619 486.217 302.097 486.844 301.575C487.574 300.949 488.41 300.323 489.14 299.696C493.734 295.729 498.119 291.657 501.773 288.108C502.817 289.152 503.861 290.196 504.8 291.344C507.619 294.267 510.542 297.191 513.256 300.114L514.927 301.784C519.938 307.004 524.532 311.911 526.515 318.697C529.334 327.466 529.96 338.115 528.603 349.39C527.977 355.028 526.933 359.308 525.367 363.066C523.592 367.66 520.669 372.253 516.597 376.638C500.311 393.76 474.524 399.502 440.073 393.864C409.066 388.644 381.505 376.743 360.521 359.308C357.598 357.011 354.988 354.297 352.482 351.687L348.932 348.033C344.235 343.335 339.641 338.637 334.943 333.835L328.47 327.049C322.206 320.68 315.734 314.208 309.574 307.526L315.212 304.29C323.042 299.905 330.663 295.625 338.284 291.135C342.355 288.734 346.427 286.124 350.394 283.723C354.883 280.904 359.477 278.086 364.07 275.476C376.494 268.481 389.022 262.426 401.341 257.623C418.775 250.733 437.672 245.722 458.343 242.381C458.343 242.068 458.134 241.755 458.134 241.337C458.134 239.771 458.76 238.31 459.595 236.952C459.595 236.952 459.595 236.952 459.491 236.952C443.309 239.458 429.946 242.59 417.418 246.557C404.16 250.733 390.588 256.162 377.538 262.635C365.636 268.481 354.674 275.162 342.669 282.679C336.3 286.646 329.514 290.509 323.042 294.059L320.327 295.625C316.778 297.817 313.228 299.696 309.574 301.784C309.052 301.993 308.53 302.306 308.008 302.515C306.651 303.141 305.085 303.872 303.936 304.916C303.414 305.438 303.206 306.064 303.206 306.795C303.206 308.883 305.398 310.971 307.799 313.164C308.217 313.372 308.426 313.79 308.53 313.894C313.646 319.114 318.761 324.439 323.877 329.659L330.349 336.34C337.971 344.379 346.009 352.522 354.048 360.456C360.834 367.138 369.603 373.089 381.609 379.666C394.242 386.556 408.44 391.88 423.578 395.639C438.507 399.293 451.974 401.172 464.189 401.172C481.624 401.172 496.239 397.518 508.35 389.897C519.416 383.007 527.455 373.715 530.9 363.484C533.927 354.506 535.076 344.066 534.345 332.269C533.719 324.021 532.153 313.686 525.784 306.169C521.191 300.636 516.075 295.416 511.273 290.405L511.169 290.3Z" fill="var(--fill-0, white)"/>
<path id="Vector_62" d="M582.691 272.133C582.169 273.386 581.438 274.639 580.603 275.996L581.856 276.936H582.273V277.144L581.856 276.936L580.29 276.309C580.29 276.309 579.663 277.458 579.141 277.98C577.262 281.216 575.07 284.244 572.251 286.227C569.432 288.42 565.465 289.881 561.185 290.716C557.844 291.343 554.503 291.656 551.267 291.343C547.613 291.238 543.854 290.716 540.514 289.568C538.739 289.046 537.068 288.42 535.502 287.689C529.343 284.766 525.063 279.128 521.095 273.386C520.678 272.864 520.156 272.238 519.843 271.611C519.112 270.463 518.277 269.419 517.65 268.375C517.546 268.375 517.546 268.271 517.546 268.271C512.326 260.858 506.166 253.759 496.979 251.462C487.583 249.166 476.621 252.193 468.269 259.397C466.495 260.963 464.72 262.737 463.258 264.512C457.516 271.298 454.071 279.232 452.192 285.705C451.879 286.436 451.774 287.167 451.566 287.793C452.401 288.211 453.132 288.628 453.758 289.359C454.489 290.194 455.22 290.821 455.95 291.656C456.368 289.986 456.786 288.315 457.308 286.749C457.516 286.018 457.83 285.079 458.247 284.348C462.319 273.073 468.165 264.93 475.682 260.336C484.765 254.699 495.309 254.594 502.826 259.919C507.419 263.155 510.864 267.749 514.205 272.447C514.623 273.073 514.936 273.595 515.353 274.221C516.084 275.37 516.919 276.414 517.65 277.458C518.277 278.188 518.799 279.024 519.321 279.754C525.063 287.584 531.222 292.178 538.426 294.475C541.453 295.414 544.69 296.145 547.822 296.354C550.745 296.772 553.668 296.876 556.487 296.563C558.888 296.563 561.185 296.145 563.481 295.623C568.284 294.475 572.46 292.7 575.592 290.09C579.141 287.271 581.856 283.2 584.257 279.65L584.466 279.232C584.466 279.232 584.883 278.606 585.092 278.293C586.136 276.414 587.18 274.43 588.12 272.447C586.24 272.551 584.257 272.447 582.378 272.238L582.691 272.133Z" fill="var(--fill-0, white)"/>
</g>
<path id="Vector_63" d="M486.007 271.192C477.238 269.835 467.633 268.896 457.715 268.687C447.588 268.478 439.236 268.687 431.302 269.731C422.741 270.775 413.972 272.55 405.411 274.951C397.581 277.143 390.273 279.753 382.234 282.989C377.85 284.66 373.256 286.226 368.976 287.687L367.305 288.209C365.009 289.149 362.607 289.88 360.206 290.715C359.997 290.715 359.58 290.819 359.267 290.924C358.223 291.133 357.179 291.446 356.344 291.968C355.822 292.385 355.613 292.907 355.404 293.534C355.195 294.891 356.135 296.561 357.596 298.336C357.701 298.44 357.805 298.754 358.014 298.858C360.415 302.512 362.816 306.27 365.426 309.924L368.245 314.414C372.108 320.155 376.075 326.106 380.146 331.848C383.487 336.65 388.081 341.244 394.554 346.673C401.444 352.31 409.378 357.113 418.148 361.08C431.406 367.031 443.099 370.163 453.643 370.163C459.49 370.163 465.127 369.119 470.243 367.239C477.76 364.316 482.875 361.289 486.216 355.442C486.529 354.92 487.677 352.31 487.886 351.684C489.035 350.222 495.09 337.59 496.447 322.243C496.969 313.474 491.54 308.463 491.123 308.15C486.007 304.182 483.919 302.408 477.968 298.858C471.496 294.891 465.858 292.072 460.221 289.775C459.803 289.671 459.49 289.567 459.072 289.358C457.715 288.627 456.149 288.105 454.583 287.583C450.407 285.913 445.918 284.66 441.324 283.616C435.478 282.05 429.318 281.215 423.263 280.275C419.923 279.857 416.582 279.231 413.345 278.605L411.675 278.396C411.675 278.396 410.735 278.291 410.318 278.187C413.763 277.143 417.313 276.412 420.758 275.786C436.522 272.758 453.539 272.132 472.644 273.907C486.947 275.264 499.475 277.978 510.645 281.945C510.645 281.528 510.645 281.215 510.645 280.797C510.854 279.753 511.376 278.709 512.107 277.874C504.173 275.055 495.507 272.758 486.216 271.192H486.007ZM418.774 283.825C420.966 284.242 423.159 284.555 425.247 284.869C427.544 285.286 429.945 285.495 432.346 286.017C438.714 287.165 444.874 288.731 450.616 290.611C450.825 290.715 451.242 290.819 451.555 291.028C452.913 291.446 454.479 291.968 455.94 292.594C462.204 294.995 468.572 298.127 474.941 301.99C477.864 303.556 480.787 305.435 483.71 307.523C484.232 307.732 484.65 308.045 485.068 308.463C485.903 309.089 493.211 316.71 491.645 327.046C488.721 339.574 487.677 343.854 483.71 350.849C477.446 359.723 479.221 355.86 474.21 360.558C471.287 362.646 467.215 363.272 466.067 363.585C464.396 364.107 462.726 364.316 461.056 364.525C460.116 364.629 457.089 364.525 456.358 364.525C445.813 365.673 435.478 360.349 425.247 348.448C415.955 337.694 409.796 325.48 407.603 313.37C407.186 311.699 407.081 310.029 406.977 308.254V307.523C406.559 304.078 406.351 300.528 406.037 297.083L405.62 292.594C405.411 288.94 405.098 285.182 404.889 281.528L406.977 281.945C410.944 282.676 414.807 283.303 418.67 284.033L418.774 283.825ZM400.922 281.945V282.467C401.339 285.808 401.444 289.149 401.653 292.385L402.07 296.457C402.488 301.677 402.801 306.897 403.323 312.117C403.845 317.754 405.829 323.392 407.395 327.046C409.796 333.31 413.137 339.469 417.521 345.107C423.368 353.146 429.214 358.992 435.374 362.855C433.181 362.228 430.884 361.602 428.588 360.662C410.735 354.19 395.598 343.958 384.949 331.117C383.592 329.447 382.234 327.568 380.982 325.793L380.355 324.749C377.641 320.782 375.135 316.919 372.525 313.056L369.08 308.045C366.261 303.869 363.338 299.484 360.519 294.995L364.382 293.742C369.185 292.072 374.091 290.402 378.894 288.731C381.712 287.687 384.427 286.643 387.037 285.495C390.064 284.347 392.988 283.198 396.12 282.154C397.686 281.632 399.147 281.11 400.713 280.797C400.713 281.006 400.817 281.423 400.817 281.841L400.922 281.945Z" fill="var(--fill-0, white)"/>
</g>
</svg>
