<svg preserveAspectRatio="none" width="100%" height="100%" overflow="visible" style="display: block;" viewBox="0 0 46.1415 31.0535" fill="none" xmlns="http://www.w3.org/2000/svg">
<g id="Group">
<path id="Vector" d="M46.1415 0.714672C46.1415 0.714672 46.1415 0.665442 46.1305 0.654501C46.1251 0.643561 46.1087 0.627151 46.0977 0.616211C46.0922 0.605271 46.0704 0.594331 46.0594 0.588861C46.0594 0.588861 46.054 0.588861 46.054 0.583391H46.043C46.043 0.583391 46.0375 0.577921 46.0321 0.577921C40.9887 -0.477801 35.7648 0.00903444 30.8034 1.26168C28.2489 1.91262 25.7436 2.74953 23.2985 3.72868C21.012 4.6367 18.7857 5.65414 16.6633 6.89584C14.5519 8.1266 12.5389 9.52694 10.6353 11.064C8.85755 12.5081 7.23294 14.0835 5.60287 15.6862C4.55262 16.7201 3.45313 17.7101 2.35912 18.7002C1.83947 19.1816 1.30887 19.6575 0.783744 20.1279C0.554001 20.3303 0.192977 20.5546 0.0288755 20.8117C-0.184457 21.1399 0.854855 21.6322 1.06272 21.7744C2.1075 22.4636 3.15228 23.1529 4.20253 23.8311C6.25927 25.1768 8.31055 26.5443 10.411 27.8298C12.0083 28.8034 13.8681 29.4598 15.6514 29.9686C18.102 30.6632 20.6455 30.9969 23.1891 31.0462C27.959 31.1337 33.3579 30.4718 36.9244 26.9655C38.2919 25.6144 39.4024 23.8257 39.6157 21.8783C39.8071 20.1334 39.5172 18.3009 39.014 16.6325C38.5819 15.2049 37.9364 13.6568 36.7111 12.7324C36.2133 12.3495 35.6991 11.9939 35.1795 11.6439C35.0646 11.6986 34.9552 11.7587 34.8458 11.8244C34.8513 11.8244 34.8567 11.8298 34.8622 11.8353C35.9726 12.5792 37.0612 13.252 37.7449 14.4391C38.642 15.998 39.1015 17.8469 39.2766 19.6192C39.3586 20.4342 39.386 21.2766 39.2656 22.0862C39.1234 23.0325 38.735 23.9515 38.2482 24.7665C35.6937 29.0277 30.5518 30.3843 25.9132 30.6632C20.8534 30.9586 15.7279 30.1764 11.1769 27.868C10.504 27.5289 9.86951 27.0968 9.22952 26.692C8.12456 25.9809 7.02508 25.2752 5.9256 24.5587C4.07672 23.3552 2.21143 22.1847 0.40631 20.932C0.40631 20.9265 0.41178 20.9265 0.41178 20.9265C0.767334 20.6038 1.12289 20.2865 1.47297 19.9638C2.59433 18.9464 3.7157 17.9344 4.82065 16.8951C6.08423 15.719 7.26576 14.4719 8.53482 13.3067C10.2907 11.715 12.1505 10.2326 14.1088 8.90335C18.184 6.13003 22.6968 4.12252 27.3792 2.60731C32.1655 1.03741 37.2362 0.0418548 42.296 0.397409C43.4776 0.47946 44.6482 0.632621 45.8023 0.873304C45.7367 2.43774 45.6492 4.00765 45.1186 5.4955C44.856 6.21208 44.577 7.00524 44.0847 7.59601C43.6088 8.14848 42.9688 8.55874 42.3015 8.83771C42.0936 8.92523 41.8858 9.00728 41.6724 9.07292C41.3771 9.17138 41.0762 9.25343 40.7753 9.31361C39.7689 9.52147 38.7022 9.53241 37.7285 9.30267C37.0284 9.13309 36.4048 8.79395 35.8359 8.37823C35.6827 8.26335 35.535 8.14848 35.3928 8.02814C34.8567 7.59601 34.3644 7.11464 33.8667 6.67157C32.7727 5.68696 31.52 4.74611 29.9775 4.71876C28.2872 4.69141 26.6954 5.66508 25.7163 6.99977C25.3224 7.53584 24.9997 8.1266 24.759 8.75566C24.7317 8.81583 24.7043 8.88147 24.6879 8.94711C24.6606 9.01822 24.6332 9.08933 24.6168 9.15497C24.4855 9.54882 24.3761 9.94813 24.2941 10.3584C24.2831 10.4186 24.2612 10.4733 24.2558 10.5334C24.1682 11.0039 24.1081 11.4743 24.0753 11.9392C24.0643 12.0869 24.0534 12.2346 24.0479 12.3714V12.4589C24.0479 12.4589 24.0424 12.5081 24.0424 12.53C24.0424 12.7105 24.0479 12.8856 24.0698 13.0715C24.1518 14.0343 24.491 15.0681 25.2076 15.6534C25.2623 15.7026 25.306 15.7409 25.3662 15.7792C25.4209 15.8175 25.4811 15.8503 25.5412 15.8886C25.5686 15.905 25.6014 15.9105 25.6288 15.9214C25.6725 15.8831 25.7163 15.8449 25.7655 15.812C25.8147 15.7792 25.8804 15.7573 25.9351 15.7355C25.9515 15.73 25.9679 15.7355 25.9843 15.7245C25.957 15.6972 25.9187 15.6753 25.8913 15.6425C25.8858 15.6425 25.8804 15.6425 25.8694 15.637C25.76 15.5878 25.6561 15.5276 25.5576 15.462C25.2787 15.276 25.0435 15.0189 24.8629 14.7399C24.3706 13.9467 24.3323 12.9567 24.4089 12.0486C24.4144 11.9611 24.4199 11.8736 24.4308 11.797C24.4363 11.7314 24.4418 11.6548 24.4582 11.5892V11.5673C24.4691 11.4415 24.4855 11.3266 24.5074 11.2062C24.5676 10.7468 24.6606 10.2818 24.7809 9.82779C24.8465 9.55976 24.9286 9.2972 25.0216 9.0401C25.0435 8.97446 25.0708 8.90882 25.0927 8.83771H25.0982C25.12 8.7666 25.1474 8.70643 25.1693 8.63532C25.3498 8.20865 25.5686 7.7984 25.8311 7.41003C26.0499 7.08182 26.3016 6.78097 26.586 6.502C27.8496 5.26576 29.7258 4.65859 31.4051 5.35328C32.707 5.88935 33.6862 6.95601 34.72 7.88045C34.802 7.95156 34.8896 8.02267 34.9661 8.09378C34.9716 8.09925 34.9771 8.10472 34.988 8.11566H34.9935C35.0865 8.19771 35.1795 8.27429 35.2725 8.34541C35.3381 8.40558 35.4037 8.45481 35.4749 8.50404C35.5296 8.54233 35.5843 8.57515 35.6335 8.61344C35.6335 8.61344 35.6335 8.61891 35.639 8.61891C35.6937 8.66814 35.7484 8.70096 35.8085 8.73378C36.629 9.2972 37.5207 9.67463 38.5709 9.76215C38.9265 9.7895 39.282 9.79497 39.6321 9.77309H39.6376C40.0205 9.76215 40.4089 9.71292 40.7808 9.64181H40.7863C41.4427 9.516 42.0772 9.31361 42.6625 9.0401C43.3135 8.73378 43.9261 8.31258 44.3801 7.74917C44.8615 7.15293 45.1405 6.38712 45.4085 5.67602C45.9883 4.08423 46.0758 2.41039 46.1415 0.731082C46.1415 0.725612 46.1415 0.720142 46.136 0.709202L46.1415 0.714672Z" fill="var(--fill-0, white)"/>
<path id="Vector_2" d="M43.7732 2.17517L43.7403 2.14235C43.7403 2.14235 43.7185 2.12047 43.7075 2.115H43.6856C43.6856 2.115 43.6802 2.10953 43.6747 2.10953C39.1455 1.16321 34.4576 1.59534 29.9996 2.7167C27.7076 3.29653 25.4539 4.06234 23.2659 4.93755C21.2146 5.75259 19.2071 6.66062 17.3035 7.77651C15.4054 8.88146 13.6003 10.1396 11.8882 11.5235C10.2909 12.8199 8.83589 14.2312 7.36992 15.6753C6.42907 16.6052 5.43899 17.4913 4.45438 18.383C3.98395 18.8151 3.51353 19.2363 3.03763 19.6684C2.83524 19.8489 2.50703 20.0568 2.36481 20.2811C2.17336 20.5765 3.10874 21.0141 3.29472 21.1453C4.2301 21.758 5.17095 22.3816 6.11727 22.9942C7.96615 24.1976 9.80409 25.4284 11.6913 26.5771C13.1299 27.4578 14.7983 28.0486 16.3955 28.5026C18.5999 29.1262 20.881 29.427 23.1674 29.4653C27.4505 29.5473 32.3024 28.9511 35.5024 25.8004C36.7332 24.586 37.7287 22.9778 37.9147 21.2274C38.0898 19.6629 37.8272 18.0219 37.3787 16.5231C36.9848 15.2322 36.4105 13.8483 35.3055 13.0168C34.9992 12.7816 34.6765 12.5464 34.3592 12.3276C34.3045 12.2893 34.2498 12.2565 34.2006 12.2182C34.1513 12.1799 34.1076 12.1471 34.0529 12.1197C33.9599 12.1799 33.8669 12.2401 33.7575 12.2893C33.8122 12.3221 33.8669 12.3604 33.9161 12.3987C33.9708 12.437 34.0255 12.4698 34.0857 12.5136C34.9226 13.077 35.7103 13.6514 36.2299 14.5594C37.034 15.9542 37.4443 17.6226 37.6084 19.2089C37.674 19.9365 37.7014 20.6968 37.5975 21.4188C37.4717 22.2722 37.1216 23.0981 36.684 23.8257C34.392 27.6547 29.7753 28.88 25.6126 29.1207C21.0669 29.3887 16.4612 28.6885 12.3805 26.6154C11.7733 26.3091 11.2044 25.9262 10.6355 25.5597C9.63999 24.9251 8.64991 24.2906 7.67077 23.6506C6.00787 22.5676 4.33403 21.5173 2.70943 20.3905C2.70943 20.385 2.7149 20.385 2.7149 20.385C3.03763 20.0951 3.34942 19.8106 3.67216 19.5207C4.67865 18.6072 5.69061 17.6937 6.68069 16.7693C7.81846 15.7136 8.87418 14.5922 10.0174 13.542C11.5928 12.1197 13.2666 10.7796 15.0225 9.59257C18.682 7.09822 22.7353 5.30404 26.9363 3.93653C31.2467 2.53072 35.8033 1.6391 40.3434 1.9509C41.4046 2.02201 42.4549 2.16423 43.4997 2.37756C43.4395 3.78337 43.3574 5.18917 42.887 6.53481C42.6518 7.1748 42.4002 7.89138 41.9571 8.42198C41.6344 8.78847 41.235 9.08932 40.792 9.32454C40.6498 9.40659 40.5021 9.47223 40.3489 9.53787C40.1192 9.63086 39.8894 9.71838 39.6487 9.78949C38.5547 10.1232 37.3349 10.2107 36.2464 9.94812C36.044 9.89889 35.858 9.83325 35.672 9.76214C35.6173 9.74026 35.5626 9.71291 35.5134 9.6965C35.5134 9.6965 35.5079 9.69103 35.5024 9.69103C35.4532 9.66368 35.404 9.6418 35.3493 9.61992C34.578 9.22608 33.9216 8.62437 33.2761 8.04454C33.1448 7.91873 33.0081 7.79839 32.8768 7.67805C32.8495 7.6507 32.8166 7.62335 32.7893 7.596C31.8047 6.71532 30.6833 5.86746 29.2939 5.84011C27.9756 5.81823 26.7285 6.48011 25.8478 7.43737C25.7056 7.58506 25.5797 7.73275 25.4649 7.89138C25.2734 8.15394 25.0984 8.43292 24.9507 8.7283C24.9124 8.79394 24.8796 8.85958 24.8413 8.93069L24.8358 8.94163C24.803 9.00727 24.7702 9.07291 24.7483 9.14402C24.5678 9.53787 24.4201 9.95906 24.3162 10.3803C24.1575 10.971 24.0536 11.5782 24.0044 12.1799C23.9934 12.3604 23.977 12.5409 23.9715 12.7214C23.9715 12.7543 23.9715 12.7926 23.9661 12.8308V12.9184C23.9661 13.1208 23.977 13.3286 24.0044 13.531C24.1138 14.3734 24.431 15.2377 25.0656 15.7081C25.1257 15.7683 25.1914 15.8175 25.268 15.8503C25.3336 15.8886 25.3992 15.9214 25.4758 15.9597C25.5579 15.998 25.6454 16.0254 25.7329 16.0472C25.7329 16.0363 25.7329 16.0199 25.7384 16.0089C25.7548 15.9542 25.7876 15.905 25.8314 15.8667C25.8697 15.823 25.9134 15.7956 25.9681 15.7792C25.9681 15.7792 25.9681 15.7792 25.9626 15.7792C25.9079 15.7683 25.8532 15.7573 25.804 15.7464C25.6837 15.7081 25.5633 15.6534 25.4485 15.5878C25.1476 15.4127 24.885 15.1611 24.6991 14.8602C24.256 14.1491 24.2232 13.2684 24.2833 12.4534C24.2888 12.3714 24.2943 12.2948 24.3052 12.2127C24.3162 12.0924 24.3326 11.9775 24.3545 11.8572H24.349L24.3545 11.8462V11.8353C24.3545 11.8353 24.349 11.8244 24.3545 11.8134C24.3654 11.6712 24.3873 11.5399 24.4146 11.4032C24.4967 10.8835 24.6225 10.3693 24.7975 9.86607C24.885 9.5871 24.9999 9.3136 25.1257 9.05103C25.1585 8.97992 25.1914 8.90881 25.2351 8.84317H25.2406C25.2734 8.77206 25.3062 8.69548 25.3555 8.62984C25.5962 8.20864 25.897 7.8148 26.2526 7.46472C27.3903 6.35429 29.0751 5.80729 30.5848 6.43634C31.2741 6.71532 31.8594 7.16933 32.4228 7.66711C32.5541 7.78198 32.6908 7.90232 32.8221 8.02813C33.1339 8.32352 33.4512 8.62437 33.7794 8.89787C34.2662 9.30813 34.7694 9.65821 35.311 9.92077C35.3602 9.94265 35.4094 9.97 35.4641 9.98641C35.4641 9.98641 35.4678 9.98824 35.4751 9.99188C35.5298 10.0192 35.5735 10.0411 35.6282 10.0521C36.0549 10.2326 36.5144 10.3474 37.0122 10.3857C38.2539 10.4951 39.5667 10.2654 40.6935 9.73479C40.7318 9.71291 40.7756 9.6965 40.8084 9.67462C41.1311 9.52146 41.432 9.33548 41.7055 9.10026C41.8969 8.9471 42.0774 8.77206 42.2361 8.58061C42.6682 8.04454 42.9253 7.35531 43.166 6.72079C43.6856 5.2931 43.7622 3.78884 43.8224 2.2791V2.26816C43.8224 2.26816 43.8224 2.21893 43.8114 2.20799L43.7732 2.17517Z" fill="var(--fill-0, white)"/>
<path id="Vector_3" d="M41.1849 4.41248C41.1849 4.41248 41.1794 4.35231 41.1575 4.33043C41.1521 4.31949 41.1357 4.30308 41.1302 4.29214C41.1247 4.28667 41.1193 4.2812 41.1028 4.27026V4.23744H41.0208C37.52 3.42787 33.5487 3.52633 29.2109 4.53829C27.3347 4.98137 25.371 5.58307 23.3689 6.33794C21.3395 7.09828 19.693 7.84768 18.1833 8.69554C16.5806 9.58168 14.9888 10.6429 13.4572 11.8299C12.0787 12.913 10.8534 14.0562 9.49684 15.3362C8.76385 16.0364 7.98163 16.7201 7.22677 17.3765L6.95326 17.6172C6.54301 17.9782 6.13275 18.3392 5.71703 18.7003C5.66233 18.7386 5.60216 18.7878 5.53652 18.8425C5.38336 18.9574 5.20831 19.0832 5.10985 19.2309C5.07703 19.2856 5.06062 19.3457 5.07703 19.4059C5.12626 19.6192 5.449 19.8271 5.78814 20.0295C5.84831 20.0623 5.89754 20.0897 5.91942 20.1115C6.71258 20.6586 7.51668 21.2056 8.32078 21.7471C8.64898 21.9768 8.98265 22.1956 9.31086 22.4199C10.5362 23.2568 11.7943 24.1156 13.0578 24.9197C14.0917 25.5816 15.3772 26.1341 17.0948 26.6592C18.9053 27.2117 20.8636 27.5289 22.9204 27.6055C23.3087 27.6165 23.6807 27.6274 24.0472 27.6274C28.3795 27.6274 31.5248 26.6373 33.6417 24.6243C34.8724 23.4592 35.6492 22.0589 35.8188 20.6859C35.9774 19.4606 35.8461 18.0876 35.4304 16.5888C35.135 15.5605 34.6755 14.2859 33.68 13.5037C33.5104 13.3724 33.3463 13.2412 33.1713 13.1153C33.0892 13.0497 33.0017 12.9895 32.9251 12.9294C32.9251 12.9348 32.9196 12.9348 32.9196 12.9403L32.8978 12.9677C32.8431 13.0771 32.7829 13.1974 32.7172 13.3068C32.8048 13.3615 32.8868 13.4271 32.9689 13.4818C33.5049 13.8921 33.9863 14.3297 34.32 14.9369C34.9162 16.0254 35.2936 17.4039 35.414 18.9245C35.4742 19.6739 35.4632 20.2756 35.3648 20.8117C35.2554 21.4681 34.9818 22.1464 34.5552 22.8356C32.8759 25.5214 29.665 26.9874 25.0045 27.1734C20.8363 27.332 16.9307 26.517 13.7088 24.8103C13.2767 24.5806 12.8555 24.3016 12.4507 24.0281L12.2319 23.8804C11.3895 23.317 10.5471 22.7536 9.71017 22.1847C9.34915 21.944 8.9936 21.7033 8.64351 21.4681C7.63702 20.7844 6.58677 20.0842 5.59122 19.3622L6.40079 18.651C7.25412 17.9071 8.12933 17.1468 8.98266 16.381C9.45308 15.9598 9.91257 15.5167 10.3611 15.0955C10.8644 14.6196 11.3785 14.1273 11.9037 13.6569C13.3314 12.4152 14.7973 11.2993 16.2688 10.342C19.2117 8.42203 22.5867 6.89589 26.5853 5.68153C30.8684 4.37419 34.6427 3.89282 38.1217 4.19915C39.0242 4.2812 39.9049 4.41248 40.7418 4.59846C40.6598 5.86204 40.5613 6.98888 40.162 8.06101L40.1401 8.11571C39.9377 8.63536 39.7134 9.22613 39.347 9.64733C39.0133 10.0193 38.5429 10.3366 37.9849 10.5554C36.869 11.0148 35.5671 11.1188 34.495 10.8453C33.494 10.5936 32.7227 9.85519 31.9843 9.15502C31.8584 9.02921 31.7217 8.9034 31.5904 8.78306C30.7371 7.9899 29.7798 7.2405 28.5655 7.19674C27.3292 7.15845 26.0274 7.82033 25.1686 8.92528C24.6927 9.54886 24.3754 10.2436 24.1675 10.9328C24.1292 11.0422 24.0964 11.1516 24.0745 11.2665C23.8995 11.9283 23.8229 12.5683 23.7846 13.0989C23.7628 13.4107 23.7846 13.7827 23.8503 14.1437C23.8831 14.357 23.9433 14.5649 24.0198 14.7673C24.1292 15.0627 24.2824 15.3362 24.4903 15.5605C24.6981 15.7957 24.9498 15.9598 25.2342 16.0528C25.3053 16.0746 25.3874 16.0856 25.4639 16.102C25.4585 16.0582 25.4475 16.0199 25.4585 15.9762C25.4585 15.916 25.4804 15.8613 25.5132 15.8121C25.5241 15.7957 25.5405 15.7847 25.5515 15.7683C25.5296 15.7519 25.5022 15.7355 25.4749 15.7136C25.4475 15.6917 25.4257 15.6644 25.4038 15.6316C25.0427 15.5003 24.731 15.2268 24.5286 14.9041C24.359 14.6251 24.266 14.3078 24.2277 13.9796C24.1949 13.7389 24.1949 13.4928 24.2004 13.2521C24.2058 13.0606 24.2277 12.8637 24.2496 12.6777C24.3098 12.1307 24.4082 11.622 24.5504 11.1516C24.5778 11.0313 24.6161 10.9164 24.6598 10.8124C24.9552 9.93177 25.3928 9.21519 25.9672 8.67366C27.0229 7.6781 28.4506 7.36631 29.6157 7.86956C30.4034 8.2087 31.0379 8.82682 31.6561 9.41211C31.8694 9.61997 32.0882 9.82784 32.3125 10.0193C32.6625 10.3256 33.0017 10.5827 33.3408 10.7796C33.3463 10.7796 33.3518 10.7851 33.3518 10.7851C33.4831 10.8671 33.6198 10.9383 33.762 10.9984C34.1942 11.2063 34.6427 11.3266 35.1131 11.3813C36.2071 11.4907 37.3504 11.3102 38.335 10.8726C38.9094 10.6101 39.3688 10.2764 39.7025 9.87707C40.0854 9.43399 40.3042 8.87605 40.5175 8.32904L40.5449 8.27434C41.0044 7.08734 41.1083 5.8894 41.1958 4.43436V4.40701L41.1849 4.41248Z" fill="var(--fill-0, white)"/>
<g id="Group_2">
<path id="Vector_4" d="M33.6259 16.4301C33.4071 15.6753 33.0844 14.7618 32.4498 14.089C32.3842 14.0178 32.3021 13.9413 32.2201 13.8756C32.1052 13.9577 31.9794 14.0178 31.8481 14.078C31.9357 14.1437 32.0177 14.2202 32.0943 14.2968C32.3076 14.5102 32.5045 14.7508 32.6577 15.0298C33.1664 15.9542 33.4837 17.1303 33.5931 18.4267C33.6423 19.0667 33.6259 19.5754 33.5548 20.0294C33.4618 20.5929 33.2266 21.1672 32.8656 21.7525C31.4379 24.039 28.6974 25.2807 24.7316 25.4393C21.176 25.5816 17.8503 24.8869 15.1098 23.4264C14.7378 23.2349 14.3822 22.9942 14.0321 22.759L13.8462 22.6332C13.1296 22.1518 12.4185 21.6705 11.7019 21.1891C11.3956 20.9812 11.0947 20.7788 10.7939 20.5764C9.92961 20.0021 9.04893 19.4059 8.20107 18.7987L8.83559 18.2353C9.57952 17.5953 10.3399 16.9279 11.0838 16.2551C11.4776 15.8995 11.8715 15.5276 12.2544 15.1666C12.681 14.7563 13.1241 14.3406 13.5727 13.9413C14.787 12.8801 16.0397 11.9283 17.2868 11.1132C19.7429 9.51599 22.5436 8.236 25.8529 7.21857C25.9295 7.05993 26.017 6.89036 26.121 6.73173C25.202 7.00523 24.2721 7.31703 23.3313 7.66711C21.6082 8.31805 20.1969 8.95804 18.9114 9.68009C17.5439 10.4404 16.1874 11.343 14.8745 12.3604C13.6985 13.2739 12.6099 14.2968 11.4995 15.3471C10.8759 15.9378 10.214 16.5122 9.57952 17.0647L9.3279 17.2835C8.99422 17.5843 8.65508 17.8852 8.31047 18.1806L8.27218 18.2079C8.23389 18.2462 8.17919 18.29 8.12449 18.3283C7.9932 18.4267 7.84551 18.5416 7.75799 18.6674C7.72517 18.7166 7.70876 18.7659 7.72517 18.8206C7.76346 19.0065 8.0479 19.1871 8.33235 19.3566C8.38158 19.384 8.42534 19.4113 8.44722 19.4277C9.13098 19.8872 9.80926 20.3576 10.493 20.8171C10.772 21.0086 11.0564 21.2 11.3354 21.3915C12.3802 22.1081 13.4523 22.8411 14.5354 23.5303C15.4161 24.0937 16.5156 24.5641 17.9761 25.0127C19.5186 25.4831 21.1925 25.7457 22.9483 25.8168C23.2765 25.8277 23.5993 25.8386 23.9111 25.8386C27.6088 25.8386 30.2946 24.9963 32.1052 23.2787C33.1555 22.2831 33.8174 21.0852 33.9705 19.9091C34.1018 18.8643 33.9924 17.6883 33.6368 16.4137L33.6259 16.4301Z" fill="var(--fill-0, white)"/>
<path id="Vector_5" d="M38.5268 6.04804C38.5268 6.04804 38.5214 5.99334 38.5049 5.97693C38.494 5.96599 38.4831 5.94958 38.4776 5.94411C38.4721 5.93864 38.4721 5.93317 38.4667 5.93317V5.89488H38.3846C36.481 5.4518 34.4133 5.3424 32.2089 5.52838C32.2363 5.55573 32.2636 5.58855 32.2964 5.61043C32.4222 5.70342 32.559 5.78547 32.6903 5.86753C33.7952 5.79094 34.8674 5.79642 35.9012 5.88394C36.6725 5.94958 37.4164 6.06445 38.1275 6.22308C38.0619 7.28974 37.9743 8.25247 37.6352 9.16597L37.6133 9.2152C37.4438 9.65828 37.2523 10.1561 36.9405 10.5116C36.6615 10.8343 36.2567 11.1024 35.7863 11.2884C35.1135 11.5619 34.3586 11.6877 33.6475 11.6548C33.5381 11.6494 33.4397 11.6439 33.3412 11.6275C33.1607 11.6056 32.9857 11.5783 32.8215 11.5345C32.2472 11.3868 31.7549 11.0477 31.3063 10.6593C31.1641 10.5444 31.0328 10.4186 30.907 10.2983C30.8359 10.2326 30.7593 10.1561 30.6882 10.0904C30.5788 9.98101 30.4694 9.87708 30.3546 9.77862C29.627 9.09486 28.8065 8.45486 27.7672 8.42204C26.7006 8.38922 25.5901 8.95264 24.8626 9.89896C24.6165 10.2217 24.4141 10.5663 24.2554 10.9219C24.2062 11.0367 24.1624 11.1571 24.1242 11.2719C23.8288 12.0542 23.7248 12.8473 23.6811 13.4709C23.6592 13.7827 23.6866 14.1656 23.7741 14.5321C23.8233 14.7454 23.8944 14.9533 23.9929 15.1447C24.0749 15.2979 24.1679 15.4456 24.2828 15.5714C24.5454 15.8504 24.8626 16.0254 25.2455 16.0582C25.2783 16.0637 25.3166 16.0637 25.3549 16.0637C25.4807 16.0692 25.6065 16.0582 25.7378 16.0254C25.7925 16.009 25.8472 15.9762 25.9019 15.9543C25.8746 15.927 25.8527 15.8996 25.8308 15.8668C25.8308 15.8613 25.8199 15.8504 25.8199 15.8394C25.8035 15.8012 25.7816 15.7574 25.7706 15.7136C25.7706 15.7136 25.7706 15.7027 25.7706 15.6972C25.7706 15.6699 25.7652 15.648 25.7597 15.6206C25.7324 15.6316 25.705 15.6425 25.6831 15.648C25.1471 15.7793 24.6219 15.4347 24.3539 14.9916C24.2445 14.8111 24.1734 14.6196 24.1351 14.4118C24.0749 14.1383 24.0695 13.8483 24.0804 13.5694C24.0859 13.4107 24.1023 13.2576 24.1187 13.0989C24.2007 12.355 24.3594 11.7095 24.6001 11.1461C24.6493 11.0203 24.7095 10.9055 24.7696 10.7906C24.983 10.3639 25.2565 9.99742 25.5792 9.69657C26.4763 8.84871 27.6906 8.58068 28.6807 9.01281C29.3098 9.28631 29.8294 9.76221 30.3272 10.2436C30.3546 10.2709 30.3874 10.2983 30.4147 10.3256C30.5022 10.4077 30.5898 10.4952 30.6773 10.5772C30.7757 10.6648 30.8687 10.7578 30.9727 10.8453C31.7604 11.54 32.4824 11.901 33.2974 11.994C33.3248 11.9995 33.3467 12.0049 33.3686 12.0049C33.4506 12.0104 33.5217 12.0159 33.6038 12.0268C34.468 12.076 35.3487 11.9119 36.1255 11.5728C36.6178 11.354 37.0116 11.0641 37.3015 10.7249C37.6243 10.342 37.8157 9.86067 37.9962 9.39571L38.0181 9.34648C38.4119 8.33999 38.4995 7.30615 38.5706 6.06992V6.04257L38.5268 6.04804Z" fill="var(--fill-0, white)"/>
</g>
<g id="Group_3">
<path id="Vector_6" d="M15.3833 13.8374C16.1327 13.2302 16.8931 12.6668 17.6534 12.169C17.2979 12.3878 16.9532 12.6285 16.6032 12.8856C16.182 13.1919 15.7772 13.5146 15.3779 13.8428L15.3833 13.8374Z" fill="var(--fill-0, white)"/>
<path id="Vector_7" d="M19.9233 10.8288C19.1629 11.2226 18.3971 11.6657 17.6586 12.1635C17.9212 11.9939 18.1728 11.8353 18.4299 11.6821C19.9944 10.7248 21.7174 9.93716 23.6648 9.28075C23.6265 9.29169 23.5773 9.3081 23.539 9.31904C22.1277 9.80041 20.979 10.2763 19.9287 10.8233L19.9233 10.8288Z" fill="var(--fill-0, white)"/>
<path id="Vector_8" d="M24.775 11.1079C24.0639 11.9776 23.8342 13.0935 23.7576 13.8812C23.7521 14.0015 23.7467 14.1273 23.7521 14.2696C23.7521 14.0289 23.7795 13.7882 23.8123 13.5694C23.9928 12.3168 24.4304 11.3759 25.1251 10.7633C25.0048 10.8727 24.879 10.9821 24.775 11.1079Z" fill="var(--fill-0, white)"/>
<path id="Vector_9" d="M34.4146 12.0432C34.376 12.0819 34.3373 12.115 34.2932 12.1481C34.3373 12.115 34.376 12.0763 34.4146 12.0432Z" fill="var(--fill-0, white)"/>
<path id="Vector_10" d="M34.2935 12.1471C34.1622 12.251 34.0145 12.3385 33.8559 12.4206C34.02 12.3385 34.1677 12.2456 34.2935 12.1471Z" fill="var(--fill-0, white)"/>
<path id="Vector_11" d="M33.8549 12.4206C33.8549 12.4206 33.8278 12.4369 33.817 12.4423C33.8278 12.4369 33.8441 12.4261 33.8549 12.4206Z" fill="var(--fill-0, white)"/>
<path id="Vector_12" d="M31.4927 12.7981C31.5911 12.809 31.7005 12.8254 31.799 12.8254C31.531 12.8036 31.2684 12.7598 31.0222 12.6832C31.1754 12.7379 31.3286 12.7707 31.4927 12.7981Z" fill="var(--fill-0, white)"/>
<path id="Vector_13" d="M31.3726 16.2989C31.3999 16.4083 31.4273 16.5067 31.4546 16.6107C31.4546 16.5997 31.4546 16.5779 31.4491 16.5614C31.4273 16.4739 31.3999 16.3864 31.378 16.2934L31.3726 16.2989Z" fill="var(--fill-0, white)"/>
<path id="Vector_14" d="M25.125 10.7642L25.1315 10.7578L25.125 10.7642Z" fill="var(--fill-0, white)"/>
<path id="Vector_15" d="M25.1305 10.7578C25.218 10.6812 25.3056 10.6156 25.3931 10.5554C25.3001 10.621 25.2126 10.6867 25.1305 10.7578Z" fill="var(--fill-0, white)"/>
<path id="Vector_16" d="M25.3933 10.5561C25.4374 10.523 25.4871 10.4954 25.5312 10.4678C25.4815 10.4954 25.4374 10.523 25.3933 10.5561Z" fill="var(--fill-0, white)"/>
<path id="Vector_17" d="M27.8224 10.2654C27.795 10.249 27.7622 10.2435 27.7294 10.2326C27.8279 10.2764 27.9263 10.3146 28.0193 10.3748C27.9537 10.3365 27.888 10.3037 27.8169 10.2654H27.8224Z" fill="var(--fill-0, white)"/>
<path id="Vector_18" d="M26.0665 10.2048C26.0665 10.2048 26.0988 10.1887 26.1203 10.1833C26.1042 10.1887 26.088 10.1995 26.0665 10.2048Z" fill="var(--fill-0, white)"/>
<g id="Vector_19">
</g>
<path id="Vector_20" d="M24.7632 15.8336C24.7632 15.8336 24.7477 15.8336 24.7425 15.8284C24.7477 15.8284 24.758 15.8284 24.7632 15.8336Z" fill="var(--fill-0, white)"/>
<path id="Vector_21" d="M13.0095 15.8886C13.0915 15.8284 13.1627 15.7628 13.2447 15.6972C13.5729 15.4237 13.9011 15.1283 14.2184 14.8493C14.3332 14.7399 14.4536 14.6414 14.5685 14.5375C14.3168 14.7508 14.0597 14.9806 13.8081 15.2049C13.5456 15.4401 13.2775 15.6643 13.015 15.8941L13.0095 15.8886Z" fill="var(--fill-0, white)"/>
<path id="Vector_22" d="M30.4919 14.3789C30.4536 14.4172 30.2567 14.5868 30.2293 14.6087C30.4646 14.8275 30.6779 15.0736 30.8311 15.3799C31.2194 16.1348 31.4437 17.0921 31.4984 18.1478C31.5203 18.662 31.4984 19.0722 31.4273 19.4387C31.3398 19.8873 31.1319 20.3467 30.8256 20.8062C29.6112 22.6168 27.3685 23.5467 24.163 23.5741H24.0318C21.2037 23.5741 18.5781 22.9231 16.4339 21.6978C16.1385 21.5283 15.8595 21.3314 15.586 21.129L15.4383 21.0305C14.8694 20.6202 14.3005 20.2155 13.7316 19.7997C13.4964 19.6247 13.2557 19.4606 13.0151 19.2856C12.3422 18.7987 11.6476 18.2955 10.9747 17.7813L11.4889 17.3601C12.0961 16.8678 12.7306 16.3536 13.3542 15.8175C13.6879 15.544 14.0161 15.2486 14.3279 14.9697C14.6889 14.6469 15.0554 14.3187 15.4328 14.0069C16.4393 13.1864 17.4786 12.448 18.5125 11.8189C20.3012 10.7304 22.3087 9.8497 24.6225 9.155C24.6608 9.14406 24.6936 9.13312 24.7374 9.12218C24.8304 9.09483 24.9234 9.06748 25.0164 9.04013C25.0437 9.03466 25.0765 9.02919 25.1039 9.01278C25.1914 8.9909 25.2844 8.96355 25.3719 8.9362C25.3719 8.92526 25.3719 8.90885 25.3829 8.89791C25.3993 8.87056 25.4102 8.84321 25.4266 8.81586C25.3993 8.73381 25.4048 8.64082 25.443 8.55877C25.4048 8.56971 25.3719 8.57518 25.3336 8.58612C25.2789 8.59706 25.2242 8.61894 25.175 8.63535C25.093 8.65723 25.0218 8.67364 24.9398 8.70099C24.8851 8.71193 24.8249 8.72834 24.7702 8.75022C24.3436 8.87603 23.9169 9.01825 23.4793 9.16594C22.0571 9.64731 20.9084 10.1287 19.8417 10.6757C18.7149 11.2555 17.588 11.9502 16.505 12.7434C15.5313 13.4599 14.6561 14.2203 13.6934 15.0736C13.1792 15.5331 12.6322 15.9816 12.1016 16.4083L11.8882 16.5888C11.6093 16.8186 11.3248 17.0483 11.0404 17.278L11.0076 17.3054C10.9747 17.3327 10.9255 17.3656 10.8872 17.3984C10.7723 17.4695 10.6465 17.557 10.5754 17.6664C10.5481 17.7047 10.5371 17.7539 10.5481 17.7977C10.5754 17.9563 10.7888 18.104 11.0294 18.2572C11.0677 18.2845 11.1005 18.3064 11.117 18.3174C11.6585 18.7112 12.2 19.105 12.7416 19.4989L13.398 19.9802C14.2239 20.582 15.0827 21.211 15.9415 21.7963C16.6417 22.2777 17.5169 22.6825 18.693 23.0872C19.9292 23.5084 21.2803 23.771 22.6971 23.8695C23.1784 23.9023 23.6379 23.9242 24.081 23.9242C26.7668 23.9242 28.7743 23.3006 30.1911 22.0479C31.0663 21.2712 31.6351 20.3194 31.7883 19.3676C31.9305 18.5252 31.8704 17.5625 31.6078 16.5232C31.4328 15.8175 31.1483 14.9478 30.4919 14.3789ZM16.6089 12.8801C16.959 12.6285 17.3036 12.3878 17.6591 12.1635C18.4031 11.6603 19.1634 11.2227 19.9238 10.8288C20.5911 10.4733 21.3131 10.156 22.1118 9.84423C22.161 9.83329 22.1993 9.81141 22.2431 9.795C22.2704 9.78406 22.2978 9.77312 22.3251 9.76765C22.1227 9.83876 21.9313 9.92081 21.7289 10.0083C21.4499 10.1232 21.1764 10.2435 20.9029 10.3694C20.892 10.3748 20.8755 10.3803 20.8646 10.3912C20.7224 10.4569 20.5856 10.5225 20.4434 10.5936C20.3012 10.6593 20.1699 10.7249 20.0277 10.796C19.8417 10.889 19.6612 10.982 19.4807 11.0859C19.1251 11.2774 18.7696 11.4798 18.4304 11.6876C18.1788 11.8408 17.9217 11.9994 17.6591 12.169C16.8988 12.6722 16.133 13.2302 15.3891 13.8374C15.7829 13.5092 16.1932 13.1864 16.6144 12.8801H16.6089Z" fill="var(--fill-0, white)"/>
<path id="Vector_23" d="M34.8681 11.7697C34.7313 11.8408 34.5782 11.8353 34.4469 11.7752C34.436 11.7861 34.425 11.808 34.4141 11.8189C34.3047 11.9338 34.1843 12.0322 34.0476 12.1198C33.9546 12.1799 33.8616 12.2401 33.7522 12.2893C33.6592 12.3386 33.5662 12.3769 33.4623 12.4151C32.6855 12.7051 31.7939 12.7434 31.0609 12.53C30.8804 12.4753 30.7108 12.4042 30.5522 12.3112C30.4592 12.2565 30.3662 12.1963 30.2787 12.1307C30.2514 12.1088 30.224 12.0924 30.1967 12.0651C30.1146 12.0104 30.038 11.9447 29.956 11.8791C29.7536 11.6986 29.5621 11.5071 29.3762 11.3157C29.2886 11.2281 29.2011 11.1352 29.1136 11.0531C28.5338 10.4787 27.8828 9.93721 27.0404 9.88251C26.1762 9.81687 25.2572 10.2545 24.6336 11.0039C24.5789 11.0695 24.5242 11.1352 24.4859 11.2117C24.4476 11.2664 24.4039 11.3211 24.3765 11.3704C24.2507 11.5509 24.1413 11.7423 24.0647 11.9393C24.0319 12.0104 23.9991 12.0869 23.9717 12.1581C23.7311 12.7652 23.6162 13.3724 23.5779 13.8702C23.5287 14.4008 23.6271 15.1338 24.021 15.5987C24.2398 15.8613 24.5297 16.009 24.8852 16.0309C25.0712 16.0527 25.2572 16.0199 25.4486 15.9324C25.476 15.9215 25.5088 15.8996 25.5362 15.8832C25.5416 15.8832 25.5471 15.8722 25.5526 15.8722C25.4979 15.8175 25.4432 15.7628 25.383 15.7136C25.3502 15.6862 25.2298 15.6097 25.3557 15.6862C25.3283 15.6698 25.301 15.648 25.2736 15.6261C25.2517 15.637 25.2244 15.648 25.2025 15.648C25.1478 15.6698 25.0931 15.6808 25.0439 15.6808C24.6555 15.7136 24.2945 15.4401 24.1085 15.1119C23.8569 14.6524 23.8952 14.0835 23.9663 13.5803C23.9717 13.5529 23.9717 13.5256 23.9772 13.4982C24.0046 13.3451 24.0319 13.2028 24.0647 13.0661C24.0975 12.9129 24.1358 12.7598 24.1851 12.6175C24.2069 12.5519 24.2343 12.4753 24.2562 12.4097C24.2945 12.2839 24.3437 12.1635 24.3984 12.0432C24.6117 11.5673 24.8907 11.1789 25.2353 10.8726C25.9792 10.2162 26.9584 10.0302 27.7406 10.4022C28.2767 10.6538 28.6979 11.0914 29.1026 11.5126C29.2503 11.6603 29.3926 11.808 29.5348 11.9447C29.6059 12.0158 29.6825 12.0869 29.7536 12.1471C29.8356 12.2128 29.9122 12.2729 29.9943 12.3276C30.0216 12.355 30.049 12.3659 30.0763 12.3878C30.1693 12.4534 30.2568 12.5136 30.3498 12.5683C30.7108 12.7762 31.0719 12.8965 31.4602 12.9512C32.2151 13.0606 33.0083 12.9567 33.7084 12.6777C33.8397 12.623 33.9601 12.5628 34.0749 12.4972C34.1734 12.4425 34.2609 12.3823 34.3484 12.3167C34.4742 12.2237 34.5836 12.1252 34.6821 12.0158C34.7368 11.9557 34.7915 11.89 34.8353 11.8244C34.8572 11.797 34.8681 11.7697 34.89 11.7369C34.879 11.7423 34.8736 11.7533 34.8626 11.7587L34.8681 11.7697ZM24.743 15.8285C24.5133 15.7738 24.3163 15.6753 24.1632 15.4948C24.0921 15.4073 24.0374 15.3197 23.9827 15.2213C24.1522 15.5112 24.4257 15.7409 24.743 15.8285ZM26.1269 10.1834C26.3786 10.0958 26.6411 10.0357 26.9037 10.0357H27.0459C27.2921 10.0576 27.5218 10.1287 27.7351 10.2271C27.2319 10.0138 26.6739 10.0083 26.1324 10.1779L26.1269 10.1834Z" fill="var(--fill-0, white)"/>
<path id="Vector_24" d="M25.0871 15.8503C25.0871 15.8503 25.1473 15.8448 25.1801 15.8394C25.202 15.8394 25.2293 15.8339 25.2457 15.8284C25.2184 15.8394 25.191 15.8503 25.1637 15.8558C25.0762 15.8777 24.9886 15.8831 24.9011 15.8777C24.8464 15.8722 24.8081 15.8503 24.7534 15.8394C24.8628 15.8667 24.9668 15.8722 25.0816 15.8613L25.0871 15.8503Z" fill="var(--fill-0, white)"/>
<path id="Vector_25" d="M24.2615 11.9776C24.2341 12.0268 24.2122 12.0706 24.1958 12.1198C24.1849 12.1472 24.1739 12.1745 24.1685 12.2019C24.1466 12.2347 24.1357 12.2675 24.1302 12.3003C24.1028 12.3605 24.081 12.4262 24.0645 12.4918C24.0591 12.5027 24.0591 12.5192 24.0536 12.5301C24.0536 12.5301 24.0481 12.5574 24.0427 12.5684C24.0208 12.6286 24.0098 12.6887 23.988 12.7489C23.977 12.7872 23.9661 12.8309 23.9551 12.8747V12.8856C23.9551 12.8856 23.9442 12.9239 23.9442 12.9403C23.9333 12.9732 23.9223 13.006 23.9169 13.0497C23.884 13.2193 23.8512 13.3834 23.8239 13.5639C23.791 13.7827 23.7637 14.0234 23.7637 14.2641C23.7582 14.1219 23.7637 13.9961 23.7692 13.8757L23.791 13.7171C23.7965 13.6624 23.7965 13.6077 23.8129 13.5475C23.8403 13.3178 23.884 13.0771 23.9551 12.8309C23.9551 12.8255 23.9551 12.82 23.9606 12.82V12.8091C23.9661 12.7762 23.9716 12.7544 23.9825 12.727C23.988 12.7051 23.9934 12.6778 24.0044 12.6614C24.0044 12.6559 24.0098 12.6395 24.0098 12.634C24.0317 12.5684 24.0481 12.5137 24.07 12.4535C24.0974 12.3715 24.1247 12.3058 24.1521 12.2347C24.1794 12.1636 24.2122 12.087 24.2451 12.0159C24.256 11.9831 24.2779 11.9503 24.2943 11.9174C24.3052 11.8956 24.3162 11.8682 24.3326 11.8518C24.3326 11.8627 24.3271 11.8737 24.3216 11.8846C24.3107 11.9174 24.2943 11.9448 24.2833 11.9776H24.2615Z" fill="var(--fill-0, white)"/>
<path id="Vector_26" d="M24.8517 11.0368C24.7642 11.1352 24.6766 11.2392 24.6055 11.3486C24.5563 11.4142 24.5125 11.4798 24.4633 11.5509C24.4961 11.4962 24.5344 11.4361 24.5727 11.3814C24.6329 11.2884 24.6985 11.1954 24.7751 11.1079C24.8845 10.9821 25.0048 10.8727 25.1307 10.7578C25.0322 10.8453 24.9447 10.9328 24.8571 11.0313L24.8517 11.0368Z" fill="var(--fill-0, white)"/>
<path id="Vector_27" d="M29.8677 12.0159C29.8021 11.9557 29.7364 11.8955 29.6653 11.8354C29.5176 11.6932 29.3754 11.5455 29.2332 11.4032C29.091 11.2556 28.9433 11.1079 28.7901 10.9602C28.8612 11.0258 28.9378 11.0914 29.0034 11.1626C29.091 11.2501 29.1785 11.3376 29.266 11.4306C29.441 11.6056 29.6161 11.7861 29.8021 11.9448C29.8294 11.9721 29.8513 11.994 29.8732 12.0104C29.8786 12.0159 29.8786 12.0214 29.8841 12.0323C29.8786 12.0268 29.8732 12.0214 29.8622 12.0214L29.8677 12.0159Z" fill="var(--fill-0, white)"/>
<path id="Vector_28" d="M25.0871 15.8503C25.0871 15.8503 25.1473 15.8448 25.1801 15.8394C25.202 15.8394 25.2293 15.8339 25.2457 15.8284C25.2184 15.8394 25.191 15.8503 25.1637 15.8558C25.0762 15.8777 24.9886 15.8831 24.9011 15.8777C24.8464 15.8722 24.8081 15.8503 24.7534 15.8394C24.8628 15.8667 24.9668 15.8722 25.0816 15.8613L25.0871 15.8503Z" fill="var(--fill-0, white)"/>
<path id="Vector_29" d="M24.2615 11.9776C24.2341 12.0268 24.2122 12.0706 24.1958 12.1198C24.1849 12.1472 24.1739 12.1745 24.1685 12.2019C24.1466 12.2347 24.1357 12.2675 24.1302 12.3003C24.1028 12.3605 24.081 12.4262 24.0645 12.4918C24.0591 12.5027 24.0591 12.5192 24.0536 12.5301C24.0536 12.5301 24.0481 12.5574 24.0427 12.5684C24.0208 12.6286 24.0098 12.6887 23.988 12.7489C23.977 12.7872 23.9661 12.8309 23.9551 12.8747V12.8856C23.9551 12.8856 23.9442 12.9239 23.9442 12.9403C23.9333 12.9732 23.9223 13.006 23.9169 13.0497C23.884 13.2193 23.8512 13.3834 23.8239 13.5639C23.791 13.7827 23.7637 14.0234 23.7637 14.2641C23.7582 14.1219 23.7637 13.9961 23.7692 13.8757L23.791 13.7171C23.7965 13.6624 23.7965 13.6077 23.8129 13.5475C23.8403 13.3178 23.884 13.0771 23.9551 12.8309C23.9551 12.8255 23.9551 12.82 23.9606 12.82V12.8091C23.9661 12.7762 23.9716 12.7544 23.9825 12.727C23.988 12.7051 23.9934 12.6778 24.0044 12.6614C24.0044 12.6559 24.0098 12.6395 24.0098 12.634C24.0317 12.5684 24.0481 12.5137 24.07 12.4535C24.0974 12.3715 24.1247 12.3058 24.1521 12.2347C24.1794 12.1636 24.2122 12.087 24.2451 12.0159C24.256 11.9831 24.2779 11.9503 24.2943 11.9174C24.3052 11.8956 24.3162 11.8682 24.3326 11.8518C24.3326 11.8627 24.3271 11.8737 24.3216 11.8846C24.3107 11.9174 24.2943 11.9448 24.2833 11.9776H24.2615Z" fill="var(--fill-0, white)"/>
<path id="Vector_30" d="M24.8517 11.0368C24.7642 11.1352 24.6766 11.2392 24.6055 11.3486C24.5563 11.4142 24.5125 11.4798 24.4633 11.5509C24.4961 11.4962 24.5344 11.4361 24.5727 11.3814C24.6329 11.2884 24.6985 11.1954 24.7751 11.1079C24.8845 10.9821 25.0048 10.8727 25.1307 10.7578C25.0322 10.8453 24.9447 10.9328 24.8571 11.0313L24.8517 11.0368Z" fill="var(--fill-0, white)"/>
<path id="Vector_31" d="M29.8677 12.0159C29.8021 11.9557 29.7364 11.8955 29.6653 11.8354C29.5176 11.6932 29.3754 11.5455 29.2332 11.4032C29.091 11.2556 28.9433 11.1079 28.7901 10.9602C28.8612 11.0258 28.9378 11.0914 29.0034 11.1626C29.091 11.2501 29.1785 11.3376 29.266 11.4306C29.441 11.6056 29.6161 11.7861 29.8021 11.9448C29.8294 11.9721 29.8513 11.994 29.8732 12.0104C29.8786 12.0159 29.8786 12.0214 29.8841 12.0323C29.8786 12.0268 29.8732 12.0214 29.8622 12.0214L29.8677 12.0159Z" fill="var(--fill-0, white)"/>
<path id="Vector_32" d="M25.0871 15.8503C25.0871 15.8503 25.1473 15.8448 25.1801 15.8394C25.202 15.8394 25.2293 15.8339 25.2457 15.8284C25.2184 15.8394 25.191 15.8503 25.1637 15.8558C25.0762 15.8777 24.9886 15.8831 24.9011 15.8777C24.8464 15.8722 24.8081 15.8503 24.7534 15.8394C24.8628 15.8667 24.9668 15.8722 25.0816 15.8613L25.0871 15.8503Z" fill="var(--fill-0, white)"/>
<path id="Vector_33" d="M24.2615 11.9776C24.2341 12.0268 24.2122 12.0706 24.1958 12.1198C24.1849 12.1472 24.1739 12.1745 24.1685 12.2019C24.1466 12.2347 24.1357 12.2675 24.1302 12.3003C24.1028 12.3605 24.081 12.4262 24.0645 12.4918C24.0591 12.5027 24.0591 12.5192 24.0536 12.5301C24.0536 12.5301 24.0481 12.5574 24.0427 12.5684C24.0208 12.6286 24.0098 12.6887 23.988 12.7489C23.977 12.7872 23.9661 12.8309 23.9551 12.8747V12.8856C23.9551 12.8856 23.9442 12.9239 23.9442 12.9403C23.9333 12.9732 23.9223 13.006 23.9169 13.0497C23.884 13.2193 23.8512 13.3834 23.8239 13.5639C23.791 13.7827 23.7637 14.0234 23.7637 14.2641C23.7582 14.1219 23.7637 13.9961 23.7692 13.8757L23.791 13.7171C23.7965 13.6624 23.7965 13.6077 23.8129 13.5475C23.8403 13.3178 23.884 13.0771 23.9551 12.8309C23.9551 12.8255 23.9551 12.82 23.9606 12.82V12.8091C23.9661 12.7762 23.9716 12.7544 23.9825 12.727C23.988 12.7051 23.9934 12.6778 24.0044 12.6614C24.0044 12.6559 24.0098 12.6395 24.0098 12.634C24.0317 12.5684 24.0481 12.5137 24.07 12.4535C24.0974 12.3715 24.1247 12.3058 24.1521 12.2347C24.1794 12.1636 24.2122 12.087 24.2451 12.0159C24.256 11.9831 24.2779 11.9503 24.2943 11.9174C24.3052 11.8956 24.3162 11.8682 24.3326 11.8518C24.3326 11.8627 24.3271 11.8737 24.3216 11.8846C24.3107 11.9174 24.2943 11.9448 24.2833 11.9776H24.2615Z" fill="var(--fill-0, white)"/>
<path id="Vector_34" d="M24.8517 11.0368C24.7642 11.1352 24.6766 11.2392 24.6055 11.3486C24.5563 11.4142 24.5125 11.4798 24.4633 11.5509C24.4961 11.4962 24.5344 11.4361 24.5727 11.3814C24.6329 11.2884 24.6985 11.1954 24.7751 11.1079C24.8845 10.9821 25.0048 10.8727 25.1307 10.7578C25.0322 10.8453 24.9447 10.9328 24.8571 11.0313L24.8517 11.0368Z" fill="var(--fill-0, white)"/>
<path id="Vector_35" d="M29.8677 12.0159C29.8021 11.9557 29.7364 11.8955 29.6653 11.8354C29.5176 11.6932 29.3754 11.5455 29.2332 11.4032C29.091 11.2556 28.9433 11.1079 28.7901 10.9602C28.8612 11.0258 28.9378 11.0914 29.0034 11.1626C29.091 11.2501 29.1785 11.3376 29.266 11.4306C29.441 11.6056 29.6161 11.7861 29.8021 11.9448C29.8294 11.9721 29.8513 11.994 29.8732 12.0104C29.8786 12.0159 29.8786 12.0214 29.8841 12.0323C29.8786 12.0268 29.8732 12.0214 29.8622 12.0214L29.8677 12.0159Z" fill="var(--fill-0, white)"/>
<path id="Vector_36" d="M25.0928 8.83765C25.0928 8.83765 25.1529 8.81577 25.1803 8.8103H25.2022C25.1639 8.81577 25.131 8.83218 25.0873 8.84312C25.0654 8.84859 25.049 8.84859 25.0271 8.85406C25.049 8.84859 25.0763 8.84312 25.0928 8.83218V8.83765Z" fill="var(--fill-0, white)"/>
<path id="Vector_37" d="M24.6932 8.94726C24.7424 8.93632 24.7807 8.91991 24.8245 8.90897C24.8464 8.9035 24.8737 8.89803 24.8901 8.89803L24.8245 8.91991H24.819C24.7807 8.93085 24.7315 8.94726 24.6932 8.9582V8.94726Z" fill="var(--fill-0, white)"/>
<path id="Vector_38" d="M23.5281 9.32467C23.5664 9.31372 23.6156 9.29731 23.6539 9.28637C23.4132 9.36843 23.1725 9.45595 22.9318 9.538C23.1233 9.46689 23.3257 9.39031 23.5281 9.32467Z" fill="var(--fill-0, white)"/>
<path id="Vector_39" d="M13.8081 15.1994C14.0597 14.9696 14.3168 14.7454 14.5685 14.532C14.4536 14.6414 14.3332 14.7399 14.2184 14.8438C13.8956 15.1228 13.5674 15.4182 13.2447 15.6917C13.1627 15.7573 13.0915 15.823 13.0095 15.8831C13.2775 15.6534 13.5456 15.4291 13.8027 15.1939L13.8081 15.1994Z" fill="var(--fill-0, white)"/>
<path id="Vector_40" d="M31.4438 16.5673C31.4438 16.5673 31.4494 16.6004 31.4494 16.617C31.4218 16.5066 31.4218 16.4845 31.4438 16.5673Z" fill="var(--fill-0, white)"/>
<path id="Vector_41" d="M25.0871 15.8503C25.0871 15.8503 25.1473 15.8448 25.1801 15.8394C25.202 15.8394 25.2293 15.8339 25.2457 15.8284C25.2184 15.8394 25.191 15.8503 25.1637 15.8558C25.0762 15.8777 24.9886 15.8831 24.9011 15.8777C24.8464 15.8722 24.8081 15.8503 24.7534 15.8394C24.8628 15.8667 24.9668 15.8722 25.0816 15.8613L25.0871 15.8503Z" fill="var(--fill-0, white)"/>
<path id="Vector_42" d="M24.2615 11.9776C24.2341 12.0268 24.2122 12.0706 24.1958 12.1198C24.1849 12.1472 24.1739 12.1745 24.1685 12.2019C24.1466 12.2347 24.1357 12.2675 24.1302 12.3003C24.1028 12.3605 24.081 12.4262 24.0645 12.4918C24.0591 12.5027 24.0591 12.5192 24.0536 12.5301C24.0536 12.5301 24.0481 12.5574 24.0427 12.5684C24.0208 12.6286 24.0098 12.6887 23.988 12.7489C23.977 12.7872 23.9661 12.8309 23.9551 12.8747V12.8856C23.9551 12.8856 23.9442 12.9239 23.9442 12.9403C23.9333 12.9732 23.9223 13.006 23.9169 13.0497C23.884 13.2193 23.8512 13.3834 23.8239 13.5639C23.791 13.7827 23.7637 14.0234 23.7637 14.2641C23.7582 14.1219 23.7637 13.9961 23.7692 13.8757L23.791 13.7171C23.7965 13.6624 23.7965 13.6077 23.8129 13.5475C23.8403 13.3178 23.884 13.0771 23.9551 12.8309C23.9551 12.8255 23.9551 12.82 23.9606 12.82V12.8091C23.9661 12.7762 23.9716 12.7544 23.9825 12.727C23.988 12.7051 23.9934 12.6778 24.0044 12.6614C24.0044 12.6559 24.0098 12.6395 24.0098 12.634C24.0317 12.5684 24.0481 12.5137 24.07 12.4535C24.0974 12.3715 24.1247 12.3058 24.1521 12.2347C24.1794 12.1636 24.2122 12.087 24.2451 12.0159C24.256 11.9831 24.2779 11.9503 24.2943 11.9174C24.3052 11.8956 24.3162 11.8682 24.3326 11.8518C24.3326 11.8627 24.3271 11.8737 24.3216 11.8846C24.3107 11.9174 24.2943 11.9448 24.2833 11.9776H24.2615Z" fill="var(--fill-0, white)"/>
<path id="Vector_43" d="M24.8517 11.0368C24.7642 11.1352 24.6766 11.2392 24.6055 11.3486C24.5563 11.4142 24.5125 11.4798 24.4633 11.5509C24.4961 11.4962 24.5344 11.4361 24.5727 11.3814C24.6329 11.2884 24.6985 11.1954 24.7751 11.1079C24.8845 10.9821 25.0048 10.8727 25.1307 10.7578C25.0322 10.8453 24.9447 10.9328 24.8571 11.0313L24.8517 11.0368Z" fill="var(--fill-0, white)"/>
<path id="Vector_44" d="M29.8677 12.0159C29.8021 11.9557 29.7364 11.8955 29.6653 11.8354C29.5176 11.6932 29.3754 11.5455 29.2332 11.4032C29.091 11.2556 28.9433 11.1079 28.7901 10.9602C28.8612 11.0258 28.9378 11.0914 29.0034 11.1626C29.091 11.2501 29.1785 11.3376 29.266 11.4306C29.441 11.6056 29.6161 11.7861 29.8021 11.9448C29.8294 11.9721 29.8513 11.994 29.8732 12.0104C29.8786 12.0159 29.8786 12.0214 29.8841 12.0323C29.8786 12.0268 29.8732 12.0214 29.8622 12.0214L29.8677 12.0159Z" fill="var(--fill-0, white)"/>
<path id="Vector_45" d="M31.4927 12.7981C31.334 12.7707 31.1809 12.7379 31.0222 12.6832C31.2684 12.7543 31.531 12.8036 31.799 12.8254C31.7005 12.8254 31.5911 12.8145 31.4927 12.7981Z" fill="var(--fill-0, white)"/>
<path id="Vector_46" d="M33.6473 12.53C33.3793 12.6395 33.0948 12.716 32.7994 12.7653C33.0456 12.716 33.2863 12.6504 33.5215 12.5629C33.6199 12.53 33.7239 12.4808 33.8169 12.4425C33.7567 12.4699 33.7075 12.5027 33.6473 12.53Z" fill="var(--fill-0, white)"/>
<path id="Vector_47" d="M25.0871 15.8503C25.0871 15.8503 25.1473 15.8448 25.1801 15.8394C25.202 15.8394 25.2293 15.8339 25.2457 15.8284C25.2184 15.8394 25.191 15.8503 25.1637 15.8558C25.0762 15.8777 24.9886 15.8831 24.9011 15.8777C24.8464 15.8722 24.8081 15.8503 24.7534 15.8394C24.8628 15.8667 24.9668 15.8722 25.0816 15.8613L25.0871 15.8503Z" fill="var(--fill-0, white)"/>
<path id="Vector_48" d="M24.2615 11.9776C24.2341 12.0268 24.2122 12.0706 24.1958 12.1198C24.1849 12.1472 24.1739 12.1745 24.1685 12.2019C24.1466 12.2347 24.1357 12.2675 24.1302 12.3003C24.1028 12.3605 24.081 12.4262 24.0645 12.4918C24.0591 12.5027 24.0591 12.5192 24.0536 12.5301C24.0536 12.5301 24.0481 12.5574 24.0427 12.5684C24.0208 12.6286 24.0098 12.6887 23.988 12.7489C23.977 12.7872 23.9661 12.8309 23.9551 12.8747V12.8856C23.9551 12.8856 23.9442 12.9239 23.9442 12.9403C23.9333 12.9732 23.9223 13.006 23.9169 13.0497C23.884 13.2193 23.8512 13.3834 23.8239 13.5639C23.791 13.7827 23.7637 14.0234 23.7637 14.2641C23.7582 14.1219 23.7637 13.9961 23.7692 13.8757L23.791 13.7171C23.7965 13.6624 23.7965 13.6077 23.8129 13.5475C23.8403 13.3178 23.884 13.0771 23.9551 12.8309C23.9551 12.8255 23.9551 12.82 23.9606 12.82V12.8091C23.9661 12.7762 23.9716 12.7544 23.9825 12.727C23.988 12.7051 23.9934 12.6778 24.0044 12.6614C24.0044 12.6559 24.0098 12.6395 24.0098 12.634C24.0317 12.5684 24.0481 12.5137 24.07 12.4535C24.0974 12.3715 24.1247 12.3058 24.1521 12.2347C24.1794 12.1636 24.2122 12.087 24.2451 12.0159C24.256 11.9831 24.2779 11.9503 24.2943 11.9174C24.3052 11.8956 24.3162 11.8682 24.3326 11.8518C24.3326 11.8627 24.3271 11.8737 24.3216 11.8846C24.3107 11.9174 24.2943 11.9448 24.2833 11.9776H24.2615Z" fill="var(--fill-0, white)"/>
<path id="Vector_49" d="M24.8517 11.0368C24.7642 11.1352 24.6766 11.2392 24.6055 11.3486C24.5563 11.4142 24.5125 11.4798 24.4633 11.5509C24.4961 11.4962 24.5344 11.4361 24.5727 11.3814C24.6329 11.2884 24.6985 11.1954 24.7751 11.1079C24.8845 10.9821 25.0048 10.8727 25.1307 10.7578C25.0322 10.8453 24.9447 10.9328 24.8571 11.0313L24.8517 11.0368Z" fill="var(--fill-0, white)"/>
<path id="Vector_50" d="M29.8677 12.0159C29.8021 11.9557 29.7364 11.8955 29.6653 11.8354C29.5176 11.6932 29.3754 11.5455 29.2332 11.4032C29.091 11.2556 28.9433 11.1079 28.7901 10.9602C28.8612 11.0258 28.9378 11.0914 29.0034 11.1626C29.091 11.2501 29.1785 11.3376 29.266 11.4306C29.441 11.6056 29.6161 11.7861 29.8021 11.9448C29.8294 11.9721 29.8513 11.994 29.8732 12.0104C29.8786 12.0159 29.8786 12.0214 29.8841 12.0323C29.8786 12.0268 29.8732 12.0214 29.8622 12.0214L29.8677 12.0159Z" fill="var(--fill-0, white)"/>
<path id="Vector_51" d="M23.8123 13.5694C23.7795 13.7882 23.7521 14.0289 23.7521 14.2696C23.7467 14.1274 23.7521 14.0015 23.7576 13.8812L23.7795 13.7226C23.785 13.6679 23.785 13.6132 23.8014 13.553C23.8287 13.3233 23.8725 13.0826 23.9436 12.8364C23.9436 12.8309 23.9436 12.8255 23.9491 12.8255V12.8145C23.9545 12.7817 23.96 12.7598 23.9709 12.7325C23.9764 12.7106 23.9819 12.6833 23.9928 12.6668C23.9928 12.6614 23.9983 12.645 23.9983 12.6395C24.0202 12.5739 24.0366 12.5192 24.0585 12.459C24.0858 12.3769 24.1132 12.3113 24.1405 12.2402C24.1679 12.1691 24.2007 12.0925 24.2335 12.0214C24.2444 11.9886 24.2663 11.9557 24.2827 11.9229C24.2937 11.901 24.3046 11.8737 24.321 11.8573C24.321 11.8682 24.3156 11.8792 24.3101 11.8901C24.2991 11.9229 24.2827 11.9503 24.2718 11.9831C24.2444 12.0323 24.2226 12.0761 24.2062 12.1253C24.1952 12.1527 24.1843 12.18 24.1788 12.2074C24.1569 12.2402 24.146 12.273 24.1405 12.3058C24.1132 12.366 24.0913 12.4316 24.0749 12.4973C24.0694 12.5082 24.0694 12.5246 24.0639 12.5356C24.0639 12.5356 24.0585 12.5629 24.053 12.5739C24.0311 12.634 24.0202 12.6942 23.9983 12.7544C23.9873 12.7927 23.9764 12.8364 23.9655 12.8802V12.8911C23.9655 12.8911 23.9545 12.9294 23.9545 12.9458C23.9436 12.9786 23.9326 13.0115 23.9272 13.0552C23.8944 13.2248 23.8615 13.3889 23.8342 13.5694H23.8123Z" fill="var(--fill-0, white)"/>
<path id="Vector_52" d="M25.1691 15.8505C25.0816 15.8723 24.9941 15.8778 24.9066 15.8723C24.8519 15.8669 24.8136 15.845 24.7589 15.8341C24.8683 15.8614 24.9722 15.8669 25.0871 15.8559C25.1144 15.8559 25.1473 15.8505 25.1801 15.845C25.202 15.845 25.2293 15.8395 25.2457 15.8341C25.2184 15.845 25.191 15.8559 25.1637 15.8614L25.1691 15.8505Z" fill="var(--fill-0, white)"/>
<path id="Vector_53" d="M25.0871 15.8503C25.0871 15.8503 25.1473 15.8448 25.1801 15.8394C25.202 15.8394 25.2293 15.8339 25.2457 15.8284C25.2184 15.8394 25.191 15.8503 25.1637 15.8558C25.0762 15.8777 24.9886 15.8831 24.9011 15.8777C24.8464 15.8722 24.8081 15.8503 24.7534 15.8394C24.8628 15.8667 24.9668 15.8722 25.0816 15.8613L25.0871 15.8503Z" fill="var(--fill-0, white)"/>
<path id="Vector_54" d="M24.2615 11.9776C24.2341 12.0268 24.2122 12.0706 24.1958 12.1198C24.1849 12.1472 24.1739 12.1745 24.1685 12.2019C24.1466 12.2347 24.1357 12.2675 24.1302 12.3003C24.1028 12.3605 24.081 12.4262 24.0645 12.4918C24.0591 12.5027 24.0591 12.5192 24.0536 12.5301C24.0536 12.5301 24.0481 12.5574 24.0427 12.5684C24.0208 12.6286 24.0098 12.6887 23.988 12.7489C23.977 12.7872 23.9661 12.8309 23.9551 12.8747V12.8856C23.9551 12.8856 23.9442 12.9239 23.9442 12.9403C23.9333 12.9732 23.9223 13.006 23.9169 13.0497C23.884 13.2193 23.8512 13.3834 23.8239 13.5639C23.791 13.7827 23.7637 14.0234 23.7637 14.2641C23.7582 14.1219 23.7637 13.9961 23.7692 13.8757L23.791 13.7171C23.7965 13.6624 23.7965 13.6077 23.8129 13.5475C23.8403 13.3178 23.884 13.0771 23.9551 12.8309C23.9551 12.8255 23.9551 12.82 23.9606 12.82V12.8091C23.9661 12.7762 23.9716 12.7544 23.9825 12.727C23.988 12.7051 23.9934 12.6778 24.0044 12.6614C24.0044 12.6559 24.0098 12.6395 24.0098 12.634C24.0317 12.5684 24.0481 12.5137 24.07 12.4535C24.0974 12.3715 24.1247 12.3058 24.1521 12.2347C24.1794 12.1636 24.2122 12.087 24.2451 12.0159C24.256 11.9831 24.2779 11.9503 24.2943 11.9174C24.3052 11.8956 24.3162 11.8682 24.3326 11.8518C24.3326 11.8627 24.3271 11.8737 24.3216 11.8846C24.3107 11.9174 24.2943 11.9448 24.2833 11.9776H24.2615Z" fill="var(--fill-0, white)"/>
<path id="Vector_55" d="M24.8517 11.0368C24.7642 11.1352 24.6766 11.2392 24.6055 11.3486C24.5563 11.4142 24.5125 11.4798 24.4633 11.5509C24.4961 11.4962 24.5344 11.4361 24.5727 11.3814C24.6329 11.2884 24.6985 11.1954 24.7751 11.1079C24.8845 10.9821 25.0048 10.8727 25.1307 10.7578C25.0322 10.8453 24.9447 10.9328 24.8571 11.0313L24.8517 11.0368Z" fill="var(--fill-0, white)"/>
<path id="Vector_56" d="M29.8677 12.0159C29.8021 11.9557 29.7364 11.8955 29.6653 11.8354C29.5176 11.6932 29.3754 11.5455 29.2332 11.4032C29.091 11.2556 28.9433 11.1079 28.7901 10.9602C28.8612 11.0258 28.9378 11.0914 29.0034 11.1626C29.091 11.2501 29.1785 11.3376 29.266 11.4306C29.441 11.6056 29.6161 11.7861 29.8021 11.9448C29.8294 11.9721 29.8513 11.994 29.8732 12.0104C29.8786 12.0159 29.8786 12.0214 29.8841 12.0323C29.8786 12.0268 29.8732 12.0214 29.8622 12.0214L29.8677 12.0159Z" fill="var(--fill-0, white)"/>
</g>
<g id="Group_4">
<path id="Vector_57" d="M29.1622 15.5276C29.1622 15.5276 29.1512 15.5057 29.1403 15.5002L29.0856 15.451C28.8504 15.4291 28.6261 15.3689 28.4182 15.2595C28.5167 15.3471 28.6152 15.4291 28.7082 15.5166C28.9707 15.7573 29.2005 16.0253 29.3427 16.37C29.6052 16.9826 29.7311 17.7539 29.7037 18.5799C29.6928 18.9901 29.649 19.3074 29.5724 19.5973C29.4794 19.9364 29.2935 20.292 29.02 20.6311C27.9642 21.9822 26.1372 22.5839 23.6155 22.4144C21.3455 22.2612 19.2778 21.5884 17.6368 20.478C17.418 20.3303 17.2101 20.1498 17.0077 19.9857L16.8874 19.8872C16.4662 19.5317 16.0395 19.1761 15.6183 18.826C15.4378 18.6729 15.2573 18.5197 15.0768 18.3665C14.5845 17.9508 14.0703 17.5241 13.578 17.0811L13.9937 16.7912C14.4805 16.452 15.0275 16.0636 15.5581 15.6807C15.8371 15.4783 16.1106 15.265 16.3786 15.0681C16.6795 14.8329 16.9913 14.5977 17.3086 14.3789C18.1509 13.7826 19.0152 13.2684 19.8631 12.8363C21.1376 12.1799 22.5379 11.6657 24.086 11.2719C24.0969 11.2719 24.1078 11.2664 24.1188 11.2664C24.1899 11.2445 24.261 11.2336 24.3321 11.2172C24.3649 11.1023 24.3978 10.9874 24.436 10.878C24.3759 10.8944 24.3157 10.9054 24.2501 10.9218C24.2227 10.9273 24.2008 10.9327 24.1789 10.9437C24.0969 10.9655 24.0094 10.982 23.9328 11.0038C22.7841 11.3047 21.8432 11.611 20.9735 11.9884C20.0436 12.3823 19.1137 12.8637 18.2111 13.4161C17.4015 13.9248 16.6631 14.4719 15.8535 15.0954C15.4214 15.4236 14.9674 15.7464 14.5243 16.0527L14.3383 16.184C14.0976 16.359 13.8515 16.5231 13.6053 16.6982C13.578 16.72 13.5397 16.7365 13.5069 16.7583C13.4139 16.813 13.3045 16.8787 13.2388 16.9498C13.2115 16.9881 13.2005 17.0318 13.2005 17.0756C13.2224 17.2014 13.381 17.3382 13.567 17.4749C13.5944 17.4968 13.6163 17.5132 13.6327 17.5296C14.0265 17.8688 14.4368 18.2188 14.8361 18.558L15.3448 18.9846C15.9574 19.5043 16.5865 20.0458 17.232 20.56C17.7626 20.9812 18.4299 21.3532 19.3325 21.7416C20.2897 22.1518 21.34 22.4363 22.4559 22.5949C23.1779 22.7043 23.8507 22.7535 24.4743 22.7535C26.1536 22.7535 27.4774 22.3706 28.4894 21.5993C29.2333 21.0305 29.7365 20.3084 29.917 19.5699C30.0702 18.9081 30.0866 18.1477 29.9444 17.3053C29.8459 16.731 29.6709 16.0199 29.1841 15.5276H29.1622Z" fill="var(--fill-0, white)"/>
<path id="Vector_58" d="M27.0395 14.16C27.0067 14.1928 26.9794 14.2311 26.9465 14.2639C26.7715 14.4718 26.5964 14.6633 26.4323 14.8438C26.3995 14.8821 26.3612 14.9258 26.3229 14.9641C26.23 15.0571 26.137 15.1501 26.044 15.2431C25.9291 15.358 25.8088 15.4619 25.7048 15.5822C25.6829 15.6041 25.672 15.6151 25.6556 15.6424C25.6337 15.6533 25.6173 15.6807 25.6009 15.6971L25.59 15.708C25.5353 15.7682 25.4806 15.8284 25.4204 15.8831C25.4204 15.8831 25.4149 15.8831 25.4149 15.8886C25.3602 15.9487 25.2946 16.0034 25.2344 16.0472C25.218 16.0581 25.2071 16.0691 25.1906 16.0745C25.3165 16.08 25.4423 16.0855 25.5681 16.0855C25.59 16.0855 25.6118 16.0964 25.6337 16.0964C25.6611 16.0691 25.6939 16.0362 25.7212 16.0089C25.8306 15.8995 25.9291 15.7956 26.033 15.6862C26.126 15.5877 26.219 15.4838 26.312 15.3908L26.4542 15.2486C26.5144 15.1829 26.58 15.1173 26.6402 15.0462C26.8152 14.8602 26.9794 14.6742 27.1216 14.5046C27.1653 14.4609 27.1982 14.4171 27.2364 14.3734C27.2036 14.346 27.1708 14.3187 27.1435 14.2858C27.1052 14.2421 27.0723 14.1928 27.0395 14.1381V14.16Z" fill="var(--fill-0, white)"/>
<path id="Vector_59" d="M33.1771 12.7869C33.1169 12.8088 33.0513 12.8088 32.9857 12.7978C32.9638 12.8416 32.9528 12.8854 32.931 12.9291C32.931 12.9346 32.9255 12.9346 32.9255 12.9401L32.9036 12.9674C32.8489 13.0768 32.7887 13.1972 32.7231 13.3066C32.6301 13.4652 32.5207 13.6184 32.3949 13.7387C32.3402 13.7879 32.28 13.8317 32.2198 13.87C32.105 13.952 31.9792 14.0122 31.8479 14.0724C31.7768 14.0997 31.6947 14.1271 31.6127 14.1435C31.361 14.2146 31.093 14.2584 30.825 14.2638C30.7265 14.2693 30.6226 14.2638 30.5241 14.2529C30.2452 14.2474 29.9716 14.1927 29.731 14.0997C29.3645 13.9684 29.0691 13.7059 28.8065 13.4105C28.6971 13.3011 28.6041 13.1972 28.5166 13.0878C28.5057 13.0768 28.4893 13.0549 28.4783 13.0385C28.4127 12.9674 28.347 12.8854 28.2869 12.8088C28.2595 12.7814 28.2376 12.7541 28.2212 12.7267C28.1501 12.6447 28.0735 12.5681 28.0024 12.4915C27.893 12.3821 27.7891 12.2837 27.6688 12.1907C27.3953 11.9719 27.078 11.8078 26.7115 11.7585C26.1317 11.671 25.4807 11.8734 24.972 12.2891C24.8845 12.3548 24.8024 12.4314 24.7313 12.5079C24.704 12.5353 24.6821 12.5626 24.6602 12.59C24.4797 12.7978 24.332 13.0166 24.2062 13.2464C24.1515 13.3558 24.0968 13.4543 24.053 13.5582C23.971 13.7496 23.9108 13.9466 23.8616 14.1325C23.8233 14.2638 23.7905 14.3951 23.7686 14.5154C23.7467 14.5866 23.7358 14.6577 23.7303 14.7233C23.7194 14.7944 23.7084 14.871 23.703 14.953C23.703 14.953 23.703 14.9585 23.703 14.964C23.785 15.0132 23.8671 15.0734 23.9327 15.15C23.9601 15.1828 23.9765 15.2156 24.0038 15.2484C24.0038 15.2101 23.9929 15.1719 23.9929 15.139C23.9983 15.0515 24.0038 14.9695 24.0202 14.8874C24.0202 14.8491 24.0257 14.8054 24.0312 14.7671C24.0421 14.685 24.064 14.6139 24.0804 14.5373C24.0913 14.499 24.1023 14.4498 24.1132 14.4115C24.146 14.2638 24.1843 14.1161 24.239 13.9848C24.25 13.9356 24.2718 13.8919 24.2883 13.8536C24.4961 13.2902 24.7915 12.858 25.1635 12.5572C25.1853 12.5298 25.2127 12.5079 25.2346 12.4915C25.3768 12.3931 25.5245 12.3055 25.6667 12.2399C26.1262 12.0375 26.624 12.0211 27.0452 12.1907C27.1053 12.218 27.1655 12.2454 27.2257 12.2782C27.3241 12.3384 27.4281 12.404 27.5156 12.4806C27.707 12.6337 27.8821 12.8143 28.0462 13.0112C28.1118 13.0823 28.172 13.1589 28.2322 13.23C28.2595 13.2573 28.2814 13.2847 28.3033 13.312C28.3088 13.323 28.3252 13.3394 28.3306 13.3449C28.4017 13.4324 28.4783 13.5199 28.5494 13.5965C28.5768 13.6238 28.5987 13.6512 28.6205 13.6676C29.0691 14.138 29.4958 14.3951 30.0099 14.51C30.1248 14.5373 30.2397 14.5483 30.3491 14.5647C30.4585 14.5756 30.5624 14.5866 30.6718 14.5866C31.0602 14.592 31.4486 14.5373 31.8096 14.4279C31.919 14.3951 32.012 14.3568 32.105 14.3076C32.2363 14.2474 32.3511 14.1818 32.4605 14.0997C32.5207 14.0614 32.5809 14.0122 32.6356 13.9575C32.7778 13.8262 32.8872 13.6566 32.9911 13.4871C33.0568 13.3722 33.1169 13.2573 33.1771 13.1479L33.188 13.1206C33.2592 12.9893 33.3084 12.8471 33.3631 12.7103C33.3084 12.7431 33.2482 12.765 33.188 12.7924L33.1771 12.7869Z" fill="var(--fill-0, white)"/>
</g>
<g id="Group_5">
<path id="Vector_60" d="M30.4864 14.5046L30.4967 14.515H30.5019L30.4812 14.5046H30.4864Z" fill="var(--fill-0, white)"/>
<path id="Vector_61" d="M26.7829 15.2104L26.6407 15.0627L26.5586 14.9807C26.5094 14.9315 26.4657 14.8822 26.4274 14.8385C26.4164 14.8275 26.4055 14.8166 26.3945 14.8057C26.3672 14.7838 26.3398 14.7674 26.3016 14.7674C26.2633 14.7674 26.2304 14.7783 26.2031 14.8057C25.9624 15.0463 25.7327 15.2542 25.5139 15.4457C25.4427 15.5113 25.3662 15.5715 25.2951 15.6316C25.2021 15.7027 25.1145 15.7739 25.027 15.8504C24.9997 15.8778 24.9669 15.9051 24.934 15.9325C24.9231 15.9434 24.9122 15.9489 24.9012 15.9598C24.9395 15.9762 24.9723 15.9981 25.0051 16.0145C25.0544 16.0364 25.1638 16.0911 25.1747 16.0802C25.213 16.0528 25.2458 16.02 25.2896 15.9872C25.3333 15.9544 25.3716 15.9215 25.4099 15.8887C25.4099 15.8833 25.4154 15.8833 25.4154 15.8833C25.4482 15.8559 25.4756 15.8286 25.5084 15.8012C25.5467 15.7684 25.5904 15.7356 25.6287 15.7027C25.8694 15.4949 26.0992 15.2816 26.2906 15.0956C26.3453 15.1503 26.4 15.205 26.4492 15.2651C26.5969 15.4183 26.7501 15.5715 26.8923 15.7246L26.9798 15.8121C27.2424 16.0856 27.4831 16.3427 27.587 16.6983C27.7347 17.1578 27.7675 17.7157 27.6964 18.3065C27.6636 18.6019 27.6089 18.8261 27.5268 19.0231C27.4339 19.2638 27.2807 19.5044 27.0674 19.7342C26.214 20.6313 24.8629 20.9321 23.0578 20.6367C21.4332 20.3632 19.9891 19.7396 18.8896 18.8261C18.7365 18.7058 18.5997 18.5636 18.4684 18.4268L18.2824 18.2354C18.0363 17.9892 17.7956 17.7431 17.5495 17.4915L17.2103 17.1359C16.8821 16.8022 16.543 16.4631 16.2202 16.113L16.5156 15.9434C16.9259 15.7137 17.3252 15.4894 17.7245 15.2542C17.9378 15.1284 18.1512 14.9916 18.359 14.8658C18.5942 14.7181 18.8349 14.5704 19.0756 14.4337C19.7265 14.0672 20.3829 13.7499 21.0284 13.4983C21.9419 13.1373 22.932 12.8747 24.0151 12.6997C24.0151 12.6833 24.0041 12.6669 24.0041 12.645C24.0041 12.5629 24.0369 12.4863 24.0807 12.4152C24.0807 12.4152 24.0807 12.4152 24.0752 12.4152C23.2274 12.5465 22.5272 12.7106 21.8708 12.9185C21.1761 13.1373 20.465 13.4217 19.7812 13.7609C19.1577 14.0672 18.5833 14.4173 17.9542 14.8111C17.6206 15.019 17.265 15.2214 16.9259 15.4074L16.7836 15.4894C16.5977 15.6043 16.4117 15.7027 16.2202 15.8121C16.1929 15.8231 16.1655 15.8395 16.1382 15.8504C16.0671 15.8833 15.985 15.9215 15.9248 15.9762C15.8975 16.0036 15.8866 16.0364 15.8866 16.0747C15.8866 16.1841 16.0014 16.2935 16.1272 16.4084C16.1491 16.4193 16.1601 16.4412 16.1655 16.4467C16.4336 16.7202 16.7016 16.9991 16.9696 17.2727L17.3088 17.6227C17.7081 18.0439 18.1293 18.4706 18.5505 18.8863C18.906 19.2364 19.3655 19.5482 19.9946 19.8928C20.6564 20.2538 21.4004 20.5328 22.1935 20.7297C22.9758 20.9212 23.6814 21.0196 24.3214 21.0196C25.2349 21.0196 26.0007 20.8282 26.6352 20.4289C27.2151 20.0679 27.6362 19.581 27.8168 19.045C27.9754 18.5745 28.0356 18.0275 27.9973 17.4094C27.9644 16.9773 27.8824 16.4357 27.5487 16.0419C27.308 15.752 27.04 15.4785 26.7884 15.2159L26.7829 15.2104Z" fill="var(--fill-0, white)"/>
<path id="Vector_62" d="M30.5299 14.2586C30.5025 14.3243 30.4642 14.3899 30.4205 14.461L30.4861 14.5102H30.508V14.5212L30.4861 14.5102L30.4041 14.4774C30.4041 14.4774 30.3712 14.5376 30.3439 14.5649C30.2454 14.7345 30.1306 14.8931 29.9829 14.9971C29.8352 15.1119 29.6273 15.1885 29.403 15.2323C29.228 15.2651 29.053 15.2815 28.8834 15.2651C28.6919 15.2596 28.495 15.2323 28.32 15.1721C28.227 15.1448 28.1395 15.1119 28.0574 15.0737C27.7347 14.9205 27.5104 14.6251 27.3025 14.3243C27.2807 14.2969 27.2533 14.2641 27.2369 14.2313C27.1986 14.1711 27.1548 14.1164 27.122 14.0617C27.1166 14.0617 27.1166 14.0562 27.1166 14.0562C26.8431 13.6678 26.5203 13.2959 26.039 13.1755C25.5467 13.0552 24.9723 13.2138 24.5347 13.5913C24.4417 13.6733 24.3487 13.7663 24.2721 13.8593C23.9713 14.2149 23.7908 14.6306 23.6923 14.9697C23.6759 15.008 23.6704 15.0463 23.6595 15.0791C23.7032 15.101 23.7415 15.1229 23.7744 15.1612C23.8126 15.2049 23.8509 15.2378 23.8892 15.2815C23.9111 15.194 23.933 15.1065 23.9603 15.0244C23.9713 14.9861 23.9877 14.9369 24.0096 14.8986C24.2229 14.3078 24.5292 13.8812 24.9231 13.6405C25.399 13.3451 25.9514 13.3396 26.3453 13.6186C26.586 13.7882 26.7665 14.0289 26.9415 14.275C26.9634 14.3078 26.9798 14.3352 27.0017 14.368C27.04 14.4282 27.0837 14.4829 27.122 14.5376C27.1548 14.5759 27.1822 14.6196 27.2095 14.6579C27.5104 15.0682 27.8331 15.3089 28.2106 15.4292C28.3692 15.4784 28.5388 15.5167 28.7029 15.5277C28.856 15.5495 29.0092 15.555 29.1569 15.5386C29.2827 15.5386 29.403 15.5167 29.5234 15.4894C29.775 15.4292 29.9938 15.3362 30.1579 15.1995C30.3439 15.0518 30.4861 14.8384 30.6119 14.6525L30.6229 14.6306C30.6229 14.6306 30.6447 14.5978 30.6557 14.5813C30.7104 14.4829 30.7651 14.379 30.8143 14.275C30.7159 14.2805 30.6119 14.275 30.5135 14.2641L30.5299 14.2586Z" fill="var(--fill-0, white)"/>
</g>
<path id="Vector_63" d="M25.4649 14.2093C25.0054 14.1381 24.5021 14.0889 23.9825 14.078C23.4519 14.067 23.0143 14.078 22.5985 14.1327C22.15 14.1874 21.6905 14.2804 21.242 14.4062C20.8317 14.5211 20.4488 14.6578 20.0276 14.8274C19.7979 14.9149 19.5572 14.9969 19.3329 15.0735L19.2454 15.1009C19.1251 15.1501 18.9992 15.1884 18.8734 15.2322C18.8625 15.2322 18.8406 15.2376 18.8242 15.2431C18.7695 15.254 18.7148 15.2705 18.671 15.2978C18.6437 15.3197 18.6328 15.347 18.6218 15.3799C18.6109 15.451 18.6601 15.5385 18.7367 15.6315C18.7422 15.6369 18.7476 15.6534 18.7586 15.6588C18.8844 15.8503 19.0102 16.0472 19.1469 16.2387L19.2946 16.4739C19.497 16.7747 19.7049 17.0865 19.9182 17.3874C20.0933 17.639 20.3339 17.8797 20.6731 18.1641C21.0341 18.4595 21.4498 18.7111 21.9093 18.919C22.604 19.2308 23.2167 19.3949 23.7691 19.3949C24.0755 19.3949 24.3708 19.3402 24.6389 19.2417C25.0327 19.0886 25.3008 18.9299 25.4758 18.6236C25.4922 18.5962 25.5524 18.4595 25.5633 18.4267C25.6235 18.3501 25.9408 17.6882 26.0119 16.8841C26.0392 16.4246 25.7548 16.1621 25.7329 16.1457C25.4649 15.9378 25.3555 15.8448 25.0437 15.6588C24.7045 15.451 24.4091 15.3033 24.1138 15.1829C24.0919 15.1775 24.0755 15.172 24.0536 15.161C23.9825 15.1228 23.9004 15.0954 23.8184 15.0681C23.5996 14.9805 23.3644 14.9149 23.1237 14.8602C22.8173 14.7781 22.4946 14.7344 22.1774 14.6852C22.0023 14.6633 21.8273 14.6305 21.6577 14.5976L21.5702 14.5867C21.5702 14.5867 21.5209 14.5812 21.4991 14.5758C21.6796 14.5211 21.8656 14.4828 22.0461 14.4499C22.8721 14.2913 23.7637 14.2585 24.7647 14.3515C25.5141 14.4226 26.1705 14.5648 26.7558 14.7727C26.7558 14.7508 26.7558 14.7344 26.7558 14.7125C26.7667 14.6578 26.7941 14.6031 26.8324 14.5593C26.4166 14.4117 25.9626 14.2913 25.4758 14.2093H25.4649ZM21.9421 14.8711C22.057 14.893 22.1719 14.9094 22.2813 14.9258C22.4016 14.9477 22.5274 14.9587 22.6532 14.986C22.9869 15.0462 23.3097 15.1282 23.6105 15.2267C23.6214 15.2322 23.6433 15.2376 23.6597 15.2486C23.7308 15.2705 23.8129 15.2978 23.8895 15.3306C24.2177 15.4564 24.5514 15.6205 24.885 15.8229C25.0382 15.905 25.1914 16.0034 25.3445 16.1128C25.3719 16.1238 25.3937 16.1402 25.4156 16.1621C25.4594 16.1949 25.8423 16.5942 25.7602 17.1357C25.6071 17.7921 25.5524 18.0164 25.3445 18.3829C25.0163 18.8479 25.1093 18.6455 24.8467 18.8916C24.6936 19.001 24.4802 19.0339 24.4201 19.0503C24.3326 19.0776 24.245 19.0886 24.1575 19.0995C24.1083 19.105 23.9497 19.0995 23.9114 19.0995C23.3589 19.1597 22.8173 18.8807 22.2813 18.2571C21.7944 17.6937 21.4717 17.0537 21.3568 16.4192C21.335 16.3316 21.3295 16.2441 21.324 16.1511V16.1128C21.3021 15.9323 21.2912 15.7463 21.2748 15.5658L21.2529 15.3306C21.242 15.1392 21.2256 14.9422 21.2146 14.7508L21.324 14.7727C21.5319 14.811 21.7343 14.8438 21.9367 14.8821L21.9421 14.8711ZM21.0068 14.7727V14.8C21.0286 14.9751 21.0341 15.1501 21.0451 15.3197L21.0669 15.533C21.0888 15.8065 21.1052 16.08 21.1326 16.3535C21.1599 16.6489 21.2639 16.9443 21.3459 17.1357C21.4717 17.4639 21.6468 17.7867 21.8765 18.0821C22.1828 18.5033 22.4891 18.8096 22.8119 19.012C22.697 18.9792 22.5767 18.9463 22.4563 18.8971C21.5209 18.558 20.7278 18.0219 20.1698 17.3491C20.0987 17.2616 20.0276 17.1631 19.962 17.0701L19.9292 17.0154C19.7869 16.8075 19.6557 16.6051 19.5189 16.4028L19.3384 16.1402C19.1907 15.9214 19.0375 15.6916 18.8898 15.4564L19.0922 15.3908C19.3439 15.3033 19.601 15.2158 19.8526 15.1282C20.0003 15.0735 20.1425 15.0188 20.2792 14.9587C20.4379 14.8985 20.591 14.8383 20.7551 14.7836C20.8372 14.7563 20.9138 14.7289 20.9958 14.7125C20.9958 14.7234 21.0013 14.7453 21.0013 14.7672L21.0068 14.7727Z" fill="var(--fill-0, white)"/>
</g>
</svg>
